<?xml version="1.0" encoding="UTF-8"?>
<svg id="Layer_2" data-name="Layer 2" xmlns="http://www.w3.org/2000/svg" viewBox="0 0 34.12 23.38">
  <defs>
    <style>
      .cls-1, .cls-2 {
        stroke-miterlimit: 3.86;
      }

      .cls-1, .cls-2, .cls-3, .cls-4 {
        fill: none;
      }

      .cls-1, .cls-4 {
        stroke: #6d4b33;
      }

      .cls-2, .cls-3 {
        stroke: #2b1000;
      }

      .cls-3, .cls-4 {
        stroke-miterlimit: 3.86;
        stroke-width: .5px;
      }

      .cls-5 {
        fill: #a68f6e;
      }

      .cls-5, .cls-6 {
        stroke-width: 0px;
      }

      .cls-6 {
        fill: #644217;
        fill-rule: evenodd;
      }
    </style>
  </defs>
  <g id="Layer_1-2" data-name="Layer 1">
    <g>
      <ellipse class="cls-5" cx="17.06" cy="11.69" rx="16.56" ry="11.19"/>
      <ellipse class="cls-1" cx="17.06" cy="11.69" rx="16.56" ry="11.19"/>
      <path class="cls-6" d="m25.31,16.59c-1.23-.24-2.55-1.03-4.65-.6l-.08-1.64c-.02-.32.22-.6.53-.62l2.53-.14c.17,0,.32.07.44.18l1.05.72c.07.1.13.22.14.36l.05,1.73Z"/>
      <path class="cls-2" d="m25.31,16.59c-1.23-.24-2.55-1.03-4.65-.6l-.08-1.64c-.02-.32.22-.6.53-.62l2.53-.14c.17,0,.32.07.44.18l1.05.72c.07.1.13.22.14.36l.05,1.73Z"/>
      <path class="cls-6" d="m20.1,10.92c-1.55-.91-2.72,1.22-4.49.04l-.33-1.14c-.01-.14.03-.29.12-.41l1.84-2.46c.19-.26.55-.3.79-.1l2,1.63c.13.11.19.27.22.44l.34,1.26c-.01.13-.04.26-.12.36l-.36.38Z"/>
      <path class="cls-2" d="m20.1,10.92c-1.55-.91-2.72,1.22-4.49.04l-.33-1.14c-.01-.14.03-.29.12-.41l1.84-2.46c.19-.26.55-.3.79-.1l2,1.63c.13.11.19.27.22.44l.34,1.26c-.01.13-.04.26-.12.36l-.36.38Z"/>
      <path class="cls-6" d="m10.8,5.84l-.27-.85c-.02-.14.02-.29.1-.42l1.75-2.52c.18-.26.54-.32.79-.13l2.05,1.56c.14.1.2.26.23.43l.38,1.25c0,.13-.03.26-.11.37l-.42.61c-1.42.23-1.87-.99-4.5-.3Z"/>
      <path class="cls-2" d="m10.8,5.84l-.27-.85c-.02-.14.02-.29.1-.42l1.75-2.52c.18-.26.54-.32.79-.13l2.05,1.56c.14.1.2.26.23.43l.38,1.25c0,.13-.03.26-.11.37l-.42.61c-1.42.23-1.87-.99-4.5-.3Z"/>
      <path class="cls-6" d="m10.27,14.09c-1.01-.25-2.1-.79-3.66-.67l-.67-1.3c-.15-.28-.1-.65.09-.81l1.62-1.33c.11-.09.24-.09.37-.05l1,.15c.09.06.18.13.24.25l1.41,2.73c.15.28.1.65-.09.81l-.3.22Z"/>
      <path class="cls-2" d="m10.27,14.09c-1.01-.25-2.1-.79-3.66-.67l-.67-1.3c-.15-.28-.1-.65.09-.81l1.62-1.33c.11-.09.24-.09.37-.05l1,.15c.09.06.18.13.24.25l1.41,2.73c.15.28.1.65-.09.81l-.3.22Z"/>
      <path class="cls-6" d="m25.07,12.24l-.15-3.01c-.02-.32.22-.6.53-.62l2.53-.14c.17,0,.32.07.44.18l1.05.72c.07.1.13.22.14.36l.03.51c-.98-.12-1.19,2.15-2.15,1.68-1.49-.59-1.5.49-2.41.32Z"/>
      <path class="cls-2" d="m25.07,12.24l-.15-3.01c-.02-.32.22-.6.53-.62l2.53-.14c.17,0,.32.07.44.18l1.05.72c.07.1.13.22.14.36l.03.51c-.98-.12-1.19,2.15-2.15,1.68-1.49-.59-1.5.49-2.41.32Z"/>
      <path class="cls-3" d="m16.76,11.27l-1.26-1.03c-.13-.1-.2-.26-.21-.41"/>
      <path class="cls-3" d="m20.24,8.92c0,.14-.03.27-.12.39l-1.01,1.35"/>
      <path class="cls-3" d="m8.02,9.93c.1.06.19.14.26.26l1.41,2.73c.15.28.1.65-.09.81l-.09.08"/>
      <path class="cls-3" d="m11.17,5.71l-.41-.31c-.13-.1-.21-.25-.23-.41"/>
      <path class="cls-3" d="m15.45,3.91c0,.14-.02.28-.11.39l-1.18,1.69"/>
      <path class="cls-3" d="m24.08,13.78c.08.11.15.23.16.38l.11,2.14"/>
      <path class="cls-4" d="m1.77,14.12c-.35-.56-.63-1.14-.84-1.75"/>
      <path class="cls-4" d="m4.7,17.25c-.64-.48-1.22-1.01-1.72-1.56"/>
      <path class="cls-4" d="m18.98,20.92c-.63.05-1.27.07-1.92.07-4.85,0-9.21-1.41-12.24-3.65"/>
      <path class="cls-4" d="m21.35,20.61c-.35.06-.7.12-1.06.17"/>
      <path class="cls-4" d="m22.75,20.32c-.16.04-.31.08-.47.11"/>
      <path class="cls-4" d="m32.59,13.7c-1.66,3.01-5.18,5.41-9.61,6.56"/>
      <path class="cls-4" d="m32.86,13.16c-.05.11-.11.22-.17.34"/>
      <path class="cls-3" d="m10.27,14.09c.53.13,1.04.18,1.58,0"/>
      <path class="cls-4" d="m33.4,11.62c-.05.21-.11.42-.18.63"/>
      <path class="cls-3" d="m15.3,6.14c.13-.02.26-.06.4-.1"/>
      <path class="cls-3" d="m10.13,6.07c.23-.08.45-.14.65-.2"/>
      <path class="cls-3" d="m28.48,8.69c.08.11.15.23.16.38l.1,1.93"/>
    </g>
  </g>
</svg>