<?xml version="1.0" encoding="UTF-8"?>
<svg id="Layer_2" data-name="Layer 2" xmlns="http://www.w3.org/2000/svg" viewBox="0 0 23.58 32.17">
  <defs>
    <style>
      .cls-1, .cls-2, .cls-3, .cls-4, .cls-5, .cls-6 {
        fill: none;
      }

      .cls-1, .cls-3 {
        stroke: #65694e;
      }

      .cls-1, .cls-4 {
        stroke-miterlimit: 3.86;
        stroke-width: .5px;
      }

      .cls-2 {
        stroke: #3a0012;
      }

      .cls-2, .cls-3, .cls-5, .cls-6 {
        stroke-miterlimit: 3.86;
      }

      .cls-7 {
        fill: #662034;
      }

      .cls-7, .cls-8, .cls-9, .cls-10 {
        stroke-width: 0px;
      }

      .cls-8 {
        fill: #fcd7cf;
      }

      .cls-8, .cls-9, .cls-10 {
        fill-rule: evenodd;
      }

      .cls-4, .cls-5 {
        stroke: #46495d;
      }

      .cls-9 {
        fill: #b16cad;
      }

      .cls-6 {
        stroke: #4c3437;
      }

      .cls-10 {
        fill: #dbd095;
      }
    </style>
  </defs>
  <g id="Layer_1-2" data-name="Layer 1">
    <g>
      <path class="cls-8" d="m.5,21.61v6.84c0,1.78,5.06,3.22,11.29,3.22s11.28-1.44,11.28-3.22v-6.43c-.31,1.71-5.25,3.06-11.3,3.06S.5,23.39.5,21.61Z"/>
      <path class="cls-6" d="m.5,21.61v6.84c0,1.78,5.06,3.22,11.29,3.22s11.28-1.44,11.28-3.22v-6.43c-.31,1.71-5.25,3.06-11.3,3.06S.5,23.39.5,21.61Z"/>
      <path class="cls-7" d="m23.08,19.04c0,1.78-5.07,3.22-11.3,3.22S.67,20.87.5,19.13v2.6c0,1.78,5.05,3.22,11.28,3.22s10.99-1.36,11.28-3.06v-2.85Z"/>
      <path class="cls-2" d="m23.08,19.04c0,1.78-5.07,3.22-11.3,3.22S.67,20.87.5,19.13v2.6c0,1.78,5.05,3.22,11.28,3.22s10.99-1.36,11.28-3.06v-2.85Z"/>
      <path class="cls-10" d="m23.08,19.16c0,1.78-5.07,3.22-11.3,3.22S.67,20.99.5,19.25v-2.12c.01-1.78,5.05-3.22,11.28-3.22s11.28,1.44,11.28,3.22l.02,2.03Z"/>
      <path class="cls-3" d="m23.08,19.16c0,1.78-5.07,3.22-11.3,3.22S.67,20.99.5,19.25v-2.12c.01-1.78,5.05-3.22,11.28-3.22s11.28,1.44,11.28,3.22l.02,2.03Z"/>
      <path class="cls-1" d="m3.28,19.26c-.46-.15-.87-.31-1.22-.48"/>
      <path class="cls-1" d="m21.36,18.85c-2,.91-5.54,1.51-9.58,1.51-2.85,0-5.45-.3-7.43-.8"/>
      <path class="cls-9" d="m19.88,8.94c1.8.36,2.51,1.93,2.08,3.22.28,2.23-.57,3.72-2.54,4.48-2.6,2.09-5.91,2.68-9.92,1.78-4.13-.12-6.79-1.48-7.97-4.08-.83-1.22-1.01-2.39-.55-3.49.02-1.75.97-3.04,2.56-3.64.33-1.06,1.06-1.7,2.18-1.92.1-2.11,3.04-4.5,6.38-4.99-1.53,1.77-1.1,2.03,1.3,2.45,2.23.04,3.67.93,3.74,2.29.08.09.07.2.16.32,1.15.23,1.84,1.13,1.76,1.96.43.38.81.96.82,1.61Z"/>
      <path class="cls-5" d="m17.39,5.43c.57.61-.24,2.22-1.34,2.57-1.25,1.29-4.77,1.88-6.86.64C2.75,7.18,7.06,1.46,12.35.69c-1.53,1.77-1.1,2.03,1.3,2.45,2.23.04,3.67.93,3.74,2.29Z"/>
      <path class="cls-4" d="m9.18,8.63c-3.71-3.23-1.27-6.33,3.05-7.89"/>
      <path class="cls-4" d="m15.89,8.04c-7.81,1.4-6.65-6.39-3.55-7.3"/>
      <path class="cls-4" d="m17.38,5.48c-5.03,1.98-8.08-2.88-5.16-4.69"/>
      <path class="cls-5" d="m17.52,5.8c1.15.23,1.87,1.08,1.79,1.91.73.64,1.1,2,.27,2.98.18,2.57-5.04,4.58-9.49,3.3-4.95-.31-7.1-3.03-6.49-5.4.13-1.65.92-2.62,2.36-2.91"/>
      <path class="cls-4" d="m19.33,7.76c-.75,1.53-5.64,3.58-9.49,1.18"/>
      <path class="cls-4" d="m19.52,10.69c-4.49,2.54-14.96-.36-13.61-4.99"/>
      <path class="cls-4" d="m10.26,14.02c-5.1-1.27-6.41-5.67-4.43-8.24"/>
      <path class="cls-5" d="m20.13,9.32c1.8.36,2.51,1.93,2.08,3.22.28,2.23-.57,3.72-2.54,4.48-2.6,2.09-5.91,2.68-9.92,1.78-4.13-.12-6.79-1.48-7.97-4.08-.83-1.22-1.01-2.39-.55-3.49.02-1.75.99-3.02,2.58-3.62"/>
      <path class="cls-4" d="m22.25,12.49c-.53,1.25-3.86,3.19-7.98,1.81"/>
      <path class="cls-4" d="m19.67,17.04c-5.72,1.32-9.64-.31-11.5-3.27"/>
      <path class="cls-4" d="m10.07,18.86c-3.61-1.14-5.23-2.82-4.48-6"/>
      <path class="cls-4" d="m3.55,8.55c-.79.43-1.8,1.36-2.31,2.68"/>
      <path class="cls-4" d="m1.95,15.08s-.77-3.01,1.83-4.45"/>
      <path class="cls-4" d="m22.24,11.34c-.26,1.67-3.85,4.34-7.97,2.96"/>
      <path class="cls-4" d="m21.77,15.47c-4.89,2.43-11.74,1.26-13.6-1.7"/>
      <path class="cls-4" d="m13.74,19.19c-3.4-.06-8.9-3.15-8.15-6.33"/>
      <path class="cls-4" d="m3.43,16.96s-1.7-5.74.35-6.33"/>
    </g>
  </g>
</svg>