<?xml version="1.0" encoding="UTF-8"?>
<svg id="Layer_2" data-name="Layer 2" xmlns="http://www.w3.org/2000/svg" viewBox="0 0 27.42 33.97">
  <defs>
    <style>
      .cls-1 {
        fill: #f6f2db;
      }

      .cls-1, .cls-2 {
        fill-rule: evenodd;
      }

      .cls-1, .cls-2, .cls-3, .cls-4 {
        stroke-width: 0px;
      }

      .cls-5 {
        stroke-miterlimit: 3.86;
      }

      .cls-5, .cls-6, .cls-7 {
        fill: none;
        stroke: #5d4647;
      }

      .cls-6, .cls-7 {
        stroke-miterlimit: 3.86;
      }

      .cls-2 {
        fill: #f9fae8;
      }

      .cls-7 {
        stroke-width: .5px;
      }

      .cls-3 {
        fill: #a38d68;
      }

      .cls-4 {
        fill: #d1beb3;
      }
    </style>
  </defs>
  <g id="Layer_1-2" data-name="Layer 1">
    <g>
      <ellipse class="cls-3" cx="13.85" cy="15.65" rx="11.8" ry="9.24"/>
      <ellipse class="cls-5" cx="13.85" cy="15.65" rx="11.8" ry="9.24"/>
      <path class="cls-7" d="m24.36,18.22c-.06.09-.12.19-.19.28"/>
      <path class="cls-7" d="m24.97,17.1c-.06.13-.12.26-.19.39"/>
      <line class="cls-7" x1="2.27" y1="15.75" x2="2.25" y2="15.68"/>
      <path class="cls-7" d="m2.48,16.46c-.05-.16-.1-.31-.15-.47"/>
      <path class="cls-7" d="m3.08,17.78c-.09-.16-.18-.33-.26-.5"/>
      <path class="cls-7" d="m9.31,22.54c-2.67-.87-4.84-2.5-6.09-4.53"/>
      <line class="cls-7" x1="9.84" y1="22.7" x2="9.56" y2="22.62"/>
      <path class="cls-7" d="m17.69,22.75c-1.2.32-2.5.5-3.84.5s-2.58-.17-3.76-.48"/>
      <path class="cls-7" d="m19.14,22.27c-.12.05-.25.1-.38.14"/>
      <path class="cls-7" d="m24.18,18.5c-1.11,1.56-2.78,2.84-4.8,3.68"/>
      <path class="cls-2" d="m13.9,25.4l1.15,1.16.94-1.26,1.42.91.76-1.26,1.26.76.69-1.45,1.42.82.31-1.76,1.51.16-.13-1.07,1.32.19-.44-.66.61-.05.69-4.92c-.85,4.46-5.71,7.89-11.63,7.89s-11.13-3.63-11.73-8.29l.6,5.31.75.06-.44.66,1.32-.19-.13,1.07,1.51-.16.31,1.76,1.42-.82.69,1.45,1.26-.76.76,1.26,1.42-.91.94,1.26,1.45-1.16Z"/>
      <path class="cls-5" d="m13.9,25.4l1.15,1.16.94-1.26,1.42.91.76-1.26,1.26.76.69-1.45,1.42.82.31-1.76,1.51.16-.13-1.07,1.32.19-.44-.66.61-.05.69-4.92c-.85,4.46-5.71,7.89-11.63,7.89s-11.13-3.63-11.73-8.29l.6,5.31.75.06-.44.66,1.32-.19-.13,1.07,1.51-.16.31,1.76,1.42-.82.69,1.45,1.26-.76.76,1.26,1.42-.91.94,1.26,1.45-1.16Z"/>
      <path class="cls-4" d="m25.53,16.62l.94.53-.28,1.2.53.6-.5,1.48.12.23-2.44,6.85c-1.28,3.44-5.35,5.96-10.15,5.96s-8.85-2.51-10.12-5.95h-.07l-2.45-6.84.14-.24-.52-1.49.53-.6-.28-1.2,1.01-.58.59,5.33.79.07-.44.66,1.32-.19-.13,1.07,1.51-.16.31,1.76,1.42-.82.69,1.45,1.26-.76.76,1.26,1.42-.91.94,1.26,1.35-1.16,1.25,1.16.94-1.26,1.42.91.75-1.26,1.26.76.69-1.45,1.42.82.31-1.76,1.51.16-.13-1.07,1.32.19-.44-.66.64-.05-.04-.03.7-4.89.16-.38Z"/>
      <path class="cls-5" d="m25.53,16.62l.94.53-.28,1.2.53.6-.5,1.48.12.23-2.44,6.85c-1.28,3.44-5.35,5.96-10.15,5.96s-8.85-2.51-10.12-5.95h-.07l-2.45-6.84.14-.24-.52-1.49.53-.6-.28-1.2,1.01-.58.59,5.33.79.07-.44.66,1.32-.19-.13,1.07,1.51-.16.31,1.76,1.42-.82.69,1.45,1.26-.76.76,1.26,1.42-.91.94,1.26,1.35-1.16,1.25,1.16.94-1.26,1.42.91.75-1.26,1.26.76.69-1.45,1.42.82.31-1.76,1.51.16-.13-1.07,1.32.19-.44-.66.64-.05-.04-.03.7-4.89.16-.38Z"/>
      <path class="cls-5" d="m1.94,16c0-.12,0-.23,0-.35,0-5.1,5.28-9.24,11.8-9.24s11.8,4.14,11.8,9.24c0,.46-.06.91-.13,1.36"/>
      <path class="cls-7" d="m25.4,17c-.85,4.46-5.74,7.88-11.67,7.88-6.36,0-11.55-3.95-11.79-8.89"/>
      <line class="cls-5" x1="1.9" y1="15.99" x2="2.59" y2="21.82"/>
      <line class="cls-5" x1="2.7" y1="22.75" x2="4.41" y2="29.03"/>
      <line class="cls-7" x1="13.78" y1="25.29" x2="13.6" y2="33.45"/>
      <line class="cls-7" x1="8.04" y1="25.71" x2="9.47" y2="32.82"/>
      <line class="cls-7" x1="12.41" y1="26.59" x2="13.09" y2="33.42"/>
      <line class="cls-7" x1="12.22" y1="33.75" x2="12.22" y2="33.77"/>
      <line class="cls-7" x1="11.38" y1="25.39" x2="12.19" y2="33.5"/>
      <line class="cls-7" x1="10.08" y1="26.28" x2="11.25" y2="33.31"/>
      <line class="cls-7" x1="9.32" y1="24.83" x2="10.37" y2="33.12"/>
      <line class="cls-7" x1="7.35" y1="24.2" x2="8.63" y2="32.51"/>
      <line class="cls-7" x1="5.9" y1="25.11" x2="7.78" y2="32.05"/>
      <line class="cls-7" x1="5.5" y1="23.3" x2="7.02" y2="31.63"/>
      <line class="cls-7" x1="4.1" y1="23.59" x2="6.29" y2="31.17"/>
      <line class="cls-7" x1="2.81" y1="22.63" x2="4.96" y2="29.81"/>
      <line class="cls-7" x1="1.84" y1="21.84" x2="3.94" y2="28.19"/>
      <polyline class="cls-5" points="1.9 16.62 .96 17.16 1.24 18.35 .71 18.95 1.62 19.77 1.08 20.68 2.25 21.09 1.87 21.84 3.35 21.97 2.91 22.63 4.23 22.44 4.1 23.51 5.61 23.35 5.93 25.11 7.34 24.3 8.04 25.74 9.29 24.99 10.05 26.25 11.46 25.33 12.41 26.59 13.76 25.43"/>
      <line class="cls-5" x1=".71" y1="19.01" x2="1.21" y2="20.43"/>
      <line class="cls-6" x1="1.27" y1="18.32" x2="1.96" y2="20.9"/>
      <line class="cls-5" x1="26.37" y1="20.71" x2="23.88" y2="27.51"/>
      <line class="cls-7" x1="19.38" y1="25.71" x2="17.95" y2="32.82"/>
      <line class="cls-7" x1="15.01" y1="26.59" x2="14.31" y2="33.51"/>
      <line class="cls-7" x1="16.04" y1="25.39" x2="15.24" y2="33.36"/>
      <line class="cls-7" x1="17.34" y1="26.28" x2="16.16" y2="33.31"/>
      <line class="cls-7" x1="18.1" y1="24.83" x2="17.05" y2="33.06"/>
      <line class="cls-7" x1="20.06" y1="24.2" x2="18.79" y2="32.49"/>
      <line class="cls-7" x1="21.52" y1="25.11" x2="19.63" y2="32.09"/>
      <line class="cls-7" x1="21.91" y1="23.3" x2="20.4" y2="31.62"/>
      <line class="cls-7" x1="23.31" y1="23.59" x2="21.16" y2="31.04"/>
      <line class="cls-7" x1="24.6" y1="22.63" x2="22.45" y2="29.81"/>
      <line class="cls-7" x1="25.58" y1="21.84" x2="23.47" y2="28.19"/>
      <polyline class="cls-5" points="25.52 16.62 26.46 17.16 26.18 18.35 26.71 18.95 25.8 19.77 26.33 20.68 25.17 21.09 25.55 21.84 24.07 21.97 24.51 22.63 23.19 22.44 23.31 23.51 21.8 23.35 21.49 25.11 20.07 24.3 19.38 25.74 18.12 24.99 17.37 26.25 15.95 25.33 15.01 26.59 13.85 25.43"/>
      <line class="cls-5" x1="26.71" y1="19.01" x2="26.21" y2="20.43"/>
      <line class="cls-6" x1="26.15" y1="18.32" x2="25.45" y2="20.9"/>
      <line class="cls-5" x1="25.36" y1="17" x2="24.65" y2="21.99"/>
      <line class="cls-5" x1="25.37" y1="16.97" x2="25.36" y2="17"/>
      <path class="cls-5" d="m23.86,27.51c-1.28,3.44-5.32,5.96-10.13,5.96s-8.85-2.51-10.12-5.95h-.07l-2.49-6.81"/>
      <path class="cls-1" d="m7.58,6.06c.15-2.25,3.3-4.85,6.86-5.37-1.64,1.9-1.18,2.18,1.39,2.63,2.39.04,3.94,1,4.02,2.46.09.1.15.22.18.35,1.23.24,1.98,1.2,1.88,2.1.45.4.86,1.04.88,1.73,1.94.39,2.69,2.08,2.23,3.46.3,2.39-.61,4-2.72,4.81-2.79,2.24-6.34,2.88-10.65,1.92-4.44-.13-7.29-1.59-8.55-4.38-.89-1.31-1.09-2.56-.6-3.75.02-1.87,1-3.14,2.71-3.78.32-1.15,1.23-1.89,2.37-2.17Z"/>
      <path class="cls-5" d="m7.58,6.06c.15-2.25,3.3-4.85,6.86-5.37-1.64,1.9-1.18,2.18,1.39,2.63,2.39.04,3.94,1,4.02,2.46.09.1.15.22.18.35,1.23.24,1.98,1.2,1.88,2.1.45.4.86,1.04.88,1.73,1.94.39,2.69,2.08,2.23,3.46.3,2.39-.61,4-2.72,4.81-2.79,2.24-6.34,2.88-10.65,1.92-4.44-.13-7.29-1.59-8.55-4.38-.89-1.31-1.09-2.56-.6-3.75.02-1.87,1-3.14,2.71-3.78.32-1.15,1.23-1.89,2.37-2.17Z"/>
      <path class="cls-5" d="m19.97,5.84c.61.66-.26,2.38-1.44,2.76-1.34,1.38-5.12,2.01-7.37.68-6.9-1.56-2.28-7.7,3.4-8.53-1.64,1.9-1.18,2.18,1.39,2.63,2.39.04,3.94,1,4.02,2.46Z"/>
      <path class="cls-7" d="m11.16,9.28c-3.99-3.47-1.36-6.8,3.27-8.47"/>
      <path class="cls-7" d="m18.37,8.65c-8.38,1.51-7.14-6.86-3.81-7.84"/>
      <path class="cls-7" d="m19.97,5.89c-5.4,2.12-8.68-3.1-5.54-5.03"/>
      <path class="cls-5" d="m20.12,6.24c1.23.24,2.01,1.16,1.92,2.05.78.69,1.18,2.14.29,3.2.19,2.76-5.41,4.92-10.19,3.54-5.31-.34-7.62-3.25-6.96-5.8.14-1.78.99-2.82,2.54-3.13"/>
      <path class="cls-7" d="m22.06,8.34c-.81,1.64-6.06,3.85-10.19,1.27"/>
      <path class="cls-7" d="m22.26,11.49c-4.82,2.73-16.06-.39-14.62-5.35"/>
      <path class="cls-7" d="m12.32,15.06c-5.47-1.36-6.88-6.09-4.75-8.85"/>
      <path class="cls-7" d="m7.62,6.15s-2.28,1.26-2.42,3"/>
      <path class="cls-5" d="m22.92,10.01c1.94.39,2.69,2.08,2.23,3.46.3,2.39-.61,4-2.72,4.81-2.79,2.24-6.34,2.88-10.65,1.92-4.44-.13-7.29-1.59-8.56-4.38-.89-1.31-1.09-2.56-.6-3.75.02-1.87,1.06-3.24,2.77-3.89"/>
      <path class="cls-7" d="m25.19,13.42c-.57,1.34-4.14,3.42-8.56,1.94"/>
      <path class="cls-7" d="m22.42,18.31c-6.14,1.42-10.35-.33-12.34-3.51"/>
      <path class="cls-7" d="m12.12,20.26c-3.87-1.23-5.61-3.03-4.81-6.44"/>
      <path class="cls-7" d="m5.11,9.2c-.84.47-1.94,1.46-2.48,2.88"/>
      <path class="cls-7" d="m3.4,16.21s-.82-3.23,1.97-4.78"/>
      <path class="cls-7" d="m25.18,12.18c-.28,1.79-4.14,4.66-8.56,3.18"/>
      <path class="cls-7" d="m24.68,16.62c-5.25,2.61-12.61,1.36-14.6-1.82"/>
      <path class="cls-7" d="m16.06,20.62c-3.65-.06-9.55-3.39-8.75-6.79"/>
      <path class="cls-7" d="m4.99,18.22s-1.82-6.17.38-6.79"/>
    </g>
  </g>
</svg>