<?xml version="1.0" encoding="UTF-8"?>
<svg id="Layer_2" data-name="Layer 2" xmlns="http://www.w3.org/2000/svg" viewBox="0 0 46.17 35.76">
  <defs>
    <style>
      .cls-1 {
        fill: #5d4647;
      }

      .cls-1, .cls-2, .cls-3 {
        stroke-width: 0px;
      }

      .cls-1, .cls-3 {
        fill-rule: evenodd;
      }

      .cls-2, .cls-3 {
        fill: #944f47;
      }

      .cls-4 {
        stroke-width: .25px;
      }

      .cls-4, .cls-5 {
        fill: none;
        stroke: #231f20;
        stroke-miterlimit: 3.86;
      }

      .cls-5 {
        stroke-width: .5px;
      }
    </style>
  </defs>
  <g id="Layer_1-2" data-name="Layer 1">
    <g>
      <path class="cls-3" d="m23.28,23.31l14.33-6.32V3.71c-3.82-1.47-8.72-2.35-14.06-2.35l-.3.15v8.62l.03,13.19Z"/>
      <path class="cls-5" d="m23.28,23.31l14.33-6.32V3.71c-3.82-1.47-8.72-2.35-14.06-2.35l-.3.15v8.62l.03,13.19Z"/>
      <line class="cls-5" x1="37.61" y1="13.91" x2="37.61" y2="12.49"/>
      <line class="cls-5" x1="23.27" y1="18.8" x2="23.27" y2="20.17"/>
      <path class="cls-1" d="m23.28,13.94l14.33-6.33v-3.9c-3.82-1.47-8.72-2.35-14.06-2.35l-.3.15v8.62l.03,3.82Zm0,4.84l14.33-6.32v1.44l-14.33,6.32v-1.44Zm0,0l14.33-6.32v1.44l-14.33,6.32v-1.44Zm0-4.84l14.33-6.33v-3.9c-3.82-1.47-8.72-2.35-14.06-2.35l-.3.15v8.62l.03,3.82Zm0,4.84l14.33-6.32v1.44l-14.33,6.32v-1.44Zm0-4.84l14.33-6.33v-3.9c-3.82-1.47-8.72-2.35-14.06-2.35l-.3.15v8.62l.03,3.82Z"/>
      <path class="cls-5" d="m23.28,13.94l14.33-6.33v-3.9c-3.82-1.47-8.72-2.35-14.06-2.35l-.3.15v8.62l.03,3.82Zm0,4.84l14.33-6.32v1.44l-14.33,6.32v-1.44Zm0,0l14.33-6.32v1.44l-14.33,6.32v-1.44Zm0-4.84l14.33-6.33v-3.9c-3.82-1.47-8.72-2.35-14.06-2.35l-.3.15v8.62l.03,3.82Zm0,4.84l14.33-6.32v1.44l-14.33,6.32v-1.44Zm0-4.84l14.33-6.33v-3.9c-3.82-1.47-8.72-2.35-14.06-2.35l-.3.15v8.62l.03,3.82Z"/>
      <path class="cls-5" d="m23.28,23.31l14.33-6.32V3.71c-3.82-1.47-8.72-2.35-14.06-2.35l-.3.15v8.62l.03,13.19Z"/>
      <line class="cls-5" x1="23.28" y1="10.09" x2="37.61" y2="3.77"/>
      <path class="cls-1" d="m26.02,1.31c.04-.46-.48-1.04-1.08-1.14.26.34.18.54-.22.62-.38,0-.62.18-.63.43-.02.03-.04.07-.03.11-.19.05-.31.21-.29.36-.12.12-.19.39-.05.58-.03.5.85.88,1.6.64.83-.06,1.27-.47,1.09-1.04-.02-.32-.16-.51-.4-.57Z"/>
      <path class="cls-4" d="m26.02,1.31c.04-.46-.48-1.04-1.08-1.14.26.34.18.54-.22.62-.38,0-.62.18-.63.43-.02.03-.04.07-.03.11-.19.05-.31.21-.29.36-.12.12-.19.39-.05.58-.03.5.85.88,1.6.64.83-.06,1.27-.47,1.09-1.04-.02-.32-.16-.51-.4-.57Z"/>
      <path class="cls-4" d="m24.09,1.23c-.1.12.04.42.23.49.21.24.8.36,1.16.12,1.08-.27.36-1.52-.53-1.66.26.34.18.54-.22.62-.38,0-.62.18-.63.43Z"/>
      <path class="cls-4" d="m25.48,1.84c.63-.61.21-1.36-.51-1.65"/>
      <path class="cls-4" d="m24.35,1.73c1.32.27,1.12-1.37.6-1.54"/>
      <path class="cls-4" d="m24.09,1.24c.85.37,1.36-.71.87-1.05"/>
      <path class="cls-4" d="m24.07,1.34c-.19.04-.32.21-.3.37-.12.12-.19.39-.05.58-.03.5.85.88,1.6.64.83-.06,1.27-.47,1.09-1.04-.02-.32-.16-.51-.4-.56"/>
      <path class="cls-4" d="m23.77,1.72c.13.29,1.07.59,1.72.13"/>
      <path class="cls-4" d="m23.73,2.28c.76.49,2.52-.07,2.3-.96"/>
      <path class="cls-4" d="m25.3,2.93c.86-.24,1.08-1.09.75-1.59"/>
      <path class="cls-4" d="m26.04,1.32s.36.24.38.57"/>
      <path class="cls-1" d="m29.27,1.5c.04-.46-.48-1.04-1.08-1.14.26.34.18.54-.22.62-.38,0-.62.18-.63.43-.02.03-.04.07-.03.11-.19.05-.31.21-.29.36-.12.12-.19.39-.05.58-.03.5.85.88,1.6.64.83-.06,1.27-.47,1.09-1.04-.02-.32-.16-.51-.4-.57Z"/>
      <path class="cls-4" d="m29.27,1.5c.04-.46-.48-1.04-1.08-1.14.26.34.18.54-.22.62-.38,0-.62.18-.63.43-.02.03-.04.07-.03.11-.19.05-.31.21-.29.36-.12.12-.19.39-.05.58-.03.5.85.88,1.6.64.83-.06,1.27-.47,1.09-1.04-.02-.32-.16-.51-.4-.57Z"/>
      <path class="cls-4" d="m27.34,1.42c-.1.12.04.42.23.49.21.24.8.35,1.16.12,1.08-.27.36-1.52-.53-1.66.26.34.18.54-.22.62-.38,0-.62.18-.63.43Z"/>
      <path class="cls-4" d="m28.73,2.03c.63-.61.21-1.36-.51-1.65"/>
      <path class="cls-4" d="m27.6,1.92c1.32.27,1.12-1.37.6-1.54"/>
      <path class="cls-4" d="m27.34,1.43c.85.37,1.36-.71.87-1.05"/>
      <path class="cls-4" d="m27.32,1.53c-.19.04-.32.21-.3.37-.12.12-.19.39-.05.58-.03.5.85.88,1.6.64.83-.06,1.27-.47,1.09-1.04-.02-.32-.16-.51-.4-.56"/>
      <path class="cls-4" d="m27.01,1.91c.13.29,1.07.59,1.72.13"/>
      <path class="cls-4" d="m26.98,2.47c.76.49,2.52-.07,2.3-.96"/>
      <path class="cls-4" d="m28.54,3.12c.86-.24,1.08-1.09.75-1.59"/>
      <path class="cls-4" d="m29.28,1.51s.36.24.38.57"/>
      <path class="cls-1" d="m32.67,2.07c.04-.46-.48-1.04-1.08-1.14.26.34.18.54-.22.62-.38,0-.62.18-.63.43-.02.03-.04.07-.03.11-.19.05-.31.21-.29.36-.12.12-.19.39-.05.58-.03.5.85.88,1.6.64.83-.06,1.27-.47,1.09-1.04-.02-.32-.16-.51-.4-.57Z"/>
      <path class="cls-4" d="m32.67,2.07c.04-.46-.48-1.04-1.08-1.14.26.34.18.54-.22.62-.38,0-.62.18-.63.43-.02.03-.04.07-.03.11-.19.05-.31.21-.29.36-.12.12-.19.39-.05.58-.03.5.85.88,1.6.64.83-.06,1.27-.47,1.09-1.04-.02-.32-.16-.51-.4-.57Z"/>
      <path class="cls-4" d="m30.74,1.99c-.1.12.04.42.23.49.21.24.8.35,1.16.12,1.08-.27.36-1.52-.53-1.66.26.34.18.54-.22.62-.38,0-.62.18-.63.43Z"/>
      <path class="cls-4" d="m32.13,2.59c.63-.61.21-1.36-.51-1.65"/>
      <path class="cls-4" d="m31,2.48c1.32.27,1.12-1.37.6-1.54"/>
      <path class="cls-4" d="m30.74,2c.85.37,1.36-.71.87-1.05"/>
      <path class="cls-4" d="m30.72,2.1c-.19.04-.32.21-.3.37-.12.12-.19.39-.05.58-.03.5.85.88,1.6.64.83-.06,1.27-.47,1.09-1.04-.02-.32-.16-.51-.4-.56"/>
      <path class="cls-4" d="m30.42,2.47c.13.29,1.07.59,1.72.13"/>
      <path class="cls-4" d="m30.38,3.04c.76.49,2.52-.07,2.3-.96"/>
      <path class="cls-4" d="m31.95,3.68c.86-.25,1.08-1.09.75-1.59"/>
      <path class="cls-4" d="m32.69,2.08s.36.24.38.57"/>
      <path class="cls-1" d="m36.15,2.79c.04-.46-.48-1.04-1.08-1.14.26.34.18.54-.22.62-.38,0-.62.18-.63.43-.02.03-.04.07-.03.11-.19.05-.31.21-.29.36-.12.12-.19.39-.05.58-.03.5.85.88,1.6.64.83-.06,1.27-.47,1.09-1.04-.02-.32-.16-.51-.4-.57Z"/>
      <path class="cls-4" d="m36.15,2.79c.04-.46-.48-1.04-1.08-1.14.26.34.18.54-.22.62-.38,0-.62.18-.63.43-.02.03-.04.07-.03.11-.19.05-.31.21-.29.36-.12.12-.19.39-.05.58-.03.5.85.88,1.6.64.83-.06,1.27-.47,1.09-1.04-.02-.32-.16-.51-.4-.57Z"/>
      <path class="cls-4" d="m34.22,2.71c-.1.12.04.42.23.49.21.24.8.35,1.16.12,1.08-.27.36-1.52-.53-1.66.26.34.18.54-.22.62-.38,0-.62.18-.63.43Z"/>
      <path class="cls-4" d="m35.6,3.31c.63-.61.21-1.36-.51-1.65"/>
      <path class="cls-4" d="m34.47,3.2c1.32.27,1.12-1.37.6-1.54"/>
      <path class="cls-4" d="m34.22,2.72c.85.37,1.36-.71.87-1.05"/>
      <path class="cls-4" d="m34.2,2.81c-.19.04-.32.21-.3.37-.12.12-.19.39-.05.58-.03.5.85.88,1.6.64.83-.06,1.27-.47,1.09-1.04-.02-.32-.16-.51-.4-.56"/>
      <path class="cls-4" d="m33.89,3.19c.13.29,1.07.59,1.72.13"/>
      <path class="cls-4" d="m33.86,3.76c.76.49,2.52-.07,2.3-.96"/>
      <path class="cls-4" d="m35.42,4.4c.86-.25,1.08-1.09.75-1.59"/>
      <path class="cls-4" d="m36.16,2.8s.36.24.38.57"/>
      <path class="cls-2" d="m45.8,14.11c.05-1.52-.11-2.9-.41-3.83-.79-2.59-3.61-4.82-7.7-6.42l-14.45,6.44v13.13s22.43,0,22.43,0l.12-9.31Z"/>
      <path class="cls-5" d="m45.8,14.11c.05-1.52-.11-2.9-.41-3.83-.79-2.59-3.61-4.82-7.7-6.42l-14.45,6.44v13.13s22.43,0,22.43,0l.12-9.31Z"/>
      <line class="cls-5" x1="45.72" y1="20.03" x2="45.74" y2="18.51"/>
      <line class="cls-5" x1="23.25" y1="18.48" x2="23.25" y2="20.03"/>
      <path class="cls-1" d="m45.8,13.98v-.03c.05-1.52-.11-2.9-.41-3.83-.79-2.59-3.61-4.82-7.7-6.42l-14.45,6.44v3.97s22.55-.13,22.55-.13Zm-22.56,4.52h22.56v1.51h-22.56v-1.51Zm0,0h22.56v1.51h-22.56v-1.51Zm22.56-4.52v-.03c.05-1.52-.11-2.9-.41-3.83-.79-2.59-3.61-4.82-7.7-6.42l-14.45,6.44v3.97s22.55-.13,22.55-.13Zm-22.56,4.52h22.56v1.51h-22.56v-1.51Zm22.56-4.52v-.03c.05-1.52-.11-2.9-.41-3.83-.79-2.59-3.61-4.82-7.7-6.42l-14.45,6.44v3.97s22.55-.13,22.55-.13Z"/>
      <path class="cls-5" d="m45.8,13.98v-.03c.05-1.52-.11-2.9-.41-3.83-.79-2.59-3.61-4.82-7.7-6.42l-14.45,6.44v3.97s22.55-.13,22.55-.13Zm-22.56,4.52h22.56v1.51h-22.56v-1.51Zm0,0h22.56v1.51h-22.56v-1.51Zm22.56-4.52v-.03c.05-1.52-.11-2.9-.41-3.83-.79-2.59-3.61-4.82-7.7-6.42l-14.45,6.44v3.97s22.55-.13,22.55-.13Zm-22.56,4.52h22.56v1.51h-22.56v-1.51Zm22.56-4.52v-.03c.05-1.52-.11-2.9-.41-3.83-.79-2.59-3.61-4.82-7.7-6.42l-14.45,6.44v3.97s22.55-.13,22.55-.13Z"/>
      <path class="cls-5" d="m45.8,14.11c.05-1.52-.11-2.9-.41-3.83-.79-2.59-3.61-4.82-7.7-6.42l-14.45,6.44v13.13s22.43,0,22.43,0l.12-9.31Z"/>
      <line class="cls-5" x1="23.25" y1="10.34" x2="45.36" y2="10.21"/>
      <path class="cls-1" d="m38.9,3.81c.04-.46-.48-1.04-1.08-1.14.26.34.18.54-.22.62-.38,0-.62.18-.63.43-.02.03-.04.07-.03.11-.19.05-.31.21-.29.36-.12.12-.19.39-.05.58-.03.5.85.88,1.6.64.83-.06,1.27-.47,1.09-1.04-.02-.32-.16-.51-.4-.57Z"/>
      <path class="cls-4" d="m38.9,3.81c.04-.46-.48-1.04-1.08-1.14.26.34.18.54-.22.62-.38,0-.62.18-.63.43-.02.03-.04.07-.03.11-.19.05-.31.21-.29.36-.12.12-.19.39-.05.58-.03.5.85.88,1.6.64.83-.06,1.27-.47,1.09-1.04-.02-.32-.16-.51-.4-.57Z"/>
      <path class="cls-4" d="m36.98,3.73c-.1.12.04.42.23.49.21.24.8.35,1.16.12,1.08-.27.36-1.52-.53-1.66.26.34.18.54-.22.62-.38,0-.62.18-.63.43Z"/>
      <path class="cls-4" d="m38.36,4.33c.63-.61.21-1.36-.51-1.65"/>
      <path class="cls-4" d="m37.23,4.22c1.32.27,1.12-1.37.6-1.54"/>
      <path class="cls-4" d="m36.98,3.74c.85.37,1.36-.71.87-1.05"/>
      <path class="cls-4" d="m36.96,3.83c-.19.04-.32.21-.3.37-.12.12-.19.39-.05.58-.03.5.85.88,1.6.64.83-.06,1.27-.47,1.09-1.04-.02-.32-.16-.51-.4-.56"/>
      <path class="cls-4" d="m36.65,4.21c.13.29,1.07.59,1.72.13"/>
      <path class="cls-4" d="m36.62,4.78c.76.49,2.52-.07,2.3-.96"/>
      <path class="cls-4" d="m38.18,5.42c.86-.25,1.08-1.09.75-1.59"/>
      <path class="cls-4" d="m38.92,3.82s.36.24.38.57"/>
      <path class="cls-1" d="m41.17,5.09c.04-.46-.48-1.04-1.08-1.14.26.34.18.54-.22.62-.38,0-.62.18-.63.43-.02.03-.04.07-.03.11-.19.05-.31.21-.29.36-.12.12-.19.39-.05.58-.03.5.85.88,1.6.64.83-.06,1.27-.47,1.09-1.04-.02-.32-.16-.51-.4-.57Z"/>
      <path class="cls-4" d="m41.17,5.09c.04-.46-.48-1.04-1.08-1.14.26.34.18.54-.22.62-.38,0-.62.18-.63.43-.02.03-.04.07-.03.11-.19.05-.31.21-.29.36-.12.12-.19.39-.05.58-.03.5.85.88,1.6.64.83-.06,1.27-.47,1.09-1.04-.02-.32-.16-.51-.4-.57Z"/>
      <path class="cls-4" d="m39.24,5.01c-.1.12.04.42.23.49.21.24.8.35,1.16.12,1.08-.27.36-1.52-.53-1.66.26.34.18.54-.22.62-.38,0-.62.18-.63.43Z"/>
      <path class="cls-4" d="m40.63,5.62c.63-.61.21-1.36-.51-1.65"/>
      <path class="cls-4" d="m39.5,5.51c1.32.27,1.12-1.37.6-1.54"/>
      <path class="cls-4" d="m39.25,5.02c.85.37,1.36-.71.87-1.05"/>
      <path class="cls-4" d="m39.22,5.12c-.19.04-.32.21-.3.37-.12.12-.19.39-.05.58-.03.5.85.88,1.6.64.83-.06,1.27-.47,1.09-1.04-.02-.32-.16-.51-.4-.56"/>
      <path class="cls-4" d="m38.92,5.5c.13.29,1.07.59,1.72.13"/>
      <path class="cls-4" d="m38.89,6.06c.76.49,2.52-.07,2.3-.96"/>
      <path class="cls-4" d="m40.45,6.7c.86-.24,1.08-1.09.75-1.59"/>
      <path class="cls-4" d="m41.19,5.1s.36.24.38.57"/>
      <path class="cls-1" d="m43.06,6.56c.04-.46-.48-1.04-1.08-1.14.26.34.18.54-.22.62-.38,0-.62.18-.63.43-.02.03-.04.07-.03.11-.19.05-.31.21-.29.36-.12.12-.19.39-.05.58-.03.5.85.88,1.6.64.83-.06,1.27-.47,1.09-1.04-.02-.32-.16-.51-.4-.57Z"/>
      <path class="cls-4" d="m43.06,6.56c.04-.46-.48-1.04-1.08-1.14.26.34.18.54-.22.62-.38,0-.62.18-.63.43-.02.03-.04.07-.03.11-.19.05-.31.21-.29.36-.12.12-.19.39-.05.58-.03.5.85.88,1.6.64.83-.06,1.27-.47,1.09-1.04-.02-.32-.16-.51-.4-.57Z"/>
      <path class="cls-4" d="m41.13,6.48c-.1.12.04.42.23.49.21.24.8.35,1.16.12,1.08-.27.36-1.52-.53-1.66.26.34.18.54-.22.62-.38,0-.62.18-.63.43Z"/>
      <path class="cls-4" d="m42.52,7.09c.63-.61.21-1.36-.51-1.65"/>
      <path class="cls-4" d="m41.39,6.98c1.32.27,1.12-1.37.6-1.54"/>
      <path class="cls-4" d="m41.14,6.49c.85.37,1.36-.71.87-1.05"/>
      <path class="cls-4" d="m41.11,6.59c-.19.04-.32.21-.3.37-.12.12-.19.39-.05.58-.03.5.85.88,1.6.64.83-.06,1.27-.47,1.09-1.04-.02-.32-.16-.51-.4-.56"/>
      <path class="cls-4" d="m40.81,6.97c.13.29,1.07.59,1.72.13"/>
      <path class="cls-4" d="m40.77,7.54c.76.49,2.52-.07,2.3-.96"/>
      <path class="cls-4" d="m42.34,8.18c.86-.24,1.08-1.09.75-1.59"/>
      <path class="cls-4" d="m43.08,6.57s.36.24.38.57"/>
      <path class="cls-1" d="m44.76,8.38c.04-.46-.48-1.04-1.08-1.14.26.34.18.54-.22.62-.38,0-.62.18-.63.43-.02.03-.04.07-.03.11-.19.05-.31.21-.29.36-.12.12-.19.39-.05.58-.03.5.85.88,1.6.64.83-.06,1.27-.47,1.09-1.04-.02-.32-.16-.51-.4-.57Z"/>
      <path class="cls-4" d="m44.76,8.38c.04-.46-.48-1.04-1.08-1.14.26.34.18.54-.22.62-.38,0-.62.18-.63.43-.02.03-.04.07-.03.11-.19.05-.31.21-.29.36-.12.12-.19.39-.05.58-.03.5.85.88,1.6.64.83-.06,1.27-.47,1.09-1.04-.02-.32-.16-.51-.4-.57Z"/>
      <path class="cls-4" d="m42.83,8.3c-.1.12.04.42.23.49.21.24.8.35,1.16.12,1.08-.27.36-1.52-.53-1.66.26.34.18.54-.22.62-.38,0-.62.18-.63.43Z"/>
      <path class="cls-4" d="m44.22,8.9c.63-.61.21-1.36-.51-1.65"/>
      <path class="cls-4" d="m43.09,8.79c1.32.27,1.12-1.37.6-1.54"/>
      <path class="cls-4" d="m42.84,8.31c.85.37,1.36-.71.87-1.05"/>
      <path class="cls-4" d="m42.81,8.41c-.19.04-.32.21-.3.37-.12.12-.19.39-.05.58-.03.5.85.88,1.6.64.83-.06,1.27-.47,1.09-1.04-.02-.32-.16-.51-.4-.56"/>
      <path class="cls-4" d="m42.51,8.78c.13.29,1.07.59,1.72.13"/>
      <path class="cls-4" d="m42.47,9.35c.76.49,2.52-.07,2.3-.96"/>
      <path class="cls-4" d="m44.04,9.99c.86-.25,1.08-1.09.75-1.59"/>
      <path class="cls-4" d="m44.78,8.39s.36.24.38.57"/>
      <path class="cls-2" d="m39.56,32.35c3.79-1.86,6.13-4.38,6.13-7.17l.05-9.34c.27-2.13.12-4.21-.28-5.46l-22.22-.07v13.29l16.31,8.74Z"/>
      <path class="cls-5" d="m39.56,32.35c3.79-1.86,6.13-4.38,6.13-7.17l.05-9.34c.27-2.13.12-4.21-.28-5.46l-22.22-.07v13.29l16.31,8.74Z"/>
      <path class="cls-5" d="m23.34,10.44l16.08,8.67c.25.92.25,2.26,0,4.01"/>
      <path class="cls-5" d="m45.7,15.83c0,2.77-2.4,5.29-6.27,7.15"/>
      <path class="cls-5" d="m45.72,20.55c0,2.75-2.36,5.25-6.18,7.1"/>
      <path class="cls-5" d="m45.72,21.87c0,2.76-2.39,5.27-6.24,7.13"/>
      <line class="cls-5" x1="23.34" y1="14.3" x2="39.42" y2="22.97"/>
      <line class="cls-5" x1="23.34" y1="18.91" x2="39.42" y2="27.58"/>
      <line class="cls-5" x1="23.34" y1="20.34" x2="39.42" y2="29.01"/>
      <path class="cls-1" d="m45.76,20.55c0,2.75-2.36,5.25-6.18,7.1l-.11-.07-16.08-8.67-.09,1.41,16.22,8.68c3.85-1.86,6.24-4.37,6.24-7.13v-1.32Zm-22.38-6.25l16.09,8.68c3.87-1.86,6.32-4.35,6.32-7.12.26-2.14.12-4.22-.28-5.47l-22.22-.07.09,3.98Zm0,0l16.09,8.68c3.87-1.86,6.32-4.35,6.32-7.12.26-2.14.12-4.22-.28-5.47l-22.22-.07.09,3.98Zm22.38,6.25c0,2.75-2.36,5.25-6.18,7.1l-.11-.07-16.08-8.67-.09,1.41,16.22,8.68c3.85-1.86,6.24-4.37,6.24-7.13v-1.32Zm-22.38-6.25l16.09,8.68c3.87-1.86,6.32-4.35,6.32-7.12.26-2.14.12-4.22-.28-5.47l-22.22-.07.09,3.98Zm22.38,6.25c0,2.75-2.36,5.25-6.18,7.1l-.11-.07-16.08-8.67-.09,1.41,16.22,8.68c3.85-1.86,6.24-4.37,6.24-7.13v-1.32Z"/>
      <path class="cls-5" d="m45.76,20.55c0,2.75-2.36,5.25-6.18,7.1l-.11-.07-16.08-8.67-.09,1.41,16.22,8.68c3.85-1.86,6.24-4.37,6.24-7.13v-1.32Zm-22.38-6.25l16.09,8.68c3.87-1.86,6.32-4.35,6.32-7.12.26-2.14.12-4.22-.28-5.47l-22.22-.07.09,3.98Zm0,0l16.09,8.68c3.87-1.86,6.32-4.35,6.32-7.12.26-2.14.12-4.22-.28-5.47l-22.22-.07.09,3.98Zm22.38,6.25c0,2.75-2.36,5.25-6.18,7.1l-.11-.07-16.08-8.67-.09,1.41,16.22,8.68c3.85-1.86,6.24-4.37,6.24-7.13v-1.32Zm-22.38-6.25l16.09,8.68c3.87-1.86,6.32-4.35,6.32-7.12.26-2.14.12-4.22-.28-5.47l-22.22-.07.09,3.98Zm22.38,6.25c0,2.75-2.36,5.25-6.18,7.1l-.11-.07-16.08-8.67-.09,1.41,16.22,8.68c3.85-1.86,6.24-4.37,6.24-7.13v-1.32Z"/>
      <path class="cls-5" d="m23.38,10.41l16.09,8.64c3.87-1.86,6.32-4.35,6.32-7.12v.04l-.31-1.53c.14.48.22.97.22,1.46"/>
      <path class="cls-5" d="m39.56,32.35c3.79-1.86,6.13-4.38,6.13-7.17l.05-9.34c.27-2.13.12-4.21-.28-5.46l-22.22-.07v13.29l16.31,8.74Z"/>
      <line class="cls-5" x1="39.42" y1="19.23" x2="39.42" y2="32.34"/>
      <path class="cls-1" d="m45.44,10.49c.04-.46-.48-1.04-1.08-1.14.26.34.18.54-.22.62-.38,0-.62.18-.63.43-.02.03-.04.07-.03.11-.19.05-.31.21-.29.36-.12.12-.19.39-.05.58-.03.5.85.88,1.6.64.83-.06,1.27-.47,1.09-1.04-.02-.32-.16-.51-.4-.57Z"/>
      <path class="cls-4" d="m45.44,10.49c.04-.46-.48-1.04-1.08-1.14.26.34.18.54-.22.62-.38,0-.62.18-.63.43-.02.03-.04.07-.03.11-.19.05-.31.21-.29.36-.12.12-.19.39-.05.58-.03.5.85.88,1.6.64.83-.06,1.27-.47,1.09-1.04-.02-.32-.16-.51-.4-.57Z"/>
      <path class="cls-4" d="m43.51,10.41c-.1.12.04.42.23.49.21.24.8.35,1.16.12,1.08-.27.36-1.52-.53-1.66.26.34.18.54-.22.62-.38,0-.62.18-.63.43Z"/>
      <path class="cls-4" d="m44.9,11.02c.63-.61.21-1.36-.51-1.65"/>
      <path class="cls-4" d="m43.77,10.91c1.32.27,1.12-1.37.6-1.54"/>
      <path class="cls-4" d="m43.52,10.42c.85.37,1.36-.71.87-1.05"/>
      <path class="cls-4" d="m43.49,10.52c-.19.04-.32.21-.3.37-.12.12-.19.39-.05.58-.03.5.85.88,1.6.64.83-.06,1.27-.47,1.09-1.04-.02-.32-.16-.51-.4-.56"/>
      <path class="cls-4" d="m43.19,10.9c.13.29,1.07.59,1.72.13"/>
      <path class="cls-4" d="m43.15,11.47c.76.49,2.52-.07,2.3-.96"/>
      <path class="cls-4" d="m44.72,12.11c.86-.24,1.08-1.09.75-1.59"/>
      <path class="cls-4" d="m45.46,10.5s.36.24.38.57"/>
      <path class="cls-1" d="m44.87,12.72c.04-.46-.48-1.04-1.08-1.14.26.34.18.54-.22.62-.38,0-.62.18-.63.43-.02.03-.04.07-.03.11-.19.05-.31.21-.29.36-.12.12-.19.39-.05.58-.03.5.85.88,1.6.64.83-.06,1.27-.47,1.09-1.04-.02-.32-.16-.51-.4-.57Z"/>
      <path class="cls-4" d="m44.87,12.72c.04-.46-.48-1.04-1.08-1.14.26.34.18.54-.22.62-.38,0-.62.18-.63.43-.02.03-.04.07-.03.11-.19.05-.31.21-.29.36-.12.12-.19.39-.05.58-.03.5.85.88,1.6.64.83-.06,1.27-.47,1.09-1.04-.02-.32-.16-.51-.4-.57Z"/>
      <path class="cls-4" d="m42.95,12.64c-.1.12.04.42.23.49.21.24.8.36,1.16.12,1.08-.27.36-1.52-.53-1.66.26.34.18.54-.22.62-.38,0-.62.18-.63.43Z"/>
      <path class="cls-4" d="m44.33,13.25c.63-.61.21-1.36-.51-1.65"/>
      <path class="cls-4" d="m43.2,13.14c1.32.27,1.12-1.37.6-1.54"/>
      <path class="cls-4" d="m42.95,12.65c.85.37,1.36-.71.87-1.05"/>
      <path class="cls-4" d="m42.93,12.75c-.19.04-.32.21-.3.37-.12.12-.19.39-.05.58-.03.5.85.88,1.6.64.83-.06,1.27-.47,1.09-1.04-.02-.32-.16-.51-.4-.56"/>
      <path class="cls-4" d="m42.62,13.13c.13.29,1.07.59,1.72.13"/>
      <path class="cls-4" d="m42.59,13.69c.76.49,2.52-.07,2.3-.96"/>
      <path class="cls-4" d="m44.15,14.34c.86-.24,1.08-1.09.75-1.59"/>
      <path class="cls-4" d="m44.89,12.73s.36.24.38.57"/>
      <path class="cls-1" d="m42.91,14.84c.04-.46-.48-1.04-1.08-1.14.26.34.18.54-.22.62-.38,0-.62.18-.63.43-.02.03-.04.07-.03.11-.19.05-.31.21-.29.36-.12.12-.19.39-.05.58-.03.5.85.88,1.6.64.83-.06,1.27-.47,1.09-1.04-.02-.32-.16-.51-.4-.57Z"/>
      <path class="cls-4" d="m42.91,14.84c.04-.46-.48-1.04-1.08-1.14.26.34.18.54-.22.62-.38,0-.62.18-.63.43-.02.03-.04.07-.03.11-.19.05-.31.21-.29.36-.12.12-.19.39-.05.58-.03.5.85.88,1.6.64.83-.06,1.27-.47,1.09-1.04-.02-.32-.16-.51-.4-.57Z"/>
      <path class="cls-4" d="m40.98,14.76c-.1.12.04.42.23.49.21.24.8.35,1.16.12,1.08-.27.36-1.52-.53-1.66.26.34.18.54-.22.62-.38,0-.62.18-.63.43Z"/>
      <path class="cls-4" d="m42.37,15.36c.63-.61.21-1.36-.51-1.65"/>
      <path class="cls-4" d="m41.24,15.25c1.32.27,1.12-1.37.6-1.54"/>
      <path class="cls-4" d="m40.98,14.77c.85.37,1.36-.71.87-1.05"/>
      <path class="cls-4" d="m40.96,14.87c-.19.04-.32.21-.3.37-.12.12-.19.39-.05.58-.03.5.85.88,1.6.64.83-.06,1.27-.47,1.09-1.04-.02-.32-.16-.51-.4-.56"/>
      <path class="cls-4" d="m40.66,15.25c.13.29,1.07.59,1.72.13"/>
      <path class="cls-4" d="m40.62,15.81c.76.49,2.52-.07,2.3-.96"/>
      <path class="cls-4" d="m42.18,16.45c.86-.25,1.08-1.09.75-1.59"/>
      <path class="cls-4" d="m42.92,14.85s.36.24.38.57"/>
      <path class="cls-1" d="m40.49,16.54c.04-.46-.48-1.04-1.08-1.14.26.34.18.54-.22.62-.38,0-.62.18-.63.43-.02.03-.04.07-.03.11-.19.05-.31.21-.29.36-.12.12-.19.39-.05.58-.03.5.85.88,1.6.64.83-.06,1.27-.47,1.09-1.04-.02-.32-.16-.51-.4-.57Z"/>
      <path class="cls-4" d="m40.49,16.54c.04-.46-.48-1.04-1.08-1.14.26.34.18.54-.22.62-.38,0-.62.18-.63.43-.02.03-.04.07-.03.11-.19.05-.31.21-.29.36-.12.12-.19.39-.05.58-.03.5.85.88,1.6.64.83-.06,1.27-.47,1.09-1.04-.02-.32-.16-.51-.4-.57Z"/>
      <path class="cls-4" d="m38.56,16.46c-.1.12.04.42.23.49.21.24.8.35,1.16.12,1.08-.27.36-1.52-.53-1.66.26.34.18.54-.22.62-.38,0-.62.18-.63.43Z"/>
      <path class="cls-4" d="m39.95,17.07c.63-.61.21-1.36-.51-1.65"/>
      <path class="cls-4" d="m38.82,16.95c1.32.27,1.12-1.37.6-1.54"/>
      <path class="cls-4" d="m38.57,16.47c.85.37,1.36-.71.87-1.05"/>
      <path class="cls-4" d="m38.54,16.57c-.19.04-.32.21-.3.37-.12.12-.19.39-.05.58-.03.5.85.88,1.6.64.83-.06,1.27-.47,1.09-1.04-.02-.32-.16-.51-.4-.56"/>
      <path class="cls-4" d="m38.24,16.95c.13.29,1.07.59,1.72.13"/>
      <path class="cls-4" d="m38.2,17.51c.76.49,2.52-.07,2.3-.96"/>
      <path class="cls-4" d="m39.77,18.15c.86-.25,1.08-1.09.75-1.59"/>
      <path class="cls-4" d="m40.51,16.55s.36.24.38.57"/>
      <path class="cls-3" d="m22.89,23.31l-14.33-6.32V3.71c3.82-1.47,8.72-2.35,14.06-2.35l.3.15v8.62l-.03,13.19Z"/>
      <path class="cls-5" d="m22.89,23.31l-14.33-6.32V3.71c3.82-1.47,8.72-2.35,14.06-2.35l.3.15v8.62l-.03,13.19Z"/>
      <line class="cls-5" x1="8.56" y1="13.91" x2="8.56" y2="12.49"/>
      <line class="cls-5" x1="22.9" y1="18.8" x2="22.9" y2="20.17"/>
      <path class="cls-1" d="m22.89,13.94l-14.33-6.33v-3.9c3.82-1.47,8.72-2.35,14.06-2.35l.3.15v8.62l-.03,3.82Zm0,4.84l-14.33-6.32v1.44l14.33,6.32v-1.44Zm0,0l-14.33-6.32v1.44l14.33,6.32v-1.44Zm0-4.84l-14.33-6.33v-3.9c3.82-1.47,8.72-2.35,14.06-2.35l.3.15v8.62l-.03,3.82Zm0,4.84l-14.33-6.32v1.44l14.33,6.32v-1.44Zm0-4.84l-14.33-6.33v-3.9c3.82-1.47,8.72-2.35,14.06-2.35l.3.15v8.62l-.03,3.82Z"/>
      <path class="cls-5" d="m22.89,13.94l-14.33-6.33v-3.9c3.82-1.47,8.72-2.35,14.06-2.35l.3.15v8.62l-.03,3.82Zm0,4.84l-14.33-6.32v1.44l14.33,6.32v-1.44Zm0,0l-14.33-6.32v1.44l14.33,6.32v-1.44Zm0-4.84l-14.33-6.33v-3.9c3.82-1.47,8.72-2.35,14.06-2.35l.3.15v8.62l-.03,3.82Zm0,4.84l-14.33-6.32v1.44l14.33,6.32v-1.44Zm0-4.84l-14.33-6.33v-3.9c3.82-1.47,8.72-2.35,14.06-2.35l.3.15v8.62l-.03,3.82Z"/>
      <path class="cls-5" d="m22.89,23.31l-14.33-6.32V3.71c3.82-1.47,8.72-2.35,14.06-2.35l.3.15v8.62l-.03,13.19Z"/>
      <line class="cls-5" x1="22.89" y1="10.09" x2="8.56" y2="3.77"/>
      <path class="cls-1" d="m20.2,1.44c-.04-.46.48-1.04,1.08-1.14-.26.34-.18.54.22.62.38,0,.62.18.63.43.02.03.04.07.03.11.19.05.31.21.29.36.12.12.19.39.05.58.03.5-.85.88-1.6.64-.83-.06-1.27-.47-1.09-1.04.02-.32.16-.51.4-.57Z"/>
      <path class="cls-4" d="m20.2,1.44c-.04-.46.48-1.04,1.08-1.14-.26.34-.18.54.22.62.38,0,.62.18.63.43.02.03.04.07.03.11.19.05.31.21.29.36.12.12.19.39.05.58.03.5-.85.88-1.6.64-.83-.06-1.27-.47-1.09-1.04.02-.32.16-.51.4-.57Z"/>
      <path class="cls-4" d="m22.13,1.36c.1.12-.04.42-.23.49-.21.24-.8.36-1.16.12-1.08-.27-.36-1.52.53-1.66-.26.34-.18.54.22.62.38,0,.62.18.63.43Z"/>
      <path class="cls-4" d="m20.74,1.96c-.63-.61-.21-1.36.51-1.65"/>
      <path class="cls-4" d="m21.88,1.85c-1.32.27-1.12-1.37-.6-1.54"/>
      <path class="cls-4" d="m22.13,1.37c-.85.37-1.36-.71-.87-1.05"/>
      <path class="cls-4" d="m22.15,1.47c.19.04.32.21.3.37.12.12.19.39.05.58.03.5-.85.88-1.6.64-.83-.06-1.27-.47-1.09-1.04.02-.32.16-.51.4-.56"/>
      <path class="cls-4" d="m22.46,1.84c-.13.29-1.07.59-1.72.13"/>
      <path class="cls-4" d="m22.49,2.41c-.76.49-2.52-.07-2.3-.96"/>
      <path class="cls-4" d="m20.93,3.05c-.86-.24-1.08-1.09-.75-1.59"/>
      <path class="cls-4" d="m20.19,1.45s-.36.24-.38.57"/>
      <path class="cls-1" d="m16.95,1.63c-.04-.46.48-1.04,1.08-1.14-.26.34-.18.54.22.62.38,0,.62.18.63.43.02.03.04.07.03.11.19.05.31.21.29.36.12.12.19.39.05.58.03.5-.85.88-1.6.64-.83-.06-1.27-.47-1.09-1.04.02-.32.16-.51.4-.57Z"/>
      <path class="cls-4" d="m16.95,1.63c-.04-.46.48-1.04,1.08-1.14-.26.34-.18.54.22.62.38,0,.62.18.63.43.02.03.04.07.03.11.19.05.31.21.29.36.12.12.19.39.05.58.03.5-.85.88-1.6.64-.83-.06-1.27-.47-1.09-1.04.02-.32.16-.51.4-.57Z"/>
      <path class="cls-4" d="m18.88,1.55c.1.12-.04.42-.23.49-.21.24-.8.35-1.16.12-1.08-.27-.36-1.52.53-1.66-.26.34-.18.54.22.62.38,0,.62.18.63.43Z"/>
      <path class="cls-4" d="m17.5,2.15c-.63-.61-.21-1.36.51-1.65"/>
      <path class="cls-4" d="m18.63,2.04c-1.32.27-1.12-1.37-.6-1.54"/>
      <path class="cls-4" d="m18.88,1.56c-.85.37-1.36-.71-.87-1.05"/>
      <path class="cls-4" d="m18.9,1.65c.19.04.32.21.3.37.12.12.19.39.05.58.03.5-.85.88-1.6.64-.83-.06-1.27-.47-1.09-1.04.02-.32.16-.51.4-.56"/>
      <path class="cls-4" d="m19.21,2.03c-.13.29-1.07.59-1.72.13"/>
      <path class="cls-4" d="m19.24,2.6c-.76.49-2.52-.07-2.3-.96"/>
      <path class="cls-4" d="m17.68,3.24c-.86-.24-1.08-1.09-.75-1.59"/>
      <path class="cls-4" d="m16.94,1.64s-.36.24-.38.57"/>
      <path class="cls-1" d="m13.55,2.19c-.04-.46.48-1.04,1.08-1.14-.26.34-.18.54.22.62.38,0,.62.18.63.43.02.03.04.07.03.11.19.05.31.21.29.36.12.12.19.39.05.58.03.5-.85.88-1.6.64-.83-.06-1.27-.47-1.09-1.04.02-.32.16-.51.4-.57Z"/>
      <path class="cls-4" d="m13.55,2.19c-.04-.46.48-1.04,1.08-1.14-.26.34-.18.54.22.62.38,0,.62.18.63.43.02.03.04.07.03.11.19.05.31.21.29.36.12.12.19.39.05.58.03.5-.85.88-1.6.64-.83-.06-1.27-.47-1.09-1.04.02-.32.16-.51.4-.57Z"/>
      <path class="cls-4" d="m15.48,2.11c.1.12-.04.42-.23.49-.21.24-.8.35-1.16.12-1.08-.27-.36-1.52.53-1.66-.26.34-.18.54.22.62.38,0,.62.18.63.43Z"/>
      <path class="cls-4" d="m14.09,2.72c-.63-.61-.21-1.36.51-1.65"/>
      <path class="cls-4" d="m15.23,2.61c-1.32.27-1.12-1.37-.6-1.54"/>
      <path class="cls-4" d="m15.48,2.12c-.85.37-1.36-.71-.87-1.05"/>
      <path class="cls-4" d="m15.5,2.22c.19.04.32.21.3.37.12.12.19.39.05.58.03.5-.85.88-1.6.64-.83-.06-1.27-.47-1.09-1.04.02-.32.16-.51.4-.56"/>
      <path class="cls-4" d="m15.81,2.6c-.13.29-1.07.59-1.72.13"/>
      <path class="cls-4" d="m15.84,3.16c-.76.49-2.52-.07-2.3-.96"/>
      <path class="cls-4" d="m14.28,3.81c-.86-.25-1.08-1.09-.75-1.59"/>
      <path class="cls-4" d="m13.54,2.2s-.36.24-.38.57"/>
      <path class="cls-1" d="m10.08,2.91c-.04-.46.48-1.04,1.08-1.14-.26.34-.18.54.22.62.38,0,.62.18.63.43.02.03.04.07.03.11.19.05.31.21.29.36.12.12.19.39.05.58.03.5-.85.88-1.6.64-.83-.06-1.27-.47-1.09-1.04.02-.32.16-.51.4-.57Z"/>
      <path class="cls-4" d="m10.08,2.91c-.04-.46.48-1.04,1.08-1.14-.26.34-.18.54.22.62.38,0,.62.18.63.43.02.03.04.07.03.11.19.05.31.21.29.36.12.12.19.39.05.58.03.5-.85.88-1.6.64-.83-.06-1.27-.47-1.09-1.04.02-.32.16-.51.4-.57Z"/>
      <path class="cls-4" d="m12,2.83c.1.12-.04.42-.23.49-.21.24-.8.35-1.16.12-1.08-.27-.36-1.52.53-1.66-.26.34-.18.54.22.62.38,0,.62.18.63.43Z"/>
      <path class="cls-4" d="m10.62,3.44c-.63-.61-.21-1.36.51-1.65"/>
      <path class="cls-4" d="m11.75,3.33c-1.32.27-1.12-1.37-.6-1.54"/>
      <path class="cls-4" d="m12,2.84c-.85.37-1.36-.71-.87-1.05"/>
      <path class="cls-4" d="m12.03,2.94c.19.04.32.21.3.37.12.12.19.39.05.58.03.5-.85.88-1.6.64-.83-.06-1.27-.47-1.09-1.04.02-.32.16-.51.4-.56"/>
      <path class="cls-4" d="m12.33,3.32c-.13.29-1.07.59-1.72.13"/>
      <path class="cls-4" d="m12.36,3.88c-.76.49-2.52-.07-2.3-.96"/>
      <path class="cls-4" d="m10.8,4.53c-.86-.25-1.08-1.09-.75-1.59"/>
      <path class="cls-4" d="m10.06,2.92s-.36.24-.38.57"/>
      <path class="cls-2" d="m.37,14.11c-.05-1.52.11-2.9.41-3.83.79-2.59,3.61-4.82,7.7-6.42l14.45,6.44v13.13S.49,23.42.49,23.42l-.12-9.31Z"/>
      <path class="cls-5" d="m.37,14.11c-.05-1.52.11-2.9.41-3.83.79-2.59,3.61-4.82,7.7-6.42l14.45,6.44v13.13S.49,23.42.49,23.42l-.12-9.31Z"/>
      <line class="cls-5" x1=".45" y1="20.03" x2=".43" y2="18.51"/>
      <line class="cls-5" x1="22.92" y1="18.48" x2="22.92" y2="20.03"/>
      <path class="cls-1" d="m.37,13.98v-.03c-.05-1.52.11-2.9.41-3.83.79-2.59,3.61-4.82,7.7-6.42l14.45,6.44v3.97s-22.55-.13-22.55-.13Zm22.56,4.52H.36v1.51h22.56v-1.51Zm0,0H.36v1.51h22.56v-1.51ZM.37,13.98v-.03c-.05-1.52.11-2.9.41-3.83.79-2.59,3.61-4.82,7.7-6.42l14.45,6.44v3.97s-22.55-.13-22.55-.13Zm22.56,4.52H.36v1.51h22.56v-1.51ZM.37,13.98v-.03c-.05-1.52.11-2.9.41-3.83.79-2.59,3.61-4.82,7.7-6.42l14.45,6.44v3.97s-22.55-.13-22.55-.13Z"/>
      <path class="cls-5" d="m.37,13.98v-.03c-.05-1.52.11-2.9.41-3.83.79-2.59,3.61-4.82,7.7-6.42l14.45,6.44v3.97s-22.55-.13-22.55-.13Zm22.56,4.52H.36v1.51h22.56v-1.51Zm0,0H.36v1.51h22.56v-1.51ZM.37,13.98v-.03c-.05-1.52.11-2.9.41-3.83.79-2.59,3.61-4.82,7.7-6.42l14.45,6.44v3.97s-22.55-.13-22.55-.13Zm22.56,4.52H.36v1.51h22.56v-1.51ZM.37,13.98v-.03c-.05-1.52.11-2.9.41-3.83.79-2.59,3.61-4.82,7.7-6.42l14.45,6.44v3.97s-22.55-.13-22.55-.13Z"/>
      <path class="cls-5" d="m.37,14.11c-.05-1.52.11-2.9.41-3.83.79-2.59,3.61-4.82,7.7-6.42l14.45,6.44v13.13S.49,23.42.49,23.42l-.12-9.31Z"/>
      <line class="cls-5" x1="22.92" y1="10.34" x2=".81" y2="10.21"/>
      <path class="cls-1" d="m7.32,3.93c-.04-.46.48-1.04,1.08-1.14-.26.34-.18.54.22.62.38,0,.62.18.63.43.02.03.04.07.03.11.19.05.31.21.29.36.12.12.19.39.05.58.03.5-.85.88-1.6.64-.83-.06-1.27-.47-1.09-1.04.02-.32.16-.51.4-.57Z"/>
      <path class="cls-4" d="m7.32,3.93c-.04-.46.48-1.04,1.08-1.14-.26.34-.18.54.22.62.38,0,.62.18.63.43.02.03.04.07.03.11.19.05.31.21.29.36.12.12.19.39.05.58.03.5-.85.88-1.6.64-.83-.06-1.27-.47-1.09-1.04.02-.32.16-.51.4-.57Z"/>
      <path class="cls-4" d="m9.24,3.85c.1.12-.04.42-.23.49-.21.24-.8.35-1.16.12-1.08-.27-.36-1.52.53-1.66-.26.34-.18.54.22.62.38,0,.62.18.63.43Z"/>
      <path class="cls-4" d="m7.86,4.46c-.63-.61-.21-1.36.51-1.65"/>
      <path class="cls-4" d="m8.99,4.35c-1.32.27-1.12-1.37-.6-1.54"/>
      <path class="cls-4" d="m9.24,3.86c-.85.37-1.36-.71-.87-1.05"/>
      <path class="cls-4" d="m9.27,3.96c.19.04.32.21.3.37.12.12.19.39.05.58.03.5-.85.88-1.6.64-.83-.06-1.27-.47-1.09-1.04.02-.32.16-.51.4-.56"/>
      <path class="cls-4" d="m9.57,4.34c-.13.29-1.07.59-1.72.13"/>
      <path class="cls-4" d="m9.6,4.9c-.76.49-2.52-.07-2.3-.96"/>
      <path class="cls-4" d="m8.04,5.55c-.86-.25-1.08-1.09-.75-1.59"/>
      <path class="cls-4" d="m7.3,3.94s-.36.24-.38.57"/>
      <path class="cls-1" d="m5.05,5.22c-.04-.46.48-1.04,1.08-1.14-.26.34-.18.54.22.62.38,0,.62.18.63.43.02.03.04.07.03.11.19.05.31.21.29.36.12.12.19.39.05.58.03.5-.85.88-1.6.64-.83-.06-1.27-.47-1.09-1.04.02-.32.16-.51.4-.57Z"/>
      <path class="cls-4" d="m5.05,5.22c-.04-.46.48-1.04,1.08-1.14-.26.34-.18.54.22.62.38,0,.62.18.63.43.02.03.04.07.03.11.19.05.31.21.29.36.12.12.19.39.05.58.03.5-.85.88-1.6.64-.83-.06-1.27-.47-1.09-1.04.02-.32.16-.51.4-.57Z"/>
      <path class="cls-4" d="m6.98,5.14c.1.12-.04.42-.23.49-.21.24-.8.35-1.16.12-1.08-.27-.36-1.52.53-1.66-.26.34-.18.54.22.62.38,0,.62.18.63.43Z"/>
      <path class="cls-4" d="m5.59,5.74c-.63-.61-.21-1.36.51-1.65"/>
      <path class="cls-4" d="m6.72,5.63c-1.32.27-1.12-1.37-.6-1.54"/>
      <path class="cls-4" d="m6.98,5.14c-.85.37-1.36-.71-.87-1.05"/>
      <path class="cls-4" d="m7,5.24c.19.04.32.21.3.37.12.12.19.39.05.58.03.5-.85.88-1.6.64-.83-.06-1.27-.47-1.09-1.04.02-.32.16-.51.4-.56"/>
      <path class="cls-4" d="m7.31,5.62c-.13.29-1.07.59-1.72.13"/>
      <path class="cls-4" d="m7.34,6.19c-.76.49-2.52-.07-2.3-.96"/>
      <path class="cls-4" d="m5.78,6.83c-.86-.24-1.08-1.09-.75-1.59"/>
      <path class="cls-4" d="m5.04,5.22s-.36.24-.38.57"/>
      <path class="cls-1" d="m3.16,6.69c-.04-.46.48-1.04,1.08-1.14-.26.34-.18.54.22.62.38,0,.62.18.63.43.02.03.04.07.03.11.19.05.31.21.29.36.12.12.19.39.05.58.03.5-.85.88-1.6.64-.83-.06-1.27-.47-1.09-1.04.02-.32.16-.51.4-.57Z"/>
      <path class="cls-4" d="m3.16,6.69c-.04-.46.48-1.04,1.08-1.14-.26.34-.18.54.22.62.38,0,.62.18.63.43.02.03.04.07.03.11.19.05.31.21.29.36.12.12.19.39.05.58.03.5-.85.88-1.6.64-.83-.06-1.27-.47-1.09-1.04.02-.32.16-.51.4-.57Z"/>
      <path class="cls-4" d="m5.09,6.61c.1.12-.04.42-.23.49-.21.24-.8.35-1.16.12-1.08-.27-.36-1.52.53-1.66-.26.34-.18.54.22.62.38,0,.62.18.63.43Z"/>
      <path class="cls-4" d="m3.7,7.21c-.63-.61-.21-1.36.51-1.65"/>
      <path class="cls-4" d="m4.84,7.1c-1.32.27-1.12-1.37-.6-1.54"/>
      <path class="cls-4" d="m5.09,6.62c-.85.37-1.36-.71-.87-1.05"/>
      <path class="cls-4" d="m5.11,6.72c.19.04.32.21.3.37.12.12.19.39.05.58.03.5-.85.88-1.6.64-.83-.06-1.27-.47-1.09-1.04.02-.32.16-.51.4-.56"/>
      <path class="cls-4" d="m5.42,7.1c-.13.29-1.07.59-1.72.13"/>
      <path class="cls-4" d="m5.45,7.66c-.76.49-2.52-.07-2.3-.96"/>
      <path class="cls-4" d="m3.89,8.3c-.86-.24-1.08-1.09-.75-1.59"/>
      <path class="cls-4" d="m3.15,6.7s-.36.24-.38.57"/>
      <path class="cls-1" d="m1.46,8.5c-.04-.46.48-1.04,1.08-1.14-.26.34-.18.54.22.62.38,0,.62.18.63.43.02.03.04.07.03.11.19.05.31.21.29.36.12.12.19.39.05.58.03.5-.85.88-1.6.64-.83-.06-1.27-.47-1.09-1.04.02-.32.16-.51.4-.57Z"/>
      <path class="cls-4" d="m1.46,8.5c-.04-.46.48-1.04,1.08-1.14-.26.34-.18.54.22.62.38,0,.62.18.63.43.02.03.04.07.03.11.19.05.31.21.29.36.12.12.19.39.05.58.03.5-.85.88-1.6.64-.83-.06-1.27-.47-1.09-1.04.02-.32.16-.51.4-.57Z"/>
      <path class="cls-4" d="m3.39,8.42c.1.12-.04.42-.23.49-.21.24-.8.35-1.16.12-1.08-.27-.36-1.52.53-1.66-.26.34-.18.54.22.62.38,0,.62.18.63.43Z"/>
      <path class="cls-4" d="m2,9.03c-.63-.61-.21-1.36.51-1.65"/>
      <path class="cls-4" d="m3.14,8.92c-1.32.27-1.12-1.37-.6-1.54"/>
      <path class="cls-4" d="m3.39,8.43c-.85.37-1.36-.71-.87-1.05"/>
      <path class="cls-4" d="m3.41,8.53c.19.04.32.21.3.37.12.12.19.39.05.58.03.5-.85.88-1.6.64-.83-.06-1.27-.47-1.09-1.04.02-.32.16-.51.4-.56"/>
      <path class="cls-4" d="m3.72,8.91c-.13.29-1.07.59-1.72.13"/>
      <path class="cls-4" d="m3.75,9.47c-.76.49-2.52-.07-2.3-.96"/>
      <path class="cls-4" d="m2.19,10.12c-.86-.25-1.08-1.09-.75-1.59"/>
      <path class="cls-4" d="m1.45,8.51s-.36.24-.38.57"/>
      <path class="cls-2" d="m6.61,32.35c-3.79-1.86-6.13-4.38-6.13-7.17l-.05-9.34c-.27-2.13-.12-4.21.28-5.46l22.22-.07v13.29l-16.31,8.74Z"/>
      <path class="cls-5" d="m6.61,32.35c-3.79-1.86-6.13-4.38-6.13-7.17l-.05-9.34c-.27-2.13-.12-4.21.28-5.46l22.22-.07v13.29l-16.31,8.74Z"/>
      <path class="cls-5" d="m22.83,10.44L6.75,19.11c-.25.92-.25,2.26,0,4.01"/>
      <path class="cls-5" d="m.47,15.83c0,2.77,2.4,5.29,6.27,7.15"/>
      <path class="cls-5" d="m.45,20.55c0,2.75,2.36,5.25,6.18,7.1"/>
      <path class="cls-5" d="m.45,21.87c0,2.76,2.39,5.27,6.24,7.13"/>
      <line class="cls-5" x1="22.83" y1="14.3" x2="6.75" y2="22.97"/>
      <line class="cls-5" x1="22.83" y1="18.91" x2="6.75" y2="27.58"/>
      <line class="cls-5" x1="22.83" y1="20.34" x2="6.75" y2="29.01"/>
      <path class="cls-1" d="m.42,20.55c0,2.75,2.36,5.25,6.18,7.1l.11-.07,16.08-8.67.09,1.41L6.66,29c-3.85-1.86-6.24-4.37-6.24-7.13v-1.32Zm22.38-6.25L6.7,22.98C2.84,21.12.39,18.63.38,15.86c-.26-2.14-.12-4.22.28-5.47l22.22-.07-.09,3.98Zm0,0L6.7,22.98C2.84,21.12.39,18.63.38,15.86c-.26-2.14-.12-4.22.28-5.47l22.22-.07-.09,3.98ZM.42,20.55c0,2.75,2.36,5.25,6.18,7.1l.11-.07,16.08-8.67.09,1.41L6.66,29c-3.85-1.86-6.24-4.37-6.24-7.13v-1.32Zm22.38-6.25L6.7,22.98C2.84,21.12.39,18.63.38,15.86c-.26-2.14-.12-4.22.28-5.47l22.22-.07-.09,3.98ZM.42,20.55c0,2.75,2.36,5.25,6.18,7.1l.11-.07,16.08-8.67.09,1.41L6.66,29c-3.85-1.86-6.24-4.37-6.24-7.13v-1.32Z"/>
      <path class="cls-5" d="m.42,20.55c0,2.75,2.36,5.25,6.18,7.1l.11-.07,16.08-8.67.09,1.41L6.66,29c-3.85-1.86-6.24-4.37-6.24-7.13v-1.32Zm22.38-6.25L6.7,22.98C2.84,21.12.39,18.63.38,15.86c-.26-2.14-.12-4.22.28-5.47l22.22-.07-.09,3.98Zm0,0L6.7,22.98C2.84,21.12.39,18.63.38,15.86c-.26-2.14-.12-4.22.28-5.47l22.22-.07-.09,3.98ZM.42,20.55c0,2.75,2.36,5.25,6.18,7.1l.11-.07,16.08-8.67.09,1.41L6.66,29c-3.85-1.86-6.24-4.37-6.24-7.13v-1.32Zm22.38-6.25L6.7,22.98C2.84,21.12.39,18.63.38,15.86c-.26-2.14-.12-4.22.28-5.47l22.22-.07-.09,3.98ZM.42,20.55c0,2.75,2.36,5.25,6.18,7.1l.11-.07,16.08-8.67.09,1.41L6.66,29c-3.85-1.86-6.24-4.37-6.24-7.13v-1.32Z"/>
      <path class="cls-5" d="m22.79,10.41L6.7,19.05C2.84,17.19.39,14.7.38,11.93v.04l.31-1.53c-.14.48-.22.97-.22,1.46"/>
      <path class="cls-5" d="m6.61,32.35c-3.79-1.86-6.13-4.38-6.13-7.17l-.05-9.34c-.27-2.13-.12-4.21.28-5.46l22.22-.07v13.29l-16.31,8.74Z"/>
      <line class="cls-5" x1="6.75" y1="19.23" x2="6.75" y2="32.34"/>
      <path class="cls-1" d="m.78,10.62c-.04-.46.48-1.04,1.08-1.14-.26.34-.18.54.22.62.38,0,.62.18.63.43.02.03.04.07.03.11.19.05.31.21.29.36.12.12.19.39.05.58.03.5-.85.88-1.6.64-.83-.06-1.27-.47-1.09-1.04.02-.32.16-.51.4-.57Z"/>
      <path class="cls-4" d="m.78,10.62c-.04-.46.48-1.04,1.08-1.14-.26.34-.18.54.22.62.38,0,.62.18.63.43.02.03.04.07.03.11.19.05.31.21.29.36.12.12.19.39.05.58.03.5-.85.88-1.6.64-.83-.06-1.27-.47-1.09-1.04.02-.32.16-.51.4-.57Z"/>
      <path class="cls-4" d="m2.71,10.54c.1.12-.04.42-.23.49-.21.24-.8.35-1.16.12-1.08-.27-.36-1.52.53-1.66-.26.34-.18.54.22.62.38,0,.62.18.63.43Z"/>
      <path class="cls-4" d="m1.32,11.14c-.63-.61-.21-1.36.51-1.65"/>
      <path class="cls-4" d="m2.46,11.03c-1.32.27-1.12-1.37-.6-1.54"/>
      <path class="cls-4" d="m2.71,10.55c-.85.37-1.36-.71-.87-1.05"/>
      <path class="cls-4" d="m2.73,10.65c.19.04.32.21.3.37.12.12.19.39.05.58.03.5-.85.88-1.6.64-.83-.06-1.27-.47-1.09-1.04.02-.32.16-.51.4-.56"/>
      <path class="cls-4" d="m3.04,11.03c-.13.29-1.07.59-1.72.13"/>
      <path class="cls-4" d="m3.07,11.59c-.76.49-2.52-.07-2.3-.96"/>
      <path class="cls-4" d="m1.51,12.23c-.86-.24-1.08-1.09-.75-1.59"/>
      <path class="cls-4" d="m.77,10.63s-.36.24-.38.57"/>
      <path class="cls-1" d="m1.35,12.85c-.04-.46.48-1.04,1.08-1.14-.26.34-.18.54.22.62.38,0,.62.18.63.43.02.03.04.07.03.11.19.05.31.21.29.36.12.12.19.39.05.58.03.5-.85.88-1.6.64-.83-.06-1.27-.47-1.09-1.04.02-.32.16-.51.4-.57Z"/>
      <path class="cls-4" d="m1.35,12.85c-.04-.46.48-1.04,1.08-1.14-.26.34-.18.54.22.62.38,0,.62.18.63.43.02.03.04.07.03.11.19.05.31.21.29.36.12.12.19.39.05.58.03.5-.85.88-1.6.64-.83-.06-1.27-.47-1.09-1.04.02-.32.16-.51.4-.57Z"/>
      <path class="cls-4" d="m3.27,12.77c.1.12-.04.42-.23.49-.21.24-.8.36-1.16.12-1.08-.27-.36-1.52.53-1.66-.26.34-.18.54.22.62.38,0,.62.18.63.43Z"/>
      <path class="cls-4" d="m1.89,13.37c-.63-.61-.21-1.36.51-1.65"/>
      <path class="cls-4" d="m3.02,13.26c-1.32.27-1.12-1.37-.6-1.54"/>
      <path class="cls-4" d="m3.27,12.78c-.85.37-1.36-.71-.87-1.05"/>
      <path class="cls-4" d="m3.3,12.88c.19.04.32.21.3.37.12.12.19.39.05.58.03.5-.85.88-1.6.64-.83-.06-1.27-.47-1.09-1.04.02-.32.16-.51.4-.56"/>
      <path class="cls-4" d="m3.6,13.25c-.13.29-1.07.59-1.72.13"/>
      <path class="cls-4" d="m3.63,13.82c-.76.49-2.52-.07-2.3-.96"/>
      <path class="cls-4" d="m2.07,14.46c-.86-.24-1.08-1.09-.75-1.59"/>
      <path class="cls-4" d="m1.33,12.86s-.36.24-.38.57"/>
      <path class="cls-1" d="m3.31,14.96c-.04-.46.48-1.04,1.08-1.14-.26.34-.18.54.22.62.38,0,.62.18.63.43.02.03.04.07.03.11.19.05.31.21.29.36.12.12.19.39.05.58.03.5-.85.88-1.6.64-.83-.06-1.27-.47-1.09-1.04.02-.32.16-.51.4-.57Z"/>
      <path class="cls-4" d="m3.31,14.96c-.04-.46.48-1.04,1.08-1.14-.26.34-.18.54.22.62.38,0,.62.18.63.43.02.03.04.07.03.11.19.05.31.21.29.36.12.12.19.39.05.58.03.5-.85.88-1.6.64-.83-.06-1.27-.47-1.09-1.04.02-.32.16-.51.4-.57Z"/>
      <path class="cls-4" d="m5.24,14.88c.1.12-.04.42-.23.49-.21.24-.8.35-1.16.12-1.08-.27-.36-1.52.53-1.66-.26.34-.18.54.22.62.38,0,.62.18.63.43Z"/>
      <path class="cls-4" d="m3.86,15.49c-.63-.61-.21-1.36.51-1.65"/>
      <path class="cls-4" d="m4.99,15.38c-1.32.27-1.12-1.37-.6-1.54"/>
      <path class="cls-4" d="m5.24,14.89c-.85.37-1.36-.71-.87-1.05"/>
      <path class="cls-4" d="m5.26,14.99c.19.04.32.21.3.37.12.12.19.39.05.58.03.5-.85.88-1.6.64-.83-.06-1.27-.47-1.09-1.04.02-.32.16-.51.4-.56"/>
      <path class="cls-4" d="m5.57,15.37c-.13.29-1.07.59-1.72.13"/>
      <path class="cls-4" d="m5.6,15.94c-.76.49-2.52-.07-2.3-.96"/>
      <path class="cls-4" d="m4.04,16.58c-.86-.25-1.08-1.09-.75-1.59"/>
      <path class="cls-4" d="m3.3,14.97s-.36.24-.38.57"/>
      <path class="cls-1" d="m5.73,16.66c-.04-.46.48-1.04,1.08-1.14-.26.34-.18.54.22.62.38,0,.62.18.63.43.02.03.04.07.03.11.19.05.31.21.29.36.12.12.19.39.05.58.03.5-.85.88-1.6.64-.83-.06-1.27-.47-1.09-1.04.02-.32.16-.51.4-.57Z"/>
      <path class="cls-4" d="m5.73,16.66c-.04-.46.48-1.04,1.08-1.14-.26.34-.18.54.22.62.38,0,.62.18.63.43.02.03.04.07.03.11.19.05.31.21.29.36.12.12.19.39.05.58.03.5-.85.88-1.6.64-.83-.06-1.27-.47-1.09-1.04.02-.32.16-.51.4-.57Z"/>
      <path class="cls-4" d="m7.66,16.58c.1.12-.04.42-.23.49-.21.24-.8.35-1.16.12-1.08-.27-.36-1.52.53-1.66-.26.34-.18.54.22.62.38,0,.62.18.63.43Z"/>
      <path class="cls-4" d="m6.27,17.19c-.63-.61-.21-1.36.51-1.65"/>
      <path class="cls-4" d="m7.41,17.08c-1.32.27-1.12-1.37-.6-1.54"/>
      <path class="cls-4" d="m7.66,16.59c-.85.37-1.36-.71-.87-1.05"/>
      <path class="cls-4" d="m7.68,16.69c.19.04.32.21.3.37.12.12.19.39.05.58.03.5-.85.88-1.6.64-.83-.06-1.27-.47-1.09-1.04.02-.32.16-.51.4-.56"/>
      <path class="cls-4" d="m7.99,17.07c-.13.29-1.07.59-1.72.13"/>
      <path class="cls-4" d="m8.02,17.64c-.76.49-2.52-.07-2.3-.96"/>
      <path class="cls-4" d="m6.46,18.28c-.86-.25-1.08-1.09-.75-1.59"/>
      <path class="cls-4" d="m5.72,16.67s-.36.24-.38.57"/>
      <path class="cls-3" d="m6.67,22.89v9.52c4.03,1.93,9.72,3.1,15.95,3.1h.31s-.09-25.1-.09-25.1L6.75,19.08c-.25.92-.33,2.07-.08,3.82Z"/>
      <path class="cls-5" d="m6.67,22.89v9.52c4.03,1.93,9.72,3.1,15.95,3.1h.31s-.09-25.1-.09-25.1L6.75,19.08c-.25.92-.33,2.07-.08,3.82Z"/>
      <path class="cls-1" d="m6.74,22.79c4.1,1.97,9.86,3.19,16.15,3.19l-.06-15.72L6.75,18.92c-.25.92-.33,2.07-.08,3.82l.07.05Zm-.03,4.71c4.11,1.98,9.88,3.22,16.19,3.22v1.32c-6.31,0-12.08-1.23-16.19-3.22v-1.32Zm0,0c4.11,1.98,9.88,3.22,16.19,3.22v1.32c-6.31,0-12.08-1.23-16.19-3.22v-1.32Zm.03-4.71c4.1,1.97,9.86,3.19,16.15,3.19l-.06-15.72L6.75,18.92c-.25.92-.33,2.07-.08,3.82l.07.05Zm-.03,4.71c4.11,1.98,9.88,3.22,16.19,3.22v1.32c-6.31,0-12.08-1.23-16.19-3.22v-1.32Zm.03-4.71c4.1,1.97,9.86,3.19,16.15,3.19l-.06-15.72L6.75,18.92c-.25.92-.33,2.07-.08,3.82l.07.05Z"/>
      <path class="cls-5" d="m6.74,22.79c4.1,1.97,9.86,3.19,16.15,3.19l-.06-15.72L6.75,18.92c-.25.92-.33,2.07-.08,3.82l.07.05Zm-.03,4.71c4.11,1.98,9.88,3.22,16.19,3.22v1.32c-6.31,0-12.08-1.23-16.19-3.22v-1.32Zm0,0c4.11,1.98,9.88,3.22,16.19,3.22v1.32c-6.31,0-12.08-1.23-16.19-3.22v-1.32Zm.03-4.71c4.1,1.97,9.86,3.19,16.15,3.19l-.06-15.72L6.75,18.92c-.25.92-.33,2.07-.08,3.82l.07.05Zm-.03,4.71c4.11,1.98,9.88,3.22,16.19,3.22v1.32c-6.31,0-12.08-1.23-16.19-3.22v-1.32Zm.03-4.71c4.1,1.97,9.86,3.19,16.15,3.19l-.06-15.72L6.75,18.92c-.25.92-.33,2.07-.08,3.82l.07.05Z"/>
      <path class="cls-5" d="m6.74,19.11c4.02,1.91,9.61,3.1,15.8,3.1h.34"/>
      <line class="cls-5" x1="22.91" y1="32.07" x2="22.9" y2="30.71"/>
      <line class="cls-5" x1="6.67" y1="27.41" x2="6.67" y2="28.8"/>
      <path class="cls-5" d="m6.67,22.89v9.52c4.03,1.93,9.72,3.1,15.95,3.1h.31s-.09-25.1-.09-25.1L6.75,19.08c-.25.92-.33,2.07-.08,3.82Z"/>
      <path class="cls-1" d="m19.75,20.03c-.04-.46.48-1.04,1.08-1.14-.26.34-.18.54.22.62.38,0,.62.18.63.43.02.03.04.07.03.11.19.05.31.21.29.36.12.12.19.39.05.58.03.5-.85.88-1.6.64-.83-.06-1.27-.47-1.09-1.04.02-.32.16-.51.4-.57Z"/>
      <path class="cls-4" d="m19.75,20.03c-.04-.46.48-1.04,1.08-1.14-.26.34-.18.54.22.62.38,0,.62.18.63.43.02.03.04.07.03.11.19.05.31.21.29.36.12.12.19.39.05.58.03.5-.85.88-1.6.64-.83-.06-1.27-.47-1.09-1.04.02-.32.16-.51.4-.57Z"/>
      <path class="cls-4" d="m21.68,19.95c.1.12-.04.42-.23.49-.21.24-.8.35-1.16.12-1.08-.27-.36-1.52.53-1.66-.26.34-.18.54.22.62.38,0,.62.18.63.43Z"/>
      <path class="cls-4" d="m20.29,20.55c-.63-.61-.21-1.36.51-1.65"/>
      <path class="cls-4" d="m21.42,20.44c-1.32.27-1.12-1.37-.6-1.54"/>
      <path class="cls-4" d="m21.67,19.96c-.85.37-1.36-.71-.87-1.05"/>
      <path class="cls-4" d="m21.7,20.06c.19.04.32.21.3.37.12.12.19.39.05.58.03.5-.85.88-1.6.64-.83-.06-1.27-.47-1.09-1.04.02-.32.16-.51.4-.56"/>
      <path class="cls-4" d="m22,20.43c-.13.29-1.07.59-1.72.13"/>
      <path class="cls-4" d="m22.04,21c-.76.49-2.52-.07-2.3-.96"/>
      <path class="cls-4" d="m20.47,21.64c-.86-.25-1.08-1.09-.75-1.59"/>
      <path class="cls-4" d="m19.73,20.04s-.36.24-.38.57"/>
      <path class="cls-1" d="m16.24,19.65c-.04-.46.48-1.04,1.08-1.14-.26.34-.18.54.22.62.38,0,.62.18.63.43.02.03.04.07.03.11.19.05.31.21.29.36.12.12.19.39.05.58.03.5-.85.88-1.6.64-.83-.06-1.27-.47-1.09-1.04.02-.32.16-.51.4-.57Z"/>
      <path class="cls-4" d="m16.24,19.65c-.04-.46.48-1.04,1.08-1.14-.26.34-.18.54.22.62.38,0,.62.18.63.43.02.03.04.07.03.11.19.05.31.21.29.36.12.12.19.39.05.58.03.5-.85.88-1.6.64-.83-.06-1.27-.47-1.09-1.04.02-.32.16-.51.4-.57Z"/>
      <path class="cls-4" d="m18.16,19.57c.1.12-.04.42-.23.49-.21.24-.8.35-1.16.12-1.08-.27-.36-1.52.53-1.66-.26.34-.18.54.22.62.38,0,.62.18.63.43Z"/>
      <path class="cls-4" d="m16.78,20.18c-.63-.61-.21-1.36.51-1.65"/>
      <path class="cls-4" d="m17.91,20.06c-1.32.27-1.12-1.37-.6-1.54"/>
      <path class="cls-4" d="m18.16,19.58c-.85.37-1.36-.71-.87-1.05"/>
      <path class="cls-4" d="m18.18,19.68c.19.04.32.21.3.37.12.12.19.39.05.58.03.5-.85.88-1.6.64-.83-.06-1.27-.47-1.09-1.04.02-.32.16-.51.4-.56"/>
      <path class="cls-4" d="m18.49,20.06c-.13.29-1.07.59-1.72.13"/>
      <path class="cls-4" d="m18.52,20.62c-.76.49-2.52-.07-2.3-.96"/>
      <path class="cls-4" d="m16.96,21.26c-.86-.25-1.08-1.09-.75-1.59"/>
      <path class="cls-4" d="m16.22,19.66s-.36.24-.38.57"/>
      <path class="cls-1" d="m12.46,19.04c-.04-.46.48-1.04,1.08-1.14-.26.34-.18.54.22.62.38,0,.62.18.63.43.02.03.04.07.03.11.19.05.31.21.29.36.12.12.19.39.05.58.03.5-.85.88-1.6.64-.83-.06-1.27-.47-1.09-1.04.02-.32.16-.51.4-.57Z"/>
      <path class="cls-4" d="m12.46,19.04c-.04-.46.48-1.04,1.08-1.14-.26.34-.18.54.22.62.38,0,.62.18.63.43.02.03.04.07.03.11.19.05.31.21.29.36.12.12.19.39.05.58.03.5-.85.88-1.6.64-.83-.06-1.27-.47-1.09-1.04.02-.32.16-.51.4-.57Z"/>
      <path class="cls-4" d="m14.38,18.96c.1.12-.04.42-.23.49-.21.24-.8.35-1.16.12-1.08-.27-.36-1.52.53-1.66-.26.34-.18.54.22.62.38,0,.62.18.63.43Z"/>
      <path class="cls-4" d="m13,19.57c-.63-.61-.21-1.36.51-1.65"/>
      <path class="cls-4" d="m14.13,19.46c-1.32.27-1.12-1.37-.6-1.54"/>
      <path class="cls-4" d="m14.38,18.97c-.85.37-1.36-.71-.87-1.05"/>
      <path class="cls-4" d="m14.41,19.07c.19.04.32.21.3.37.12.12.19.39.05.58.03.5-.85.88-1.6.64-.83-.06-1.27-.47-1.09-1.04.02-.32.16-.51.4-.56"/>
      <path class="cls-4" d="m14.71,19.45c-.13.29-1.07.59-1.72.13"/>
      <path class="cls-4" d="m14.74,20.02c-.76.49-2.52-.07-2.3-.96"/>
      <path class="cls-4" d="m13.18,20.66c-.86-.25-1.08-1.09-.75-1.59"/>
      <path class="cls-4" d="m12.44,19.05s-.36.24-.38.57"/>
      <path class="cls-1" d="m8.87,18.25c-.04-.46.48-1.04,1.08-1.14-.26.34-.18.54.22.62.38,0,.62.18.63.43.02.03.04.07.03.11.19.05.31.21.29.36.12.12.19.39.05.58.03.5-.85.88-1.6.64-.83-.06-1.27-.47-1.09-1.04.02-.32.16-.51.4-.57Z"/>
      <path class="cls-4" d="m8.87,18.25c-.04-.46.48-1.04,1.08-1.14-.26.34-.18.54.22.62.38,0,.62.18.63.43.02.03.04.07.03.11.19.05.31.21.29.36.12.12.19.39.05.58.03.5-.85.88-1.6.64-.83-.06-1.27-.47-1.09-1.04.02-.32.16-.51.4-.57Z"/>
      <path class="cls-4" d="m10.79,18.17c.1.12-.04.42-.23.49-.21.24-.8.36-1.16.12-1.08-.27-.36-1.52.53-1.66-.26.34-.18.54.22.62.38,0,.62.18.63.43Z"/>
      <path class="cls-4" d="m9.41,18.78c-.63-.61-.21-1.36.51-1.65"/>
      <path class="cls-4" d="m10.54,18.67c-1.32.27-1.12-1.37-.6-1.54"/>
      <path class="cls-4" d="m10.79,18.18c-.85.37-1.36-.71-.87-1.05"/>
      <path class="cls-4" d="m10.82,18.28c.19.04.32.21.3.37.12.12.19.39.05.58.03.5-.85.88-1.6.64-.83-.06-1.27-.47-1.09-1.04.02-.32.16-.51.4-.56"/>
      <path class="cls-4" d="m11.12,18.66c-.13.29-1.07.59-1.72.13"/>
      <path class="cls-4" d="m11.15,19.22c-.76.49-2.52-.07-2.3-.96"/>
      <path class="cls-4" d="m9.59,19.87c-.86-.24-1.08-1.09-.75-1.59"/>
      <path class="cls-4" d="m8.85,18.26s-.36.24-.38.57"/>
      <path class="cls-3" d="m39.5,22.89v9.52c-4.03,1.93-9.72,3.1-15.95,3.1h-.31s.09-25.1.09-25.1l16.08,8.67c.25.92.33,2.07.08,3.82Z"/>
      <path class="cls-5" d="m39.5,22.89v9.52c-4.03,1.93-9.72,3.1-15.95,3.1h-.31s.09-25.1.09-25.1l16.08,8.67c.25.92.33,2.07.08,3.82Z"/>
      <path class="cls-1" d="m39.43,22.79c-4.1,1.97-9.86,3.19-16.15,3.19l.06-15.72,16.08,8.67c.25.92.33,2.07.08,3.82l-.07.05Zm.03,4.71c-4.11,1.98-9.88,3.22-16.19,3.22v1.32c6.31,0,12.08-1.23,16.19-3.22v-1.32Zm0,0c-4.11,1.98-9.88,3.22-16.19,3.22v1.32c6.31,0,12.08-1.23,16.19-3.22v-1.32Zm-.03-4.71c-4.1,1.97-9.86,3.19-16.15,3.19l.06-15.72,16.08,8.67c.25.92.33,2.07.08,3.82l-.07.05Zm.03,4.71c-4.11,1.98-9.88,3.22-16.19,3.22v1.32c6.31,0,12.08-1.23,16.19-3.22v-1.32Zm-.03-4.71c-4.1,1.97-9.86,3.19-16.15,3.19l.06-15.72,16.08,8.67c.25.92.33,2.07.08,3.82l-.07.05Z"/>
      <path class="cls-5" d="m39.43,22.79c-4.1,1.97-9.86,3.19-16.15,3.19l.06-15.72,16.08,8.67c.25.92.33,2.07.08,3.82l-.07.05Zm.03,4.71c-4.11,1.98-9.88,3.22-16.19,3.22v1.32c6.31,0,12.08-1.23,16.19-3.22v-1.32Zm0,0c-4.11,1.98-9.88,3.22-16.19,3.22v1.32c6.31,0,12.08-1.23,16.19-3.22v-1.32Zm-.03-4.71c-4.1,1.97-9.86,3.19-16.15,3.19l.06-15.72,16.08,8.67c.25.92.33,2.07.08,3.82l-.07.05Zm.03,4.71c-4.11,1.98-9.88,3.22-16.19,3.22v1.32c6.31,0,12.08-1.23,16.19-3.22v-1.32Zm-.03-4.71c-4.1,1.97-9.86,3.19-16.15,3.19l.06-15.72,16.08,8.67c.25.92.33,2.07.08,3.82l-.07.05Z"/>
      <path class="cls-5" d="m39.43,19.11c-4.02,1.91-9.61,3.1-15.8,3.1h-.34"/>
      <line class="cls-5" x1="23.26" y1="32.07" x2="23.27" y2="30.71"/>
      <line class="cls-5" x1="39.5" y1="27.41" x2="39.5" y2="28.8"/>
      <path class="cls-5" d="m39.5,22.89v9.52c-4.03,1.93-9.72,3.1-15.95,3.1h-.31s.09-25.1.09-25.1l16.08,8.67c.25.92.33,2.07.08,3.82Z"/>
      <path class="cls-1" d="m26.47,19.9c.04-.46-.48-1.04-1.08-1.14.26.34.18.54-.22.62-.38,0-.62.18-.63.43-.02.03-.04.07-.03.11-.19.05-.31.21-.29.36-.12.12-.19.39-.05.58-.03.5.85.88,1.6.64.83-.06,1.27-.47,1.09-1.04-.02-.32-.16-.51-.4-.57Z"/>
      <path class="cls-4" d="m26.47,19.9c.04-.46-.48-1.04-1.08-1.14.26.34.18.54-.22.62-.38,0-.62.18-.63.43-.02.03-.04.07-.03.11-.19.05-.31.21-.29.36-.12.12-.19.39-.05.58-.03.5.85.88,1.6.64.83-.06,1.27-.47,1.09-1.04-.02-.32-.16-.51-.4-.57Z"/>
      <path class="cls-4" d="m24.55,19.82c-.1.12.04.42.23.49.21.24.8.35,1.16.12,1.08-.27.36-1.52-.53-1.66.26.34.18.54-.22.62-.38,0-.62.18-.63.43Z"/>
      <path class="cls-4" d="m25.93,20.43c.63-.61.21-1.36-.51-1.65"/>
      <path class="cls-4" d="m24.8,20.32c1.32.27,1.12-1.37.6-1.54"/>
      <path class="cls-4" d="m24.55,19.83c.85.37,1.36-.71.87-1.05"/>
      <path class="cls-4" d="m24.52,19.93c-.19.04-.32.21-.3.37-.12.12-.19.39-.05.58-.03.5.85.88,1.6.64.83-.06,1.27-.47,1.09-1.04-.02-.32-.16-.51-.4-.56"/>
      <path class="cls-4" d="m24.22,20.31c.13.29,1.07.59,1.72.13"/>
      <path class="cls-4" d="m24.19,20.87c.76.49,2.52-.07,2.3-.96"/>
      <path class="cls-4" d="m25.75,21.52c.86-.25,1.08-1.09.75-1.59"/>
      <path class="cls-4" d="m26.49,19.91s.36.24.38.57"/>
      <path class="cls-1" d="m29.99,19.52c.04-.46-.48-1.04-1.08-1.14.26.34.18.54-.22.62-.38,0-.62.18-.63.43-.02.03-.04.07-.03.11-.19.05-.31.21-.29.36-.12.12-.19.39-.05.58-.03.5.85.88,1.6.64.83-.06,1.27-.47,1.09-1.04-.02-.32-.16-.51-.4-.57Z"/>
      <path class="cls-4" d="m29.99,19.52c.04-.46-.48-1.04-1.08-1.14.26.34.18.54-.22.62-.38,0-.62.18-.63.43-.02.03-.04.07-.03.11-.19.05-.31.21-.29.36-.12.12-.19.39-.05.58-.03.5.85.88,1.6.64.83-.06,1.27-.47,1.09-1.04-.02-.32-.16-.51-.4-.57Z"/>
      <path class="cls-4" d="m28.06,19.44c-.1.12.04.42.23.49.21.24.8.35,1.16.12,1.08-.27.36-1.52-.53-1.66.26.34.18.54-.22.62-.38,0-.62.18-.63.43Z"/>
      <path class="cls-4" d="m29.45,20.05c.63-.61.21-1.36-.51-1.65"/>
      <path class="cls-4" d="m28.31,19.94c1.32.27,1.12-1.37.6-1.54"/>
      <path class="cls-4" d="m28.06,19.45c.85.37,1.36-.71.87-1.05"/>
      <path class="cls-4" d="m28.04,19.55c-.19.04-.32.21-.3.37-.12.12-.19.39-.05.58-.03.5.85.88,1.6.64.83-.06,1.27-.47,1.09-1.04-.02-.32-.16-.51-.4-.56"/>
      <path class="cls-4" d="m27.73,19.93c.13.29,1.07.59,1.72.13"/>
      <path class="cls-4" d="m27.7,20.5c.76.49,2.52-.07,2.3-.96"/>
      <path class="cls-4" d="m29.26,21.14c.86-.25,1.08-1.09.75-1.59"/>
      <path class="cls-4" d="m30,19.53s.36.24.38.57"/>
      <path class="cls-1" d="m33.77,18.92c.04-.46-.48-1.04-1.08-1.14.26.34.18.54-.22.62-.38,0-.62.18-.63.43-.02.03-.04.07-.03.11-.19.05-.31.21-.29.36-.12.12-.19.39-.05.58-.03.5.85.88,1.6.64.83-.06,1.27-.47,1.09-1.04-.02-.32-.16-.51-.4-.57Z"/>
      <path class="cls-4" d="m33.77,18.92c.04-.46-.48-1.04-1.08-1.14.26.34.18.54-.22.62-.38,0-.62.18-.63.43-.02.03-.04.07-.03.11-.19.05-.31.21-.29.36-.12.12-.19.39-.05.58-.03.5.85.88,1.6.64.83-.06,1.27-.47,1.09-1.04-.02-.32-.16-.51-.4-.57Z"/>
      <path class="cls-4" d="m31.84,18.84c-.1.12.04.42.23.49.21.24.8.35,1.16.12,1.08-.27.36-1.52-.53-1.66.26.34.18.54-.22.62-.38,0-.62.18-.63.43Z"/>
      <path class="cls-4" d="m33.22,19.45c.63-.61.21-1.36-.51-1.65"/>
      <path class="cls-4" d="m32.09,19.33c1.32.27,1.12-1.37.6-1.54"/>
      <path class="cls-4" d="m31.84,18.85c.85.37,1.36-.71.87-1.05"/>
      <path class="cls-4" d="m31.82,18.95c-.19.04-.32.21-.3.37-.12.12-.19.39-.05.58-.03.5.85.88,1.6.64.83-.06,1.27-.47,1.09-1.04-.02-.32-.16-.51-.4-.56"/>
      <path class="cls-4" d="m31.51,19.33c.13.29,1.07.59,1.72.13"/>
      <path class="cls-4" d="m31.48,19.89c.76.49,2.52-.07,2.3-.96"/>
      <path class="cls-4" d="m33.04,20.53c.86-.25,1.08-1.09.75-1.59"/>
      <path class="cls-4" d="m33.78,18.93s.36.24.38.57"/>
      <path class="cls-1" d="m37.36,18.13c.04-.46-.48-1.04-1.08-1.14.26.34.18.54-.22.62-.38,0-.62.18-.63.43-.02.03-.04.07-.03.11-.19.05-.31.21-.29.36-.12.12-.19.39-.05.58-.03.5.85.88,1.6.64.83-.06,1.27-.47,1.09-1.04-.02-.32-.16-.51-.4-.57Z"/>
      <path class="cls-4" d="m37.36,18.13c.04-.46-.48-1.04-1.08-1.14.26.34.18.54-.22.62-.38,0-.62.18-.63.43-.02.03-.04.07-.03.11-.19.05-.31.21-.29.36-.12.12-.19.39-.05.58-.03.5.85.88,1.6.64.83-.06,1.27-.47,1.09-1.04-.02-.32-.16-.51-.4-.57Z"/>
      <path class="cls-4" d="m35.43,18.05c-.1.12.04.42.23.49.21.24.8.36,1.16.12,1.08-.27.36-1.52-.53-1.66.26.34.18.54-.22.62-.38,0-.62.18-.63.43Z"/>
      <path class="cls-4" d="m36.81,18.65c.63-.61.21-1.36-.51-1.65"/>
      <path class="cls-4" d="m35.68,18.54c1.32.27,1.12-1.37.6-1.54"/>
      <path class="cls-4" d="m35.43,18.06c.85.37,1.36-.71.87-1.05"/>
      <path class="cls-4" d="m35.41,18.16c-.19.04-.32.21-.3.37-.12.12-.19.39-.05.58-.03.5.85.88,1.6.64.83-.06,1.27-.47,1.09-1.04-.02-.32-.16-.51-.4-.56"/>
      <path class="cls-4" d="m35.1,18.53c.13.29,1.07.59,1.72.13"/>
      <path class="cls-4" d="m35.07,19.1c.76.49,2.52-.07,2.3-.96"/>
      <path class="cls-4" d="m36.63,19.74c.86-.24,1.08-1.09.75-1.59"/>
      <path class="cls-4" d="m37.37,18.14s.36.24.38.57"/>
    </g>
  </g>
</svg>