<?xml version="1.0" encoding="UTF-8"?>
<svg id="Layer_2" data-name="Layer 2" xmlns="http://www.w3.org/2000/svg" viewBox="0 0 132 140.19">
  <defs>
    <style>
      .cls-1, .cls-2, .cls-3, .cls-4, .cls-5, .cls-6, .cls-7, .cls-8, .cls-9, .cls-10, .cls-11 {
        stroke-width: 0px;
      }

      .cls-1, .cls-7 {
        fill: #41b056;
      }

      .cls-12 {
        stroke: #41b056;
      }

      .cls-12, .cls-13, .cls-14, .cls-15, .cls-16, .cls-17, .cls-18, .cls-19, .cls-20, .cls-21 {
        fill: none;
      }

      .cls-12, .cls-14, .cls-15, .cls-16, .cls-17, .cls-20 {
        stroke-miterlimit: 3.86;
      }

      .cls-13, .cls-14, .cls-21 {
        stroke: #231f20;
      }

      .cls-13, .cls-18, .cls-19, .cls-21 {
        stroke-miterlimit: 3.86;
      }

      .cls-15, .cls-19 {
        stroke: #65694e;
      }

      .cls-2, .cls-9 {
        fill: #f9fae8;
      }

      .cls-3 {
        fill: #f7b932;
      }

      .cls-3, .cls-4, .cls-5, .cls-7, .cls-8, .cls-9, .cls-10, .cls-11 {
        fill-rule: evenodd;
      }

      .cls-4 {
        fill: #905d38;
      }

      .cls-16 {
        stroke: #002e05;
      }

      .cls-17 {
        stroke: #b73637;
      }

      .cls-5 {
        fill: #060000;
      }

      .cls-6, .cls-10 {
        fill: #b73637;
      }

      .cls-18, .cls-19 {
        stroke-width: .25px;
      }

      .cls-18, .cls-20 {
        stroke: #060000;
      }

      .cls-8 {
        fill: #f03;
      }

      .cls-11 {
        fill: #44290b;
      }

      .cls-21 {
        stroke-width: .5px;
      }
    </style>
  </defs>
  <g id="Layer_1-2" data-name="Layer 1">
    <g>
      <path class="cls-9" d="m80.66,126.69v-36c0-22.03,29.66-22.27,29.66,0v36h-8v-36c0-11.72-13.66-11.47-13.66,0v36h-8Zm-8.66,1.25l-4.38-47.28c-.36,1.06.48,2.62-2.3,4.66-2.81,1.45-1.62-3.56-4.31-3.19l-.5.06,4.5,44.75,7,1Zm-54.38,0l-4.35-46.38-.15.5c-3.32,0-4.02,3.06-6.14,3.04l-.61-.32,4.12,42.16,7.12,1Zm94.41-1.06l7.94-49.09c.09.13.13.38.23.48,2.54,2.25,1.54-4.5,2.73-1.19l.35.43c1.42,2.51,1.62,4.71,3.09,5.75l-.19-.68-7.44,44.44-6.71-.13Z"/>
      <path class="cls-2" d="m75.7,64.41c.92-2.23,2.67.27,4.05-1.35,2.48-4.17.75-6.79,2.17-10.5l2.41-4.64c.94-.56,2.3.84,3.42-.48,2.64-4.44.28-7.12,2.28-11.25.25-.62.52-1.13.91-1.5,3.65-3.88,11.1-4.01,13.9.75,1.6,4.27.2,10.7,1.94,12.32,2.54,2.25,1.71-4.55,2.89-1.24l1.54,3.58c1.5,4.38.73,12.22,2.69,14.03,2.52,2.23,1.49-4.65,2.64-1.52l.72,1.83c1.5,4.38.81,12,2.77,13.82,2.54,2.25,1.54-4.5,2.73-1.19l.35.43c1.83,3.23,1.64,5.95,4.73,6.34,1.98.21,3.79-1.37,3.79-4.52-.02-.48-.24-1.1-.5-1.62l-8.37-19.43c-.75-2.41-.38-3.32-2.19-7.57-1.11-2.65-2.52-2.81-3.1-4.73l-1.71-4.02c-1.06-2.22-.19-3.69-2-7.94-1.1-2.62-2.79-2.66-3.39-4.51l-3.29-7.67c-.39-.95-.99-1.72-1.69-2.29-2.06-1.7-4.87-2.53-7.87-2.53l-61.75.13c-2.56.13-5.32,1.31-7.28,3.25-.72.66-1.5,1.59-1.91,2.56L2.81,68.19c-.34.68-.5,1.36-.44,1.94,1.01,5.18-.04,10.5,1.84,13.36.68.8,1.19,1.55,2.42,1.61,2.2.12,2.86-3.04,6.24-3.04h-.78c2.12,0,2.14,2.93,4.14,3.04,2.2.12,2.86-3.04,6.24-3.04h-.77c2.12,0,2.14,2.93,4.14,3.04,2.2.12,2.86-3.04,6.24-3.04h-.78c2.12,0,2.14,2.93,4.14,3.04,2.2.12,2.86-3.04,6.24-3.04h-.78c2.12,0,2.14,2.93,4.14,3.04,2.2.12,2.86-3.04,6.24-3.04h-.77c2.12,0,2.14,2.93,4.14,3.04,2.2.12,2.86-3.04,6.24-3.04,2.69-.38,1.38,4.7,4.19,3.25,3.05-2.23,1.75-3.9,2.45-4.96l.24-.42c.88-2.12,2.62.38,4-1.25,2.23-3.74,1.06-6.23,1.83-9.39l2.13-4.89Z"/>
      <path class="cls-5" d="m101.96,126.69l-.02-36c0-11.72-13.66-11.47-13.66,0v36h13.67Zm-3.96-83.22c-2.5,0-6.28,3.33-6.28,9.84s3.78,9.84,6.28,9.84,6.27-3.33,6.27-9.84-3.78-9.84-6.27-9.84Z"/>
      <path class="cls-8" d="m15.19,104.81c0,5.69.25,10.38-5.62,16.62l.94,6.38c4.88-4.88,5.88-9.62,5.31-16.38l-.62-6.62Z"/>
      <path class="cls-8" d="m8.62,111.81c4.88-4.88,5.88-9.62,5.31-16.38l-.62-6.62c0,5.69.25,10.38-5.62,16.62l.94,6.38Z"/>
      <path class="cls-8" d="m10.42,82.44c-.79,2.19-2.23,4.47-4.61,7l.94,6.38c4.24-4.24,5.55-8.38,5.45-13.82l-1.77.45Z"/>
      <path class="cls-8" d="m69.44,101.81c0,5.69.25,10.38-5.62,16.62l.94,6.38c4.88-4.88,5.88-9.62,5.31-16.38l-.62-6.62Z"/>
      <path class="cls-8" d="m62.88,108.81c4.88-4.88,5.88-9.62,5.31-16.38l-.62-6.62c0,5.69.25,10.38-5.62,16.62l.94,6.38Z"/>
      <path class="cls-8" d="m62.21,83.8c.75,1.18,1.57,1.84,2.81,1.7.3-.03.53-.15.72-.33-.78,2.7-2.26,5.16-4.74,7.65l-.94-6.38c.81-.86,1.51-1.7,2.01-2.67l.14.03Z"/>
      <path class="cls-8" d="m122.31,106.26c-1.66,5.44-2.79,9.99-10.24,14.25l-.97,6.37c6.09-3.24,8.43-7.49,9.87-14.11l1.34-6.52Z"/>
      <path class="cls-8" d="m113.98,111.03c6.09-3.24,7.93-7.67,9.37-14.29l1.34-6.52c-1.66,5.44-2.29,10.18-9.74,14.44l-.97,6.37Z"/>
      <path class="cls-8" d="m125.43,82.38c-.9,2.39-2.16,3.33-7.59,6.44l-.97,6.37c5.74-3.05,7.6-6.61,8.99-12.56l-.43-.25Z"/>
      <path class="cls-4" d="m80,127.31l.04-37.12c0-22.03,29.49-21.21,29.49,1.06v36l1.72.19,8.1-50.16c-1.57-2.32-.81-9.22-2.23-13.34l-.72-1.83c-1.14-3.13-.12,3.75-2.64,1.52-1.96-1.82-1.19-9.66-2.69-14.03l-1.54-3.58c-1.19-3.31-.27,3.45-2.92,1.09.51,1.75.8,3.68.8,5.71,0,7.87-4.33,14.24-9.67,14.24s-9.67-6.38-9.67-14.24,4.33-14.24,9.67-14.24c3.22,0,6,2.31,7.82,5.87-.24-2.71.23-6.6-.86-9.5-2.79-4.76-10.25-4.63-13.9-.75-.38.37-.66.88-.91,1.5-2,4.12.36,6.81-2.28,11.25-1.11,1.32-2.48-.08-3.42.48-.24.77.7,1.27.14,2.64-.81,1.58-1.8.08-2.54,2-1.43,3.71.31,6.33-2.17,10.5-1.38,1.62-3.12-.88-4.05,1.35-.62.94.89,1.37.27,2.9-.79,1.55-1.65.25-2.39,1.99-.77,3.15.4,5.65-1.83,9.39-1.38,1.62-3.12-.88-4,1.25l-.24.42c-.23.35-.34.73-.37,1.21l4.35,46.37,8.62-.12ZM12.65,81.08l4.35,46.36h47.5l-4.62-45.75c-2.73.43-3.59,3.02-5.61,2.91-2-.11-2.01-3.04-4.14-3.04h.77c-3.38,0-4.04,3.15-6.24,3.04-2-.11-2.01-3.04-4.14-3.04h.78c-3.38,0-4.04,3.15-6.24,3.04-2-.11-2.01-3.04-4.14-3.04h.78c-3.38,0-4.04,3.15-6.24,3.04-2-.11-2.01-3.04-4.14-3.04h.77c-3.38,0-4.04,3.15-6.24,3.04-1.82-.1-2.04-2.53-3.61-2.97l.39-.55Z"/>
      <line class="cls-18" x1="29.78" y1="125" x2="32.44" y2="127.36"/>
      <line class="cls-18" x1="15.76" y1="112.61" x2="28.92" y2="124.24"/>
      <line class="cls-18" x1="13.71" y1="92.33" x2="52.68" y2="126.81"/>
      <line class="cls-18" x1="63.91" y1="123.02" x2="59.41" y2="127"/>
      <line class="cls-18" x1="72.95" y1="115.03" x2="71.01" y2="116.74"/>
      <line class="cls-18" x1="74.48" y1="113.68" x2="73.8" y2="114.27"/>
      <line class="cls-18" x1="79.93" y1="108.85" x2="75.25" y2="112.99"/>
      <line class="cls-18" x1="62.25" y1="106.03" x2="38.47" y2="127.06"/>
      <line class="cls-18" x1="79.45" y1="90.82" x2="75.41" y2="94.39"/>
      <line class="cls-18" x1="74.53" y1="95.17" x2="69.66" y2="99.47"/>
      <line class="cls-18" x1="29.71" y1="116.35" x2="17.45" y2="127.2"/>
      <line class="cls-18" x1="44.65" y1="103.14" x2="30.46" y2="115.69"/>
      <line class="cls-18" x1="48.59" y1="99.65" x2="47.42" y2="100.69"/>
      <line class="cls-18" x1="78.46" y1="73.23" x2="68" y2="82.48"/>
      <line class="cls-18" x1="59.79" y1="89.74" x2="49.35" y2="98.98"/>
      <line class="cls-18" x1="19.83" y1="106.63" x2="15.29" y2="110.65"/>
      <line class="cls-18" x1="27.57" y1="99.79" x2="20.58" y2="105.97"/>
      <line class="cls-18" x1="38.44" y1="90.17" x2="28.33" y2="99.11"/>
      <line class="cls-18" x1="44.46" y1="84.84" x2="39.2" y2="89.49"/>
      <line class="cls-18" x1="24.11" y1="84.38" x2="13.84" y2="93.46"/>
      <line class="cls-18" x1="72" y1="125.43" x2="73.65" y2="126.89"/>
      <line class="cls-18" x1="46.16" y1="102.58" x2="63.21" y2="117.65"/>
      <line class="cls-18" x1="26.25" y1="84.96" x2="45.37" y2="101.87"/>
      <line class="cls-18" x1="73.25" y1="108.08" x2="80.12" y2="114.15"/>
      <line class="cls-18" x1="70.34" y1="105.5" x2="72.5" y2="107.41"/>
      <line class="cls-18" x1="54.22" y1="91.24" x2="61" y2="97.24"/>
      <line class="cls-18" x1="52.48" y1="89.7" x2="53.52" y2="90.62"/>
      <line class="cls-18" x1="46.34" y1="84.27" x2="51.58" y2="88.9"/>
      <line class="cls-18" x1="68" y1="84.97" x2="79.12" y2="94.81"/>
      <line class="cls-18" x1="73.29" y1="71.19" x2="82.52" y2="79.36"/>
      <line class="cls-18" x1="109.36" y1="121.73" x2="111.97" y2="124.04"/>
      <line class="cls-18" x1="113.69" y1="107.1" x2="114.5" y2="107.82"/>
      <line class="cls-18" x1="109.97" y1="103.81" x2="112.94" y2="106.44"/>
      <line class="cls-18" x1="108.19" y1="83.77" x2="116.77" y2="91.36"/>
      <line class="cls-18" x1="96.2" y1="73.17" x2="96.84" y2="73.73"/>
      <line class="cls-18" x1="112.54" y1="117.09" x2="109.62" y2="119.67"/>
      <line class="cls-18" x1="112.16" y1="98.96" x2="109.84" y2="101.01"/>
      <line class="cls-18" x1="113.6" y1="97.69" x2="112.96" y2="98.26"/>
      <line class="cls-18" x1="116.22" y1="95.37" x2="114.35" y2="97.03"/>
      <line class="cls-18" x1="112.01" y1="80.63" x2="108.5" y2="83.74"/>
      <line class="cls-18" x1="118.06" y1="75.28" x2="112.77" y2="79.97"/>
      <line class="cls-18" x1="101.88" y1="71.13" x2="98.5" y2="74.12"/>
      <line class="cls-18" x1="112.5" y1="61.74" x2="102.65" y2="70.46"/>
      <line class="cls-18" x1="90.43" y1="62.8" x2="80.03" y2="72"/>
      <line class="cls-18" x1="108.24" y1="47.05" x2="107.68" y2="47.54"/>
      <line class="cls-18" x1="109.78" y1="45.69" x2="109.25" y2="46.15"/>
      <line class="cls-18" x1="113.4" y1="69.92" x2="118.23" y2="74.19"/>
      <line class="cls-18" x1="104.86" y1="62.37" x2="112.64" y2="69.25"/>
      <line class="cls-18" x1="108.43" y1="47.07" x2="110.68" y2="49.05"/>
      <line class="cls-18" x1="81.09" y1="59.84" x2="95.45" y2="72.54"/>
      <path class="cls-14" d="m12.62,82.06c-3.38,0-4.04,3.15-6.24,3.04-1.22-.07-1.74-.81-2.42-1.61-1.88-2.86-.83-8.19-1.84-13.36-.06-.58.1-1.26.44-1.94L26.31,22.94c.4-.97,1.19-1.91,1.91-2.56,1.96-1.94,4.72-3.12,7.28-3.25l61.75-.13c3,0,5.81.82,7.87,2.53.7.57,1.29,1.34,1.69,2.29l3.29,7.67c.6,1.86,2.3,1.89,3.39,4.51,1.81,4.25.94,5.72,2,7.94l1.71,4.02c.58,1.92,1.99,2.08,3.1,4.73,1.81,4.25,1.44,5.16,2.19,7.57l8.37,19.43c.26.52.48,1.15.5,1.62,0,3.14-1.81,4.72-3.79,4.52-3.09-.39-2.9-3.1-4.73-6.34l-.35-.43c-1.19-3.31-.19,3.44-2.73,1.19-1.96-1.82-1.27-9.44-2.77-13.82l-.72-1.83c-1.14-3.13-.12,3.75-2.64,1.52-1.96-1.82-1.19-9.66-2.69-14.03l-1.54-3.58c-1.19-3.31-.35,3.49-2.89,1.24-1.74-1.61-.34-8.05-1.94-12.32-2.79-4.76-10.25-4.63-13.9-.75-.38.37-.66.88-.91,1.5-2,4.12.36,6.81-2.28,11.25-1.11,1.32-2.48-.08-3.42.48"/>
      <path class="cls-14" d="m11.85,82.06c2.12,0,2.14,2.93,4.14,3.04,2.2.12,2.86-3.04,6.24-3.04"/>
      <path class="cls-14" d="m21.45,82.06c2.12,0,2.14,2.93,4.14,3.04,2.2.12,2.86-3.04,6.24-3.04"/>
      <path class="cls-14" d="m31.05,82.06c2.12,0,2.14,2.93,4.14,3.04,2.2.12,2.86-3.04,6.24-3.04"/>
      <path class="cls-14" d="m40.65,82.06c2.12,0,2.14,2.93,4.14,3.04,2.2.12,2.86-3.04,6.24-3.04"/>
      <path class="cls-14" d="m50.25,82.06c2.12,0,2.14,2.93,4.14,3.04,2.2.12,2.86-3.04,6.24-3.04"/>
      <line class="cls-14" x1="2.06" y1="70" x2="2.09" y2="70.12"/>
      <path class="cls-14" d="m75.45,64.41c.92-2.23,2.67.27,4.05-1.35,2.48-4.17.75-6.79,2.17-10.5"/>
      <path class="cls-14" d="m60.5,82.12c2.69-.38,1.5,4.64,4.31,3.19,3.05-2.23,1.75-3.9,2.45-4.96l.24-.42c.88-2.12,2.62.38,4-1.25,2.23-3.74,1.06-6.23,1.83-9.39"/>
      <path class="cls-9" d="m1.5,130.69c0-1.93,1.57-3.5,3.5-3.5h122c1.93,0,3.5,1.57,3.5,3.5l1,5.5c0,1.93-1.57,3.5-3.5,3.5H4c-1.93,0-3.5-1.57-3.5-3.5l1-5.5Z"/>
      <path class="cls-14" d="m1.5,130.69c0-1.93,1.57-3.5,3.5-3.5h122c1.93,0,3.5,1.57,3.5,3.5l1,5.5c0,1.93-1.57,3.5-3.5,3.5H4c-1.93,0-3.5-1.57-3.5-3.5l1-5.5Z"/>
      <path class="cls-14" d="m73.28,69.23c.74-1.74,1.65-.36,2.44-1.91.62-1.53-.69-2-.06-2.94"/>
      <line class="cls-14" x1="73.22" y1="69.38" x2="73.28" y2="69.23"/>
      <line class="cls-14" x1="84.02" y1="47.9" x2="84.16" y2="47.62"/>
      <path class="cls-14" d="m81.73,52.59c.75-1.92,1.68-.44,2.49-2.03.56-1.37-.44-1.89-.2-2.66"/>
      <line class="cls-14" x1="60" y1="82.19" x2="64.5" y2="126.94"/>
      <line class="cls-14" x1="67.07" y1="80.77" x2="71.5" y2="127.94"/>
      <line class="cls-14" x1="5.88" y1="84.78" x2="10" y2="126.94"/>
      <line class="cls-14" x1="119.48" y1="77.78" x2="111.54" y2="126.87"/>
      <line class="cls-14" x1="125.75" y1="82.56" x2="118.31" y2="127"/>
      <path class="cls-21" d="m72.15,58.88c.03-.91.11-1.83.4-2.82l.09-.2c.63-.56,1.33.05,1.96-1.18.58-1.42-.51-1.93-.17-2.74l.44-.7c.88-2.12,2.82.19,4.2-1.43,2.46-4.13.78-6.73,2.13-10.39.69-1.07,1.5-.09,2.21-1.49.62-1.53-.65-1.99-.03-2.93.89-2.01,2.76.41,4.12-1.19,1.65-2.77,1.44-4.85,1.53-7.03.05-1.32.97-2.44.97-4.22-.13-.85,0-1.52.38-2,1.91-2.34,4.38-3.41,6.88-3.57"/>
      <path class="cls-21" d="m72.07,61.13c.03-.41.04-.81.05-1.21"/>
      <path class="cls-21" d="m55.62,74.59c1.56-.43,2.41-2.58,4.85-2.94,2.65-.33,1.54,4.36,4.34,2.91,3.56-2.61,2-4.12,2.81-5.62.88-2.04,1.64-1.51,3-3.12.81-1.36,1.17-2.56,1.34-3.69"/>
      <path class="cls-21" d="m53.33,73.8c.33.37.69.68,1.22.81"/>
      <path class="cls-21" d="m46.12,75.02c1.22-.35,2-1.74,3.47-2.48"/>
      <path class="cls-21" d="m39.47,72.84c.58-.39,1.27-.69,2.17-.76,1.26.22,1.69,1.6,2.5,2.42"/>
      <path class="cls-21" d="m37.82,74.22c.27-.23.53-.48.82-.73"/>
      <path class="cls-21" d="m25.5,74.92c.21.1.44.17.71.18,2.15.11,2.79-2.83,5.97-2.98,1.64.42,1.81,2.88,3.63,2.98.24.01.47-.01.68-.07"/>
      <path class="cls-21" d="m23.73,72.92c.32.38.58.82.88,1.21"/>
      <path class="cls-21" d="m15.4,74.57c.32.3.7.5,1.21.53,1.84.1,2.6-2.09,4.77-2.81"/>
      <path class="cls-21" d="m13.75,72.56c.37.31.66.74.95,1.15"/>
      <path class="cls-21" d="m5.43,73.65c.4.51.86.92,1.59.95,1.99.11,2.72-2,5.34-2.41"/>
      <path class="cls-21" d="m4.33,72.2c.3.3.55.68.8,1.04"/>
      <path class="cls-21" d="m88.5,44.44c.62-5.25-1.81-7-.19-12.12"/>
      <path class="cls-21" d="m79.77,53.17c-.08-.5-.14-1.01-.17-1.53"/>
      <path class="cls-21" d="m80.5,60.69c.29-2.41-.11-4.27-.47-6.07"/>
      <path class="cls-21" d="m71.36,72.12c-.37-1.85-.74-3.6-.36-5.78"/>
      <path class="cls-21" d="m71.73,74.32c-.05-.38-.1-.74-.17-1.1"/>
      <path class="cls-21" d="m90.22,28.74c-.06-.63-.13-1.23-.21-1.81"/>
      <path class="cls-21" d="m88.38,39.38c1.74-4.04,2.04-7.06,1.92-9.56"/>
      <path class="cls-21" d="m83.2,39.75c.08-.65.24-1.35.48-2.13"/>
      <path class="cls-21" d="m83.88,49.75c.48-4.02-.84-5.99-.75-9"/>
      <path class="cls-21" d="m74.44,58.59c-.21-1.19-.21-2.5.31-4.15"/>
      <path class="cls-21" d="m75.88,66.62c.37-3.08-.64-4.98-1.21-7.05"/>
      <line class="cls-14" x1="110.06" y1="29.34" x2="110.11" y2="29.49"/>
      <line class="cls-14" x1="12.77" y1="81.56" x2="17.12" y2="127.94"/>
      <line class="cls-14" x1="122.75" y1="77.31" x2="122.85" y2="77.49"/>
      <path class="cls-8" d="m88.31,103.75c-1.47,5.49-.55,8.67-7.84,13.19l-.16,6.56c5.97-3.45,6.73-5.21,7.94-11.88l.06-7.88Z"/>
      <path class="cls-8" d="m88.19,89.53c-1.47,4.65-3.19,4.66-7.72,5.97l-.16,6.47c4.19-.41,6.56-1.78,7.81-4.6l.06-7.84Z"/>
      <path class="cls-8" d="m92,82.56c-2.25-4-6.06-5.69-9.5-1.62l-2.06,4.25c1.51-3.21,4.88-3.38,8.62.25l2.94-2.88Z"/>
      <path class="cls-8" d="m100.69,84.62c3.28-3.21,3.92-7.33-.89-9.6l-4.64-.89c3.49.63,4.52,3.84,1.99,8.4l3.54,2.09Z"/>
      <path class="cls-8" d="m109.69,103.75c-1.47,5.49-.55,8.67-7.84,13.19l-.16,6.56c5.97-3.45,6.73-5.21,7.94-11.88l.06-7.88Z"/>
      <path class="cls-8" d="m109.69,87.91c-1.47,4.65-3.19,4.66-7.72,5.97l-.16,6.47c4.19-.41,6.56-1.78,7.81-4.6l.06-7.84Z"/>
      <path class="cls-12" d="m80.62,110.56c3.87-1.42,6.49-4.67,7.88-9.75"/>
      <path class="cls-12" d="m102.12,109.19s8.25-2.12,7.5-10"/>
      <path class="cls-12" d="m101.75,89.06c4.1-1.34,6.12-5.38,4.25-10.25"/>
      <path class="cls-9" d="m121.34,58.67l-2.19.04c-2.49.11-4.43,3.01-4.3,6.59.12,3.58,2.24,6.41,4.72,6.32l2.09-.04h.14c2.48-.09,4.4-3.06,4.27-6.64-.12-3.58-2.21-6.34-4.73-6.27Z"/>
      <path class="cls-14" d="m121.34,58.67l-2.19.04c-2.49.11-4.43,3.01-4.3,6.59.12,3.58,2.24,6.41,4.72,6.32l2.09-.04h.14c2.48-.09,4.4-3.06,4.27-6.64-.12-3.58-2.21-6.34-4.73-6.27Z"/>
      <path class="cls-10" d="m117.31,67.02c-.13-.56-.21-1.14-.23-1.75v-.25s.11.11.11.11c1.8-.87,3.42-.77,4.82.28l-.2-.06c-1.4-1.05-3.1.08-4.38,1.49l-.12.19Zm4.69-1.61c-1-2.18-2.36-3.62-3.94-4.45.21-.38.46-.72.73-1.02l.11.1c1.58.83,2.22,2.49,2.95,5.07l.15.3Zm2.46-5.15c-.78-.89-1.68-1.46-2.69-1.56h-.21c1.01,1.79,1.17,4,.49,6.61,1.73-2.02,2.47-3.81,2.22-5.35l.2.3Zm.38,9.45c.37-.55.68-1.2.89-1.91-1.61.25-3.84-.59-3.72-2.34-.12,1.75.94,3.18,2.65,4.22l.18.04Zm-2.83-4.25c-1.28,2.03-.91,4.31-.34,6.14-.49,0-.96-.12-1.4-.33h.11c-.16-1.78.34-3.78,1.62-5.81h.02Z"/>
      <path class="cls-21" d="m121.35,58.62c-2.46.11-4.4,3.06-4.27,6.64.12,3.51,2.16,6.3,4.58,6.33"/>
      <line class="cls-14" x1="120.34" y1="71.64" x2="120.24" y2="71.63"/>
      <path class="cls-21" d="m121.54,58.69c1.01,1.8,1.18,4,.5,6.62,1.73-2.02,2.47-3.81,2.22-5.35"/>
      <path class="cls-21" d="m118.13,60.89c1.58.83,2.87,2.34,3.88,4.52-1.4-1.05-3-1.15-4.8-.28"/>
      <path class="cls-21" d="m120.37,71.25c-.16-1.78.34-3.78,1.62-5.8-.12,1.75.95,3.18,2.66,4.22"/>
      <path class="cls-21" d="m118.88,60.03c1.58.83,2.24,2.49,2.97,5.07-1.4-1.05-3.14.32-4.41,1.72"/>
      <path class="cls-21" d="m120.37,71.25c-.16-1.78.34-3.78,1.62-5.8-.12,1.75,2.08,2.64,3.69,2.39"/>
      <path class="cls-21" d="m121.64,71.54c-.57-1.83-.93-4.07.35-6.09-.12,1.75,2.08,2.64,3.69,2.39"/>
      <path class="cls-9" d="m114.59,39.67l-2.19.04c-2.49.11-4.43,3.01-4.3,6.59.12,3.58,2.24,6.41,4.72,6.32l2.09-.04h.14c2.48-.09,4.4-3.06,4.27-6.64-.12-3.58-2.21-6.34-4.73-6.27Z"/>
      <path class="cls-14" d="m114.59,39.67l-2.19.04c-2.49.11-4.43,3.01-4.3,6.59.12,3.58,2.24,6.41,4.72,6.32l2.09-.04h.14c2.48-.09,4.4-3.06,4.27-6.64-.12-3.58-2.21-6.34-4.73-6.27Z"/>
      <path class="cls-7" d="m110.56,48.02c-.13-.56-.21-1.14-.23-1.75v-.25s.11.11.11.11c1.8-.87,3.42-.77,4.82.28l-.2-.06c-1.4-1.05-3.1.08-4.38,1.49l-.12.19Zm4.69-1.61c-1-2.18-2.36-3.62-3.94-4.45.21-.38.46-.72.73-1.02l.11.1c1.58.83,2.22,2.49,2.95,5.07l.15.3Zm2.46-5.15c-.78-.89-1.68-1.46-2.69-1.56h-.21c1.01,1.79,1.17,4,.49,6.61,1.73-2.02,2.47-3.81,2.22-5.35l.2.3Zm.38,9.45c.37-.55.68-1.2.89-1.91-1.61.25-3.84-.59-3.72-2.34-.12,1.75.94,3.18,2.65,4.22l.18.04Zm-2.83-4.25c-1.28,2.03-.91,4.31-.34,6.14-.49,0-.96-.12-1.4-.33h.11c-.16-1.78.34-3.78,1.62-5.81h.02Z"/>
      <path class="cls-21" d="m114.6,39.62c-2.46.11-4.4,3.06-4.27,6.64.12,3.51,2.16,6.3,4.58,6.33"/>
      <line class="cls-14" x1="113.59" y1="52.64" x2="113.49" y2="52.63"/>
      <path class="cls-21" d="m114.79,39.69c1.01,1.8,1.18,4,.5,6.62,1.73-2.02,2.47-3.81,2.22-5.35"/>
      <path class="cls-21" d="m111.38,41.89c1.58.83,2.87,2.34,3.88,4.52-1.4-1.05-3-1.15-4.8-.28"/>
      <path class="cls-21" d="m113.62,52.25c-.16-1.78.34-3.78,1.62-5.8-.12,1.75.95,3.18,2.66,4.22"/>
      <path class="cls-21" d="m112.13,41.03c1.58.83,2.24,2.49,2.97,5.07-1.4-1.05-3.14.32-4.41,1.72"/>
      <path class="cls-21" d="m113.62,52.25c-.16-1.78.34-3.78,1.62-5.8-.12,1.75,2.08,2.64,3.69,2.39"/>
      <path class="cls-21" d="m114.89,52.54c-.57-1.83-.93-4.07.35-6.09-.12,1.75,2.08,2.64,3.69,2.39"/>
      <path class="cls-9" d="m98.72,19.05l-2.19.04c-2.49.11-4.43,3.01-4.3,6.59.12,3.58,2.24,6.41,4.72,6.32l2.09-.04h.14c2.48-.09,4.4-3.06,4.27-6.64-.12-3.58-2.21-6.34-4.73-6.27Z"/>
      <path class="cls-14" d="m98.72,19.05l-2.19.04c-2.49.11-4.43,3.01-4.3,6.59.12,3.58,2.24,6.41,4.72,6.32l2.09-.04h.14c2.48-.09,4.4-3.06,4.27-6.64-.12-3.58-2.21-6.34-4.73-6.27Z"/>
      <path class="cls-10" d="m94.69,27.39c-.13-.56-.21-1.14-.23-1.75v-.25s.11.11.11.11c1.8-.87,3.42-.77,4.82.28l-.2-.06c-1.4-1.05-3.1.08-4.38,1.49l-.12.19Zm4.69-1.61c-1-2.18-2.36-3.62-3.94-4.45.21-.38.46-.72.73-1.02l.11.1c1.58.84,2.22,2.49,2.95,5.07l.15.3Zm2.46-5.15c-.78-.89-1.68-1.46-2.69-1.56h-.21c1.01,1.79,1.17,4,.49,6.61,1.73-2.02,2.47-3.81,2.22-5.35l.2.3Zm.38,9.45c.37-.55.68-1.2.89-1.91-1.61.25-3.84-.59-3.72-2.34-.12,1.75.94,3.18,2.65,4.22l.18.04Zm-2.83-4.25c-1.28,2.03-.91,4.31-.34,6.14-.49,0-.96-.12-1.4-.33h.11c-.16-1.78.34-3.78,1.62-5.81h.02Z"/>
      <path class="cls-21" d="m98.73,19c-2.46.11-4.4,3.06-4.27,6.64.12,3.51,2.16,6.3,4.58,6.33"/>
      <line class="cls-14" x1="97.71" y1="32.01" x2="97.61" y2="32.01"/>
      <path class="cls-21" d="m98.91,19.06c1.01,1.8,1.18,4,.5,6.62,1.73-2.02,2.47-3.81,2.22-5.35"/>
      <path class="cls-21" d="m95.5,21.26c1.58.83,2.87,2.34,3.88,4.52-1.4-1.05-3-1.15-4.8-.28"/>
      <path class="cls-21" d="m97.75,31.63c-.16-1.78.34-3.78,1.62-5.8-.12,1.75.95,3.18,2.66,4.22"/>
      <path class="cls-21" d="m96.26,20.41c1.58.84,2.24,2.49,2.97,5.07-1.4-1.05-3.14.32-4.41,1.72"/>
      <path class="cls-21" d="m97.75,31.63c-.16-1.78.34-3.78,1.62-5.8-.12,1.75,2.08,2.64,3.69,2.39"/>
      <path class="cls-21" d="m99.02,31.92c-.57-1.83-.93-4.07.35-6.09-.12,1.75,2.08,2.64,3.69,2.39"/>
      <path class="cls-9" d="m78.84,60.3l-2.19.04c-2.49.11-4.43,3.01-4.3,6.59.12,3.58,2.24,6.41,4.72,6.32l2.09-.04h.14c2.48-.09,4.4-3.06,4.27-6.64-.12-3.58-2.21-6.34-4.73-6.27Z"/>
      <path class="cls-14" d="m78.84,60.3l-2.19.04c-2.49.11-4.43,3.01-4.3,6.59.12,3.58,2.24,6.41,4.72,6.32l2.09-.04h.14c2.48-.09,4.4-3.06,4.27-6.64-.12-3.58-2.21-6.34-4.73-6.27Z"/>
      <path class="cls-10" d="m74.81,68.64c-.13-.56-.21-1.14-.23-1.75v-.25s.11.11.11.11c1.8-.87,3.42-.77,4.82.28l-.2-.06c-1.4-1.05-3.1.08-4.38,1.49l-.12.19Zm4.69-1.61c-1-2.18-2.36-3.62-3.94-4.45.21-.38.46-.72.73-1.02l.11.1c1.58.83,2.22,2.49,2.95,5.07l.15.3Zm2.46-5.15c-.78-.89-1.68-1.46-2.69-1.56h-.21c1.01,1.79,1.17,4,.49,6.61,1.73-2.02,2.47-3.81,2.22-5.35l.2.3Zm.38,9.45c.37-.55.68-1.2.89-1.91-1.61.25-3.84-.59-3.72-2.34-.12,1.75.94,3.18,2.65,4.22l.18.04Zm-2.83-4.25c-1.28,2.03-.91,4.31-.34,6.14-.49,0-.96-.12-1.4-.33h.11c-.16-1.78.34-3.78,1.62-5.81h.02Z"/>
      <path class="cls-21" d="m78.85,60.25c-2.46.11-4.4,3.06-4.27,6.64.12,3.51,2.16,6.3,4.58,6.33"/>
      <line class="cls-14" x1="77.84" y1="73.26" x2="77.74" y2="73.26"/>
      <path class="cls-21" d="m79.04,60.31c1.01,1.8,1.18,4,.5,6.62,1.73-2.02,2.47-3.81,2.22-5.35"/>
      <path class="cls-21" d="m75.63,62.51c1.58.83,2.87,2.34,3.87,4.52-1.4-1.05-3-1.15-4.8-.28"/>
      <path class="cls-21" d="m77.87,72.88c-.16-1.78.34-3.78,1.62-5.8-.12,1.75.95,3.18,2.66,4.22"/>
      <path class="cls-21" d="m76.38,61.66c1.58.83,2.24,2.49,2.97,5.07-1.4-1.05-3.14.32-4.41,1.72"/>
      <path class="cls-21" d="m77.87,72.88c-.16-1.78.34-3.78,1.62-5.8-.12,1.75,2.08,2.64,3.69,2.39"/>
      <path class="cls-21" d="m79.14,73.17c-.57-1.83-.93-4.07.35-6.09-.12,1.75,2.08,2.64,3.69,2.39"/>
      <path class="cls-14" d="m80.16,126.69v-36c0-22.03,29.66-22.27,29.66,0v36h-8v-36c0-11.72-13.66-11.47-13.66,0v36h-8Z"/>
      <path class="cls-21" d="m52.49,78.06c.85,2.04,2.06,3.81,2.33,5.82"/>
      <path class="cls-21" d="m51.84,76.02c.07.34.16.67.27.99"/>
      <path class="cls-21" d="m42.02,74.38c.08,4.14,3.23,6.81,3.23,10.3"/>
      <path class="cls-21" d="m35,82.53c.12.37.22.75.29,1.13"/>
      <path class="cls-21" d="m32.57,76.9c.52,1.68,1.42,3.16,2.06,4.65"/>
      <path class="cls-21" d="m32.15,74c-.02.62.04,1.2.14,1.76"/>
      <path class="cls-21" d="m22.98,78.21c.76,1.75,1.76,3.33,2.12,5.05"/>
      <path class="cls-21" d="m22.03,74.48c.05,1.01.27,1.93.58,2.8"/>
      <path class="cls-21" d="m15.16,81.2c.44.98.79,1.96.88,3"/>
      <line class="cls-21" x1="14.11" y1="79.03" x2="14.65" y2="80.13"/>
      <path class="cls-21" d="m12.84,74.47c.04,1.32.39,2.49.85,3.59"/>
      <path class="cls-21" d="m66.23,80.06c-.37-1.85-.74-3.6-.36-5.78"/>
      <path class="cls-21" d="m66.61,82.26c-.05-.38-.1-.74-.17-1.1"/>
      <line class="cls-20" x1="37.25" y1="121.12" x2="37.25" y2="127.06"/>
      <line class="cls-20" x1="48.38" y1="123.94" x2="48.38" y2="127.06"/>
      <path class="cls-11" d="m48.5,126.69l-.19-3.25c-1-.45-1.73-1.38-1.73-2.8-2.98,2.32-5.89,2.22-8.73-.3-.18.24-.37.45-.57.65l.09-.24v5.94h11.12Z"/>
      <path class="cls-7" d="m52.48,107.08c.5-.48.73-1.31.4-2.39l-4.26-8.41-.16-.21c.07-.22.1-.46.1-.72,1.28,1.15,1.98.55,2.51-1.46l-5.73-6.58c-1.84-2.3-2.4-2.55-4.76,0l-5.73,6.58c0,2.01.96,3.07,2.18,3.16l-3.77,7.77c0,1.84.43,3.12,1.07,3.86l-.02-.35-5,8.26c-1.62,6.38,5.17,7.61,8.17,3.63,2.84,2.52,5.75,2.62,8.73.3,0,4.54,7.43,4.09,7.43-1.21,2.28,2.14,5.52.77,4.46-2.73l-6.08-10.03.45.53Z"/>
      <path class="cls-17" d="m49.67,98.39c.52,1.48-2.59,4.35-7.04,6.44-4.45,2.09-8.52,2.59-9.08,1.13-.04-.09-.06-.19-.06-.29"/>
      <path class="cls-17" d="m53.5,109.43c.3,1.83-4.22,5.13-10.55,7.55-6.62,2.53-12.66,3.14-13.5,1.37-.05-.11-.08-.22-.09-.34"/>
      <path class="cls-16" d="m45.59,87.8l5.73,6.58c-.53,2.01-1.23,2.61-2.51,1.46,0,2.84-4.19,3.09-4.19.65-1.68,1.24-3.32,1.19-4.92-.16-1.69,2.13-4.61,1.46-4.61-1.95l5.73-6.58c2.36-2.55,2.92-2.3,4.76,0Z"/>
      <path class="cls-17" d="m46.74,89.3c-1.29,1.02-2.93,2.07-4.86,2.97-2.44,1.14-4.77,1.81-6.46,1.94"/>
      <path class="cls-16" d="m37.31,97.31l-3.81,8c0,5.25,3.48,5.91,5.5,2.62,1.91,2.08,3.87,2.16,5.88.25,0,3.75,5,3.38,5-1,1.53,1.76,4.06.62,3.25-2l-4.26-8.41"/>
      <polygon class="cls-3" points="41.94 85 39.29 85.63 39.93 82.43 38.03 79.75 41.28 79.13 42.97 76.39 44.75 79.16 44.6 79.13 47.83 79.75 45.93 82.43 46.57 85.63 44 85.02 44 86.08 42 86.08 41.94 85"/>
      <polygon class="cls-15" points="41.94 85 39.29 85.63 39.93 82.43 38.03 79.75 41.28 79.13 42.97 76.39 44.75 79.16 44.6 79.13 47.83 79.75 45.93 82.43 46.57 85.63 44 85.02 44 86.08 42 86.08 41.94 85"/>
      <path class="cls-19" d="m44,85.02l-.62-.15c-.35-.17-.64-.17-.89,0l-.55.13"/>
      <path class="cls-19" d="m38.08,79.88c.17.04,4.35,1.79,4.35,1.79"/>
      <path class="cls-19" d="m47.75,79.88c-.17.04-4.26,1.7-4.26,1.7"/>
      <line class="cls-19" x1="43.02" y1="76.6" x2="43.02" y2="81.03"/>
      <line class="cls-19" x1="39.23" y1="85.72" x2="42.38" y2="82.48"/>
      <line class="cls-19" x1="46.81" y1="85.8" x2="43.4" y2="82.52"/>
      <path class="cls-16" d="m34.55,108.82l-5,8.26c-1.62,6.38,5.17,7.61,8.17,3.63,2.84,2.52,5.75,2.62,8.73.3,0,4.54,7.43,4.09,7.43-1.21,2.28,2.14,5.52.77,4.46-2.73l-6.08-10.03"/>
      <path class="cls-9" d="m124.59,125.42l-2.19.04c-2.49.11-4.43,3.01-4.3,6.59.12,3.58,2.24,6.41,4.72,6.32l2.09-.04h.14c2.48-.09,4.4-3.06,4.27-6.64-.12-3.58-2.21-6.34-4.73-6.27Z"/>
      <path class="cls-14" d="m124.59,125.42l-2.19.04c-2.49.11-4.43,3.01-4.3,6.59.12,3.58,2.24,6.41,4.72,6.32l2.09-.04h.14c2.48-.09,4.4-3.06,4.27-6.64-.12-3.58-2.21-6.34-4.73-6.27Z"/>
      <path class="cls-10" d="m120.56,133.77c-.13-.56-.21-1.14-.23-1.75v-.25s.11.11.11.11c1.8-.87,3.42-.77,4.82.28l-.2-.06c-1.4-1.05-3.1.08-4.38,1.49l-.12.19Zm4.69-1.61c-1-2.18-2.36-3.62-3.94-4.45.21-.38.46-.72.73-1.02l.11.1c1.58.83,2.22,2.49,2.95,5.07l.15.3Zm2.46-5.15c-.78-.89-1.68-1.46-2.69-1.56h-.21c1.01,1.79,1.17,4,.49,6.61,1.73-2.02,2.47-3.81,2.22-5.35l.2.3Zm.38,9.45c.37-.55.68-1.2.89-1.91-1.61.25-3.84-.59-3.72-2.34-.12,1.75.94,3.18,2.65,4.22l.18.04Zm-2.83-4.25c-1.28,2.03-.91,4.31-.34,6.14-.49,0-.96-.12-1.4-.33h.11c-.16-1.78.34-3.78,1.62-5.81h.02Z"/>
      <path class="cls-21" d="m124.6,125.37c-2.46.11-4.4,3.06-4.27,6.64.12,3.51,2.16,6.3,4.58,6.33"/>
      <line class="cls-14" x1="123.59" y1="138.39" x2="123.49" y2="138.38"/>
      <path class="cls-21" d="m124.79,125.44c1.01,1.8,1.18,4,.5,6.62,1.73-2.02,2.47-3.81,2.22-5.35"/>
      <path class="cls-21" d="m121.38,127.64c1.58.83,2.87,2.34,3.88,4.52-1.4-1.05-3-1.15-4.8-.28"/>
      <path class="cls-21" d="m123.62,138c-.16-1.78.34-3.78,1.62-5.8-.12,1.75.95,3.18,2.66,4.22"/>
      <path class="cls-21" d="m122.13,126.78c1.58.83,2.24,2.49,2.97,5.07-1.4-1.05-3.14.32-4.41,1.72"/>
      <path class="cls-21" d="m123.62,138c-.16-1.78.34-3.78,1.62-5.8-.12,1.75,2.08,2.64,3.69,2.39"/>
      <path class="cls-21" d="m124.89,138.29c-.57-1.83-.93-4.07.35-6.09-.12,1.75,2.08,2.64,3.69,2.39"/>
      <path class="cls-9" d="m81.84,126.05l-2.19.04c-2.49.11-4.43,3.01-4.3,6.59.12,3.58,2.24,6.41,4.72,6.32l2.09-.04h.14c2.48-.09,4.4-3.06,4.27-6.64-.12-3.58-2.21-6.34-4.73-6.27Z"/>
      <path class="cls-14" d="m81.84,126.05l-2.19.04c-2.49.11-4.43,3.01-4.3,6.59.12,3.58,2.24,6.41,4.72,6.32l2.09-.04h.14c2.48-.09,4.4-3.06,4.27-6.64-.12-3.58-2.21-6.34-4.73-6.27Z"/>
      <path class="cls-10" d="m77.81,134.39c-.13-.56-.21-1.14-.23-1.75v-.25s.11.11.11.11c1.8-.87,3.42-.77,4.82.28l-.2-.06c-1.4-1.05-3.1.08-4.38,1.49l-.12.19Zm4.69-1.61c-1-2.18-2.36-3.62-3.94-4.45.21-.38.46-.72.73-1.02l.11.1c1.58.83,2.22,2.49,2.95,5.07l.15.3Zm2.46-5.15c-.78-.89-1.68-1.46-2.69-1.56h-.21c1.01,1.79,1.17,4,.49,6.61,1.73-2.02,2.47-3.81,2.22-5.35l.2.3Zm.38,9.45c.37-.55.68-1.2.89-1.91-1.61.25-3.84-.59-3.72-2.34-.12,1.75.94,3.18,2.65,4.22l.18.04Zm-2.83-4.25c-1.28,2.03-.91,4.31-.34,6.14-.49,0-.96-.12-1.4-.33h.11c-.16-1.78.34-3.78,1.62-5.81h.02Z"/>
      <path class="cls-21" d="m81.85,126c-2.46.11-4.4,3.06-4.27,6.64.12,3.51,2.16,6.3,4.58,6.33"/>
      <line class="cls-14" x1="80.84" y1="139.01" x2="80.74" y2="139.01"/>
      <path class="cls-21" d="m82.04,126.06c1.01,1.8,1.18,4,.5,6.62,1.73-2.02,2.47-3.81,2.22-5.35"/>
      <path class="cls-21" d="m78.63,128.26c1.58.83,2.87,2.34,3.87,4.52-1.4-1.05-3-1.15-4.8-.28"/>
      <path class="cls-21" d="m80.87,138.63c-.16-1.78.34-3.78,1.62-5.8-.12,1.75.95,3.18,2.66,4.22"/>
      <path class="cls-21" d="m79.38,127.41c1.58.83,2.24,2.49,2.97,5.07-1.4-1.05-3.14.32-4.41,1.72"/>
      <path class="cls-21" d="m80.87,138.63c-.16-1.78.34-3.78,1.62-5.8-.12,1.75,2.08,2.64,3.69,2.39"/>
      <path class="cls-21" d="m82.14,138.92c-.57-1.83-.93-4.07.35-6.09-.12,1.75,2.08,2.64,3.69,2.39"/>
      <path class="cls-9" d="m103.59,125.3l-2.19.04c-2.49.11-4.43,3.01-4.3,6.59.12,3.58,2.24,6.41,4.72,6.32l2.09-.04h.14c2.48-.09,4.4-3.06,4.27-6.64-.12-3.58-2.21-6.34-4.73-6.27Z"/>
      <path class="cls-14" d="m103.59,125.3l-2.19.04c-2.49.11-4.43,3.01-4.3,6.59.12,3.58,2.24,6.41,4.72,6.32l2.09-.04h.14c2.48-.09,4.4-3.06,4.27-6.64-.12-3.58-2.21-6.34-4.73-6.27Z"/>
      <path class="cls-7" d="m99.56,133.64c-.13-.56-.21-1.14-.23-1.75v-.25s.11.11.11.11c1.8-.87,3.42-.77,4.82.28l-.2-.06c-1.4-1.05-3.1.08-4.38,1.49l-.12.19Zm4.69-1.61c-1-2.18-2.36-3.62-3.94-4.45.21-.38.46-.72.73-1.02l.11.1c1.58.83,2.22,2.49,2.95,5.07l.15.3Zm2.46-5.15c-.78-.89-1.68-1.46-2.69-1.56h-.21c1.01,1.79,1.17,4,.49,6.61,1.73-2.02,2.47-3.81,2.22-5.35l.2.3Zm.38,9.45c.37-.55.68-1.2.89-1.91-1.61.25-3.84-.59-3.72-2.34-.12,1.75.94,3.18,2.65,4.22l.18.04Zm-2.83-4.25c-1.28,2.03-.91,4.31-.34,6.14-.49,0-.96-.12-1.4-.33h.11c-.16-1.78.34-3.78,1.62-5.81h.02Z"/>
      <path class="cls-21" d="m103.6,125.25c-2.46.11-4.4,3.06-4.27,6.64.12,3.51,2.16,6.3,4.58,6.33"/>
      <line class="cls-14" x1="102.59" y1="138.26" x2="102.49" y2="138.26"/>
      <path class="cls-21" d="m103.79,125.31c1.01,1.8,1.18,4,.5,6.62,1.73-2.02,2.47-3.81,2.22-5.35"/>
      <path class="cls-21" d="m100.38,127.51c1.58.83,2.87,2.34,3.88,4.52-1.4-1.05-3-1.15-4.8-.28"/>
      <path class="cls-21" d="m102.62,137.88c-.16-1.78.34-3.78,1.62-5.8-.12,1.75.95,3.18,2.66,4.22"/>
      <path class="cls-21" d="m101.13,126.66c1.58.83,2.24,2.49,2.97,5.07-1.4-1.05-3.14.32-4.41,1.72"/>
      <path class="cls-21" d="m102.62,137.88c-.16-1.78.34-3.78,1.62-5.8-.12,1.75,2.08,2.64,3.69,2.39"/>
      <path class="cls-21" d="m103.89,138.17c-.57-1.83-.93-4.07.35-6.09-.12,1.75,2.08,2.64,3.69,2.39"/>
      <path class="cls-9" d="m62.84,125.67l2.19.04c2.49.11,4.43,3.01,4.3,6.59-.12,3.58-2.24,6.41-4.72,6.32l-2.09-.04h-.14c-2.48-.09-4.4-3.06-4.27-6.64s2.21-6.34,4.73-6.27Z"/>
      <path class="cls-14" d="m62.84,125.67l2.19.04c2.49.11,4.43,3.01,4.3,6.59-.12,3.58-2.24,6.41-4.72,6.32l-2.09-.04h-.14c-2.48-.09-4.4-3.06-4.27-6.64s2.21-6.34,4.73-6.27Z"/>
      <path class="cls-7" d="m66.87,134.02c.13-.56.21-1.14.23-1.75v-.25s-.11.11-.11.11c-1.8-.87-3.42-.77-4.82.28l.2-.06c1.4-1.05,3.1.08,4.38,1.49l.12.19Zm-4.69-1.61c1-2.18,2.36-3.62,3.94-4.45-.21-.38-.46-.72-.73-1.02l-.11.1c-1.58.83-2.22,2.49-2.95,5.07l-.15.3Zm-2.46-5.15c.78-.89,1.68-1.46,2.69-1.56h.21c-1.01,1.79-1.17,4-.49,6.61-1.73-2.02-2.47-3.81-2.22-5.35l-.2.3Zm-.38,9.45c-.37-.55-.68-1.2-.89-1.91,1.61.25,3.84-.59,3.72-2.34.12,1.75-.94,3.18-2.65,4.22l-.18.04Zm2.83-4.25c1.28,2.03.91,4.31.34,6.14.49,0,.96-.12,1.4-.33h-.11c.16-1.78-.34-3.78-1.62-5.81h-.02Z"/>
      <path class="cls-21" d="m62.83,125.62c2.46.11,4.4,3.06,4.27,6.64-.12,3.51-2.16,6.3-4.58,6.33"/>
      <line class="cls-14" x1="63.84" y1="138.64" x2="63.94" y2="138.63"/>
      <path class="cls-21" d="m62.64,125.69c-1.02,1.8-1.18,4-.5,6.62-1.73-2.02-2.47-3.81-2.22-5.35"/>
      <path class="cls-21" d="m66.05,127.89c-1.58.83-2.87,2.34-3.87,4.52,1.4-1.05,3-1.15,4.8-.28"/>
      <path class="cls-21" d="m63.81,138.25c.16-1.78-.34-3.78-1.62-5.8.12,1.75-.95,3.18-2.66,4.22"/>
      <path class="cls-21" d="m65.3,127.03c-1.58.83-2.24,2.49-2.97,5.07,1.4-1.05,3.14.32,4.41,1.72"/>
      <path class="cls-21" d="m63.81,138.25c.16-1.78-.34-3.78-1.62-5.8.12,1.75-2.08,2.64-3.69,2.39"/>
      <path class="cls-21" d="m62.54,138.54c.57-1.83.93-4.07-.35-6.09.12,1.75-2.08,2.64-3.69,2.39"/>
      <path class="cls-9" d="m44.96,126.05l2.19.04c2.49.11,4.43,3.01,4.3,6.59-.12,3.58-2.24,6.41-4.72,6.32l-2.09-.04h-.14c-2.48-.09-4.4-3.06-4.27-6.64s2.21-6.34,4.73-6.27Z"/>
      <path class="cls-14" d="m44.96,126.05l2.19.04c2.49.11,4.43,3.01,4.3,6.59-.12,3.58-2.24,6.41-4.72,6.32l-2.09-.04h-.14c-2.48-.09-4.4-3.06-4.27-6.64s2.21-6.34,4.73-6.27Z"/>
      <path class="cls-10" d="m48.99,134.39c.13-.56.21-1.14.23-1.75v-.25s-.11.11-.11.11c-1.8-.87-3.42-.77-4.82.28l.2-.06c1.4-1.05,3.1.08,4.38,1.49l.12.19Zm-4.69-1.61c1-2.18,2.36-3.62,3.94-4.45-.21-.38-.46-.72-.73-1.02l-.11.1c-1.58.83-2.22,2.49-2.95,5.07l-.15.3Zm-2.46-5.15c.78-.89,1.68-1.46,2.69-1.56h.21c-1.01,1.79-1.17,4-.49,6.61-1.73-2.02-2.47-3.81-2.22-5.35l-.2.3Zm-.38,9.45c-.37-.55-.68-1.2-.89-1.91,1.61.25,3.84-.59,3.72-2.34.12,1.75-.94,3.18-2.65,4.22l-.18.04Zm2.83-4.25c1.28,2.03.91,4.31.34,6.14.49,0,.96-.12,1.4-.33h-.11c.16-1.78-.34-3.78-1.62-5.81h-.02Z"/>
      <path class="cls-21" d="m44.95,126c2.46.11,4.4,3.06,4.27,6.64-.12,3.51-2.16,6.3-4.58,6.33"/>
      <line class="cls-14" x1="45.97" y1="139.01" x2="46.07" y2="139.01"/>
      <path class="cls-21" d="m44.77,126.06c-1.02,1.8-1.18,4-.5,6.62-1.73-2.02-2.47-3.81-2.22-5.35"/>
      <path class="cls-21" d="m48.18,128.26c-1.58.83-2.87,2.34-3.87,4.52,1.4-1.05,3-1.15,4.8-.28"/>
      <path class="cls-21" d="m45.93,138.63c.16-1.78-.34-3.78-1.62-5.8.12,1.75-.95,3.18-2.66,4.22"/>
      <path class="cls-21" d="m47.42,127.41c-1.58.83-2.24,2.49-2.97,5.07,1.4-1.05,3.14.32,4.41,1.72"/>
      <path class="cls-21" d="m45.93,138.63c.16-1.78-.34-3.78-1.62-5.8.12,1.75-2.08,2.64-3.69,2.39"/>
      <path class="cls-21" d="m44.66,138.92c.57-1.83.93-4.07-.35-6.09.12,1.75-2.08,2.64-3.69,2.39"/>
      <path class="cls-9" d="m27.21,125.67l2.19.04c2.49.11,4.43,3.01,4.3,6.59-.12,3.58-2.24,6.41-4.72,6.32l-2.09-.04h-.14c-2.48-.09-4.4-3.06-4.27-6.64s2.21-6.34,4.73-6.27Z"/>
      <path class="cls-14" d="m27.21,125.67l2.19.04c2.49.11,4.43,3.01,4.3,6.59-.12,3.58-2.24,6.41-4.72,6.32l-2.09-.04h-.14c-2.48-.09-4.4-3.06-4.27-6.64s2.21-6.34,4.73-6.27Z"/>
      <path class="cls-7" d="m31.24,134.02c.13-.56.21-1.14.23-1.75v-.25s-.11.11-.11.11c-1.8-.87-3.42-.77-4.82.28l.2-.06c1.4-1.05,3.1.08,4.38,1.49l.12.19Zm-4.69-1.61c1-2.18,2.36-3.62,3.94-4.45-.21-.38-.46-.72-.73-1.02l-.11.1c-1.58.83-2.22,2.49-2.95,5.07l-.15.3Zm-2.46-5.15c.78-.89,1.68-1.46,2.69-1.56h.21c-1.01,1.79-1.17,4-.49,6.61-1.73-2.02-2.47-3.81-2.22-5.35l-.2.3Zm-.38,9.45c-.37-.55-.68-1.2-.89-1.91,1.61.25,3.84-.59,3.72-2.34.12,1.75-.94,3.18-2.65,4.22l-.18.04Zm2.83-4.25c1.28,2.03.91,4.31.34,6.14.49,0,.96-.12,1.4-.33h-.11c.16-1.78-.34-3.78-1.62-5.81h-.02Z"/>
      <path class="cls-21" d="m27.2,125.62c2.46.11,4.4,3.06,4.27,6.64-.12,3.51-2.16,6.3-4.58,6.33"/>
      <line class="cls-14" x1="28.22" y1="138.64" x2="28.32" y2="138.63"/>
      <path class="cls-21" d="m27.02,125.69c-1.02,1.8-1.18,4-.5,6.62-1.73-2.02-2.47-3.81-2.22-5.35"/>
      <path class="cls-21" d="m30.43,127.89c-1.58.83-2.87,2.34-3.87,4.52,1.4-1.05,3-1.15,4.8-.28"/>
      <path class="cls-21" d="m28.18,138.25c.16-1.78-.34-3.78-1.62-5.8.12,1.75-.95,3.18-2.66,4.22"/>
      <path class="cls-21" d="m29.67,127.03c-1.58.83-2.24,2.49-2.97,5.07,1.4-1.05,3.14.32,4.41,1.72"/>
      <path class="cls-21" d="m28.18,138.25c.16-1.78-.34-3.78-1.62-5.8.12,1.75-2.08,2.64-3.69,2.39"/>
      <path class="cls-21" d="m26.91,138.54c.57-1.83.93-4.07-.35-6.09.12,1.75-2.08,2.64-3.69,2.39"/>
      <path class="cls-9" d="m10.71,126.05l2.19.04c2.49.11,4.43,3.01,4.3,6.59-.12,3.58-2.24,6.41-4.72,6.32l-2.09-.04h-.14c-2.48-.09-4.4-3.06-4.27-6.64s2.21-6.34,4.73-6.27Z"/>
      <path class="cls-14" d="m10.71,126.05l2.19.04c2.49.11,4.43,3.01,4.3,6.59-.12,3.58-2.24,6.41-4.72,6.32l-2.09-.04h-.14c-2.48-.09-4.4-3.06-4.27-6.64s2.21-6.34,4.73-6.27Z"/>
      <path class="cls-10" d="m14.74,134.39c.13-.56.21-1.14.23-1.75v-.25s-.11.11-.11.11c-1.8-.87-3.42-.77-4.82.28l.2-.06c1.4-1.05,3.1.08,4.38,1.49l.12.19Zm-4.69-1.61c1-2.18,2.36-3.62,3.94-4.45-.21-.38-.46-.72-.73-1.02l-.11.1c-1.58.83-2.22,2.49-2.95,5.07l-.15.3Zm-2.46-5.15c.78-.89,1.68-1.46,2.69-1.56h.21c-1.01,1.79-1.17,4-.49,6.61-1.73-2.02-2.47-3.81-2.22-5.35l-.2.3Zm-.38,9.45c-.37-.55-.68-1.2-.89-1.91,1.61.25,3.84-.59,3.72-2.34.12,1.75-.94,3.18-2.65,4.22l-.18.04Zm2.83-4.25c1.28,2.03.91,4.31.34,6.14.49,0,.96-.12,1.4-.33h-.11c.16-1.78-.34-3.78-1.62-5.81h-.02Z"/>
      <path class="cls-21" d="m10.7,126c2.46.11,4.4,3.06,4.27,6.64-.12,3.51-2.16,6.3-4.58,6.33"/>
      <line class="cls-14" x1="11.72" y1="139.01" x2="11.82" y2="139.01"/>
      <path class="cls-21" d="m10.52,126.06c-1.02,1.8-1.18,4-.5,6.62-1.73-2.02-2.47-3.81-2.22-5.35"/>
      <path class="cls-21" d="m13.93,128.26c-1.58.83-2.87,2.34-3.87,4.52,1.4-1.05,3-1.15,4.8-.28"/>
      <path class="cls-21" d="m11.68,138.63c.16-1.78-.34-3.78-1.62-5.8.12,1.75-.95,3.18-2.66,4.22"/>
      <path class="cls-21" d="m13.17,127.41c-1.58.83-2.24,2.49-2.97,5.07,1.4-1.05,3.14.32,4.41,1.72"/>
      <path class="cls-21" d="m11.68,138.63c.16-1.78-.34-3.78-1.62-5.8.12,1.75-2.08,2.64-3.69,2.39"/>
      <path class="cls-21" d="m10.41,138.92c.57-1.83.93-4.07-.35-6.09.12,1.75-2.08,2.64-3.69,2.39"/>
      <path class="cls-9" d="m97.62,43.47c-2.5,0-6.28,3.33-6.28,9.84s3.78,9.84,6.28,9.84,6.27-3.33,6.27-9.84-3.78-9.84-6.27-9.84Zm-9.67,9.84c0-7.87,4.33-14.24,9.67-14.24s9.67,6.38,9.67,14.24-4.33,14.24-9.67,14.24-9.67-6.38-9.67-14.24Z"/>
      <path class="cls-17" d="m103.27,50.22c.79-1.29,2.94-1.91,4.1-.96"/>
      <path class="cls-17" d="m95.63,43.87c-1.5-.15-3-1.8-2.66-3.27"/>
      <path class="cls-12" d="m93.47,46.27c-1.46.4-3.45-.61-3.65-2.1"/>
      <path class="cls-17" d="m92.17,49.39c-1.27.81-3.47.43-4.11-.94"/>
      <path class="cls-12" d="m91.71,52.92c-1.08,1.06-3.31,1.14-4.21-.06"/>
      <path class="cls-17" d="m91.98,56.41c-.79,1.29-2.94,1.91-4.1.96"/>
      <path class="cls-12" d="m93.05,59.62c-.38,1.46-2.25,2.68-3.64,2.12"/>
      <path class="cls-17" d="m94.97,62.21c.17,1.5-1.14,3.31-2.64,3.28"/>
      <path class="cls-12" d="m97.23,63.5c1.06,1.08,1.14,3.31-.06,4.21"/>
      <path class="cls-17" d="m99.62,62.75c1.5.15,3,1.8,2.66,3.27"/>
      <path class="cls-12" d="m101.78,60.36c1.46-.4,3.45.61,3.65,2.1"/>
      <path class="cls-17" d="m103.08,57.24c1.27-.81,3.47-.43,4.11.94"/>
      <path class="cls-12" d="m103.54,53.7c1.08-1.06,3.31-1.14,4.21.06"/>
      <path class="cls-12" d="m102.2,47.01c.38-1.46,2.25-2.68,3.64-2.12"/>
      <path class="cls-17" d="m100.28,44.41c-.17-1.5,1.14-3.31,2.64-3.28"/>
      <path class="cls-12" d="m98.09,43.11c-1.09-1.04-1.25-3.27-.08-4.21"/>
      <path class="cls-14" d="m88.08,53.31c0-7.87,4.33-14.24,9.67-14.24s9.67,6.38,9.67,14.24-4.33,14.24-9.67,14.24-9.67-6.38-9.67-14.24Zm9.67-9.84c-2.5,0-6.28,3.33-6.28,9.84s3.78,9.84,6.28,9.84,6.27-3.33,6.27-9.84-3.78-9.84-6.27-9.84Z"/>
      <path class="cls-9" d="m86.72,41.55l-2.19.04c-2.49.11-4.43,3.01-4.3,6.59.12,3.58,2.24,6.41,4.72,6.32l2.09-.04h.14c2.48-.09,4.4-3.06,4.27-6.64-.12-3.58-2.21-6.34-4.73-6.27Z"/>
      <path class="cls-14" d="m86.72,41.55l-2.19.04c-2.49.11-4.43,3.01-4.3,6.59.12,3.58,2.24,6.41,4.72,6.32l2.09-.04h.14c2.48-.09,4.4-3.06,4.27-6.64-.12-3.58-2.21-6.34-4.73-6.27Z"/>
      <path class="cls-7" d="m82.69,49.89c-.13-.56-.21-1.14-.23-1.75v-.25s.11.11.11.11c1.8-.87,3.42-.77,4.82.28l-.2-.06c-1.4-1.05-3.1.08-4.38,1.49l-.12.19Zm4.69-1.61c-1-2.18-2.36-3.62-3.94-4.45.21-.38.46-.72.73-1.02l.11.1c1.58.83,2.22,2.49,2.95,5.07l.15.3Zm2.46-5.15c-.78-.89-1.68-1.46-2.69-1.56h-.21c1.01,1.79,1.17,4,.49,6.61,1.73-2.02,2.47-3.81,2.22-5.35l.2.3Zm.38,9.45c.37-.55.68-1.2.89-1.91-1.61.25-3.84-.59-3.72-2.34-.12,1.75.94,3.18,2.65,4.22l.18.04Zm-2.83-4.25c-1.28,2.03-.91,4.31-.34,6.14-.49,0-.96-.12-1.4-.33h.11c-.16-1.78.34-3.78,1.62-5.81h.02Z"/>
      <path class="cls-21" d="m86.73,41.5c-2.46.11-4.4,3.06-4.27,6.64.12,3.51,2.16,6.3,4.58,6.33"/>
      <line class="cls-14" x1="85.71" y1="54.51" x2="85.61" y2="54.51"/>
      <path class="cls-21" d="m86.91,41.56c1.01,1.8,1.18,4,.5,6.62,1.73-2.02,2.47-3.81,2.22-5.35"/>
      <path class="cls-21" d="m83.5,43.76c1.58.83,2.87,2.34,3.87,4.52-1.4-1.05-3-1.15-4.8-.28"/>
      <path class="cls-21" d="m85.75,54.13c-.16-1.78.34-3.78,1.62-5.8-.12,1.75.95,3.18,2.66,4.22"/>
      <path class="cls-21" d="m84.26,42.91c1.58.83,2.24,2.49,2.97,5.07-1.4-1.05-3.14.32-4.41,1.72"/>
      <path class="cls-21" d="m85.75,54.13c-.16-1.78.34-3.78,1.62-5.8-.12,1.75,2.08,2.64,3.69,2.39"/>
      <path class="cls-21" d="m87.02,54.42c-.57-1.83-.93-4.07.35-6.09-.12,1.75,2.08,2.64,3.69,2.39"/>
      <path class="cls-4" d="m75.5,12.19l-1.81,21.56c-2.06,2.62-1,5.81-3.38,6.87-3.33,1.61-4.96,6.79-6.41,14.29-.31.85-.9,1.25-1.77,1.2-6.75-.08-10.56-3.46-15.56-.05l-4.38-32.76c1.81.36,3.65.76,5.2-.24,2.31-.62,6.65,1.75,12.12,0,1.31-.56,2.5.03,4.81,0,2.25,0,3.51-1.3,3.73-3.29.37-3.12,3.59-3.71,6.47-6.71.28-.24.53-.38.77-.48l.22-.4Z"/>
      <line class="cls-21" x1="63.75" y1="56.12" x2="62.76" y2="23.23"/>
      <line class="cls-13" x1="65.06" y1="50.56" x2="64.25" y2="23.44"/>
      <path class="cls-9" d="m40.83,23.19c2.36.31,4.67,1.25,6.61,0,2.31-.62,6.65,1.75,12.12,0,1.31-.56,2.5.03,4.81,0,2.25,0,3.51-1.3,3.73-3.29.37-3.12,3.59-3.71,6.47-6.71.93-.79,1.6-.56,2.06-.97.61-.56.97-1.53,1.52-2.41,1.61-2.95.25-7.25-1.34-7.25-1.56-1-3.2-1-4.94,0-2.09.83-3.09.83-5.87,0-3.56-.62-5.56,1.33-7.19,0-1.6-1.5-3.6-1.31-5.63.19-1.25,1-2.34.35-3.19,1.19-.69.68-1.06,2.62-2.12,3.5-.59.47-1.2.42-1.69.79-.68.52-1.22,1.26-1.62,2.21-1.25,1-3.2.74-4.05,1.57-.69.68-1.76,3.48-1.78,4.59-.41,2.66.52,6.59,2.1,6.59Z"/>
      <path class="cls-14" d="m40.83,23.19c2.36.31,4.67,1.25,6.61,0,2.31-.62,6.65,1.75,12.12,0,1.31-.56,2.5.03,4.81,0,2.25,0,3.51-1.3,3.73-3.29.37-3.12,3.59-3.71,6.47-6.71.93-.79,1.6-.56,2.06-.97.61-.56.97-1.53,1.52-2.41,1.61-2.95.25-7.25-1.34-7.25-1.56-1-3.2-1-4.94,0-2.09.83-3.09.83-5.87,0-3.56-.62-5.56,1.33-7.19,0-1.6-1.5-3.6-1.31-5.63.19-1.25,1-2.34.35-3.19,1.19-.69.68-1.06,2.62-2.12,3.5-.59.47-1.2.42-1.69.79-.68.52-1.22,1.26-1.62,2.21-1.25,1-3.2.74-4.05,1.57-.69.68-1.76,3.48-1.78,4.59-.41,2.66.52,6.59,2.1,6.59Z"/>
      <path class="cls-21" d="m63.83,16.3c.7-.17,1.29-.64,1.67-1.3.69-1.69,1.06-2.59,3.19-2.88,2.36-.68,2.88-2.75,4.81-4.25.19-1.42.62-2.45,1.29-3.09.44-.42.95-.26,1.6-.23"/>
      <path class="cls-21" d="m61.93,16c.29.16.59.27.88.32"/>
      <path class="cls-21" d="m43.51,15.45c1.43-.75,2.84-1.13,4.24-1.14,1.6,0,1.87,1.38,4.75,1.44,2.2.52,4.72,1.46,8.24.37"/>
      <path class="cls-21" d="m40,14.5c.49.53,1.26.88,2.31,1.04"/>
      <path class="cls-13" d="m50.41,11.04c1.02-.79,1.43.74,2.9.78,2.16.51,4.69,1.46,8.14.44.16-.17.3-.36.42-.57.69-1.69,1.06-2.59,3.19-2.88,1.17-.34,1.89-1.02,2.55-1.8"/>
      <path class="cls-21" d="m59.12,6.1c.82-.11,1.73-.15,2.76.03,1.9.57,3.28,1.07,4.64,1.07"/>
      <path class="cls-21" d="m55.98,6.63c.62,0,1.31-.19,2.11-.36"/>
      <path class="cls-21" d="m51.38,10.5c1.39-.86,2.03-2.34,3.42-3.54"/>
      <line class="cls-18" x1="69.17" y1="41.2" x2="69.05" y2="41.52"/>
      <line class="cls-18" x1="74.32" y1="27.68" x2="69.47" y2="40.41"/>
      <line class="cls-18" x1="65.2" y1="33.14" x2="64.4" y2="35.25"/>
      <line class="cls-18" x1="68.31" y1="24.99" x2="65.5" y2="32.35"/>
      <line class="cls-18" x1="71.87" y1="15.65" x2="68.61" y2="24.19"/>
      <line class="cls-18" x1="66.38" y1="44.83" x2="66.48" y2="44.99"/>
      <line class="cls-18" x1="65.25" y1="42.8" x2="65.86" y2="43.9"/>
      <line class="cls-18" x1="64.96" y1="23.83" x2="72.19" y2="36.72"/>
      <line class="cls-18" x1="71.07" y1="16.26" x2="74.72" y2="22.78"/>
      <line class="cls-18" x1="46.52" y1="52.09" x2="49.56" y2="54.78"/>
      <line class="cls-18" x1="43.95" y1="31.36" x2="63.12" y2="48.32"/>
      <line class="cls-18" x1="51.59" y1="47.98" x2="46.42" y2="52.54"/>
      <line class="cls-18" x1="62.76" y1="38.09" x2="52.34" y2="47.31"/>
      <line class="cls-18" x1="49.44" y1="31.41" x2="44.21" y2="36.04"/>
      <line class="cls-18" x1="57.4" y1="24.37" x2="50.2" y2="30.74"/>
      <line class="cls-18" x1="56.89" y1="24.34" x2="63" y2="29.74"/>
      <circle class="cls-1" cx="70.38" cy="4" r="1.94"/>
      <circle class="cls-14" cx="70.38" cy="4" r="1.94"/>
      <circle class="cls-6" cx="67.19" cy="8.94" r="1.94"/>
      <circle class="cls-14" cx="67.19" cy="8.94" r="1.94"/>
      <circle class="cls-1" cx="61" cy="12.94" r="1.94"/>
      <circle class="cls-14" cx="61" cy="12.94" r="1.94"/>
      <circle class="cls-6" cx="51.25" cy="12.69" r="1.94"/>
      <circle class="cls-14" cx="51.25" cy="12.69" r="1.94"/>
      <circle class="cls-1" cx="44.44" cy="11.19" r="1.94"/>
      <circle class="cls-14" cx="44.44" cy="11.19" r="1.94"/>
      <circle class="cls-1" cx="50.06" cy="6.69" r="1.94"/>
      <circle class="cls-14" cx="50.06" cy="6.69" r="1.94"/>
      <circle class="cls-6" cx="56.5" cy="2.44" r="1.94"/>
      <circle class="cls-14" cx="56.5" cy="2.44" r="1.94"/>
      <circle class="cls-1" cx="62.81" cy="2.62" r="1.94"/>
      <circle class="cls-14" cx="62.81" cy="2.62" r="1.94"/>
      <path class="cls-14" d="m42.61,23.31l4.01,32.88c5-3.41,8.82-.04,15.56.05.87.05,1.46-.35,1.77-1.2,1.45-7.51,3.08-12.68,6.41-14.29,2.38-1.05,1.32-4.24,3.38-6.87l1.81-21.56"/>
      <line class="cls-14" x1="73.56" y1="34.06" x2="75.25" y2="32.5"/>
    </g>
  </g>
</svg>