<?xml version="1.0" encoding="UTF-8"?>
<svg id="Layer_2" data-name="Layer 2" xmlns="http://www.w3.org/2000/svg" viewBox="0 0 121.63 143.7">
  <defs>
    <style>
      .cls-1 {
        stroke: #41b056;
      }

      .cls-1, .cls-2, .cls-3, .cls-4, .cls-5, .cls-6, .cls-7, .cls-8, .cls-9, .cls-10 {
        fill: none;
      }

      .cls-1, .cls-3, .cls-4, .cls-5, .cls-6, .cls-9 {
        stroke-miterlimit: 3.86;
      }

      .cls-2, .cls-3, .cls-10 {
        stroke: #231f20;
      }

      .cls-2, .cls-7, .cls-8, .cls-10 {
        stroke-miterlimit: 3.86;
      }

      .cls-4, .cls-8 {
        stroke: #65694e;
      }

      .cls-11, .cls-12, .cls-13, .cls-14, .cls-15, .cls-16, .cls-17, .cls-18, .cls-19 {
        stroke-width: 0px;
      }

      .cls-11, .cls-17 {
        fill: #f9fae8;
      }

      .cls-12 {
        fill: #f7b932;
      }

      .cls-12, .cls-13, .cls-14, .cls-15, .cls-16, .cls-17, .cls-18, .cls-19 {
        fill-rule: evenodd;
      }

      .cls-13 {
        fill: #905d38;
      }

      .cls-5 {
        stroke: #002e05;
      }

      .cls-6 {
        stroke: #b73637;
      }

      .cls-14 {
        fill: #060000;
      }

      .cls-7, .cls-8 {
        stroke-width: .25px;
      }

      .cls-7, .cls-9 {
        stroke: #060000;
      }

      .cls-15 {
        fill: #41b056;
      }

      .cls-16 {
        fill: #f03;
      }

      .cls-18 {
        fill: #b73637;
      }

      .cls-19 {
        fill: #44290b;
      }

      .cls-10 {
        stroke-width: .5px;
      }
    </style>
  </defs>
  <g id="Layer_1-2" data-name="Layer 1">
    <g>
      <path class="cls-17" d="m76.17,130.19c.06-12,.18-24,.18-35.99,0-7.84,4.27-16.61,13.16-16.61s12.97,8.71,12.97,16.61l-.08,35.99h-7.08s.1-35.99.1-35.99c0-3.64-1.53-8.69-5.99-8.69s-6.05,5.12-6.05,8.69c0,12-.1,24-.15,35.99h-7.08Zm-7.67,1.25l-3.59-47.27c-.06,1.48-.76,4.92-2.81,4.92-1.54,0-.69-3.45-2.96-3.45l-.43.06,3.63,44.74,6.17,1Zm-47.11,0l-3.7-46.37-.13.5c-2.74.01-4,3.87-5.86,2.71l3.53,42.15,6.15,1Zm82.54-1.05l7.09-49.08c.15.44.47.94,1.01.94.49,0,1.09-2.59,1.18-2.59.06,0,.26.58.43.93.73,1.57,1.84,5.2,3.01,6.18l-.16-.68-6.61,44.43-5.94-.13Z"/>
      <path class="cls-11" d="m74.84,67.16c.38,0,.77-.29.98-.58,2.21-3.07.85-7.22,2.28-10.5.69-1.59,1.61-3.11,2.42-4.64l1.86.06c5.53,0-1.1-16.15,12.12-16.15,8.86,0,6.54,7.73,6.54,13.46,0,.84.11,2.94,1.37,2.94.55,0,1.56-2.63,1.67-2.63l.38.93c1.43,4.76,1.14,8.39,1.14,13.27,0,.97-.03,4.8,1.56,4.8.9,0,1.11-2.8,1.42-2.8.18,0,.32.82.32.83l.46,1.82c.56,2.32-.14,14.28,2.5,14.28.49,0,1.1-2.59,1.18-2.59l.58,1.15c1.41,1.98,1.37,6.57,4.6,6.57,2.31,0,3.05-2.67,3.05-4.53,0-.55-3.15-9.79-3.6-11.34-.92-3.16-1.99-6.49-2.61-9.72-.49-2.53-.28-4.98-.93-7.56-1.13-4.43-3.59-6.31-3.59-11.96,0-7.1-2.66-6.22-3.62-9.24-2.25-7.1-3.52-12.49-12.28-12.49l-30.87.06c-10.28,0-20.59-.1-30.87.06-10.42.16-15.24,20.46-17.83,28.43-.79,2.42-7.29,22.94-7.29,23.62,0,2.58.94,15.9,4.15,15.9,2,0,2.62-3.04,5.42-3.04h-.67c1.87,0,1.87,3.04,3.59,3.04,2,0,2.62-3.04,5.42-3.04h-.67c1.87,0,1.86,3.04,3.58,3.04,2,0,2.62-3.04,5.42-3.04h-.34s-.34,0-.34,0c1.87,0,1.86,3.04,3.58,3.04,2.01,0,2.62-3.04,5.43-3.04h-.34s-.34,0-.34,0c1.87,0,1.86,3.04,3.58,3.04,2.01,0,2.63-3.04,5.43-3.04h-.67c1.87,0,1.86,3.04,3.58,3.04,2.05,0,2.48-3.05,5.73-3.05,1.77,0,.99,3.52,2.69,3.52,3.93,0,.28-6.29,5.45-6.29,2.82,0,2.24-8.19,2.76-9.97.47-1.6,1.27-3.35,1.94-4.89.67-1.53,1.43-.77,2.67-.77Z"/>
      <path class="cls-14" d="m95,130.2l.09-35.99c0-3.64-1.53-8.69-5.99-8.69s-6.05,5.12-6.05,8.69c0,12-.1,24-.15,35.99h12.09Zm-1.29-83.2c-4.65,0-6.63,7.3-6.63,10.91,0,2.85,1.39,8.77,5.12,8.77,4.56,0,6.58-8.03,6.58-11.49,0-2.89-1.36-8.19-5.07-8.19Z"/>
      <path class="cls-16" d="m19.32,108.31c0,2.71.04,5.44-.54,8.1-.66,3.04-2.17,5.77-4.09,8.2-.1.13-.26.16-.26.33,0,2.01.55,4.35.8,6.37,3.37-3.9,4.73-8.2,4.73-13.32,0-3.23-.39-6.46-.65-9.68Z"/>
      <path class="cls-16" d="m13.62,115.31c3.37-3.89,4.74-8.2,4.74-13.31,0-3.23-.39-6.47-.65-9.69,0,2.71.04,5.44-.54,8.1-.66,3.04-2.17,5.78-4.09,8.2-.1.13-.26.16-.26.33,0,2.02.55,4.35.81,6.37Z"/>
      <path class="cls-16" d="m11.2,92.94c0,2.01.55,4.35.81,6.37,3.48-4.01,4.74-8.2,4.74-13.46v-.35c-2.32.67-1.9,1.81-3.03,3.82-.61,1.08-1.32,2.11-2.09,3.09-.14.18-.43.31-.43.54Z"/>
      <path class="cls-16" d="m66.38,105.32c-.02,2.71.02,5.44-.59,8.1-.69,3.04-2.24,5.78-4.18,8.2-.1.13-.26.16-.26.33,0,2.02.53,4.34.77,6.37,3.51-3.99,4.88-8.19,4.88-13.47,0-3.18-.37-6.36-.62-9.53Z"/>
      <path class="cls-16" d="m60.6,112.32c3.43-3.93,4.84-8.28,4.84-13.46,0-3.18-.37-6.36-.62-9.53-.02,2.71.01,5.44-.59,8.1-.69,3.04-2.22,5.78-4.15,8.2-.1.13-.26.16-.26.33,0,2.02.53,4.35.78,6.37Z"/>
      <path class="cls-16" d="m63.23,88.68c-.73,2.87-2.23,5.43-4.16,7.64-.25-2.03-.78-4.35-.78-6.37,0-1.06,1.3-1.71,1.76-2.67.61.12,1.77,3,3.18,1.4Z"/>
      <path class="cls-16" d="m113.02,109.77c-.7,2.58-1.35,5.2-2.61,7.57-1.76,3.29-4.91,4.4-6.45,6.68-.07.1-.78,5.73-.87,6.37,7.95-4.77,8.43-12.34,9.93-20.62Z"/>
      <path class="cls-16" d="m105.67,114.55c7.61-4.58,8.03-12.9,9.47-20.81-.7,2.58-1.23,5.23-2.39,7.66-1.68,3.53-4.58,4.36-6.22,6.77-.07.1-.78,5.73-.87,6.37Z"/>
      <path class="cls-16" d="m115.8,85.9c-1.32,4-4.75,3.74-6.7,6.43-.09.12-.77,5.71-.86,6.37,5.07-3.05,6.78-6.96,7.94-12.55l-.38-.25Z"/>
      <path class="cls-13" d="m75.58,130.82c.07-12.37,0-24.75.22-37.12.13-7.43,3.81-16.08,12.46-16.08,9.35,0,13.53,8.91,13.53,17.15l-.08,35.99,1.52.19,3.63-25.07c1.1-7.62,3.61-17.6,3.61-25.07,0-.66-1.04-12.78-1.17-13.34l-.45-1.82c-.07-.25-.17-.83-.34-.83-.24,0-.58,2.79-1.34,2.79-2.45,0-1.47-9.09-1.47-10.92,0-1.01-.87-7.79-1.67-8.07-.34.6-.79,2.53-1.62,2.53l-.88-.51c.18,1.07.26,2.15.26,3.23,0,5.45-3.1,16.72-10.03,16.72-5.91,0-8.01-8.43-8.01-13.07,0-5.7,3.05-15.42,10.11-15.42,3.46,0,5.81,2.89,6.96,5.87.04-2.16.44-4.3.44-6.46,0-4.49-2.59-6.66-7.01-6.66-13.57,0-4.87,16.33-13.82,16.09.07.56.18,1.14.18,1.7,0,1.94-1.81,1.47-2.61,2.94-1.93,3.57,1.03,10.87-4.74,10.87-1.95,0-.9,2.15-.9,3.1,0,1.81-1.64,1.38-2.25,2.76-1.47,3.32,1.54,9.73-4.06,9.73-.89,0-1.68,1.67-1.68,2.53,0,14.61,2.42,31.57,3.57,46.36l7.63-.12Zm-58.43-46.24l3.7,46.35h41.05s-3.74-45.73-3.74-45.73c-2.13.39-3.1,2.91-4.89,2.91s-1.71-3.03-3.58-3.04h.34s.34,0,.34,0c-2.8,0-3.43,3.04-5.43,3.04-1.72,0-1.71-3.03-3.58-3.04h.34s.34,0,.34,0c-2.8,0-3.43,3.04-5.43,3.04-1.72,0-1.71-3.03-3.58-3.04h.34s.34,0,.34,0c-2.8,0-3.43,3.04-5.42,3.04-1.72,0-1.71-3.03-3.58-3.04h.34s.34,0,.34,0c-2.8,0-3.42,3.04-5.42,3.04-1.53,0-1.77-2.49-3.13-2.97l.34-.55Z"/>
      <line class="cls-7" x1="31.89" y1="128.5" x2="34.19" y2="130.86"/>
      <line class="cls-7" x1="19.8" y1="116.1" x2="31.15" y2="127.74"/>
      <line class="cls-7" x1="18.05" y1="95.83" x2="51.69" y2="130.31"/>
      <line class="cls-7" x1="61.41" y1="126.53" x2="57.5" y2="130.51"/>
      <line class="cls-7" x1="69.41" y1="118.54" x2="67.69" y2="120.25"/>
      <line class="cls-7" x1="70.77" y1="117.18" x2="70.17" y2="117.78"/>
      <line class="cls-7" x1="75.61" y1="112.36" x2="71.45" y2="116.5"/>
      <line class="cls-7" x1="60.08" y1="109.54" x2="39.4" y2="130.56"/>
      <line class="cls-7" x1="75.27" y1="94.33" x2="71.69" y2="97.9"/>
      <line class="cls-7" x1="70.91" y1="98.68" x2="66.6" y2="102.98"/>
      <line class="cls-7" x1="31.86" y1="119.85" x2="21.24" y2="130.69"/>
      <line class="cls-7" x1="44.84" y1="106.65" x2="32.52" y2="119.19"/>
      <line class="cls-7" x1="48.28" y1="103.15" x2="47.25" y2="104.19"/>
      <line class="cls-7" x1="74.5" y1="76.75" x2="65.23" y2="85.99"/>
      <line class="cls-7" x1="58.04" y1="93.25" x2="48.94" y2="102.48"/>
      <line class="cls-7" x1="23.33" y1="110.13" x2="19.4" y2="114.14"/>
      <line class="cls-7" x1="30.05" y1="103.29" x2="23.98" y2="109.47"/>
      <line class="cls-7" x1="39.52" y1="93.67" x2="30.72" y2="102.61"/>
      <line class="cls-7" x1="44.76" y1="88.35" x2="40.18" y2="93"/>
      <line class="cls-7" x1="27.1" y1="87.88" x2="18.17" y2="96.97"/>
      <line class="cls-7" x1="68.51" y1="128.94" x2="69.96" y2="130.4"/>
      <line class="cls-7" x1="46.16" y1="106.08" x2="60.84" y2="121.16"/>
      <line class="cls-7" x1="28.95" y1="88.47" x2="45.47" y2="105.38"/>
      <line class="cls-7" x1="69.72" y1="111.59" x2="75.75" y2="117.66"/>
      <line class="cls-7" x1="67.16" y1="109.01" x2="69.05" y2="110.92"/>
      <line class="cls-7" x1="53.2" y1="94.75" x2="59.05" y2="100.75"/>
      <line class="cls-7" x1="51.7" y1="93.21" x2="52.59" y2="94.13"/>
      <line class="cls-7" x1="46.39" y1="87.78" x2="50.92" y2="92.41"/>
      <line class="cls-7" x1="65.22" y1="88.48" x2="74.97" y2="98.32"/>
      <line class="cls-7" x1="69.96" y1="74.7" x2="78.03" y2="82.87"/>
      <line class="cls-7" x1="101.56" y1="125.24" x2="103.86" y2="127.55"/>
      <line class="cls-7" x1="105.42" y1="110.62" x2="106.13" y2="111.33"/>
      <line class="cls-7" x1="102.14" y1="107.33" x2="104.75" y2="109.95"/>
      <line class="cls-7" x1="100.61" y1="87.29" x2="108.16" y2="94.88"/>
      <line class="cls-7" x1="90.15" y1="76.69" x2="90.71" y2="77.25"/>
      <line class="cls-7" x1="104.38" y1="120.6" x2="101.8" y2="123.18"/>
      <line class="cls-7" x1="104.08" y1="102.48" x2="102.03" y2="104.53"/>
      <line class="cls-7" x1="105.35" y1="101.21" x2="104.79" y2="101.78"/>
      <line class="cls-7" x1="107.67" y1="98.89" x2="106.02" y2="100.54"/>
      <line class="cls-7" x1="103.99" y1="84.15" x2="100.89" y2="87.25"/>
      <line class="cls-7" x1="109.36" y1="78.81" x2="104.65" y2="83.49"/>
      <line class="cls-7" x1="95.24" y1="74.66" x2="92.16" y2="77.64"/>
      <path class="cls-7" d="m105.35,65.26c-3.18,2.86-6.31,5.77-9.41,8.71"/>
      <path class="cls-7" d="m85.43,66.32c-3.21,3.03-6.38,6.1-9.52,9.2"/>
      <line class="cls-7" x1="103.06" y1="50.57" x2="102.48" y2="51.07"/>
      <line class="cls-7" x1="104.66" y1="49.21" x2="104.11" y2="49.68"/>
      <line class="cls-7" x1="105.49" y1="73.45" x2="109.54" y2="77.71"/>
      <line class="cls-7" x1="98.42" y1="65.89" x2="104.86" y2="72.77"/>
      <line class="cls-7" x1="103.24" y1="50.59" x2="105.11" y2="52.58"/>
      <line class="cls-7" x1="77.11" y1="63.36" x2="89.51" y2="76.06"/>
      <path class="cls-3" d="m17.13,85.56c-2.8,0-3.42,3.04-5.42,3.04-3.2,0-4.15-13.28-4.15-15.9,0-.69,6.48-21.21,7.27-23.62,2.61-8.03,7.44-28.22,17.81-28.43,10.27-.2,20.59-.06,30.87-.06l30.87-.06c8.84,0,9.98,5.41,12.28,12.49,1.38,4.26,3.61,2.86,3.61,10.27,0,4.28,2.65,7.2,3.61,10.93.66,2.58.46,5.03.94,7.56,1.21,6.47,3.57,13.23,5.78,19.43.18.51.44,1.07.44,1.62,0,1.78-.72,4.53-2.97,4.53-3.64,0-4.08-7.23-5.25-7.72-.17.55-.49,2.59-1.18,2.59-2.63,0-1.96-12.01-2.5-14.28l-.46-1.82c-.08-.33-.2-.82-.29-.82-.44,0-.4,2.78-1.56,2.78-2.16,0-1.3-9.23-1.3-10.88,0-1.04-.85-7.83-1.68-8.11-.34.59-.84,2.63-1.67,2.63-2.24,0-1.05-7.78-1.05-9.3,0-4.59-2.19-7.1-6.94-7.1-13.98,0-4.75,16.34-13.9,16.09"/>
      <path class="cls-3" d="m16.45,85.56c1.87,0,1.87,3.04,3.59,3.04,2,0,2.62-3.04,5.42-3.04"/>
      <path class="cls-3" d="m24.79,85.57c1.87,0,1.86,3.04,3.58,3.04,2,0,2.62-3.04,5.42-3.04"/>
      <path class="cls-3" d="m33.13,85.57c1.87,0,1.86,3.04,3.58,3.04,2,0,2.63-3.04,5.43-3.04"/>
      <path class="cls-3" d="m41.46,85.57c1.87,0,1.86,3.04,3.58,3.04,2,0,2.63-3.04,5.43-3.04"/>
      <path class="cls-3" d="m49.8,85.57c1.87,0,1.86,3.04,3.58,3.04,2,0,2.63-3.04,5.43-3.04"/>
      <line class="cls-3" x1="7.52" y1="73.5" x2="7.56" y2="73.63"/>
      <path class="cls-3" d="m71.95,67.93c.57-1.53,1.41-.76,2.56-.76,2.72,0,2.59-9.08,3.37-11.09"/>
      <path class="cls-3" d="m58.7,85.64l.22-.02c1.89,0,1.15,3.47,2.83,3.47,4.06,0,.2-6.3,5.54-6.3,2.63,0,2.32-8.21,2.71-9.97"/>
      <path class="cls-17" d="m10.47,130.68l106.68.02c3.26,0,3.98,6.53,3.98,9,0,1.73-1.25,3.5-3.1,3.5l-108.43-.02c-1.84,0-3.02-1.81-3.02-3.5,0-2.42.69-9,3.89-9Z"/>
      <path class="cls-3" d="m10.47,130.68l106.68.02c3.26,0,3.98,6.53,3.98,9,0,1.73-1.25,3.5-3.1,3.5l-108.43-.02c-1.84,0-3.02-1.81-3.02-3.5,0-2.42.69-9,3.89-9Z"/>
      <path class="cls-3" d="m69.97,72.74c.91-2.36,2.21.86,2.17-4.85"/>
      <line class="cls-3" x1="69.91" y1="72.89" x2="69.97" y2="72.74"/>
      <line class="cls-3" x1="80.23" y1="51.42" x2="80.37" y2="51.15"/>
      <path class="cls-3" d="m77.92,56.11c.92-2.33,3.02.27,2.31-4.69"/>
      <line class="cls-3" x1="58.27" y1="85.7" x2="61.9" y2="130.44"/>
      <line class="cls-3" x1="64.43" y1="84.28" x2="68.06" y2="131.44"/>
      <line class="cls-3" x1="11.27" y1="88.28" x2="14.8" y2="130.43"/>
      <line class="cls-3" x1="110.57" y1="81.3" x2="103.48" y2="130.39"/>
      <line class="cls-3" x1="116.08" y1="86.09" x2="109.47" y2="130.51"/>
      <path class="cls-10" d="m69.02,62.4c.09-5.16,2.15-1.31,2.15-6.93,0-1.9,2.06-1.51,3.15-1.51,3.32,0,2.33-9.04,3.53-11.01.92-1.51,2.23.61,2.23-3.18l.03-1.24c.15-1.55,2.34-.38,2.82-.61,6.05-2.86-.6-16.63,11.44-17.4"/>
      <line class="cls-10" x1="68.94" y1="64.65" x2="68.99" y2="63.44"/>
      <path class="cls-10" d="m54.48,78.1c1.58-.5,2.36-2.95,4.39-2.95,1.89,0,1.28,3.2,2.88,3.2,2.83,0,2.58-4.45,3.2-5.9,1.25-2.94,2.96-1.53,3.89-6.81"/>
      <path class="cls-10" d="m52.48,77.31c.24.35.67.67,1.07.81"/>
      <path class="cls-10" d="m46.21,78.53c1.11-.71,1.88-1.83,2.99-2.48"/>
      <path class="cls-10" d="m40.38,76.35c.41-.35,1.33-.76,1.87-.76.47,0,2.02,1.98,2.23,2.42"/>
      <line class="cls-10" x1="38.98" y1="77.73" x2="39.68" y2="77"/>
      <path class="cls-10" d="m28.28,78.42c.17.1.42.18.62.18,1.97,0,2.62-2.97,5.1-2.97,1.27,0,1.79,3.58,3.85,2.9"/>
      <line class="cls-10" x1="26.66" y1="76.42" x2="27.48" y2="77.63"/>
      <path class="cls-10" d="m19.47,78.07c.23.26.71.53,1.07.53,1.63,0,2.49-2.2,4.04-2.81"/>
      <path class="cls-10" d="m17.94,76.07c.34.34.64.74.89,1.15"/>
      <path class="cls-10" d="m10.74,77.15c.31.52,1.01.96,1.61.96,1.38,0,2.5-2.08,4.34-2.41"/>
      <path class="cls-10" d="m9.69,75.7c.28.32.54.67.77,1.04"/>
      <path class="cls-10" d="m84.62,47.96c.14-.82.21-1.65.21-2.49,0-1.93-.51-3.81-.51-5.74,0-1.33.27-2.64.72-3.9"/>
      <line class="cls-10" x1="76.09" y1="56.69" x2="75.98" y2="55.16"/>
      <path class="cls-10" d="m76.56,64.21c.27-2.04.05-4.05-.26-6.07"/>
      <path class="cls-10" d="m68.25,75.64c-.33-1.92-.6-3.83-.29-5.78"/>
      <line class="cls-10" x1="68.56" y1="77.83" x2="68.42" y2="76.73"/>
      <line class="cls-10" x1="87.07" y1="32.27" x2="86.93" y2="30.46"/>
      <path class="cls-10" d="m84.77,42.9c1.4-3.01,2.33-6.22,2.33-9.56"/>
      <path class="cls-10" d="m79.78,43.27c.12-.72.31-1.44.54-2.12"/>
      <path class="cls-10" d="m80.02,53.27c.12-.77.18-1.55.18-2.32,0-2.24-.69-4.43-.54-6.67"/>
      <path class="cls-10" d="m71.1,62.1c-.16-1.43-.08-2.77.34-4.15"/>
      <path class="cls-10" d="m72.3,70.14l.09-1.44c0-1.95-.65-3.74-1.09-5.61"/>
      <line class="cls-3" x1="106.63" y1="32.87" x2="106.66" y2="33.02"/>
      <line class="cls-3" x1="17.25" y1="85.06" x2="20.95" y2="131.43"/>
      <line class="cls-3" x1="113.45" y1="80.84" x2="113.54" y2="81.01"/>
      <path class="cls-16" d="m83.03,107.26c-.55,2.3-.73,4.73-1.56,6.96-1.21,3.22-3.95,3.88-5.42,6.22l-.17,6.56c8.04-5.23,7.06-11.03,7.16-19.75Z"/>
      <path class="cls-16" d="m82.98,93.04c-1.27,4.49-2.76,4.63-6.83,5.96l-.17,6.47c8.27-.9,6.93-6.05,7-12.44Z"/>
      <path class="cls-16" d="m86.37,86.08c-.89-1.82-2.45-3.96-4.7-3.96-3.28,0-4.44,4.17-5.49,6.58.55-1.3,1.57-2.44,3.07-2.44,1.8,0,3.39,1.44,4.52,2.69l2.6-2.87Z"/>
      <path class="cls-16" d="m94.01,88.14c1.28-1.41,2.3-3.2,2.3-5.15,0-4.17-3.98-4.65-7.09-5.34,1.91.39,2.93,1.95,2.93,3.84,0,1.59-.56,3.15-1.25,4.55l3.11,2.09Z"/>
      <path class="cls-16" d="m101.89,107.27c-.55,2.3-.72,4.73-1.55,6.96-1.2,3.22-3.94,3.88-5.41,6.22l-.16,6.56c8.04-5.23,7.04-11.04,7.12-19.75Z"/>
      <path class="cls-16" d="m101.93,91.42c-1.26,4.48-2.75,4.64-6.82,5.96l-.16,6.47c8.27-.91,6.92-6.05,6.98-12.44Z"/>
      <path class="cls-1" d="m76.21,114.07c4.01-1.66,6.02-5.75,6.99-9.75"/>
      <path class="cls-1" d="m95.2,112.7c4.43-1.29,7.01-5.52,6.64-10"/>
      <path class="cls-1" d="m94.93,92.58c2.83-1.04,4.38-3.79,4.38-6.72,0-1.2-.23-2.39-.61-3.52"/>
      <path class="cls-17" d="m113.7,62.2c-4.62,0-6.59,2.7-6.59,7.25,0,2.21,1,5.7,3.74,5.7,4.75,0,6.38-2.99,6.38-7.6,0-2.16-.85-5.35-3.53-5.35Z"/>
      <path class="cls-3" d="m113.7,62.2c-4.62,0-6.59,2.7-6.59,7.25,0,2.21,1,5.7,3.74,5.7,4.75,0,6.38-2.99,6.38-7.6,0-2.16-.85-5.35-3.53-5.35Z"/>
      <path class="cls-18" d="m109.18,70.54l-.06-.86c0-.17-.11-1.32.13-1.03.7-.36,1.44-.59,2.23-.59s1.5.36,2.05.87c-.43-.15-.7-.47-1.21-.47-1.08,0-2.55,1.23-3.14,2.08Zm4.33-1.61c-.54-1.74-1.47-3.46-3.05-4.45l.78-1.01c2.27,2.46,1.33,2.72,2.27,5.46Zm2.81-5.15c-.37-.63-1.57-1.57-2.33-1.57h-.09c.31.81.43,1.67.43,2.53,0,1.39-.33,2.77-.77,4.08,1.26-1.45,2.66-3.33,2.63-5.35l.14.3Zm-.68,9.44c.39-.58.72-1.25.95-1.91l-.6.04c-1.57,0-2.23-.93-2.48-2.38,0,1.3.53,3.91,2.13,4.25Zm-2.13-4.25c-1.21,1.84-1.25,4.05-.8,6.13-.4,0-.87-.13-1.22-.33h.09c-.01-.83,1.09-5.8,1.92-5.8h0Z"/>
      <path class="cls-10" d="m113.72,62.15c-3.14.15-4.61,4.66-4.61,7.25,0,2.1.95,5.68,3.6,5.71"/>
      <line class="cls-3" x1="111.53" y1="75.16" x2="111.44" y2="75.16"/>
      <path class="cls-10" d="m113.88,62.21c.31.81.43,1.67.43,2.54,0,1.39-.32,2.77-.76,4.08,1.26-1.45,2.66-3.33,2.63-5.35"/>
      <path class="cls-10" d="m110.52,64.41c1.59,1,2.45,2.79,2.99,4.52-.62-.57-1.37-.87-2.21-.87-.71,0-1.43.27-2.05.59"/>
      <path class="cls-10" d="m111.58,74.78c-.03-2.08.78-4.09,1.92-5.8l-.05.78c0,1.42.94,2.63,2.04,3.43"/>
      <path class="cls-10" d="m111.3,63.56c1.63,1.02,1.84,3.35,2.1,5.07-.26-.24-.58-.37-.93-.37-1.14,0-2.45,1.3-3.17,2.1"/>
      <path class="cls-10" d="m111.58,74.78c-.03-2.08.78-4.09,1.92-5.8l-.03.39c0,1.51,1.81,2.22,3.08,2"/>
      <path class="cls-10" d="m112.68,75.07c-.17-.8-.27-1.61-.27-2.42,0-1.3.37-2.59,1.08-3.67l-.03.39c0,1.51,1.81,2.22,3.08,2"/>
      <path class="cls-17" d="m109.99,43.2c-4.81,0-7.01,2.64-7.01,7.46,0,2.23.97,5.49,3.7,5.49,4.77,0,7.03-2.96,7.03-7.75,0-2.27-1.01-5.2-3.72-5.2Z"/>
      <path class="cls-3" d="m109.99,43.2c-4.81,0-7.01,2.64-7.01,7.46,0,2.23.97,5.49,3.7,5.49,4.77,0,7.03-2.96,7.03-7.75,0-2.27-1.01-5.2-3.72-5.2Z"/>
      <path class="cls-15" d="m105.13,51.54l-.04-.85c0-.17-.09-1.32.16-1.03.75-.36,1.53-.59,2.36-.59s1.56.34,2.15.87c-.45-.15-.74-.47-1.26-.47-1.13,0-2.71,1.21-3.37,2.08Zm4.61-1.61c-.54-1.79-1.53-3.48-3.18-4.45l.82-1.02c2.44,2.42,1.41,2.68,2.36,5.47Zm3.03-5.15c-.42-.65-1.69-1.57-2.48-1.57h-.1c.33.8.47,1.67.47,2.53,0,1.4-.37,2.78-.87,4.08,1.33-1.42,2.86-3.29,2.83-5.35l.15.3Zm-.96,9.45c.44-.58.82-1.24,1.1-1.91l-.59.04c-1.64,0-2.34-.81-2.57-2.38v.63c0,1.2.71,3.29,2.06,3.62Zm-2.06-4.25c-1.44,1.98-1.33,3.79-1.13,6.14-.42,0-.89-.13-1.25-.33h.1c.03-.84,1.44-5.8,2.28-5.8h0Z"/>
      <path class="cls-10" d="m110,43.15c-3.35.15-4.92,4.77-4.92,7.55,0,2.09.94,5.39,3.53,5.41"/>
      <line class="cls-3" x1="107.38" y1="56.16" x2="107.29" y2="56.16"/>
      <path class="cls-10" d="m110.17,43.21c.33.8.48,1.67.48,2.54,0,1.4-.37,2.78-.86,4.08,1.33-1.42,2.86-3.29,2.83-5.35"/>
      <path class="cls-10" d="m106.63,45.41c1.65.97,2.57,2.74,3.11,4.52-.65-.58-1.45-.87-2.32-.87-.75,0-1.51.26-2.18.59"/>
      <path class="cls-10" d="m107.46,55.78c.09-2.12,1.04-4.11,2.27-5.8l-.08.78c0,1.43.87,2.63,2,3.43"/>
      <path class="cls-10" d="m107.45,44.56c1.7,1,1.95,3.31,2.19,5.07-.27-.24-.61-.37-.98-.37-1.2,0-2.6,1.28-3.4,2.1"/>
      <path class="cls-10" d="m107.46,55.78c.09-2.12,1.04-4.11,2.27-5.8l-.04.39c0,1.57,1.87,2.21,3.18,2"/>
      <path class="cls-10" d="m108.6,56.07c-.1-.62-.16-1.26-.16-1.89,0-1.51.4-2.98,1.3-4.2l-.04.36c0,1.58,1.84,2.24,3.18,2.02"/>
      <path class="cls-17" d="m95.82,22.58c-4.52,0-6.65,1.9-6.65,6.63,0,2.58,1.23,6.32,4.36,6.32,4.38,0,6.8-1.9,6.8-6.67,0-2.68-1.3-6.27-4.51-6.27Z"/>
      <path class="cls-3" d="m95.82,22.58c-4.52,0-6.65,1.9-6.65,6.63,0,2.58,1.23,6.32,4.36,6.32,4.38,0,6.8-1.9,6.8-6.67,0-2.68-1.3-6.27-4.51-6.27Z"/>
      <path class="cls-18" d="m91.54,30.92c-.11-.62-.15-1.25-.15-1.88,0-.16.03-.1.12-.02.77-.37,1.58-.58,2.43-.58s1.68.35,2.34.87c-.49-.14-.82-.47-1.37-.47-1.18,0-2.7,1.15-3.37,2.08Zm4.72-1.61c-.76-1.84-1.99-3.5-3.76-4.45l.75-1.02c2.69,2.38,1.75,2.6,3.02,5.47Zm2.64-5.15c-.5-.63-1.94-1.57-2.76-1.57h-.1c.57,1.04.81,2.21.81,3.39,0,1.09-.22,2.18-.54,3.22,1.27-1.43,2.67-3.32,2.4-5.35l.19.3Zm-.07,9.45c.42-.57.76-1.24,1-1.91l-.62.04c-1.66,0-2.54-.8-2.94-2.38.08,1.49.85,3.87,2.56,4.25Zm-2.56-4.25c-1.23,1.83-1.19,4.07-.69,6.13-.45,0-.95-.13-1.35-.33h.11c-.02-.84,1.08-5.8,1.93-5.8h0Z"/>
      <path class="cls-10" d="m95.83,22.53c-3.08.13-4.45,4.06-4.45,6.64s1.18,6.3,4.2,6.32"/>
      <line class="cls-3" x1="94.28" y1="35.54" x2="94.18" y2="35.53"/>
      <path class="cls-10" d="m96.02,22.59c.57,1.04.82,2.21.82,3.4,0,1.09-.22,2.18-.53,3.22,1.27-1.43,2.67-3.32,2.4-5.35"/>
      <path class="cls-10" d="m92.56,24.79c1.78.95,2.95,2.69,3.7,4.52-.73-.58-1.59-.87-2.52-.87-.77,0-1.55.26-2.24.58"/>
      <path class="cls-10" d="m94.34,35.16v-.36c0-1.94.85-3.86,1.92-5.44l-.02.59c0,1.56,1.2,2.83,2.42,3.62"/>
      <path class="cls-10" d="m93.34,23.94c1.82.98,2.35,3.22,2.79,5.07-.3-.24-.67-.37-1.06-.37-1.24,0-2.59,1.25-3.39,2.1"/>
      <path class="cls-10" d="m94.34,35.16v-.34c0-1.95.85-3.87,1.92-5.46v.2c-.01,1.72,2.11,2.41,3.53,2.19"/>
      <path class="cls-10" d="m95.56,35.45c-.21-.85-.34-1.71-.34-2.58,0-1.25.33-2.47,1.03-3.51v.2c-.01,1.72,2.11,2.41,3.53,2.19"/>
      <path class="cls-17" d="m75.07,63.82c-4.28,0-5.92,2.06-5.92,6.33,0,2.41,1.08,6.62,4.13,6.62,4.39,0,5.87-2.27,5.87-6.67,0-2.41-1.09-6.27-4.09-6.27Z"/>
      <path class="cls-3" d="m75.07,63.82c-4.28,0-5.92,2.06-5.92,6.33,0,2.41,1.08,6.62,4.13,6.62,4.39,0,5.87-2.27,5.87-6.67,0-2.41-1.09-6.27-4.09-6.27Z"/>
      <path class="cls-18" d="m71.33,72.16c-.12-.61-.19-1.25-.19-1.88,0-.16.02-.11.1-.01.68-.36,1.4-.59,2.17-.59s1.53.37,2.12.87c-.44-.15-.73-.47-1.24-.47-1.07,0-2.44,1.2-2.96,2.08Zm4.19-1.61c-.69-1.77-1.78-3.46-3.45-4.45l.67-1.02c2.3,2.38,1.61,2.74,2.78,5.47Zm2.32-5.15c-.42-.6-1.72-1.57-2.49-1.57h-.09c1,2.06.84,4.45.3,6.61,1.16-1.48,2.34-3.38,2.11-5.35l.17.3Zm.12,9.45c.36-.58.64-1.25.82-1.91l-.59.04c-1.58,0-2.3-.95-2.66-2.38.1,1.32.85,3.94,2.43,4.25Zm-2.43-4.25c-1.09,1.88-.93,4.11-.4,6.14-.41,0-.87-.13-1.23-.33h.09c-.05-.8.74-5.8,1.53-5.8h0Z"/>
      <path class="cls-10" d="m75.08,63.77c-2.99.14-3.94,4.28-3.94,6.64s1.19,6.29,3.98,6.32"/>
      <line class="cls-3" x1="73.96" y1="76.78" x2="73.87" y2="76.77"/>
      <path class="cls-10" d="m75.25,63.83c1,2.06.86,4.45.31,6.62,1.16-1.48,2.34-3.38,2.11-5.35"/>
      <path class="cls-10" d="m72.13,66.03c1.67.99,2.7,2.76,3.39,4.52-.66-.57-1.43-.87-2.3-.87-.69,0-1.38.27-1.97.59"/>
      <path class="cls-10" d="m73.99,76.39l-.02-.54c0-1.86.62-3.66,1.54-5.26v.37c-.01,1.61,1.01,2.96,2.29,3.85"/>
      <path class="cls-10" d="m72.82,65.18c1.71,1.01,2.15,3.29,2.57,5.07-.27-.23-.6-.37-.96-.37-1.13,0-2.32,1.29-2.99,2.1"/>
      <path class="cls-10" d="m73.99,76.39l-.02-.68c0-1.8.65-3.58,1.54-5.12v.18c0,1.6,1.83,2.45,3.23,2.2"/>
      <path class="cls-10" d="m75.11,76.69c-.26-.97-.42-1.96-.42-2.97,0-1.09.28-2.18.82-3.12v.2c0,1.59,1.84,2.43,3.23,2.19"/>
      <path class="cls-3" d="m75.73,130.19c.06-12,.18-24,.18-35.99,0-7.84,4.27-16.61,13.16-16.61s12.97,8.71,12.97,16.61l-.08,35.99h-7.08s.11-35.99.11-35.99c0-3.64-1.53-8.69-5.99-8.69s-6.05,5.12-6.05,8.69c0,12-.1,24-.15,35.99h-7.08Z"/>
      <path class="cls-10" d="m51.77,81.57c.68,1.93,1.76,3.76,1.99,5.82"/>
      <line class="cls-10" x1="51.2" y1="79.53" x2="51.43" y2="80.51"/>
      <path class="cls-10" d="m42.64,77.89c.11,3.75,2.82,6.76,2.8,10.3"/>
      <line class="cls-10" x1="36.56" y1="86.04" x2="36.8" y2="87.17"/>
      <path class="cls-10" d="m34.46,80.41c.44,1.61,1.21,3.09,1.78,4.65"/>
      <path class="cls-10" d="m34.03,77.51c0,.59.06,1.18.16,1.76"/>
      <path class="cls-10" d="m26.13,81.71c.63,1.67,1.51,3.27,1.83,5.05"/>
      <path class="cls-10" d="m25.24,77.98c.08.94.27,1.91.57,2.8"/>
      <path class="cls-10" d="m19.33,84.7c.4.93.66,1.99.76,3"/>
      <line class="cls-10" x1="18.42" y1="82.53" x2="18.89" y2="83.63"/>
      <path class="cls-10" d="m17.24,77.98c.08,1.25.45,2.4.81,3.59"/>
      <path class="cls-10" d="m63.69,83.57c-.32-1.92-.59-3.83-.29-5.78"/>
      <line class="cls-10" x1="64.01" y1="85.77" x2="63.87" y2="84.67"/>
      <line class="cls-9" x1="38.37" y1="124.62" x2="38.35" y2="130.56"/>
      <line class="cls-9" x1="47.98" y1="127.44" x2="47.96" y2="130.56"/>
      <path class="cls-19" d="m48.07,130.19c-.17-3.78-1.61-3.94-1.63-6.05-.99.89-2.25,1.67-3.63,1.67-1.55,0-2.88-.89-3.92-1.97l-.5.65.04-.12.04-.12-.02,5.94h9.62Z"/>
      <path class="cls-15" d="m51.61,110.58c.07-.16.45-.83.45-.97,0-2.61-3.88-9.19-3.88-10.04l.09-.72c.29.29.7.46,1.11.46.46,0,1.08-1.56,1.08-1.92l-4.94-6.58c-.2-.27-1.55-1.82-1.89-1.82-.79,0-7.24,7.85-7.24,8.4,0,1.49.35,2.65,1.88,3.16-.35.82-3.3,7.55-3.3,7.76,0,1.38.21,2.66.92,3.86l-.02-.35c-1.3,2.46-4.57,7.54-4.57,10.1,0,2.09,1.15,4.07,3.44,4.07,1.58,0,2.99-.99,3.84-2.28,1.05,1.08,2.38,1.97,3.93,1.97,1.37,0,2.63-.78,3.62-1.67,0,1.61,1.02,3.11,2.74,3.11,2.34,0,3.68-2.18,3.69-4.32.52.57,1.24,1.02,2.03,1.02,1.37,0,2.02-1.28,2.02-2.48,0-1.8-4.3-9.21-5.38-11.3l.39.53Z"/>
      <path class="cls-6" d="m49.22,101.9l.05.4c0,3.43-9.1,8-12.18,8-.76,0-1.88-.17-1.92-1.12"/>
      <path class="cls-6" d="m52.48,112.94v.2c.01,4.55-14.3,9.72-18.23,9.72-.9,0-2.62-.13-2.69-1.35"/>
      <path class="cls-5" d="m50.67,97.89c0,1.21-.98,2.68-2.19,1.46,0,1.14-.78,2.32-2.02,2.32-.96,0-1.62-.71-1.62-1.67-.62.53-1.33.89-2.16.89s-1.55-.51-2.11-1.06c-.48.7-1.17,1.22-2.05,1.22-1.52,0-1.94-2.02-1.94-3.17,0-.54,6.44-8.4,7.24-8.4.34,0,1.69,1.55,1.89,1.82l4.94,6.58Z"/>
      <path class="cls-6" d="m46.72,92.8c-2.5,2.26-6.43,4.61-9.84,4.91"/>
      <path class="cls-5" d="m38.51,100.81c-.34.81-3.33,7.83-3.33,8,0,1.37.3,4.63,2.28,4.63,1.15,0,1.99-1.09,2.48-2.01.59.75,1.48,1.62,2.51,1.62s1.89-.62,2.58-1.37c0,1.2.56,2.57,1.94,2.57,1.74,0,2.39-2.19,2.4-3.57.38.51.9.85,1.55.85.96,0,1.41-1.09,1.41-1.89,0-1.26-3.07-7.73-3.78-9.36"/>
      <path class="cls-12" d="m42.57,88.51l-2.3.63c.17-.97.57-2.24.57-3.2l-1.64-2.68c3.48-.76,2.6-.16,4.3-3.36l1.54,2.77-.13-.03,2.81.62c-.19.31-1.66,2.54-1.66,2.68,0,.97.38,2.23.54,3.2l-2.23-.61v1.06s-1.74,0-1.74,0l-.05-1.08Z"/>
      <path class="cls-4" d="m42.57,88.51l-2.3.63c.17-.97.57-2.24.57-3.2l-1.64-2.68c3.48-.76,2.6-.16,4.3-3.36l1.54,2.77-.13-.03,2.81.62c-.19.31-1.66,2.54-1.66,2.68,0,.97.38,2.23.54,3.2l-2.23-.61v1.06s-1.74,0-1.74,0l-.05-1.08Z"/>
      <path class="cls-8" d="m44.36,88.53c-.93-.25-.87-.28-1.79-.02"/>
      <line class="cls-8" x1="39.24" y1="83.39" x2="43.01" y2="85.18"/>
      <line class="cls-8" x1="47.64" y1="83.39" x2="43.93" y2="85.09"/>
      <line class="cls-8" x1="43.54" y1="80.11" x2="43.53" y2="84.54"/>
      <line class="cls-8" x1="40.21" y1="89.22" x2="42.97" y2="85.99"/>
      <line class="cls-8" x1="46.8" y1="89.31" x2="43.85" y2="86.03"/>
      <path class="cls-5" d="m36.08,112.32c-1.3,2.45-4.57,7.55-4.57,10.1,0,2.09,1.14,4.06,3.44,4.06,1.58,0,2.99-.99,3.84-2.28,1.06,1.09,2.39,1.97,3.96,1.97,1.36,0,2.61-.79,3.59-1.67,0,1.84,1.08,3.11,2.94,3.11,2.24,0,3.48-2.36,3.49-4.32.52.57,1.24,1.02,2.03,1.02,1.37,0,2.02-1.28,2.02-2.48,0-1.8-4.3-9.21-5.38-11.3"/>
      <path class="cls-17" d="m115.03,128.94c-4.26,0-5.75,2.14-5.75,6.33,0,2.43,1.12,6.62,4.18,6.62,4.26,0,5.76-2.03,5.76-6.38,0-2.44-1.12-6.57-4.19-6.57Z"/>
      <path class="cls-3" d="m115.03,128.94c-4.26,0-5.75,2.14-5.75,6.33,0,2.43,1.12,6.62,4.18,6.62,4.26,0,5.76-2.03,5.76-6.38,0-2.44-1.12-6.57-4.19-6.57Z"/>
      <path class="cls-18" d="m111.45,137.28c-.12-.61-.2-1.26-.2-1.88,0-.16.01-.1.1-.01.67-.36,1.38-.59,2.15-.59s1.53.37,2.12.87c-.44-.15-.73-.47-1.24-.47-1.06,0-2.41,1.21-2.92,2.08Zm4.15-1.61c-.72-1.76-1.82-3.46-3.48-4.45l.64-1.02c2.41,2.38,1.63,2.74,2.84,5.47Zm2.18-5.15c-.41-.59-1.72-1.57-2.47-1.57h-.09c1.02,2.05.93,4.44.42,6.61,1.13-1.49,2.24-3.4,1.97-5.35l.17.3Zm.33,9.44c.35-.58.62-1.25.79-1.91l-.59.04c-1.58,0-2.32-.96-2.69-2.38.12,1.34.91,3.92,2.5,4.25Zm-2.5-4.25c-1.06,1.89-.86,4.12-.31,6.14-.41,0-.88-.13-1.24-.33h.09c-.16-2.03.46-4.05,1.44-5.8h.01Z"/>
      <path class="cls-10" d="m115.04,128.89c-2.8.14-3.79,4.1-3.79,6.34s1.11,6.59,4.06,6.62"/>
      <line class="cls-3" x1="114.13" y1="141.9" x2="114.03" y2="141.89"/>
      <path class="cls-10" d="m115.2,128.95c1.02,2.05.94,4.43.44,6.62,1.13-1.49,2.24-3.4,1.97-5.35"/>
      <path class="cls-10" d="m112.18,131.15c1.67,1,2.71,2.76,3.43,4.52-.66-.56-1.43-.87-2.3-.87-.68,0-1.36.27-1.95.59"/>
      <path class="cls-10" d="m114.15,141.52l-.02-.72c0-1.78.61-3.54,1.47-5.08v.37c0,1.61,1.08,2.97,2.35,3.85"/>
      <path class="cls-10" d="m112.85,130.3c1.7,1.02,2.18,3.29,2.62,5.07-.27-.23-.6-.37-.96-.37-1.12,0-2.3,1.29-2.95,2.1"/>
      <path class="cls-10" d="m114.15,141.52l-.03-.68c0-1.8.6-3.57,1.47-5.12v.18c0,1.6,1.88,2.45,3.26,2.2"/>
      <path class="cls-10" d="m115.28,141.81c-.27-.97-.46-1.96-.46-2.97,0-1.09.24-2.17.77-3.12v.2c0,1.59,1.89,2.43,3.26,2.19"/>
      <path class="cls-17" d="m77.21,129.55c-4.25,0-5.78,2.14-5.78,6.33,0,2.43,1.09,6.62,4.15,6.62,4.24,0,5.79-2.03,5.79-6.38,0-2.43-1.09-6.57-4.16-6.57Z"/>
      <path class="cls-3" d="m77.21,129.55c-4.25,0-5.78,2.14-5.78,6.33,0,2.43,1.09,6.62,4.15,6.62,4.24,0,5.79-2.03,5.79-6.38,0-2.43-1.09-6.57-4.16-6.57Z"/>
      <path class="cls-18" d="m73.6,137.9c-.13-.65-.2-1.34-.2-2l.1.11c.67-.36,1.39-.59,2.15-.59s1.53.37,2.11.87c-.44-.15-.73-.47-1.24-.47-1.08,0-2.4,1.21-2.93,2.08Zm4.16-1.61c-.71-1.76-1.8-3.46-3.46-4.45l.65-1.01c2.4,2.37,1.63,2.74,2.82,5.46Zm2.2-5.15c-.41-.59-1.71-1.57-2.47-1.57h-.09c1.01,2.05.91,4.44.4,6.61,1.14-1.5,2.26-3.39,1.99-5.35l.17.3Zm.29,9.44c.35-.58.62-1.25.8-1.91l-.59.04c-1.58,0-2.31-.95-2.68-2.38.11,1.34.89,3.93,2.48,4.25Zm-2.48-4.25c-1.07,1.89-.88,4.12-.33,6.14-.41,0-.88-.13-1.24-.33h.09c-.15-2.03.47-4.05,1.47-5.8h.01Z"/>
      <path class="cls-10" d="m77.22,129.51c-2.79.14-3.82,4.1-3.82,6.34s1.07,6.59,4.03,6.62"/>
      <line class="cls-3" x1="76.26" y1="142.51" x2="76.17" y2="142.51"/>
      <path class="cls-10" d="m77.39,129.57c1.01,2.05.92,4.44.41,6.62,1.14-1.5,2.26-3.39,1.99-5.35"/>
      <path class="cls-10" d="m74.36,131.77c1.66,1,2.7,2.76,3.41,4.52-.66-.56-1.43-.87-2.29-.87-.68,0-1.37.27-1.96.59"/>
      <path class="cls-10" d="m76.29,142.13l-.02-.72c0-1.78.62-3.55,1.49-5.08v.37c0,1.61,1.06,2.97,2.34,3.85"/>
      <path class="cls-10" d="m75.03,130.91c1.7,1.02,2.17,3.3,2.6,5.07-.27-.23-.6-.37-.96-.37-1.12,0-2.3,1.29-2.96,2.1"/>
      <path class="cls-10" d="m76.29,142.13l-.02-.68c0-1.8.61-3.57,1.49-5.12v.18c0,1.6,1.87,2.44,3.26,2.2"/>
      <path class="cls-10" d="m77.42,142.42c-.26-.97-.44-1.96-.44-2.97,0-1.09.25-2.17.79-3.12v.2c0,1.6,1.88,2.43,3.26,2.19"/>
      <path class="cls-17" d="m96.46,128.81c-4.25,0-5.77,2.14-5.77,6.33,0,2.43,1.11,6.62,4.17,6.62,4.25,0,5.78-2.03,5.78-6.38,0-2.44-1.11-6.57-4.17-6.57Z"/>
      <path class="cls-3" d="m96.46,128.81c-4.25,0-5.77,2.14-5.77,6.33,0,2.43,1.11,6.62,4.17,6.62,4.25,0,5.78-2.03,5.78-6.38,0-2.44-1.11-6.57-4.17-6.57Z"/>
      <path class="cls-15" d="m92.86,137.15c-.12-.61-.2-1.26-.2-1.88,0-.16.01-.11.1-.01.67-.36,1.38-.59,2.15-.59s1.53.37,2.11.87c-.44-.15-.73-.47-1.24-.47-1.07,0-2.42,1.2-2.93,2.08Zm4.15-1.61c-.71-1.76-1.81-3.46-3.47-4.45l.65-1.02c2.41,2.32,1.64,2.78,2.83,5.47Zm2.19-5.15c-.41-.59-1.72-1.57-2.47-1.57h-.09c1.02,2.05.92,4.44.41,6.62,1.13-1.5,2.25-3.39,1.98-5.35l.17.3Zm.31,9.45c.35-.58.62-1.25.79-1.91l-.59.04c-1.58,0-2.31-.96-2.69-2.38.12,1.4.88,3.86,2.49,4.25Zm-2.49-4.25c-1.06,1.89-.87,4.12-.32,6.14-.41,0-.88-.13-1.24-.33h.09c-.16-2.03.47-4.05,1.45-5.8h.01Z"/>
      <path class="cls-10" d="m96.46,128.76c-2.79.14-3.8,4.1-3.8,6.34s1.09,6.59,4.04,6.62"/>
      <line class="cls-3" x1="95.53" y1="141.77" x2="95.44" y2="141.77"/>
      <path class="cls-10" d="m96.63,128.82c1.02,2.05.93,4.44.43,6.62,1.13-1.5,2.25-3.39,1.98-5.35"/>
      <path class="cls-10" d="m93.6,131.02c1.66.99,2.71,2.77,3.42,4.52-.66-.56-1.43-.87-2.29-.87-.68,0-1.37.27-1.96.59"/>
      <path class="cls-10" d="m95.56,141.39l-.02-.72c0-1.78.61-3.54,1.48-5.08v.37c0,1.61,1.07,2.97,2.35,3.85"/>
      <path class="cls-10" d="m94.27,130.17c1.7,1.02,2.17,3.29,2.61,5.07-.27-.23-.6-.37-.96-.37-1.12,0-2.3,1.29-2.95,2.1"/>
      <path class="cls-10" d="m95.56,141.39l-.02-.68c0-1.8.6-3.57,1.48-5.12v.18c0,1.6,1.88,2.45,3.26,2.2"/>
      <path class="cls-10" d="m96.68,141.68c-.26-.97-.45-1.96-.45-2.97,0-1.09.24-2.17.78-3.12v.2c0,1.59,1.89,2.43,3.26,2.19"/>
      <path class="cls-17" d="m60.47,129.18c4.26,0,5.64,2.2,5.64,6.33,0,2.4-1.19,6.62-4.2,6.62-4.25,0-5.58-2.12-5.58-6.38,0-2.39,1.12-6.57,4.13-6.57Z"/>
      <path class="cls-3" d="m60.47,129.18c4.26,0,5.64,2.2,5.64,6.33,0,2.4-1.19,6.62-4.2,6.62-4.25,0-5.58-2.12-5.58-6.38,0-2.39,1.12-6.57,4.13-6.57Z"/>
      <path class="cls-15" d="m63.92,137.52c.14-.65.22-1.33.22-2l-.11.11c-.66-.36-1.36-.59-2.11-.59s-1.5.37-2.07.87c.43-.15.72-.47,1.22-.47,1.06,0,2.35,1.23,2.86,2.09Zm-4.06-1.61c.71-1.75,1.78-3.45,3.43-4.45l-.62-1.02c-2.36,2.35-1.63,2.76-2.81,5.47Zm-2.09-5.15c.4-.58,1.69-1.57,2.43-1.57h.09c-1.01,2.05-.94,4.43-.46,6.62-1.1-1.51-2.16-3.41-1.89-5.35l-.17.3Zm-.38,9.45c-.34-.59-.59-1.26-.76-1.91l.58.04c1.57,0,2.26-.98,2.64-2.38-.13,1.39-.87,3.83-2.47,4.25Zm2.47-4.25c1.02,1.9.82,4.13.26,6.13.4,0,.86-.13,1.21-.33h-.09c.17-2.02-.41-4.04-1.37-5.8h-.01Z"/>
      <path class="cls-10" d="m60.46,129.13c2.76.14,3.68,4.16,3.68,6.34s-1.16,6.59-4.03,6.62"/>
      <line class="cls-3" x1="61.26" y1="142.14" x2="61.35" y2="142.13"/>
      <path class="cls-10" d="m60.3,129.19c-1.01,2.05-.95,4.43-.47,6.62-1.1-1.51-2.16-3.41-1.89-5.35"/>
      <path class="cls-10" d="m63.24,131.39c-1.65,1-2.67,2.77-3.37,4.52.64-.56,1.4-.87,2.25-.87.67,0,1.34.27,1.92.59"/>
      <path class="cls-10" d="m61.23,141.75l.03-.72c0-1.78-.56-3.52-1.4-5.08v.37c0,1.6-1.07,2.97-2.32,3.84"/>
      <path class="cls-10" d="m62.59,130.54c-1.68,1.02-2.15,3.31-2.6,5.07.26-.23.59-.37.94-.37,1.1,0,2.25,1.31,2.88,2.1"/>
      <path class="cls-10" d="m61.23,141.75l.03-.68c0-1.8-.55-3.55-1.4-5.12v.18c0,1.57-1.83,2.45-3.2,2.2"/>
      <path class="cls-10" d="m60.14,142.04c.27-.97.46-1.97.46-2.97,0-1.09-.21-2.16-.73-3.12.09,1.65-1.72,2.65-3.2,2.39"/>
      <path class="cls-17" d="m45.02,129.55c4.26,0,5.58,2.22,5.58,6.33,0,2.37-1.12,6.62-4.11,6.62-4.25,0-5.59-2.12-5.59-6.38,0-2.39,1.11-6.57,4.12-6.57Z"/>
      <path class="cls-3" d="m45.02,129.55c4.26,0,5.58,2.22,5.58,6.33,0,2.37-1.12,6.62-4.11,6.62-4.25,0-5.59-2.12-5.59-6.38,0-2.39,1.11-6.57,4.12-6.57Z"/>
      <path class="cls-18" d="m48.46,137.89c.13-.65.21-1.34.21-2l-.1.11c-.65-.36-1.35-.59-2.09-.59s-1.5.37-2.07.87c.43-.15.71-.47,1.21-.47,1.06,0,2.34,1.22,2.84,2.09Zm-4.04-1.61c.71-1.75,1.78-3.45,3.42-4.45l-.62-1.01c-2.36,2.35-1.62,2.77-2.8,5.46Zm-2.1-5.15c.4-.58,1.68-1.57,2.42-1.57h.09c-1.01,2.05-.93,4.43-.45,6.61-1.1-1.51-2.17-3.41-1.89-5.35l-.17.3Zm-.37,9.44c-.34-.58-.6-1.26-.76-1.91l.58.04c1.57,0,2.26-.98,2.64-2.38-.12,1.31-.89,3.92-2.46,4.25Zm2.46-4.25c1.03,1.9.82,4.13.27,6.14.4,0,.86-.13,1.21-.33h-.09c.16-2.02-.42-4.04-1.38-5.8h-.01Z"/>
      <path class="cls-10" d="m45.01,129.5c2.77.14,3.67,4.15,3.67,6.34s-1.1,6.59-3.99,6.62"/>
      <line class="cls-3" x1="45.83" y1="142.51" x2="45.91" y2="142.5"/>
      <path class="cls-10" d="m44.85,129.56c-1.01,2.05-.94,4.43-.46,6.62-1.1-1.51-2.17-3.41-1.89-5.35"/>
      <path class="cls-10" d="m47.79,131.76c-1.65,1-2.67,2.77-3.37,4.52.64-.56,1.4-.87,2.25-.87.66,0,1.33.27,1.9.59"/>
      <path class="cls-10" d="m45.8,142.13l.03-.72c0-1.78-.56-3.53-1.4-5.08v.37c0,1.6-1.06,2.97-2.32,3.84"/>
      <path class="cls-10" d="m47.14,130.91c-1.68,1.02-2.15,3.31-2.59,5.07.26-.23.59-.37.94-.37,1.1,0,2.24,1.31,2.86,2.1"/>
      <path class="cls-10" d="m45.8,142.13l.03-.68c0-1.8-.55-3.55-1.4-5.12v.18c0,1.57-1.82,2.45-3.2,2.2"/>
      <path class="cls-10" d="m44.7,142.42c.26-.97.46-1.97.46-2.97,0-1.09-.22-2.16-.74-3.12v.2c0,1.57-1.83,2.43-3.2,2.19"/>
      <path class="cls-17" d="m29.67,129.17c4.26,0,5.59,2.21,5.59,6.33,0,2.37-1.1,6.62-4.1,6.62-4.24,0-5.6-2.12-5.6-6.38,0-2.39,1.09-6.57,4.11-6.57Z"/>
      <path class="cls-3" d="m29.67,129.17c4.26,0,5.59,2.21,5.59,6.33,0,2.37-1.1,6.62-4.1,6.62-4.24,0-5.6-2.12-5.6-6.38,0-2.39,1.09-6.57,4.11-6.57Z"/>
      <path class="cls-15" d="m33.13,137.51c.12-.61.21-1.25.21-1.88,0-.16,0-.11-.1-.02-.65-.36-1.35-.59-2.09-.59s-1.5.37-2.07.87c.43-.15.71-.47,1.21-.47,1.06,0,2.34,1.22,2.84,2.09Zm-4.04-1.61c.7-1.75,1.77-3.45,3.41-4.45l-.62-1.02c-2.23,2.24-1.67,2.84-2.79,5.47Zm-2.11-5.15c.4-.58,1.69-1.57,2.42-1.57h.09c-1.01,2.05-.93,4.43-.44,6.62-1.11-1.51-2.18-3.41-1.9-5.35l-.17.3Zm-.35,9.45c-.34-.59-.6-1.26-.76-1.91l.58.04c1.57,0,2.26-.98,2.64-2.38-.13,1.38-.86,3.85-2.45,4.25Zm2.45-4.25c1.03,1.9.83,4.12.28,6.13.4,0,.86-.13,1.21-.33h-.09c.16-2.02-.43-4.04-1.38-5.8h-.01Z"/>
      <path class="cls-10" d="m29.67,129.12c2.76.14,3.68,4.15,3.68,6.34s-1.09,6.59-3.98,6.62"/>
      <line class="cls-3" x1="30.51" y1="142.13" x2="30.6" y2="142.13"/>
      <path class="cls-10" d="m29.51,129.18c-1.01,2.05-.94,4.43-.45,6.62-1.11-1.51-2.18-3.41-1.9-5.35"/>
      <path class="cls-10" d="m32.45,131.38c-1.64,1-2.67,2.78-3.36,4.52.64-.56,1.39-.87,2.24-.87.67,0,1.33.27,1.91.59"/>
      <path class="cls-10" d="m30.48,141.75l.03-.72c0-1.78-.57-3.53-1.41-5.08v.37c0,1.6-1.06,2.96-2.31,3.84"/>
      <path class="cls-10" d="m31.8,130.53c-1.68,1.02-2.14,3.31-2.58,5.07.26-.23.59-.37.94-.37,1.1,0,2.25,1.3,2.87,2.1"/>
      <path class="cls-10" d="m30.48,141.75l.03-.68c0-1.8-.56-3.56-1.41-5.12v.18c0,1.57-1.82,2.45-3.19,2.2"/>
      <path class="cls-10" d="m29.38,142.04c.26-.97.45-1.97.45-2.97,0-1.09-.22-2.16-.74-3.12v.2c0,1.56-1.83,2.44-3.19,2.19"/>
      <path class="cls-17" d="m15.41,129.54c4.25,0,5.6,2.22,5.6,6.33,0,2.37-1.09,6.62-4.09,6.62-4.23,0-5.61-2.12-5.61-6.38,0-2.38,1.08-6.57,4.1-6.57Z"/>
      <path class="cls-3" d="m15.41,129.54c4.25,0,5.6,2.22,5.6,6.33,0,2.37-1.09,6.62-4.09,6.62-4.23,0-5.61-2.12-5.61-6.38,0-2.38,1.08-6.57,4.1-6.57Z"/>
      <path class="cls-18" d="m18.88,137.88c.12-.61.2-1.26.2-1.88,0-.16-.01-.1-.1-.01-.65-.36-1.35-.59-2.1-.59s-1.5.37-2.07.87c.43-.15.71-.47,1.21-.47,1.07,0,2.34,1.22,2.85,2.09Zm-4.05-1.61c.7-1.75,1.77-3.45,3.41-4.45l-.63-1.01c-2.21,2.26-1.68,2.81-2.78,5.46Zm-2.12-5.15c.4-.58,1.68-1.57,2.42-1.57h.09c-1,2.05-.92,4.43-.43,6.61-1.11-1.51-2.19-3.41-1.91-5.35l-.17.3Zm-.34,9.44c-.34-.59-.6-1.26-.77-1.91l.58.04c1.57,0,2.26-.98,2.63-2.38-.12,1.32-.88,3.92-2.45,4.25Zm2.45-4.25c1.03,1.9.84,4.12.29,6.14.4,0,.86-.13,1.21-.33h-.09c.16-2.02-.43-4.04-1.39-5.8h-.01Z"/>
      <path class="cls-10" d="m15.4,129.49c2.76.14,3.69,4.15,3.69,6.34s-1.08,6.59-3.97,6.62"/>
      <line class="cls-3" x1="16.26" y1="142.5" x2="16.35" y2="142.5"/>
      <path class="cls-10" d="m15.24,129.56c-1.01,2.05-.93,4.43-.44,6.62-1.11-1.51-2.19-3.41-1.91-5.35"/>
      <path class="cls-10" d="m18.19,131.76c-1.64,1-2.66,2.77-3.35,4.52.64-.56,1.39-.87,2.24-.87.67,0,1.33.27,1.91.59"/>
      <path class="cls-10" d="m16.24,142.12l.03-.72c0-1.78-.58-3.53-1.42-5.08v.37c0,1.6-1.05,2.96-2.31,3.84"/>
      <path class="cls-10" d="m17.54,130.9c-1.68,1.02-2.14,3.31-2.57,5.07.26-.23.59-.37.94-.37,1.1,0,2.25,1.3,2.87,2.1"/>
      <path class="cls-10" d="m16.24,142.12l.03-.68c0-1.79-.57-3.56-1.42-5.12v.18c0,1.57-1.81,2.45-3.19,2.2"/>
      <path class="cls-10" d="m15.14,142.41c.26-.97.45-1.97.45-2.97,0-1.09-.23-2.16-.75-3.12v.2c0,1.57-1.82,2.43-3.19,2.19"/>
      <path class="cls-17" d="m93.36,47c-4.64,0-6.62,7.29-6.62,10.89,0,2.86,1.39,8.79,5.12,8.79,4.55,0,6.57-8.01,6.57-11.47,0-2.9-1.36-8.21-5.08-8.21Zm.34-4.4c5.87,0,7.91,7.11,7.91,11.85,0,5.42-3.11,16.63-9.99,16.63-5.91,0-8.01-8.44-8.01-13.08,0-5.69,3.04-15.4,10.09-15.4Z"/>
      <path class="cls-6" d="m98.07,53.74c.75-1.11,2.79-2.05,3.93-.96"/>
      <path class="cls-6" d="m91.44,47.4c-1.46-.15-2.73-1.82-2.31-3.27"/>
      <path class="cls-1" d="m89.22,49.79l-.68.09c-1.21,0-2.55-.91-2.65-2.19"/>
      <path class="cls-6" d="m87.79,52.91c-.48.32-1.04.42-1.61.42-.89,0-1.86-.5-2.18-1.36"/>
      <path class="cls-1" d="m87.13,56.44c-.53.53-1.31.82-2.05.82-.71,0-1.44-.27-1.83-.88"/>
      <path class="cls-6" d="m87.17,59.93c-.71,1.14-2.66,2.01-3.8.96"/>
      <path class="cls-1" d="m87.95,63.14c-.37,1.27-2,2.76-3.4,2.12"/>
      <path class="cls-6" d="m89.54,65.74c.06,1.34-1.01,3.31-2.54,3.28"/>
      <path class="cls-1" d="m91.5,67.02c.45.56.61,1.31.61,2.01,0,.79-.25,1.69-.89,2.2"/>
      <path class="cls-6" d="m93.68,66.28c1.45.16,2.54,1.88,2.17,3.27"/>
      <path class="cls-1" d="m95.8,63.88l.7-.09c1.18,0,2.38.97,2.43,2.19"/>
      <path class="cls-6" d="m97.24,60.76c.48-.31,1.02-.42,1.58-.42.87,0,1.79.51,2.07,1.36"/>
      <path class="cls-1" d="m97.99,57.23c.55-.53,1.33-.82,2.08-.82.69,0,1.43.25,1.79.88"/>
      <path class="cls-1" d="m97.38,50.53c.44-1.31,2.21-2.76,3.65-2.11"/>
      <path class="cls-6" d="m95.8,47.94c-.03-1.44,1.25-3.31,2.82-3.28"/>
      <path class="cls-1" d="m93.83,46.63c-.48-.53-.69-1.28-.69-1.98,0-.82.27-1.71.94-2.23"/>
      <path class="cls-3" d="m93.82,42.6c5.86,0,7.91,7.11,7.91,11.84,0,5.42-3.11,16.64-10,16.64-5.91,0-8.01-8.44-8.01-13.07,0-5.7,3.05-15.41,10.09-15.41Zm-.35,4.4c-4.64,0-6.62,7.3-6.62,10.9,0,2.86,1.39,8.78,5.12,8.78,4.55,0,6.57-8.02,6.57-11.48,0-2.9-1.36-8.2-5.07-8.2Z"/>
      <path class="cls-17" d="m83.08,45.07c-4.49,0-6.41,2.05-6.41,6.63,0,2.43,1.15,6.32,4.16,6.32,4.53,0,6.4-2.35,6.4-6.99,0-2.47-1.15-5.96-4.14-5.96Z"/>
      <path class="cls-3" d="m83.08,45.07c-4.49,0-6.41,2.05-6.41,6.63,0,2.43,1.15,6.32,4.16,6.32,4.53,0,6.4-2.35,6.4-6.99,0-2.47-1.15-5.96-4.14-5.96Z"/>
      <path class="cls-15" d="m78.91,53.41c-.11-.62-.15-1.25-.15-1.88,0-.16.02-.11.11-.01.72-.36,1.49-.59,2.3-.59s1.59.35,2.2.87c-.46-.15-.77-.47-1.29-.47-1.12,0-2.59,1.18-3.18,2.08Zm4.46-1.61c-.69-1.8-1.81-3.48-3.52-4.45l.73-1.02c2.41,2.42,1.61,2.67,2.79,5.47Zm2.6-5.15c-.45-.63-1.8-1.56-2.59-1.56h-.1c.45.92.69,1.97.69,3,0,1.23-.21,2.43-.56,3.61,1.23-1.45,2.58-3.34,2.39-5.35l.17.3Zm-.2,9.45c.39-.58.72-1.25.94-1.91l-.63.04c-1.6,0-2.37-.9-2.71-2.38.06,1.35.77,3.94,2.4,4.25Zm-2.4-4.25c-1.19,1.85-1.12,4.08-.62,6.14-.42,0-.9-.13-1.27-.33h.1c-.03-.82.97-5.8,1.79-5.8h0Z"/>
      <path class="cls-10" d="m83.09,45.02c-3.03.14-4.33,4.13-4.33,6.63,0,2.31,1.07,6.3,3.99,6.33"/>
      <line class="cls-3" x1="81.52" y1="58.03" x2="81.43" y2="58.03"/>
      <path class="cls-10" d="m83.26,45.09c.45.92.7,1.97.7,3,0,1.23-.2,2.43-.55,3.61,1.23-1.45,2.58-3.34,2.39-5.35"/>
      <path class="cls-10" d="m79.91,47.28c1.71.97,2.77,2.73,3.45,4.52-.68-.57-1.49-.87-2.37-.87-.73,0-1.47.26-2.12.59"/>
      <path class="cls-10" d="m81.57,57.65v-.36c0-1.94.75-3.83,1.78-5.44l-.03.55c0,1.54,1.06,2.84,2.28,3.66"/>
      <path class="cls-10" d="m80.66,46.43c1.75.99,2.19,3.27,2.58,5.07-.28-.24-.63-.37-1-.37-1.19,0-2.47,1.27-3.21,2.1"/>
      <path class="cls-10" d="m81.57,57.65v-.34c0-1.95.75-3.84,1.78-5.46v.2c-.01,1.65,1.89,2.42,3.31,2.19"/>
      <path class="cls-10" d="m82.72,57.94c-.22-.92-.34-1.83-.34-2.78,0-1.16.35-2.34.97-3.32v.2c-.01,1.65,1.89,2.42,3.31,2.19"/>
      <path class="cls-13" d="m75.95,12.93c-.69,3.04-4.05,23.68-4.14,23.88-.72,1.65-2.08,6.07-3.49,6.73-2.06.96-3.16,2.98-3.93,5.03-.76,2.01-2.08,9.34-2.36,9.86-.39.73-.91,1.21-1.78,1.21-3.71,0-7.2-1.65-10.84-1.65-1.73,0-3.34.57-4.74,1.58-2.07-12.76-4.51-25.7-7.38-38.31,2.61.81,3.85.66,6.49.66,4.04,0,8.04,1.98,14.44,1.98,1.42,0,2.87.8,4.36.8.85,0,1.68-.16,2.37-.69.82-.63,1.17-1.56,1.39-2.53,1.04-4.43,7.36-5.14,9.6-8.53Z"/>
      <path class="cls-10" d="m61.88,59.65c-.41-11.68-1.34-23.33-1.4-35.02"/>
      <path class="cls-2" d="m63.16,53.91c-.49-9.63-1.14-19.23-1.15-28.87"/>
      <path class="cls-17" d="m43.87,22.03c4.08,0,8.1,1.98,14.31,1.98,1.53,0,3.06.81,4.66.81,3.75,0,3.19-4.74,6.54-6.94,2.56-1.69,5.02-3.72,7.82-4.87,1.68-.69,3.49-6.04,3.49-7.83,0-2.89-1.66-4.2-4.46-4.2-2.59,0-4.74,1.8-7.46,1.8-1.63,0-3.2-.52-4.83-.52-1.94,0-3.78.78-5.65.78-1.17,0-2.2-1.53-4.43-1.53-2.39,0-4.25,1.61-6.63,1.77-.74.05-1.53.07-2.17.48-1.11.7-1.7,2.91-2.95,3.32-2.43.8-2.67.46-4.34,2.63-.42.55-4.24.61-4.84,1.13-.46.39-.77,2.07-.77,2.66,0,7.84,5.55,8.52,11.72,8.52Z"/>
      <path class="cls-3" d="m43.87,22.03c4.08,0,8.1,1.98,14.31,1.98,1.53,0,3.06.81,4.66.81,3.75,0,3.19-4.74,6.54-6.94,2.56-1.69,5.02-3.72,7.82-4.87,1.68-.69,3.49-6.04,3.49-7.83,0-2.89-1.66-4.2-4.46-4.2-2.59,0-4.74,1.8-7.46,1.8-1.63,0-3.2-.52-4.83-.52-1.94,0-3.78.78-5.65.78-1.17,0-2.2-1.53-4.43-1.53-2.39,0-4.25,1.61-6.63,1.77-.74.05-1.53.07-2.17.48-1.11.7-1.7,2.91-2.95,3.32-2.43.8-2.67.46-4.34,2.63-.42.55-4.24.61-4.84,1.13-.46.39-.77,2.07-.77,2.66,0,7.84,5.55,8.52,11.72,8.52Z"/>
      <path class="cls-10" d="m61.88,17.27c2.06-.38,2.08-2.35,3.34-3.51,1.71-1.58,6.29-1.98,9.07-5.98.57-.81.73-3.08,1.95-3.57.62-.25,1.24-.47,1.92-.32"/>
      <path class="cls-10" d="m59.85,16.81c.28.18.6.33.92.42"/>
      <path class="cls-10" d="m37.4,14.22c1.39-.44,2.84-.64,4.3-.64,5.51,0,11.03,4.61,16.93,3.25"/>
      <path class="cls-10" d="m32.99,13c1.02.57,1.79.93,2.93,1.16"/>
      <path class="cls-2" d="m46.19,10.73c.26-.13.51-.18.79-.18,2.2,0,6.7,2.5,10.01,2.5.43,0,2.16-.09,2.44-.3.7-.52.96-1.95,1.72-2.69,1.3-1.25,3.17-.51,5.83-3.05"/>
      <path class="cls-10" d="m57.11,6.19l1.36-.09c2.44,0,4.68,1.21,7.14,1.14"/>
      <path class="cls-10" d="m53.58,6.65c.82-.02,1.66-.13,2.47-.3"/>
      <path class="cls-10" d="m47.51,10.28c1.78-.72,2.94-2.34,4.55-3.33"/>
      <line class="cls-7" x1="67.15" y1="44.06" x2="67.02" y2="44.39"/>
      <path class="cls-7" d="m72.54,30.83c-1.81,4.1-3.52,8.22-5.1,12.41"/>
      <line class="cls-7" x1="62.85" y1="35.07" x2="62.04" y2="37.18"/>
      <path class="cls-7" d="m66.27,27.2c-1.07,2.35-2.14,4.7-3.12,7.09"/>
      <path class="cls-7" d="m71.2,16.96c-1.56,3.12-3.08,6.26-4.56,9.42"/>
      <line class="cls-7" x1="64.36" y1="47.77" x2="64.46" y2="47.96"/>
      <line class="cls-7" x1="63.14" y1="45.49" x2="63.8" y2="46.73"/>
      <path class="cls-7" d="m62.75,25.55c2.36,4.78,4.97,9.42,7.5,14.11"/>
      <path class="cls-7" d="m70.19,17.63c1.11,2.63,2.14,5.28,3.16,7.94"/>
      <line class="cls-7" x1="44.51" y1="55.22" x2="47.7" y2="58.23"/>
      <path class="cls-7" d="m39.79,29.58c7.31,7.14,14.22,14.59,21.38,21.86"/>
      <line class="cls-7" x1="49.55" y1="50.55" x2="44.43" y2="55.73"/>
      <path class="cls-7" d="m60.44,40.07c-3.48,3.13-6.8,6.45-10.14,9.73"/>
      <path class="cls-7" d="m46.23,30.63c-2.03,1.37-3.96,2.84-5.81,4.45"/>
      <path class="cls-7" d="m55.29,24.96c-2.65,1.82-5.44,3.4-8.17,5.09"/>
      <path class="cls-7" d="m54.77,24.84c1.95,2.13,3.79,4.34,5.8,6.43"/>
      <path class="cls-15" d="m68.25,3.69c0-1.14,1.6-2.18,2.61-2.18,1.13,0,2.37.61,2.37,1.94,0,1.18-1.56,2.24-2.64,2.24s-2.35-.75-2.35-2Z"/>
      <path class="cls-3" d="m68.25,3.69c0-1.14,1.6-2.18,2.61-2.18,1.13,0,2.37.61,2.37,1.94,0,1.18-1.56,2.24-2.64,2.24s-2.35-.75-2.35-2Z"/>
      <path class="cls-18" d="m63.94,9.19c0-1.13,1.46-2.18,2.52-2.18,1.19,0,2.27.81,2.27,2.1,0,1.13-1.52,2.22-2.57,2.22s-2.22-1.11-2.22-2.14Z"/>
      <path class="cls-3" d="m63.94,9.19c0-1.13,1.46-2.18,2.52-2.18,1.19,0,2.27.81,2.27,2.1,0,1.13-1.52,2.22-2.57,2.22s-2.22-1.11-2.22-2.14Z"/>
      <path class="cls-15" d="m56.99,13.32c0-.94,1.09-1.94,2.01-1.94s2.06,1.24,2.06,2.16-1.23,1.98-2.14,1.98c-.86,0-1.92-1.39-1.92-2.2Z"/>
      <path class="cls-3" d="m56.99,13.32c0-.94,1.09-1.94,2.01-1.94s2.06,1.24,2.06,2.16-1.23,1.98-2.14,1.98c-.86,0-1.92-1.39-1.92-2.2Z"/>
      <path class="cls-18" d="m44.81,12.23c0-1.32,1.53-1.72,2.54-1.72s2.79.87,2.79,2.07-1.32,1.73-2.3,1.73-3.03-.92-3.03-2.08Z"/>
      <path class="cls-3" d="m44.81,12.23c0-1.32,1.53-1.72,2.54-1.72s2.79.87,2.79,2.07-1.32,1.73-2.3,1.73-3.03-.92-3.03-2.08Z"/>
      <path class="cls-15" d="m35.17,10.27c0-1.3,1.15-1.65,2.21-1.65.9,0,3.06.84,3.06,1.94,0,1.2-1.19,1.64-2.17,1.64-.87,0-3.1-.87-3.1-1.93Z"/>
      <path class="cls-3" d="m35.17,10.27c0-1.3,1.15-1.65,2.21-1.65.9,0,3.06.84,3.06,1.94,0,1.2-1.19,1.64-2.17,1.64-.87,0-3.1-.87-3.1-1.93Z"/>
      <path class="cls-15" d="m42.4,6.39c0-1.4,1.72-1.81,2.79-1.81s2.97.68,2.97,1.98-1.69,1.8-2.7,1.8c-.95,0-3.06-.8-3.06-1.97Z"/>
      <path class="cls-3" d="m42.4,6.39c0-1.4,1.72-1.81,2.79-1.81s2.97.68,2.97,1.98-1.69,1.8-2.7,1.8c-.95,0-3.06-.8-3.06-1.97Z"/>
      <path class="cls-18" d="m51.73,2.4c0-1.15,1.62-1.9,2.58-1.9s2.17.95,2.17,1.95-1.35,1.93-2.26,1.93c-.98,0-2.5-.86-2.5-1.98Z"/>
      <path class="cls-3" d="m51.73,2.4c0-1.15,1.62-1.9,2.58-1.9s2.17.95,2.17,1.95-1.35,1.93-2.26,1.93c-.98,0-2.5-.86-2.5-1.98Z"/>
      <path class="cls-15" d="m59.04,2.62c0-.94,1.39-2.02,2.27-2.02s2.31.83,2.31,1.86c0,.92-1.55,2.09-2.41,2.09-.93,0-2.17-.95-2.17-1.94Z"/>
      <path class="cls-3" d="m59.04,2.62c0-.94,1.39-2.02,2.27-2.02s2.31.83,2.31,1.86c0,.92-1.55,2.09-2.41,2.09-.93,0-2.17-.95-2.17-1.94Z"/>
      <path class="cls-3" d="m37.8,21.32c2.7,12.64,5.03,25.58,6.95,38.36,1.4-1,3.02-1.57,4.74-1.57,3.64,0,7.12,1.64,10.83,1.64.84,0,1.42-.47,1.78-1.2,1.27-2.55,1.24-6.91,2.36-9.85.79-2.08,1.87-4.01,3.93-5.03,1.44-.71,2.79-5.07,3.49-6.73.03-.08,3.42-20.8,4.12-23.86"/>
      <line class="cls-3" x1="71.69" y1="37.11" x2="73.44" y2="35.77"/>
      <line class="cls-9" x1="36.88" y1="124.64" x2="36.88" y2="130.57"/>
      <line class="cls-9" x1="48" y1="127.45" x2="48" y2="130.57"/>
      <path class="cls-19" d="m48.12,130.2l-.19-3.25c-1-.45-1.73-1.38-1.73-2.8-2.98,2.32-5.89,2.22-8.73-.3-.18.24-.37.45-.57.65l.09-.24v5.94h11.12Z"/>
      <path class="cls-15" d="m52.1,110.59c.5-.48.73-1.31.4-2.39l-4.26-8.41-.16-.21c.07-.22.1-.46.1-.72,1.28,1.15,1.98.55,2.51-1.46l-5.73-6.58c-1.84-2.3-2.4-2.55-4.76,0l-5.73,6.58c0,2.01.96,3.07,2.18,3.16l-3.77,7.77c0,1.84.43,3.12,1.07,3.86l-.02-.35-5,8.26c-1.62,6.38,5.17,7.61,8.17,3.63,2.84,2.52,5.75,2.62,8.73.3,0,4.54,7.43,4.09,7.43-1.21,2.28,2.14,5.52.77,4.46-2.73l-6.08-10.03.45.53Z"/>
      <path class="cls-6" d="m49.3,101.9c.52,1.48-2.59,4.35-7.04,6.44-4.45,2.09-8.52,2.59-9.08,1.13-.03-.09-.06-.19-.06-.29"/>
      <path class="cls-6" d="m53.12,112.94c.3,1.83-4.22,5.13-10.55,7.55-6.62,2.53-12.66,3.14-13.5,1.37-.05-.11-.08-.22-.09-.34"/>
      <path class="cls-5" d="m45.21,91.31l5.73,6.58c-.53,2.01-1.23,2.61-2.51,1.46,0,2.84-4.19,3.09-4.19.65-1.68,1.24-3.32,1.19-4.92-.16-1.69,2.13-4.61,1.46-4.61-1.95l5.73-6.58c2.36-2.55,2.92-2.3,4.76,0Z"/>
      <path class="cls-6" d="m46.36,92.81c-1.29,1.02-2.93,2.07-4.86,2.97-2.44,1.14-4.77,1.81-6.46,1.94"/>
      <path class="cls-5" d="m36.94,100.82l-3.81,8c0,5.25,3.48,5.91,5.5,2.62,1.91,2.08,3.87,2.16,5.88.25,0,3.75,5,3.38,5-1,1.53,1.76,4.06.62,3.25-2l-4.26-8.41"/>
      <polygon class="cls-12" points="41.56 88.51 38.91 89.14 39.56 85.94 37.65 83.26 40.9 82.64 42.6 79.9 44.37 82.67 44.22 82.64 47.46 83.26 45.56 85.94 46.2 89.14 43.63 88.53 43.63 89.59 41.62 89.59 41.56 88.51"/>
      <polygon class="cls-4" points="41.56 88.51 38.91 89.14 39.56 85.94 37.65 83.26 40.9 82.64 42.6 79.9 44.37 82.67 44.22 82.64 47.46 83.26 45.56 85.94 46.2 89.14 43.63 88.53 43.63 89.59 41.62 89.59 41.56 88.51"/>
      <path class="cls-8" d="m43.63,88.53l-.62-.15c-.35-.17-.64-.17-.89,0l-.55.13"/>
      <path class="cls-8" d="m37.7,83.39c.17.04,4.35,1.79,4.35,1.79"/>
      <path class="cls-8" d="m47.38,83.39c-.17.04-4.26,1.7-4.26,1.7"/>
      <line class="cls-8" x1="42.65" y1="80.11" x2="42.65" y2="84.54"/>
      <line class="cls-8" x1="38.85" y1="89.23" x2="42.01" y2="85.99"/>
      <line class="cls-8" x1="46.44" y1="89.31" x2="43.03" y2="86.03"/>
      <path class="cls-5" d="m34.18,112.33l-5,8.26c-1.62,6.38,5.17,7.61,8.17,3.63,2.84,2.52,5.75,2.62,8.73.3,0,4.54,7.43,4.09,7.43-1.21,2.28,2.14,5.52.77,4.46-2.73l-6.08-10.03"/>
    </g>
  </g>
</svg>