<?xml version="1.0" encoding="UTF-8"?>
<svg id="Layer_2" data-name="Layer 2" xmlns="http://www.w3.org/2000/svg" viewBox="0 0 103.92 113.9">
  <defs>
    <style>
      .cls-1 {
        fill: #f287b7;
        fill-rule: evenodd;
        stroke-width: 0px;
      }
    </style>
  </defs>
  <g id="Layer_1-2" data-name="Layer 1">
    <path class="cls-1" d="m51.11,110.9s-17.14-18.55-28.87-25.92-16.92-4.47-16.3-19.91c.43-10.74-9.88-18.94-4.25-26.43,5.63-7.49,12.39-9.83,15.35-16.49s6.16-9.32,14.67-13.89C40.21,3.68,39.36-1.26,51.38.29c12.03,1.55,13.94,6.85,20.48,8.82,6.54,1.97,11.57-.16,17.1,7.98,5.53,8.14,6.36,10.8,10.54,14.07,4.18,3.27,7.25,18,.31,27.16-6.93,9.16-14.14,12.06-18.71,19.93s-13.44,21.8-18.14,26.66c-4.69,4.86-5.5,6.47-5.5,6.47-2.05,3.52-4.17,3.36-6.36-.48Z"/>
  </g>
</svg>