<?xml version="1.0" encoding="UTF-8"?>
<svg id="Layer_2" data-name="Layer 2" xmlns="http://www.w3.org/2000/svg" viewBox="0 0 100.57 106.92">
  <defs>
    <style>
      .cls-1 {
        fill: #f287b7;
        fill-rule: evenodd;
        stroke-width: 0px;
      }
    </style>
  </defs>
  <g id="Layer_1-2" data-name="Layer 1">
    <path class="cls-1" d="m53.06,106.43s-3.28,3.05-8.61-6.03c-5.8-9.88-15.2-19.55-27.82-27.85C4,64.24-5.39,42.81,3.5,31.67c8.89-11.14,12.55-13.68,16.86-18.37,4.31-4.69,13.4-1.92,20.46-7.08,7.07-5.16,12.91-8.86,20.78-3.84,7.88,5.02,8.16.67,16.15,7.03s3.31,8.85,10.34,14.92c7.03,6.07,15.46,20.41,11.43,30.16-4.03,9.75-38.46,46.28-42.11,48.82-3.65,2.54-4.35,3.11-4.35,3.11Z"/>
  </g>
</svg>