<?xml version="1.0" encoding="UTF-8"?>
<svg id="Layer_2" data-name="Layer 2" xmlns="http://www.w3.org/2000/svg" viewBox="0 0 80.73 107.97">
  <defs>
    <style>
      .cls-1 {
        fill: #f287b7;
        fill-rule: evenodd;
        stroke-width: 0px;
      }
    </style>
  </defs>
  <g id="Layer_1-2" data-name="Layer 1">
    <path class="cls-1" d="m48.75,104.09c5.38-11.03,12.58-23.74,21.85-38.49,9.28-14.75,12.1-20.43,8.82-28.95-3.28-8.52-7.51-9.75-10.26-18.28-2.75-8.53-12.5-8.65-19.38-11.14S39.88-3.47,32.31,1.65c-7.57,5.12-7.27,7.43-11.98,9.52s-10.4,9.48-12.66,17.8c-2.25,8.31-5.41,8.38-6.65,14.03-1.24,5.65-3.17,18.25,6.96,27.28,10.13,9.03,28.32,29.13,33.42,35.3,5.09,6.17,7.35-1.48,7.35-1.48Z"/>
  </g>
</svg>