<?xml version="1.0" encoding="UTF-8"?>
<svg id="Layer_2" data-name="Layer 2" xmlns="http://www.w3.org/2000/svg" viewBox="0 0 77.48 109.93">
  <defs>
    <style>
      .cls-1 {
        fill: #f287b7;
        fill-rule: evenodd;
        stroke-width: 0px;
      }
    </style>
  </defs>
  <g id="Layer_1-2" data-name="Layer 1">
    <path class="cls-1" d="m41.74,109.39s-1.17,1.99-2.89-1.67c-1.72-3.65-8.29-19.7-16.31-26.49-8.02-6.8-15.78-11.3-20.14-19.46-4.35-8.16-.22-21.4-1.42-25.6-1.21-4.2-2.04-7.71,2.21-12.64,4.25-4.92.95-8.35,7.16-12.81s10.9-1.8,14.36-4.04c3.46-2.24,8.89-8.8,14.83-6,5.93,2.8,6.45,7.38,10.37,8.31,3.92.92,15.28,7.07,17.17,15.67,1.89,8.6,1.31,7.03,4.07,10.29,2.77,3.26,8.68,15.62,5.31,25.46-3.37,9.85-9.28,12.88-12.03,15.1-2.75,2.22-6.39,4.29-6.01,10.12.38,5.82-16.68,23.75-16.68,23.75Z"/>
  </g>
</svg>