<?xml version="1.0" encoding="UTF-8"?>
<svg id="Layer_2" data-name="Layer 2" xmlns="http://www.w3.org/2000/svg" viewBox="0 0 80.73 101.53">
  <defs>
    <style>
      .cls-1 {
        fill: #f287b7;
        fill-rule: evenodd;
        stroke-width: 0px;
      }
    </style>
  </defs>
  <g id="Layer_1-2" data-name="Layer 1">
    <path class="cls-1" d="m48.75,97.64c5.38-11.03,12.58-23.74,21.85-38.49,9.28-14.75,12.1-20.43,8.82-28.95-3.28-8.52-7.93-4.62-10.68-13.15s-14.59-6.56-20-11.5c-5.75-5.25-7.04-7.03-15.75-4.25-11.75,3.75-10.54,7.91-15.25,10-4.71,2.09-3.5,5.69-5.75,14-2.25,8.31-9.73,5.6-10.97,11.25-1.24,5.65-3.17,18.25,6.96,27.28,10.13,9.03,28.32,29.13,33.42,35.3,5.09,6.17,7.35-1.48,7.35-1.48Z"/>
  </g>
</svg>