<?xml version="1.0" encoding="UTF-8"?>
<svg id="Layer_2" data-name="Layer 2" xmlns="http://www.w3.org/2000/svg" viewBox="0 0 23.06 21.05">
  <defs>
    <style>
      .cls-1 {
        fill: #5d4647;
        fill-rule: evenodd;
      }

      .cls-1, .cls-2 {
        stroke-width: 0px;
      }

      .cls-3 {
        stroke-width: .25px;
      }

      .cls-3, .cls-4 {
        fill: none;
        stroke: #231f20;
        stroke-miterlimit: 3.86;
      }

      .cls-2 {
        fill: #934f46;
      }

      .cls-4 {
        stroke-width: .5px;
      }
    </style>
  </defs>
  <g id="Layer_1-2" data-name="Layer 1">
    <g>
      <path class="cls-2" d="m.26,11.49c-.05-1.52.11-2.9.41-3.83.79-2.59,3.61-4.82,7.7-6.42l14.45,6.44v13.13S.38,20.8.38,20.8l-.12-9.31Z"/>
      <path class="cls-4" d="m.26,11.49c-.05-1.52.11-2.9.41-3.83.79-2.59,3.61-4.82,7.7-6.42l14.45,6.44v13.13S.38,20.8.38,20.8l-.12-9.31Z"/>
      <line class="cls-4" x1=".34" y1="17.41" x2=".32" y2="15.89"/>
      <line class="cls-4" x1="22.81" y1="15.86" x2="22.81" y2="17.41"/>
      <path class="cls-1" d="m.26,11.36v-.03c-.05-1.52.11-2.9.41-3.83.79-2.59,3.61-4.82,7.7-6.42l14.45,6.44v3.97s-22.55-.13-22.55-.13Zm22.56,4.52H.25v1.51h22.56v-1.51Zm0,0H.25v1.51h22.56v-1.51ZM.26,11.36v-.03c-.05-1.52.11-2.9.41-3.83.79-2.59,3.61-4.82,7.7-6.42l14.45,6.44v3.97s-22.55-.13-22.55-.13Zm22.56,4.52H.25v1.51h22.56v-1.51ZM.26,11.36v-.03c-.05-1.52.11-2.9.41-3.83.79-2.59,3.61-4.82,7.7-6.42l14.45,6.44v3.97s-22.55-.13-22.55-.13Z"/>
      <path class="cls-4" d="m.26,11.36v-.03c-.05-1.52.11-2.9.41-3.83.79-2.59,3.61-4.82,7.7-6.42l14.45,6.44v3.97s-22.55-.13-22.55-.13Zm22.56,4.52H.25v1.51h22.56v-1.51Zm0,0H.25v1.51h22.56v-1.51ZM.26,11.36v-.03c-.05-1.52.11-2.9.41-3.83.79-2.59,3.61-4.82,7.7-6.42l14.45,6.44v3.97s-22.55-.13-22.55-.13Zm22.56,4.52H.25v1.51h22.56v-1.51ZM.26,11.36v-.03c-.05-1.52.11-2.9.41-3.83.79-2.59,3.61-4.82,7.7-6.42l14.45,6.44v3.97s-22.55-.13-22.55-.13Z"/>
      <path class="cls-4" d="m.26,11.49c-.05-1.52.11-2.9.41-3.83.79-2.59,3.61-4.82,7.7-6.42l14.45,6.44v13.13S.38,20.8.38,20.8l-.12-9.31Z"/>
      <line class="cls-4" x1="22.81" y1="7.72" x2=".7" y2="7.59"/>
      <path class="cls-1" d="m7.21,1.31c-.04-.46.48-1.04,1.08-1.14-.26.34-.18.54.22.62.38,0,.62.18.63.43.02.03.04.07.03.11.19.05.31.21.29.36.12.12.19.39.05.58.03.5-.85.88-1.6.64-.83-.06-1.27-.47-1.09-1.04.02-.32.16-.51.4-.57Z"/>
      <path class="cls-3" d="m7.21,1.31c-.04-.46.48-1.04,1.08-1.14-.26.34-.18.54.22.62.38,0,.62.18.63.43.02.03.04.07.03.11.19.05.31.21.29.36.12.12.19.39.05.58.03.5-.85.88-1.6.64-.83-.06-1.27-.47-1.09-1.04.02-.32.16-.51.4-.57Z"/>
      <path class="cls-3" d="m9.13,1.23c.1.12-.04.42-.23.49-.21.24-.8.35-1.16.12-1.08-.27-.36-1.52.53-1.66-.26.34-.18.54.22.62.38,0,.62.18.63.43Z"/>
      <path class="cls-3" d="m7.75,1.84c-.63-.61-.21-1.36.51-1.65"/>
      <path class="cls-3" d="m8.88,1.73c-1.32.27-1.12-1.37-.6-1.54"/>
      <path class="cls-3" d="m9.13,1.24c-.85.37-1.36-.71-.87-1.05"/>
      <path class="cls-3" d="m9.16,1.34c.19.04.32.21.3.37.12.12.19.39.05.58.03.5-.85.88-1.6.64-.83-.06-1.27-.47-1.09-1.04.02-.32.16-.51.4-.56"/>
      <path class="cls-3" d="m9.46,1.72c-.13.29-1.07.59-1.72.13"/>
      <path class="cls-3" d="m9.49,2.28c-.76.49-2.52-.07-2.3-.96"/>
      <path class="cls-3" d="m7.93,2.93c-.86-.25-1.08-1.09-.75-1.59"/>
      <path class="cls-3" d="m7.19,1.32s-.36.24-.38.57"/>
      <path class="cls-1" d="m4.94,2.6c-.04-.46.48-1.04,1.08-1.14-.26.34-.18.54.22.62.38,0,.62.18.63.43.02.03.04.07.03.11.19.05.31.21.29.36.12.12.19.39.05.58.03.5-.85.88-1.6.64-.83-.06-1.27-.47-1.09-1.04.02-.32.16-.51.4-.57Z"/>
      <path class="cls-3" d="m4.94,2.6c-.04-.46.48-1.04,1.08-1.14-.26.34-.18.54.22.62.38,0,.62.18.63.43.02.03.04.07.03.11.19.05.31.21.29.36.12.12.19.39.05.58.03.5-.85.88-1.6.64-.83-.06-1.27-.47-1.09-1.04.02-.32.16-.51.4-.57Z"/>
      <path class="cls-3" d="m6.87,2.52c.1.12-.04.42-.23.49-.21.24-.8.35-1.16.12-1.08-.27-.36-1.52.53-1.66-.26.34-.18.54.22.62.38,0,.62.18.63.43Z"/>
      <path class="cls-3" d="m5.48,3.12c-.63-.61-.21-1.36.51-1.65"/>
      <path class="cls-3" d="m6.62,3.01c-1.32.27-1.12-1.37-.6-1.54"/>
      <path class="cls-3" d="m6.87,2.53c-.85.37-1.36-.71-.87-1.05"/>
      <path class="cls-3" d="m6.89,2.63c.19.04.32.21.3.37.12.12.19.39.05.58.03.5-.85.88-1.6.64-.83-.06-1.27-.47-1.09-1.04.02-.32.16-.51.4-.56"/>
      <path class="cls-3" d="m7.2,3c-.13.29-1.07.59-1.72.13"/>
      <path class="cls-3" d="m7.23,3.57c-.76.49-2.52-.07-2.3-.96"/>
      <path class="cls-3" d="m5.67,4.21c-.86-.24-1.08-1.09-.75-1.59"/>
      <path class="cls-3" d="m4.93,2.61s-.36.24-.38.57"/>
      <path class="cls-1" d="m3.05,4.07c-.04-.46.48-1.04,1.08-1.14-.26.34-.18.54.22.62.38,0,.62.18.63.43.02.03.04.07.03.11.19.05.31.21.29.36.12.12.19.39.05.58.03.5-.85.88-1.6.64-.83-.06-1.27-.47-1.09-1.04.02-.32.16-.51.4-.57Z"/>
      <path class="cls-3" d="m3.05,4.07c-.04-.46.48-1.04,1.08-1.14-.26.34-.18.54.22.62.38,0,.62.18.63.43.02.03.04.07.03.11.19.05.31.21.29.36.12.12.19.39.05.58.03.5-.85.88-1.6.64-.83-.06-1.27-.47-1.09-1.04.02-.32.16-.51.4-.57Z"/>
      <path class="cls-3" d="m4.98,3.99c.1.12-.04.42-.23.49-.21.24-.8.35-1.16.12-1.08-.27-.36-1.52.53-1.66-.26.34-.18.54.22.62.38,0,.62.18.63.43Z"/>
      <path class="cls-3" d="m3.59,4.6c-.63-.61-.21-1.36.51-1.65"/>
      <path class="cls-3" d="m4.73,4.48c-1.32.27-1.12-1.37-.6-1.54"/>
      <path class="cls-3" d="m4.98,4c-.85.37-1.36-.71-.87-1.05"/>
      <path class="cls-3" d="m5,4.1c.19.04.32.21.3.37.12.12.19.39.05.58.03.5-.85.88-1.6.64-.83-.06-1.27-.47-1.09-1.04.02-.32.16-.51.4-.56"/>
      <path class="cls-3" d="m5.31,4.48c-.13.29-1.07.59-1.72.13"/>
      <path class="cls-3" d="m5.34,5.04c-.76.49-2.52-.07-2.3-.96"/>
      <path class="cls-3" d="m3.78,5.68c-.86-.24-1.08-1.09-.75-1.59"/>
      <path class="cls-3" d="m3.04,4.08s-.36.24-.38.57"/>
      <path class="cls-1" d="m1.35,5.88c-.04-.46.48-1.04,1.08-1.14-.26.34-.18.54.22.62.38,0,.62.18.63.43.02.03.04.07.03.11.19.05.31.21.29.36.12.12.19.39.05.58.03.5-.85.88-1.6.64-.83-.06-1.27-.47-1.09-1.04.02-.32.16-.51.4-.57Z"/>
      <path class="cls-3" d="m1.35,5.88c-.04-.46.48-1.04,1.08-1.14-.26.34-.18.54.22.62.38,0,.62.18.63.43.02.03.04.07.03.11.19.05.31.21.29.36.12.12.19.39.05.58.03.5-.85.88-1.6.64-.83-.06-1.27-.47-1.09-1.04.02-.32.16-.51.4-.57Z"/>
      <path class="cls-3" d="m3.28,5.8c.1.12-.04.42-.23.49-.21.24-.8.35-1.16.12-1.08-.27-.36-1.52.53-1.66-.26.34-.18.54.22.62.38,0,.62.18.63.43Z"/>
      <path class="cls-3" d="m1.89,6.41c-.63-.61-.21-1.36.51-1.65"/>
      <path class="cls-3" d="m3.03,6.3c-1.32.27-1.12-1.37-.6-1.54"/>
      <path class="cls-3" d="m3.28,5.81c-.85.37-1.36-.71-.87-1.05"/>
      <path class="cls-3" d="m3.3,5.91c.19.04.32.21.3.37.12.12.19.39.05.58.03.5-.85.88-1.6.64-.83-.06-1.27-.47-1.09-1.04.02-.32.16-.51.4-.56"/>
      <path class="cls-3" d="m3.61,6.29c-.13.29-1.07.59-1.72.13"/>
      <path class="cls-3" d="m3.64,6.86c-.76.49-2.52-.07-2.3-.96"/>
      <path class="cls-3" d="m2.08,7.5c-.86-.25-1.08-1.09-.75-1.59"/>
      <path class="cls-3" d="m1.34,5.89s-.36.24-.38.57"/>
    </g>
  </g>
</svg>