<?xml version="1.0" encoding="UTF-8"?>
<svg id="Layer_2" data-name="Layer 2" xmlns="http://www.w3.org/2000/svg" viewBox="0 0 16.91 25.92">
  <defs>
    <style>
      .cls-1 {
        fill: #5d4647;
      }

      .cls-1, .cls-2 {
        fill-rule: evenodd;
        stroke-width: 0px;
      }

      .cls-2 {
        fill: #934f46;
      }

      .cls-3 {
        stroke-width: .25px;
      }

      .cls-3, .cls-4 {
        fill: none;
        stroke: #231f20;
        stroke-miterlimit: 3.86;
      }

      .cls-4 {
        stroke-width: .5px;
      }
    </style>
  </defs>
  <g id="Layer_1-2" data-name="Layer 1">
    <g>
      <path class="cls-2" d="m16.5,13.05v9.52c-4.03,1.93-9.72,3.1-15.95,3.1h-.31S.34.57.34.57l16.08,8.67c.25.92.33,2.07.08,3.82Z"/>
      <path class="cls-4" d="m16.5,13.05v9.52c-4.03,1.93-9.72,3.1-15.95,3.1h-.31S.34.57.34.57l16.08,8.67c.25.92.33,2.07.08,3.82Z"/>
      <path class="cls-1" d="m16.43,12.95c-4.1,1.97-9.86,3.19-16.15,3.19L.34.42l16.08,8.67c.25.92.33,2.07.08,3.82l-.07.05Zm.03,4.71c-4.11,1.98-9.88,3.22-16.19,3.22v1.32c6.31,0,12.08-1.23,16.19-3.22v-1.32Zm0,0c-4.11,1.98-9.88,3.22-16.19,3.22v1.32c6.31,0,12.08-1.23,16.19-3.22v-1.32Zm-.03-4.71c-4.1,1.97-9.86,3.19-16.15,3.19L.34.42l16.08,8.67c.25.92.33,2.07.08,3.82l-.07.05Zm.03,4.71c-4.11,1.98-9.88,3.22-16.19,3.22v1.32c6.31,0,12.08-1.23,16.19-3.22v-1.32Zm-.03-4.71c-4.1,1.97-9.86,3.19-16.15,3.19L.34.42l16.08,8.67c.25.92.33,2.07.08,3.82l-.07.05Z"/>
      <path class="cls-4" d="m16.43,12.95c-4.1,1.97-9.86,3.19-16.15,3.19L.34.42l16.08,8.67c.25.92.33,2.07.08,3.82l-.07.05Zm.03,4.71c-4.11,1.98-9.88,3.22-16.19,3.22v1.32c6.31,0,12.08-1.23,16.19-3.22v-1.32Zm0,0c-4.11,1.98-9.88,3.22-16.19,3.22v1.32c6.31,0,12.08-1.23,16.19-3.22v-1.32Zm-.03-4.71c-4.1,1.97-9.86,3.19-16.15,3.19L.34.42l16.08,8.67c.25.92.33,2.07.08,3.82l-.07.05Zm.03,4.71c-4.11,1.98-9.88,3.22-16.19,3.22v1.32c6.31,0,12.08-1.23,16.19-3.22v-1.32Zm-.03-4.71c-4.1,1.97-9.86,3.19-16.15,3.19L.34.42l16.08,8.67c.25.92.33,2.07.08,3.82l-.07.05Z"/>
      <path class="cls-4" d="m16.43,9.27c-4.02,1.91-9.61,3.1-15.8,3.1h-.34"/>
      <line class="cls-4" x1=".26" y1="22.24" x2=".27" y2="20.88"/>
      <line class="cls-4" x1="16.5" y1="17.58" x2="16.5" y2="18.96"/>
      <path class="cls-4" d="m16.5,13.05v9.52c-4.03,1.93-9.72,3.1-15.95,3.1h-.31S.34.57.34.57l16.08,8.67c.25.92.33,2.07.08,3.82Z"/>
      <path class="cls-1" d="m3.47,10.06c.04-.46-.48-1.04-1.08-1.14.26.34.18.54-.22.62-.38,0-.62.18-.63.43-.02.03-.04.07-.03.11-.19.05-.31.21-.29.36-.12.12-.19.39-.05.58-.03.5.85.88,1.6.64.83-.06,1.27-.47,1.09-1.04-.02-.32-.16-.51-.4-.57Z"/>
      <path class="cls-3" d="m3.47,10.06c.04-.46-.48-1.04-1.08-1.14.26.34.18.54-.22.62-.38,0-.62.18-.63.43-.02.03-.04.07-.03.11-.19.05-.31.21-.29.36-.12.12-.19.39-.05.58-.03.5.85.88,1.6.64.83-.06,1.27-.47,1.09-1.04-.02-.32-.16-.51-.4-.57Z"/>
      <path class="cls-3" d="m1.55,9.98c-.1.12.04.42.23.49.21.24.8.35,1.16.12,1.08-.27.36-1.52-.53-1.66.26.34.18.54-.22.62-.38,0-.62.18-.63.43Z"/>
      <path class="cls-3" d="m2.93,10.59c.63-.61.21-1.36-.51-1.65"/>
      <path class="cls-3" d="m1.8,10.48c1.32.27,1.12-1.37.6-1.54"/>
      <path class="cls-3" d="m1.55,9.99c.85.37,1.36-.71.87-1.05"/>
      <path class="cls-3" d="m1.53,10.09c-.19.04-.32.21-.3.37-.12.12-.19.39-.05.58-.03.5.85.88,1.6.64.83-.06,1.27-.47,1.09-1.04-.02-.32-.16-.51-.4-.56"/>
      <path class="cls-3" d="m1.22,10.47c.13.29,1.07.59,1.72.13"/>
      <path class="cls-3" d="m1.19,11.04c.76.49,2.52-.07,2.3-.96"/>
      <path class="cls-3" d="m2.75,11.68c.86-.25,1.08-1.09.75-1.59"/>
      <path class="cls-3" d="m3.49,10.07s.36.24.38.57"/>
      <path class="cls-1" d="m6.99,9.69c.04-.46-.48-1.04-1.08-1.14.26.34.18.54-.22.62-.38,0-.62.18-.63.43-.02.03-.04.07-.03.11-.19.05-.31.21-.29.36-.12.12-.19.39-.05.58-.03.5.85.88,1.6.64.83-.06,1.27-.47,1.09-1.04-.02-.32-.16-.51-.4-.57Z"/>
      <path class="cls-3" d="m6.99,9.69c.04-.46-.48-1.04-1.08-1.14.26.34.18.54-.22.62-.38,0-.62.18-.63.43-.02.03-.04.07-.03.11-.19.05-.31.21-.29.36-.12.12-.19.39-.05.58-.03.5.85.88,1.6.64.83-.06,1.27-.47,1.09-1.04-.02-.32-.16-.51-.4-.57Z"/>
      <path class="cls-3" d="m5.06,9.61c-.1.12.04.42.23.49.21.24.8.35,1.16.12,1.08-.27.36-1.52-.53-1.66.26.34.18.54-.22.62-.38,0-.62.18-.63.43Z"/>
      <path class="cls-3" d="m6.45,10.21c.63-.61.21-1.36-.51-1.65"/>
      <path class="cls-3" d="m5.31,10.1c1.32.27,1.12-1.37.6-1.54"/>
      <path class="cls-3" d="m5.06,9.62c.85.37,1.36-.71.87-1.05"/>
      <path class="cls-3" d="m5.04,9.72c-.19.04-.32.21-.3.37-.12.12-.19.39-.05.58-.03.5.85.88,1.6.64.83-.06,1.27-.47,1.09-1.04-.02-.32-.16-.51-.4-.56"/>
      <path class="cls-3" d="m4.73,10.09c.13.29,1.07.59,1.72.13"/>
      <path class="cls-3" d="m4.7,10.66c.76.49,2.52-.07,2.3-.96"/>
      <path class="cls-3" d="m6.26,11.3c.86-.25,1.08-1.09.75-1.59"/>
      <path class="cls-3" d="m7,9.7s.36.24.38.57"/>
      <path class="cls-1" d="m10.77,9.08c.04-.46-.48-1.04-1.08-1.14.26.34.18.54-.22.62-.38,0-.62.18-.63.43-.02.03-.04.07-.03.11-.19.05-.31.21-.29.36-.12.12-.19.39-.05.58-.03.5.85.88,1.6.64.83-.06,1.27-.47,1.09-1.04-.02-.32-.16-.51-.4-.57Z"/>
      <path class="cls-3" d="m10.77,9.08c.04-.46-.48-1.04-1.08-1.14.26.34.18.54-.22.62-.38,0-.62.18-.63.43-.02.03-.04.07-.03.11-.19.05-.31.21-.29.36-.12.12-.19.39-.05.58-.03.5.85.88,1.6.64.83-.06,1.27-.47,1.09-1.04-.02-.32-.16-.51-.4-.57Z"/>
      <path class="cls-3" d="m8.84,9c-.1.12.04.42.23.49.21.24.8.35,1.16.12,1.08-.27.36-1.52-.53-1.66.26.34.18.54-.22.62-.38,0-.62.18-.63.43Z"/>
      <path class="cls-3" d="m10.22,9.61c.63-.61.21-1.36-.51-1.65"/>
      <path class="cls-3" d="m9.09,9.5c1.32.27,1.12-1.37.6-1.54"/>
      <path class="cls-3" d="m8.84,9.01c.85.37,1.36-.71.87-1.05"/>
      <path class="cls-3" d="m8.82,9.11c-.19.04-.32.21-.3.37-.12.12-.19.39-.05.58-.03.5.85.88,1.6.64.83-.06,1.27-.47,1.09-1.04-.02-.32-.16-.51-.4-.56"/>
      <path class="cls-3" d="m8.51,9.49c.13.29,1.07.59,1.72.13"/>
      <path class="cls-3" d="m8.48,10.05c.76.49,2.52-.07,2.3-.96"/>
      <path class="cls-3" d="m10.04,10.7c.86-.25,1.08-1.09.75-1.59"/>
      <path class="cls-3" d="m10.78,9.09s.36.24.38.57"/>
      <path class="cls-1" d="m14.36,8.29c.04-.46-.48-1.04-1.08-1.14.26.34.18.54-.22.62-.38,0-.62.18-.63.43-.02.03-.04.07-.03.11-.19.05-.31.21-.29.36-.12.12-.19.39-.05.58-.03.5.85.88,1.6.64.83-.06,1.27-.47,1.09-1.04-.02-.32-.16-.51-.4-.57Z"/>
      <path class="cls-3" d="m14.36,8.29c.04-.46-.48-1.04-1.08-1.14.26.34.18.54-.22.62-.38,0-.62.18-.63.43-.02.03-.04.07-.03.11-.19.05-.31.21-.29.36-.12.12-.19.39-.05.58-.03.5.85.88,1.6.64.83-.06,1.27-.47,1.09-1.04-.02-.32-.16-.51-.4-.57Z"/>
      <path class="cls-3" d="m12.43,8.21c-.1.12.04.42.23.49.21.24.8.36,1.16.12,1.08-.27.36-1.52-.53-1.66.26.34.18.54-.22.62-.38,0-.62.18-.63.43Z"/>
      <path class="cls-3" d="m13.81,8.81c.63-.61.21-1.36-.51-1.65"/>
      <path class="cls-3" d="m12.68,8.7c1.32.27,1.12-1.37.6-1.54"/>
      <path class="cls-3" d="m12.43,8.22c.85.37,1.36-.71.87-1.05"/>
      <path class="cls-3" d="m12.41,8.32c-.19.04-.32.21-.3.37-.12.12-.19.39-.05.58-.03.5.85.88,1.6.64.83-.06,1.27-.47,1.09-1.04-.02-.32-.16-.51-.4-.56"/>
      <path class="cls-3" d="m12.1,8.7c.13.29,1.07.59,1.72.13"/>
      <path class="cls-3" d="m12.07,9.26c.76.49,2.52-.07,2.3-.96"/>
      <path class="cls-3" d="m13.63,9.9c.86-.24,1.08-1.09.75-1.59"/>
      <path class="cls-3" d="m14.37,8.3s.36.24.38.57"/>
    </g>
  </g>
</svg>