<?xml version="1.0" encoding="UTF-8"?>
<svg id="Layer_2" data-name="Layer 2" xmlns="http://www.w3.org/2000/svg" viewBox="0 0 23.17 23.45">
  <defs>
    <style>
      .cls-1 {
        fill: #5d4647;
        fill-rule: evenodd;
      }

      .cls-1, .cls-2 {
        stroke-width: 0px;
      }

      .cls-3 {
        stroke-width: .25px;
      }

      .cls-3, .cls-4 {
        fill: none;
        stroke: #231f20;
        stroke-miterlimit: 3.86;
      }

      .cls-2 {
        fill: #934f46;
      }

      .cls-4 {
        stroke-width: .5px;
      }
    </style>
  </defs>
  <g id="Layer_1-2" data-name="Layer 1">
    <g>
      <path class="cls-2" d="m16.56,23.17c3.79-1.86,6.13-4.38,6.13-7.17l.05-9.34c.27-2.13.12-4.21-.28-5.46L.25,1.13v13.29l16.31,8.74Z"/>
      <path class="cls-4" d="m16.56,23.17c3.79-1.86,6.13-4.38,6.13-7.17l.05-9.34c.27-2.13.12-4.21-.28-5.46L.25,1.13v13.29l16.31,8.74Z"/>
      <path class="cls-4" d="m.34,1.26l16.08,8.67c.25.92.25,2.26,0,4.01"/>
      <path class="cls-4" d="m22.7,6.65c0,2.77-2.4,5.29-6.27,7.15"/>
      <path class="cls-4" d="m22.72,11.37c0,2.75-2.36,5.25-6.18,7.1"/>
      <path class="cls-4" d="m22.72,12.69c0,2.76-2.39,5.27-6.24,7.13"/>
      <line class="cls-4" x1=".34" y1="5.12" x2="16.42" y2="13.78"/>
      <line class="cls-4" x1=".34" y1="9.73" x2="16.42" y2="18.39"/>
      <line class="cls-4" x1=".34" y1="11.16" x2="16.42" y2="19.83"/>
      <path class="cls-1" d="m22.75,11.37c0,2.75-2.36,5.25-6.18,7.1l-.11-.07L.38,9.73l-.09,1.41,16.22,8.68c3.85-1.86,6.24-4.37,6.24-7.13v-1.32ZM.38,5.12l16.09,8.68c3.87-1.86,6.32-4.35,6.32-7.12.26-2.14.12-4.22-.28-5.47L.29,1.13l.09,3.98Zm0,0l16.09,8.68c3.87-1.86,6.32-4.35,6.32-7.12.26-2.14.12-4.22-.28-5.47L.29,1.13l.09,3.98Zm22.38,6.25c0,2.75-2.36,5.25-6.18,7.1l-.11-.07L.38,9.73l-.09,1.41,16.22,8.68c3.85-1.86,6.24-4.37,6.24-7.13v-1.32ZM.38,5.12l16.09,8.68c3.87-1.86,6.32-4.35,6.32-7.12.26-2.14.12-4.22-.28-5.47L.29,1.13l.09,3.98Zm22.38,6.25c0,2.75-2.36,5.25-6.18,7.1l-.11-.07L.38,9.73l-.09,1.41,16.22,8.68c3.85-1.86,6.24-4.37,6.24-7.13v-1.32Z"/>
      <path class="cls-4" d="m22.75,11.37c0,2.75-2.36,5.25-6.18,7.1l-.11-.07L.38,9.73l-.09,1.41,16.22,8.68c3.85-1.86,6.24-4.37,6.24-7.13v-1.32ZM.38,5.12l16.09,8.68c3.87-1.86,6.32-4.35,6.32-7.12.26-2.14.12-4.22-.28-5.47L.29,1.13l.09,3.98Zm0,0l16.09,8.68c3.87-1.86,6.32-4.35,6.32-7.12.26-2.14.12-4.22-.28-5.47L.29,1.13l.09,3.98Zm22.38,6.25c0,2.75-2.36,5.25-6.18,7.1l-.11-.07L.38,9.73l-.09,1.41,16.22,8.68c3.85-1.86,6.24-4.37,6.24-7.13v-1.32ZM.38,5.12l16.09,8.68c3.87-1.86,6.32-4.35,6.32-7.12.26-2.14.12-4.22-.28-5.47L.29,1.13l.09,3.98Zm22.38,6.25c0,2.75-2.36,5.25-6.18,7.1l-.11-.07L.38,9.73l-.09,1.41,16.22,8.68c3.85-1.86,6.24-4.37,6.24-7.13v-1.32Z"/>
      <path class="cls-4" d="m.38,1.22l16.09,8.64c3.87-1.86,6.32-4.35,6.32-7.12v.04l-.31-1.53c.14.48.22.97.22,1.46"/>
      <path class="cls-4" d="m16.56,23.17c3.79-1.86,6.13-4.38,6.13-7.17l.05-9.34c.27-2.13.12-4.21-.28-5.46L.25,1.13v13.29l16.31,8.74Z"/>
      <line class="cls-4" x1="16.42" y1="10.04" x2="16.42" y2="23.16"/>
      <path class="cls-1" d="m22.44,1.31c.04-.46-.48-1.04-1.08-1.14.26.34.18.54-.22.62-.38,0-.62.18-.63.43-.02.03-.04.07-.03.11-.19.05-.31.21-.29.36-.12.12-.19.39-.05.58-.03.5.85.88,1.6.64.83-.06,1.27-.47,1.09-1.04-.02-.32-.16-.51-.4-.57Z"/>
      <path class="cls-3" d="m22.44,1.31c.04-.46-.48-1.04-1.08-1.14.26.34.18.54-.22.62-.38,0-.62.18-.63.43-.02.03-.04.07-.03.11-.19.05-.31.21-.29.36-.12.12-.19.39-.05.58-.03.5.85.88,1.6.64.83-.06,1.27-.47,1.09-1.04-.02-.32-.16-.51-.4-.57Z"/>
      <path class="cls-3" d="m20.51,1.23c-.1.12.04.42.23.49.21.24.8.35,1.16.12,1.08-.27.36-1.52-.53-1.66.26.34.18.54-.22.62-.38,0-.62.18-.63.43Z"/>
      <path class="cls-3" d="m21.9,1.84c.63-.61.21-1.36-.51-1.65"/>
      <path class="cls-3" d="m20.76,1.73c1.32.27,1.12-1.37.6-1.54"/>
      <path class="cls-3" d="m20.51,1.24c.85.37,1.36-.71.87-1.05"/>
      <path class="cls-3" d="m20.49,1.34c-.19.04-.32.21-.3.37-.12.12-.19.39-.05.58-.03.5.85.88,1.6.64.83-.06,1.27-.47,1.09-1.04-.02-.32-.16-.51-.4-.56"/>
      <path class="cls-3" d="m20.18,1.72c.13.29,1.07.59,1.72.13"/>
      <path class="cls-3" d="m20.15,2.28c.76.49,2.52-.07,2.3-.96"/>
      <path class="cls-3" d="m21.71,2.93c.86-.24,1.08-1.09.75-1.59"/>
      <path class="cls-3" d="m22.45,1.32s.36.24.38.57"/>
      <path class="cls-1" d="m21.87,3.54c.04-.46-.48-1.04-1.08-1.14.26.34.18.54-.22.62-.38,0-.62.18-.63.43-.02.03-.04.07-.03.11-.19.05-.31.21-.29.36-.12.12-.19.39-.05.58-.03.5.85.88,1.6.64.83-.06,1.27-.47,1.09-1.04-.02-.32-.16-.51-.4-.57Z"/>
      <path class="cls-3" d="m21.87,3.54c.04-.46-.48-1.04-1.08-1.14.26.34.18.54-.22.62-.38,0-.62.18-.63.43-.02.03-.04.07-.03.11-.19.05-.31.21-.29.36-.12.12-.19.39-.05.58-.03.5.85.88,1.6.64.83-.06,1.27-.47,1.09-1.04-.02-.32-.16-.51-.4-.57Z"/>
      <path class="cls-3" d="m19.95,3.46c-.1.12.04.42.23.49.21.24.8.36,1.16.12,1.08-.27.36-1.52-.53-1.66.26.34.18.54-.22.62-.38,0-.62.18-.63.43Z"/>
      <path class="cls-3" d="m21.33,4.07c.63-.61.21-1.36-.51-1.65"/>
      <path class="cls-3" d="m20.2,3.96c1.32.27,1.12-1.37.6-1.54"/>
      <path class="cls-3" d="m19.95,3.47c.85.37,1.36-.71.87-1.05"/>
      <path class="cls-3" d="m19.92,3.57c-.19.04-.32.21-.3.37-.12.12-.19.39-.05.58-.03.5.85.88,1.6.64.83-.06,1.27-.47,1.09-1.04-.02-.32-.16-.51-.4-.56"/>
      <path class="cls-3" d="m19.62,3.95c.13.29,1.07.59,1.72.13"/>
      <path class="cls-3" d="m19.59,4.51c.76.49,2.52-.07,2.3-.96"/>
      <path class="cls-3" d="m21.15,5.16c.86-.24,1.08-1.09.75-1.59"/>
      <path class="cls-3" d="m21.89,3.55s.36.24.38.57"/>
      <path class="cls-1" d="m19.91,5.66c.04-.46-.48-1.04-1.08-1.14.26.34.19.54-.22.62-.38,0-.62.18-.63.43-.02.03-.04.07-.03.11-.19.05-.31.21-.29.36-.12.12-.19.39-.05.58-.03.5.85.88,1.6.64.83-.06,1.27-.47,1.09-1.04-.02-.32-.16-.51-.4-.57Z"/>
      <path class="cls-3" d="m19.91,5.66c.04-.46-.48-1.04-1.08-1.14.26.34.19.54-.22.62-.38,0-.62.18-.63.43-.02.03-.04.07-.03.11-.19.05-.31.21-.29.36-.12.12-.19.39-.05.58-.03.5.85.88,1.6.64.83-.06,1.27-.47,1.09-1.04-.02-.32-.16-.51-.4-.57Z"/>
      <path class="cls-3" d="m17.98,5.58c-.1.12.04.42.23.49.21.24.8.35,1.16.12,1.08-.27.36-1.52-.53-1.66.26.34.19.54-.22.62-.38,0-.62.18-.63.43Z"/>
      <path class="cls-3" d="m19.36,6.18c.63-.61.21-1.36-.51-1.65"/>
      <path class="cls-3" d="m18.23,6.07c1.32.27,1.12-1.37.6-1.54"/>
      <path class="cls-3" d="m17.98,5.59c.85.37,1.36-.71.87-1.05"/>
      <path class="cls-3" d="m17.96,5.69c-.19.04-.32.21-.3.37-.12.12-.19.39-.05.58-.03.5.85.88,1.6.64.83-.06,1.27-.47,1.09-1.04-.02-.32-.16-.51-.4-.56"/>
      <path class="cls-3" d="m17.65,6.06c.13.29,1.07.59,1.72.13"/>
      <path class="cls-3" d="m17.62,6.63c.76.49,2.52-.07,2.3-.96"/>
      <path class="cls-3" d="m19.18,7.27c.86-.25,1.08-1.09.75-1.59"/>
      <path class="cls-3" d="m19.92,5.67s.36.24.38.57"/>
      <path class="cls-1" d="m17.49,7.36c.04-.46-.48-1.04-1.08-1.14.26.34.18.54-.22.62-.38,0-.62.18-.63.43-.02.03-.04.07-.03.11-.19.05-.31.21-.29.36-.12.12-.19.39-.05.58-.03.5.85.88,1.6.64.83-.06,1.27-.47,1.09-1.04-.02-.32-.16-.51-.4-.57Z"/>
      <path class="cls-3" d="m17.49,7.36c.04-.46-.48-1.04-1.08-1.14.26.34.18.54-.22.62-.38,0-.62.18-.63.43-.02.03-.04.07-.03.11-.19.05-.31.21-.29.36-.12.12-.19.39-.05.58-.03.5.85.88,1.6.64.83-.06,1.27-.47,1.09-1.04-.02-.32-.16-.51-.4-.57Z"/>
      <path class="cls-3" d="m15.56,7.28c-.1.12.04.42.23.49.21.24.8.35,1.16.12,1.08-.27.36-1.52-.53-1.66.26.34.18.54-.22.62-.38,0-.62.18-.63.43Z"/>
      <path class="cls-3" d="m16.95,7.88c.63-.61.21-1.36-.51-1.65"/>
      <path class="cls-3" d="m15.81,7.77c1.32.27,1.12-1.37.6-1.54"/>
      <path class="cls-3" d="m15.56,7.29c.85.37,1.36-.71.87-1.05"/>
      <path class="cls-3" d="m15.54,7.39c-.19.04-.32.21-.3.37-.12.12-.19.39-.05.58-.03.5.85.88,1.6.64.83-.06,1.27-.47,1.09-1.04-.02-.32-.16-.51-.4-.56"/>
      <path class="cls-3" d="m15.23,7.76c.13.29,1.07.59,1.72.13"/>
      <path class="cls-3" d="m15.2,8.33c.76.49,2.52-.07,2.3-.96"/>
      <path class="cls-3" d="m16.76,8.97c.86-.25,1.08-1.09.75-1.59"/>
      <path class="cls-3" d="m17.5,7.37s.36.24.38.57"/>
    </g>
  </g>
</svg>