<?xml version="1.0" encoding="UTF-8"?>
<svg id="Layer_2" data-name="Layer 2" xmlns="http://www.w3.org/2000/svg" viewBox="0 0 23.06 21.18">
  <defs>
    <style>
      .cls-1 {
        fill: #5d4647;
        fill-rule: evenodd;
      }

      .cls-1, .cls-2 {
        stroke-width: 0px;
      }

      .cls-3 {
        stroke-width: .25px;
      }

      .cls-3, .cls-4 {
        fill: none;
        stroke: #231f20;
        stroke-miterlimit: 3.86;
      }

      .cls-2 {
        fill: #934f46;
      }

      .cls-4 {
        stroke-width: .5px;
      }
    </style>
  </defs>
  <g id="Layer_1-2" data-name="Layer 1">
    <g>
      <path class="cls-2" d="m22.81,11.61c.05-1.52-.11-2.9-.41-3.83-.79-2.59-3.61-4.82-7.7-6.42L.26,7.8v13.13s22.43,0,22.43,0l.12-9.31Z"/>
      <path class="cls-4" d="m22.81,11.61c.05-1.52-.11-2.9-.41-3.83-.79-2.59-3.61-4.82-7.7-6.42L.26,7.8v13.13s22.43,0,22.43,0l.12-9.31Z"/>
      <line class="cls-4" x1="22.72" y1="17.53" x2="22.75" y2="16.01"/>
      <line class="cls-4" x1=".25" y1="15.99" x2=".25" y2="17.53"/>
      <path class="cls-1" d="m22.81,11.49v-.03c.05-1.52-.11-2.9-.41-3.83-.79-2.59-3.61-4.82-7.7-6.42L.26,7.65v3.97s22.55-.13,22.55-.13ZM.25,16.01h22.56v1.51H.25v-1.51Zm0,0h22.56v1.51H.25v-1.51Zm22.56-4.52v-.03c.05-1.52-.11-2.9-.41-3.83-.79-2.59-3.61-4.82-7.7-6.42L.26,7.65v3.97s22.55-.13,22.55-.13ZM.25,16.01h22.56v1.51H.25v-1.51Zm22.56-4.52v-.03c.05-1.52-.11-2.9-.41-3.83-.79-2.59-3.61-4.82-7.7-6.42L.26,7.65v3.97s22.55-.13,22.55-.13Z"/>
      <path class="cls-4" d="m22.81,11.49v-.03c.05-1.52-.11-2.9-.41-3.83-.79-2.59-3.61-4.82-7.7-6.42L.26,7.65v3.97s22.55-.13,22.55-.13ZM.25,16.01h22.56v1.51H.25v-1.51Zm0,0h22.56v1.51H.25v-1.51Zm22.56-4.52v-.03c.05-1.52-.11-2.9-.41-3.83-.79-2.59-3.61-4.82-7.7-6.42L.26,7.65v3.97s22.55-.13,22.55-.13ZM.25,16.01h22.56v1.51H.25v-1.51Zm22.56-4.52v-.03c.05-1.52-.11-2.9-.41-3.83-.79-2.59-3.61-4.82-7.7-6.42L.26,7.65v3.97s22.55-.13,22.55-.13Z"/>
      <path class="cls-4" d="m22.81,11.61c.05-1.52-.11-2.9-.41-3.83-.79-2.59-3.61-4.82-7.7-6.42L.26,7.8v13.13s22.43,0,22.43,0l.12-9.31Z"/>
      <line class="cls-4" x1=".26" y1="7.84" x2="22.36" y2="7.71"/>
      <path class="cls-1" d="m15.91,1.31c.04-.46-.48-1.04-1.08-1.14.26.34.18.54-.22.62-.38,0-.62.18-.63.43-.02.03-.04.07-.03.11-.19.05-.31.21-.29.36-.12.12-.19.39-.05.58-.03.5.85.88,1.6.64.83-.06,1.27-.47,1.09-1.04-.02-.32-.16-.51-.4-.57Z"/>
      <path class="cls-3" d="m15.91,1.31c.04-.46-.48-1.04-1.08-1.14.26.34.18.54-.22.62-.38,0-.62.18-.63.43-.02.03-.04.07-.03.11-.19.05-.31.21-.29.36-.12.12-.19.39-.05.58-.03.5.85.88,1.6.64.83-.06,1.27-.47,1.09-1.04-.02-.32-.16-.51-.4-.57Z"/>
      <path class="cls-3" d="m13.98,1.23c-.1.12.04.42.23.49.21.24.8.35,1.16.12,1.08-.27.36-1.52-.53-1.66.26.34.18.54-.22.62-.38,0-.62.18-.63.43Z"/>
      <path class="cls-3" d="m15.37,1.84c.63-.61.21-1.36-.51-1.65"/>
      <path class="cls-3" d="m14.23,1.73c1.32.27,1.12-1.37.6-1.54"/>
      <path class="cls-3" d="m13.98,1.24c.85.37,1.36-.71.87-1.05"/>
      <path class="cls-3" d="m13.96,1.34c-.19.04-.32.21-.3.37-.12.12-.19.39-.05.58-.03.5.85.88,1.6.64.83-.06,1.27-.47,1.09-1.04-.02-.32-.16-.51-.4-.56"/>
      <path class="cls-3" d="m13.65,1.72c.13.29,1.07.59,1.72.13"/>
      <path class="cls-3" d="m13.62,2.28c.76.49,2.52-.07,2.3-.96"/>
      <path class="cls-3" d="m15.18,2.93c.86-.25,1.08-1.09.75-1.59"/>
      <path class="cls-3" d="m15.92,1.32s.36.24.38.57"/>
      <path class="cls-1" d="m18.17,2.6c.04-.46-.48-1.04-1.08-1.14.26.34.18.54-.22.62-.38,0-.62.18-.63.43-.02.03-.04.07-.03.11-.19.05-.31.21-.29.36-.12.12-.19.39-.05.58-.03.5.85.88,1.6.64.83-.06,1.27-.47,1.09-1.04-.02-.32-.16-.51-.4-.57Z"/>
      <path class="cls-3" d="m18.17,2.6c.04-.46-.48-1.04-1.08-1.14.26.34.18.54-.22.62-.38,0-.62.18-.63.43-.02.03-.04.07-.03.11-.19.05-.31.21-.29.36-.12.12-.19.39-.05.58-.03.5.85.88,1.6.64.83-.06,1.27-.47,1.09-1.04-.02-.32-.16-.51-.4-.57Z"/>
      <path class="cls-3" d="m16.25,2.52c-.1.12.04.42.23.49.21.24.8.35,1.16.12,1.08-.27.36-1.52-.53-1.66.26.34.18.54-.22.62-.38,0-.62.18-.63.43Z"/>
      <path class="cls-3" d="m17.63,3.12c.63-.61.21-1.36-.51-1.65"/>
      <path class="cls-3" d="m16.5,3.01c1.32.27,1.12-1.37.6-1.54"/>
      <path class="cls-3" d="m16.25,2.53c.85.37,1.36-.71.87-1.05"/>
      <path class="cls-3" d="m16.23,2.63c-.19.04-.32.21-.3.37-.12.12-.19.39-.05.58-.03.5.85.88,1.6.64.83-.06,1.27-.47,1.09-1.04-.02-.32-.16-.51-.4-.56"/>
      <path class="cls-3" d="m15.92,3c.13.29,1.07.59,1.72.13"/>
      <path class="cls-3" d="m15.89,3.57c.76.49,2.52-.07,2.3-.96"/>
      <path class="cls-3" d="m17.45,4.21c.86-.24,1.08-1.09.75-1.59"/>
      <path class="cls-3" d="m18.19,2.61s.36.24.38.57"/>
      <path class="cls-1" d="m20.06,4.07c.04-.46-.48-1.04-1.08-1.14.26.34.18.54-.22.62-.38,0-.62.18-.63.43-.02.03-.04.07-.03.11-.19.05-.31.21-.29.36-.12.12-.19.39-.05.58-.03.5.85.88,1.6.64.83-.06,1.27-.47,1.09-1.04-.02-.32-.16-.51-.4-.57Z"/>
      <path class="cls-3" d="m20.06,4.07c.04-.46-.48-1.04-1.08-1.14.26.34.18.54-.22.62-.38,0-.62.18-.63.43-.02.03-.04.07-.03.11-.19.05-.31.21-.29.36-.12.12-.19.39-.05.58-.03.5.85.88,1.6.64.83-.06,1.27-.47,1.09-1.04-.02-.32-.16-.51-.4-.57Z"/>
      <path class="cls-3" d="m18.14,3.99c-.1.12.04.42.23.49.21.24.8.35,1.16.12,1.08-.27.36-1.52-.53-1.66.26.34.18.54-.22.62-.38,0-.62.18-.63.43Z"/>
      <path class="cls-3" d="m19.52,4.6c.63-.61.21-1.36-.51-1.65"/>
      <path class="cls-3" d="m18.39,4.48c1.32.27,1.12-1.37.6-1.54"/>
      <path class="cls-3" d="m18.14,4c.85.37,1.36-.71.87-1.05"/>
      <path class="cls-3" d="m18.11,4.1c-.19.04-.32.21-.3.37-.12.12-.19.39-.05.58-.03.5.85.88,1.6.64.83-.06,1.27-.47,1.09-1.04-.02-.32-.16-.51-.4-.56"/>
      <path class="cls-3" d="m17.81,4.48c.13.29,1.07.59,1.72.13"/>
      <path class="cls-3" d="m17.78,5.04c.76.49,2.52-.07,2.3-.96"/>
      <path class="cls-3" d="m19.34,5.68c.86-.24,1.08-1.09.75-1.59"/>
      <path class="cls-3" d="m20.08,4.08s.36.24.38.57"/>
      <path class="cls-1" d="m21.76,5.88c.04-.46-.48-1.04-1.08-1.14.26.34.18.54-.22.62-.38,0-.62.18-.63.43-.02.03-.04.07-.03.11-.19.05-.31.21-.29.36-.12.12-.19.39-.05.58-.03.5.85.88,1.6.64.83-.06,1.27-.47,1.09-1.04-.02-.32-.16-.51-.4-.57Z"/>
      <path class="cls-3" d="m21.76,5.88c.04-.46-.48-1.04-1.08-1.14.26.34.18.54-.22.62-.38,0-.62.18-.63.43-.02.03-.04.07-.03.11-.19.05-.31.21-.29.36-.12.12-.19.39-.05.58-.03.5.85.88,1.6.64.83-.06,1.27-.47,1.09-1.04-.02-.32-.16-.51-.4-.57Z"/>
      <path class="cls-3" d="m19.84,5.8c-.1.12.04.42.23.49.21.24.8.35,1.16.12,1.08-.27.36-1.52-.53-1.66.26.34.18.54-.22.62-.38,0-.62.18-.63.43Z"/>
      <path class="cls-3" d="m21.22,6.41c.63-.61.21-1.36-.51-1.65"/>
      <path class="cls-3" d="m20.09,6.3c1.32.27,1.12-1.37.6-1.54"/>
      <path class="cls-3" d="m19.84,5.81c.85.37,1.36-.71.87-1.05"/>
      <path class="cls-3" d="m19.82,5.91c-.19.04-.32.21-.3.37-.12.12-.19.39-.05.58-.03.5.85.88,1.6.64.83-.06,1.27-.47,1.09-1.04-.02-.32-.16-.51-.4-.56"/>
      <path class="cls-3" d="m19.51,6.29c.13.29,1.07.59,1.72.13"/>
      <path class="cls-3" d="m19.48,6.86c.76.49,2.52-.07,2.3-.96"/>
      <path class="cls-3" d="m21.04,7.5c.86-.25,1.08-1.09.75-1.59"/>
      <path class="cls-3" d="m21.78,5.89s.36.24.38.57"/>
    </g>
  </g>
</svg>