<?xml version="1.0" encoding="UTF-8"?>
<svg id="Layer_2" data-name="Layer 2" xmlns="http://www.w3.org/2000/svg" viewBox="0 0 14.86 23.7">
  <defs>
    <style>
      .cls-1 {
        fill: #5d4647;
      }

      .cls-1, .cls-2 {
        fill-rule: evenodd;
        stroke-width: 0px;
      }

      .cls-2 {
        fill: #934f46;
      }

      .cls-3 {
        stroke-width: .25px;
      }

      .cls-3, .cls-4 {
        fill: none;
        stroke: #231f20;
        stroke-miterlimit: 3.86;
      }

      .cls-4 {
        stroke-width: .5px;
      }
    </style>
  </defs>
  <g id="Layer_1-2" data-name="Layer 1">
    <g>
      <path class="cls-2" d="m.28,23.31l14.33-6.32V3.71C10.79,2.24,5.89,1.35.55,1.35l-.3.15v8.62l.03,13.19Z"/>
      <path class="cls-4" d="m.28,23.31l14.33-6.32V3.71C10.79,2.24,5.89,1.35.55,1.35l-.3.15v8.62l.03,13.19Z"/>
      <line class="cls-4" x1="14.61" y1="13.91" x2="14.61" y2="12.49"/>
      <line class="cls-4" x1=".27" y1="18.8" x2=".27" y2="20.17"/>
      <path class="cls-1" d="m.28,13.94l14.33-6.33v-3.9C10.79,2.24,5.89,1.35.55,1.35l-.3.15v8.62l.03,3.82Zm0,4.84l14.33-6.32v1.44L.28,20.22v-1.44Zm0,0l14.33-6.32v1.44L.28,20.22v-1.44Zm0-4.84l14.33-6.33v-3.9C10.79,2.24,5.89,1.35.55,1.35l-.3.15v8.62l.03,3.82Zm0,4.84l14.33-6.32v1.44L.28,20.22v-1.44Zm0-4.84l14.33-6.33v-3.9C10.79,2.24,5.89,1.35.55,1.35l-.3.15v8.62l.03,3.82Z"/>
      <path class="cls-4" d="m.28,13.94l14.33-6.33v-3.9C10.79,2.24,5.89,1.35.55,1.35l-.3.15v8.62l.03,3.82Zm0,4.84l14.33-6.32v1.44L.28,20.22v-1.44Zm0,0l14.33-6.32v1.44L.28,20.22v-1.44Zm0-4.84l14.33-6.33v-3.9C10.79,2.24,5.89,1.35.55,1.35l-.3.15v8.62l.03,3.82Zm0,4.84l14.33-6.32v1.44L.28,20.22v-1.44Zm0-4.84l14.33-6.33v-3.9C10.79,2.24,5.89,1.35.55,1.35l-.3.15v8.62l.03,3.82Z"/>
      <path class="cls-4" d="m.28,23.31l14.33-6.32V3.71C10.79,2.24,5.89,1.35.55,1.35l-.3.15v8.62l.03,13.19Z"/>
      <line class="cls-4" x1=".28" y1="10.09" x2="14.61" y2="3.77"/>
      <path class="cls-1" d="m3.02,1.31c.04-.46-.48-1.04-1.08-1.14.26.34.18.54-.22.62-.38,0-.62.18-.63.43-.02.03-.04.07-.03.11-.19.05-.31.21-.29.36-.12.12-.19.39-.05.58-.03.5.85.88,1.6.64.83-.06,1.27-.47,1.09-1.04-.02-.32-.16-.51-.4-.57Z"/>
      <path class="cls-3" d="m3.02,1.31c.04-.46-.48-1.04-1.08-1.14.26.34.18.54-.22.62-.38,0-.62.18-.63.43-.02.03-.04.07-.03.11-.19.05-.31.21-.29.36-.12.12-.19.39-.05.58-.03.5.85.88,1.6.64.83-.06,1.27-.47,1.09-1.04-.02-.32-.16-.51-.4-.57Z"/>
      <path class="cls-3" d="m1.09,1.23c-.1.12.04.42.23.49.21.24.8.35,1.16.12,1.08-.27.36-1.52-.53-1.66.26.34.18.54-.22.62-.38,0-.62.18-.63.43Z"/>
      <path class="cls-3" d="m2.47,1.84c.63-.61.21-1.36-.51-1.65"/>
      <path class="cls-3" d="m1.34,1.73c1.32.27,1.12-1.37.6-1.54"/>
      <path class="cls-3" d="m1.09,1.24c.85.37,1.36-.71.87-1.05"/>
      <path class="cls-3" d="m1.07,1.34c-.19.04-.32.21-.3.37-.12.12-.19.39-.05.58-.03.5.85.88,1.6.64.83-.06,1.27-.47,1.09-1.04-.02-.32-.16-.51-.4-.56"/>
      <path class="cls-3" d="m.76,1.72c.13.29,1.07.59,1.72.13"/>
      <path class="cls-3" d="m.73,2.28c.76.49,2.52-.07,2.3-.96"/>
      <path class="cls-3" d="m2.29,2.93c.86-.25,1.08-1.09.75-1.59"/>
      <path class="cls-3" d="m3.03,1.32s.36.24.38.57"/>
      <path class="cls-1" d="m6.27,1.5c.04-.46-.48-1.04-1.08-1.14.26.34.18.54-.22.62-.38,0-.62.18-.63.43-.02.03-.04.07-.03.11-.19.05-.31.21-.29.36-.12.12-.19.39-.05.58-.03.5.85.88,1.6.64.83-.06,1.27-.47,1.09-1.04-.02-.32-.16-.51-.4-.57Z"/>
      <path class="cls-3" d="m6.27,1.5c.04-.46-.48-1.04-1.08-1.14.26.34.18.54-.22.62-.38,0-.62.18-.63.43-.02.03-.04.07-.03.11-.19.05-.31.21-.29.36-.12.12-.19.39-.05.58-.03.5.85.88,1.6.64.83-.06,1.27-.47,1.09-1.04-.02-.32-.16-.51-.4-.57Z"/>
      <path class="cls-3" d="m4.34,1.42c-.1.12.04.42.23.49.21.24.8.35,1.16.12,1.08-.27.36-1.52-.53-1.66.26.34.18.54-.22.62-.38,0-.62.18-.63.43Z"/>
      <path class="cls-3" d="m5.72,2.03c.63-.61.21-1.36-.51-1.65"/>
      <path class="cls-3" d="m4.59,1.92c1.32.27,1.12-1.37.6-1.54"/>
      <path class="cls-3" d="m4.34,1.43c.85.37,1.36-.71.87-1.05"/>
      <path class="cls-3" d="m4.32,1.53c-.19.04-.32.21-.3.37-.12.12-.19.39-.05.58-.03.5.85.88,1.6.64.83-.06,1.27-.47,1.09-1.04-.02-.32-.16-.51-.4-.56"/>
      <path class="cls-3" d="m4.01,1.91c.13.29,1.07.59,1.72.13"/>
      <path class="cls-3" d="m3.98,2.47c.76.49,2.52-.07,2.3-.96"/>
      <path class="cls-3" d="m5.54,3.12c.86-.25,1.08-1.09.75-1.59"/>
      <path class="cls-3" d="m6.28,1.51s.36.24.38.57"/>
      <path class="cls-1" d="m9.67,2.07c.04-.46-.48-1.04-1.08-1.14.26.34.18.54-.22.62-.38,0-.62.18-.63.43-.02.03-.04.07-.03.11-.19.05-.31.21-.29.36-.12.12-.19.39-.05.58-.03.5.85.88,1.6.64.83-.06,1.27-.47,1.09-1.04-.02-.32-.16-.51-.4-.57Z"/>
      <path class="cls-3" d="m9.67,2.07c.04-.46-.48-1.04-1.08-1.14.26.34.18.54-.22.62-.38,0-.62.18-.63.43-.02.03-.04.07-.03.11-.19.05-.31.21-.29.36-.12.12-.19.39-.05.58-.03.5.85.88,1.6.64.83-.06,1.27-.47,1.09-1.04-.02-.32-.16-.51-.4-.57Z"/>
      <path class="cls-3" d="m7.74,1.99c-.1.12.04.42.23.49.21.24.8.35,1.16.12,1.08-.27.36-1.52-.53-1.66.26.34.18.54-.22.62-.38,0-.62.18-.63.43Z"/>
      <path class="cls-3" d="m9.12,2.59c.63-.61.21-1.36-.51-1.65"/>
      <path class="cls-3" d="m7.99,2.48c1.32.27,1.12-1.37.6-1.54"/>
      <path class="cls-3" d="m7.74,2c.85.37,1.36-.71.87-1.05"/>
      <path class="cls-3" d="m7.72,2.1c-.19.04-.32.21-.3.37-.12.12-.19.39-.05.58-.03.5.85.88,1.6.64.83-.06,1.27-.47,1.09-1.04-.02-.32-.16-.51-.4-.56"/>
      <path class="cls-3" d="m7.41,2.47c.13.29,1.07.59,1.72.13"/>
      <path class="cls-3" d="m7.38,3.04c.76.49,2.52-.07,2.3-.96"/>
      <path class="cls-3" d="m8.94,3.68c.86-.25,1.08-1.09.75-1.59"/>
      <path class="cls-3" d="m9.68,2.08s.36.24.38.57"/>
      <path class="cls-1" d="m13.14,2.79c.04-.46-.48-1.04-1.08-1.14.26.34.18.54-.22.62-.38,0-.62.18-.63.43-.02.03-.04.07-.03.11-.19.05-.31.21-.29.36-.12.12-.19.39-.05.58-.03.5.85.88,1.6.64.83-.06,1.27-.47,1.09-1.04-.02-.32-.16-.51-.4-.57Z"/>
      <path class="cls-3" d="m13.14,2.79c.04-.46-.48-1.04-1.08-1.14.26.34.18.54-.22.62-.38,0-.62.18-.63.43-.02.03-.04.07-.03.11-.19.05-.31.21-.29.36-.12.12-.19.39-.05.58-.03.5.85.88,1.6.64.83-.06,1.27-.47,1.09-1.04-.02-.32-.16-.51-.4-.57Z"/>
      <path class="cls-3" d="m11.22,2.71c-.1.12.04.42.23.49.21.24.8.35,1.16.12,1.08-.27.36-1.52-.53-1.66.26.34.18.54-.22.62-.38,0-.62.18-.63.43Z"/>
      <path class="cls-3" d="m12.6,3.31c.63-.61.21-1.36-.51-1.65"/>
      <path class="cls-3" d="m11.47,3.2c1.32.27,1.12-1.37.6-1.54"/>
      <path class="cls-3" d="m11.22,2.72c.85.37,1.36-.71.87-1.05"/>
      <path class="cls-3" d="m11.19,2.81c-.19.04-.32.21-.3.37-.12.12-.19.39-.05.58-.03.5.85.88,1.6.64.83-.06,1.27-.47,1.09-1.04-.02-.32-.16-.51-.4-.56"/>
      <path class="cls-3" d="m10.89,3.19c.13.29,1.07.59,1.72.13"/>
      <path class="cls-3" d="m10.86,3.76c.76.49,2.52-.07,2.3-.96"/>
      <path class="cls-3" d="m12.42,4.4c.86-.25,1.08-1.09.75-1.59"/>
      <path class="cls-3" d="m13.16,2.8s.36.24.38.57"/>
    </g>
  </g>
</svg>