<?xml version="1.0" encoding="UTF-8"?>
<svg id="Layer_2" data-name="Layer 2" xmlns="http://www.w3.org/2000/svg" viewBox="0 0 23.17 23.32">
  <defs>
    <style>
      .cls-1 {
        fill: #5d4647;
        fill-rule: evenodd;
      }

      .cls-1, .cls-2 {
        stroke-width: 0px;
      }

      .cls-3 {
        stroke-width: .25px;
      }

      .cls-3, .cls-4 {
        fill: none;
        stroke: #231f20;
        stroke-miterlimit: 3.86;
      }

      .cls-2 {
        fill: #934f46;
      }

      .cls-4 {
        stroke-width: .5px;
      }
    </style>
  </defs>
  <g id="Layer_1-2" data-name="Layer 1">
    <g>
      <path class="cls-2" d="m6.61,23.04C2.82,21.18.47,18.66.47,15.88l-.05-9.34c-.27-2.13-.12-4.21.28-5.46l22.22-.07v13.29L6.61,23.04Z"/>
      <path class="cls-4" d="m6.61,23.04C2.82,21.18.47,18.66.47,15.88l-.05-9.34c-.27-2.13-.12-4.21.28-5.46l22.22-.07v13.29L6.61,23.04Z"/>
      <path class="cls-4" d="m22.83,1.14L6.75,9.81c-.25.92-.25,2.26,0,4.01"/>
      <path class="cls-4" d="m.47,6.52c0,2.77,2.4,5.29,6.27,7.15"/>
      <path class="cls-4" d="m.45,11.24c0,2.75,2.36,5.25,6.18,7.1"/>
      <path class="cls-4" d="m.45,12.56c0,2.76,2.39,5.27,6.24,7.13"/>
      <line class="cls-4" x1="22.83" y1="4.99" x2="6.75" y2="13.66"/>
      <line class="cls-4" x1="22.83" y1="9.6" x2="6.75" y2="18.27"/>
      <line class="cls-4" x1="22.83" y1="11.04" x2="6.75" y2="19.71"/>
      <path class="cls-1" d="m.42,11.24c0,2.75,2.36,5.25,6.18,7.1l.11-.07,16.08-8.67.09,1.41L6.66,19.69C2.8,17.84.42,15.33.42,12.56v-1.32Zm22.38-6.25L6.7,13.67C2.84,11.81.39,9.32.38,6.55.12,4.41.26,2.33.66,1.08l22.22-.07-.09,3.98Zm0,0L6.7,13.67C2.84,11.81.39,9.32.38,6.55.12,4.41.26,2.33.66,1.08l22.22-.07-.09,3.98ZM.42,11.24c0,2.75,2.36,5.25,6.18,7.1l.11-.07,16.08-8.67.09,1.41L6.66,19.69C2.8,17.84.42,15.33.42,12.56v-1.32Zm22.38-6.25L6.7,13.67C2.84,11.81.39,9.32.38,6.55.12,4.41.26,2.33.66,1.08l22.22-.07-.09,3.98ZM.42,11.24c0,2.75,2.36,5.25,6.18,7.1l.11-.07,16.08-8.67.09,1.41L6.66,19.69C2.8,17.84.42,15.33.42,12.56v-1.32Z"/>
      <path class="cls-4" d="m.42,11.24c0,2.75,2.36,5.25,6.18,7.1l.11-.07,16.08-8.67.09,1.41L6.66,19.69C2.8,17.84.42,15.33.42,12.56v-1.32Zm22.38-6.25L6.7,13.67C2.84,11.81.39,9.32.38,6.55.12,4.41.26,2.33.66,1.08l22.22-.07-.09,3.98Zm0,0L6.7,13.67C2.84,11.81.39,9.32.38,6.55.12,4.41.26,2.33.66,1.08l22.22-.07-.09,3.98ZM.42,11.24c0,2.75,2.36,5.25,6.18,7.1l.11-.07,16.08-8.67.09,1.41L6.66,19.69C2.8,17.84.42,15.33.42,12.56v-1.32Zm22.38-6.25L6.7,13.67C2.84,11.81.39,9.32.38,6.55.12,4.41.26,2.33.66,1.08l22.22-.07-.09,3.98ZM.42,11.24c0,2.75,2.36,5.25,6.18,7.1l.11-.07,16.08-8.67.09,1.41L6.66,19.69C2.8,17.84.42,15.33.42,12.56v-1.32Z"/>
      <path class="cls-4" d="m22.79,1.1L6.7,9.74C2.84,7.88.39,5.39.38,2.62v.04l.31-1.53c-.14.48-.22.97-.22,1.46"/>
      <path class="cls-4" d="m6.61,23.04C2.82,21.18.47,18.66.47,15.88l-.05-9.34c-.27-2.13-.12-4.21.28-5.46l22.22-.07v13.29L6.61,23.04Z"/>
      <line class="cls-4" x1="6.75" y1="9.92" x2="6.75" y2="23.03"/>
      <path class="cls-1" d="m.78,1.31c-.04-.46.48-1.04,1.08-1.14-.26.34-.18.54.22.62.38,0,.62.18.63.43.02.03.04.07.03.11.19.05.31.21.29.36.12.12.19.39.05.58.03.5-.85.88-1.6.64-.83-.06-1.27-.47-1.09-1.04.02-.32.16-.51.4-.57Z"/>
      <path class="cls-3" d="m.78,1.31c-.04-.46.48-1.04,1.08-1.14-.26.34-.18.54.22.62.38,0,.62.18.63.43.02.03.04.07.03.11.19.05.31.21.29.36.12.12.19.39.05.58.03.5-.85.88-1.6.64-.83-.06-1.27-.47-1.09-1.04.02-.32.16-.51.4-.57Z"/>
      <path class="cls-3" d="m2.71,1.23c.1.12-.04.42-.23.49-.21.24-.8.35-1.16.12C.24,1.56.97.32,1.86.17c-.26.34-.18.54.22.62.38,0,.62.18.63.43Z"/>
      <path class="cls-3" d="m1.32,1.84c-.63-.61-.21-1.36.51-1.65"/>
      <path class="cls-3" d="m2.46,1.73C1.14,1.99,1.33.36,1.86.18"/>
      <path class="cls-3" d="m2.71,1.24c-.85.37-1.36-.71-.87-1.05"/>
      <path class="cls-3" d="m2.73,1.34c.19.04.32.21.3.37.12.12.19.39.05.58.03.5-.85.88-1.6.64-.83-.06-1.27-.47-1.09-1.04.02-.32.16-.51.4-.56"/>
      <path class="cls-3" d="m3.04,1.72c-.13.29-1.07.59-1.72.13"/>
      <path class="cls-3" d="m3.07,2.28c-.76.49-2.52-.07-2.3-.96"/>
      <path class="cls-3" d="m1.51,2.93c-.86-.24-1.08-1.09-.75-1.59"/>
      <path class="cls-3" d="m.77,1.32s-.36.24-.38.57"/>
      <path class="cls-1" d="m1.35,3.54c-.04-.46.48-1.04,1.08-1.14-.26.34-.18.54.22.62.38,0,.62.18.63.43.02.03.04.07.03.11.19.05.31.21.29.36.12.12.19.39.05.58.03.5-.85.88-1.6.64-.83-.06-1.27-.47-1.09-1.04.02-.32.16-.51.4-.57Z"/>
      <path class="cls-3" d="m1.35,3.54c-.04-.46.48-1.04,1.08-1.14-.26.34-.18.54.22.62.38,0,.62.18.63.43.02.03.04.07.03.11.19.05.31.21.29.36.12.12.19.39.05.58.03.5-.85.88-1.6.64-.83-.06-1.27-.47-1.09-1.04.02-.32.16-.51.4-.57Z"/>
      <path class="cls-3" d="m3.27,3.46c.1.12-.04.42-.23.49-.21.24-.8.36-1.16.12-1.08-.27-.36-1.52.53-1.66-.26.34-.18.54.22.62.38,0,.62.18.63.43Z"/>
      <path class="cls-3" d="m1.89,4.07c-.63-.61-.21-1.36.51-1.65"/>
      <path class="cls-3" d="m3.02,3.96c-1.32.27-1.12-1.37-.6-1.54"/>
      <path class="cls-3" d="m3.27,3.47c-.85.37-1.36-.71-.87-1.05"/>
      <path class="cls-3" d="m3.3,3.57c.19.04.32.21.3.37.12.12.19.39.05.58.03.5-.85.88-1.6.64-.83-.06-1.27-.47-1.09-1.04.02-.32.16-.51.4-.56"/>
      <path class="cls-3" d="m3.6,3.95c-.13.29-1.07.59-1.72.13"/>
      <path class="cls-3" d="m3.63,4.51c-.76.49-2.52-.07-2.3-.96"/>
      <path class="cls-3" d="m2.07,5.16c-.86-.24-1.08-1.09-.75-1.59"/>
      <path class="cls-3" d="m1.33,3.55s-.36.24-.38.57"/>
      <path class="cls-1" d="m3.31,5.66c-.04-.46.48-1.04,1.08-1.14-.26.34-.18.54.22.62.38,0,.62.18.63.43.02.03.04.07.03.11.19.05.31.21.29.36.12.12.19.39.05.58.03.5-.85.88-1.6.64-.83-.06-1.27-.47-1.09-1.04.02-.32.16-.51.4-.57Z"/>
      <path class="cls-3" d="m3.31,5.66c-.04-.46.48-1.04,1.08-1.14-.26.34-.18.54.22.62.38,0,.62.18.63.43.02.03.04.07.03.11.19.05.31.21.29.36.12.12.19.39.05.58.03.5-.85.88-1.6.64-.83-.06-1.27-.47-1.09-1.04.02-.32.16-.51.4-.57Z"/>
      <path class="cls-3" d="m5.24,5.58c.1.12-.04.42-.23.49-.21.24-.8.35-1.16.12-1.08-.27-.36-1.52.53-1.66-.26.34-.18.54.22.62.38,0,.62.18.63.43Z"/>
      <path class="cls-3" d="m3.86,6.18c-.63-.61-.21-1.36.51-1.65"/>
      <path class="cls-3" d="m4.99,6.07c-1.32.27-1.12-1.37-.6-1.54"/>
      <path class="cls-3" d="m5.24,5.59c-.85.37-1.36-.71-.87-1.05"/>
      <path class="cls-3" d="m5.26,5.69c.19.04.32.21.3.37.12.12.19.39.05.58.03.5-.85.88-1.6.64-.83-.06-1.27-.47-1.09-1.04.02-.32.16-.51.4-.56"/>
      <path class="cls-3" d="m5.57,6.06c-.13.29-1.07.59-1.72.13"/>
      <path class="cls-3" d="m5.6,6.63c-.76.49-2.52-.07-2.3-.96"/>
      <path class="cls-3" d="m4.04,7.27c-.86-.25-1.08-1.09-.75-1.59"/>
      <path class="cls-3" d="m3.3,5.67s-.36.24-.38.57"/>
      <path class="cls-1" d="m5.73,7.36c-.04-.46.48-1.04,1.08-1.14-.26.34-.18.54.22.62.38,0,.62.18.63.43.02.03.04.07.03.11.19.05.31.21.29.36.12.12.19.39.05.58.03.5-.85.88-1.6.64-.83-.06-1.27-.47-1.09-1.04.02-.32.16-.51.4-.57Z"/>
      <path class="cls-3" d="m5.73,7.36c-.04-.46.48-1.04,1.08-1.14-.26.34-.18.54.22.62.38,0,.62.18.63.43.02.03.04.07.03.11.19.05.31.21.29.36.12.12.19.39.05.58.03.5-.85.88-1.6.64-.83-.06-1.27-.47-1.09-1.04.02-.32.16-.51.4-.57Z"/>
      <path class="cls-3" d="m7.66,7.28c.1.12-.04.42-.23.49-.21.24-.8.35-1.16.12-1.08-.27-.36-1.52.53-1.66-.26.34-.18.54.22.62.38,0,.62.18.63.43Z"/>
      <path class="cls-3" d="m6.27,7.88c-.63-.61-.21-1.36.51-1.65"/>
      <path class="cls-3" d="m7.41,7.77c-1.32.27-1.12-1.37-.6-1.54"/>
      <path class="cls-3" d="m7.66,7.29c-.85.37-1.36-.71-.87-1.05"/>
      <path class="cls-3" d="m7.68,7.39c.19.04.32.21.3.37.12.12.19.39.05.58.03.5-.85.88-1.6.64-.83-.06-1.27-.47-1.09-1.04.02-.32.16-.51.4-.56"/>
      <path class="cls-3" d="m7.99,7.76c-.13.29-1.07.59-1.72.13"/>
      <path class="cls-3" d="m8.02,8.33c-.76.49-2.52-.07-2.3-.96"/>
      <path class="cls-3" d="m6.46,8.97c-.86-.25-1.08-1.09-.75-1.59"/>
      <path class="cls-3" d="m5.72,7.37s-.36.24-.38.57"/>
    </g>
  </g>
</svg>