<?xml version="1.0" encoding="UTF-8"?>
<svg id="Layer_2" data-name="Layer 2" xmlns="http://www.w3.org/2000/svg" viewBox="0 0 14.86 23.57">
  <defs>
    <style>
      .cls-1 {
        fill: #5d4647;
      }

      .cls-1, .cls-2 {
        fill-rule: evenodd;
        stroke-width: 0px;
      }

      .cls-2 {
        fill: #934f46;
      }

      .cls-3 {
        stroke-width: .25px;
      }

      .cls-3, .cls-4 {
        fill: none;
        stroke: #231f20;
        stroke-miterlimit: 3.86;
      }

      .cls-4 {
        stroke-width: .5px;
      }
    </style>
  </defs>
  <g id="Layer_1-2" data-name="Layer 1">
    <g>
      <path class="cls-2" d="m14.58,23.19L.25,16.87V3.58c3.82-1.47,8.72-2.35,14.06-2.35l.3.15v8.62l-.03,13.19Z"/>
      <path class="cls-4" d="m14.58,23.19L.25,16.87V3.58c3.82-1.47,8.72-2.35,14.06-2.35l.3.15v8.62l-.03,13.19Z"/>
      <line class="cls-4" x1=".25" y1="13.78" x2=".25" y2="12.36"/>
      <line class="cls-4" x1="14.59" y1="18.68" x2="14.59" y2="20.04"/>
      <path class="cls-1" d="m14.58,13.82L.25,7.48v-3.9c3.82-1.47,8.72-2.35,14.06-2.35l.3.15v8.62l-.03,3.82Zm0,4.84L.25,12.34v1.44l14.33,6.32v-1.44Zm0,0L.25,12.34v1.44l14.33,6.32v-1.44Zm0-4.84L.25,7.48v-3.9c3.82-1.47,8.72-2.35,14.06-2.35l.3.15v8.62l-.03,3.82Zm0,4.84L.25,12.34v1.44l14.33,6.32v-1.44Zm0-4.84L.25,7.48v-3.9c3.82-1.47,8.72-2.35,14.06-2.35l.3.15v8.62l-.03,3.82Z"/>
      <path class="cls-4" d="m14.58,13.82L.25,7.48v-3.9c3.82-1.47,8.72-2.35,14.06-2.35l.3.15v8.62l-.03,3.82Zm0,4.84L.25,12.34v1.44l14.33,6.32v-1.44Zm0,0L.25,12.34v1.44l14.33,6.32v-1.44Zm0-4.84L.25,7.48v-3.9c3.82-1.47,8.72-2.35,14.06-2.35l.3.15v8.62l-.03,3.82Zm0,4.84L.25,12.34v1.44l14.33,6.32v-1.44Zm0-4.84L.25,7.48v-3.9c3.82-1.47,8.72-2.35,14.06-2.35l.3.15v8.62l-.03,3.82Z"/>
      <path class="cls-4" d="m14.58,23.19L.25,16.87V3.58c3.82-1.47,8.72-2.35,14.06-2.35l.3.15v8.62l-.03,13.19Z"/>
      <line class="cls-4" x1="14.58" y1="9.96" x2=".25" y2="3.65"/>
      <path class="cls-1" d="m11.89,1.31c-.04-.46.48-1.04,1.08-1.14-.26.34-.18.54.22.62.38,0,.62.18.63.43.02.03.04.07.03.11.19.05.31.21.29.36.12.12.19.39.05.58.03.5-.85.88-1.6.64-.83-.06-1.27-.47-1.09-1.04.02-.32.16-.51.4-.57Z"/>
      <path class="cls-3" d="m11.89,1.31c-.04-.46.48-1.04,1.08-1.14-.26.34-.18.54.22.62.38,0,.62.18.63.43.02.03.04.07.03.11.19.05.31.21.29.36.12.12.19.39.05.58.03.5-.85.88-1.6.64-.83-.06-1.27-.47-1.09-1.04.02-.32.16-.51.4-.57Z"/>
      <path class="cls-3" d="m13.82,1.23c.1.12-.04.42-.23.49-.21.24-.8.35-1.16.12-1.08-.27-.36-1.52.53-1.66-.26.34-.18.54.22.62.38,0,.62.18.63.43Z"/>
      <path class="cls-3" d="m12.44,1.84c-.63-.61-.21-1.36.51-1.65"/>
      <path class="cls-3" d="m13.57,1.73c-1.32.27-1.12-1.37-.6-1.54"/>
      <path class="cls-3" d="m13.82,1.24c-.85.37-1.36-.71-.87-1.05"/>
      <path class="cls-3" d="m13.84,1.34c.19.04.32.21.3.37.12.12.19.39.05.58.03.5-.85.88-1.6.64-.83-.06-1.27-.47-1.09-1.04.02-.32.16-.51.4-.56"/>
      <path class="cls-3" d="m14.15,1.72c-.13.29-1.07.59-1.72.13"/>
      <path class="cls-3" d="m14.18,2.28c-.76.49-2.52-.07-2.3-.96"/>
      <path class="cls-3" d="m12.62,2.93c-.86-.25-1.08-1.09-.75-1.59"/>
      <path class="cls-3" d="m11.88,1.32s-.36.24-.38.57"/>
      <path class="cls-1" d="m8.65,1.5c-.04-.46.48-1.04,1.08-1.14-.26.34-.18.54.22.62.38,0,.62.18.63.43.02.03.04.07.03.11.19.05.31.21.29.36.12.12.19.39.05.58.03.5-.85.88-1.6.64-.83-.06-1.27-.47-1.09-1.04.02-.32.16-.51.4-.57Z"/>
      <path class="cls-3" d="m8.65,1.5c-.04-.46.48-1.04,1.08-1.14-.26.34-.18.54.22.62.38,0,.62.18.63.43.02.03.04.07.03.11.19.05.31.21.29.36.12.12.19.39.05.58.03.5-.85.88-1.6.64-.83-.06-1.27-.47-1.09-1.04.02-.32.16-.51.4-.57Z"/>
      <path class="cls-3" d="m10.57,1.42c.1.12-.04.42-.23.49-.21.24-.8.35-1.16.12-1.08-.27-.36-1.52.53-1.66-.26.34-.18.54.22.62.38,0,.62.18.63.43Z"/>
      <path class="cls-3" d="m9.19,2.03c-.63-.61-.21-1.36.51-1.65"/>
      <path class="cls-3" d="m10.32,1.92c-1.32.27-1.12-1.37-.6-1.54"/>
      <path class="cls-3" d="m10.57,1.43c-.85.37-1.36-.71-.87-1.05"/>
      <path class="cls-3" d="m10.59,1.53c.19.04.32.21.3.37.12.12.19.39.05.58.03.5-.85.88-1.6.64-.83-.06-1.27-.47-1.09-1.04.02-.32.16-.51.4-.56"/>
      <path class="cls-3" d="m10.9,1.91c-.13.29-1.07.59-1.72.13"/>
      <path class="cls-3" d="m10.93,2.47c-.76.49-2.52-.07-2.3-.96"/>
      <path class="cls-3" d="m9.37,3.12c-.86-.25-1.08-1.09-.75-1.59"/>
      <path class="cls-3" d="m8.63,1.51s-.36.24-.38.57"/>
      <path class="cls-1" d="m5.24,2.07c-.04-.46.48-1.04,1.08-1.14-.26.34-.18.54.22.62.38,0,.62.18.63.43.02.03.04.07.03.11.19.05.31.21.29.36.12.12.19.39.05.58.03.5-.85.88-1.6.64-.83-.06-1.27-.47-1.09-1.04.02-.32.16-.51.4-.57Z"/>
      <path class="cls-3" d="m5.24,2.07c-.04-.46.48-1.04,1.08-1.14-.26.34-.18.54.22.62.38,0,.62.18.63.43.02.03.04.07.03.11.19.05.31.21.29.36.12.12.19.39.05.58.03.5-.85.88-1.6.64-.83-.06-1.27-.47-1.09-1.04.02-.32.16-.51.4-.57Z"/>
      <path class="cls-3" d="m7.17,1.99c.1.12-.04.42-.23.49-.21.24-.8.35-1.16.12-1.08-.27-.36-1.52.53-1.66-.26.34-.18.54.22.62.38,0,.62.18.63.43Z"/>
      <path class="cls-3" d="m5.79,2.59c-.63-.61-.21-1.36.51-1.65"/>
      <path class="cls-3" d="m6.92,2.48c-1.32.27-1.12-1.37-.6-1.54"/>
      <path class="cls-3" d="m7.17,2c-.85.37-1.36-.71-.87-1.05"/>
      <path class="cls-3" d="m7.19,2.1c.19.04.32.21.3.37.12.12.19.39.05.58.03.5-.85.88-1.6.64-.83-.06-1.27-.47-1.09-1.04.02-.32.16-.51.4-.56"/>
      <path class="cls-3" d="m7.5,2.47c-.13.29-1.07.59-1.72.13"/>
      <path class="cls-3" d="m7.53,3.04c-.76.49-2.52-.07-2.3-.96"/>
      <path class="cls-3" d="m5.97,3.68c-.86-.25-1.08-1.09-.75-1.59"/>
      <path class="cls-3" d="m5.23,2.08s-.36.24-.38.57"/>
      <path class="cls-1" d="m1.77,2.79c-.04-.46.48-1.04,1.08-1.14-.26.34-.18.54.22.62.38,0,.62.18.63.43.02.03.04.07.03.11.19.05.31.21.29.36.12.12.19.39.05.58.03.5-.85.88-1.6.64-.83-.06-1.27-.47-1.09-1.04.02-.32.16-.51.4-.57Z"/>
      <path class="cls-3" d="m1.77,2.79c-.04-.46.48-1.04,1.08-1.14-.26.34-.18.54.22.62.38,0,.62.18.63.43.02.03.04.07.03.11.19.05.31.21.29.36.12.12.19.39.05.58.03.5-.85.88-1.6.64-.83-.06-1.27-.47-1.09-1.04.02-.32.16-.51.4-.57Z"/>
      <path class="cls-3" d="m3.7,2.71c.1.12-.04.42-.23.49-.21.24-.8.35-1.16.12-1.08-.27-.36-1.52.53-1.66-.26.34-.18.54.22.62.38,0,.62.18.63.43Z"/>
      <path class="cls-3" d="m2.31,3.31c-.63-.61-.21-1.36.51-1.65"/>
      <path class="cls-3" d="m3.44,3.2c-1.32.27-1.12-1.37-.6-1.54"/>
      <path class="cls-3" d="m3.69,2.72c-.85.37-1.36-.71-.87-1.05"/>
      <path class="cls-3" d="m3.72,2.81c.19.04.32.21.3.37.12.12.19.39.05.58.03.5-.85.88-1.6.64-.83-.06-1.27-.47-1.09-1.04.02-.32.16-.51.4-.56"/>
      <path class="cls-3" d="m4.02,3.19c-.13.29-1.07.59-1.72.13"/>
      <path class="cls-3" d="m4.05,3.76c-.76.49-2.52-.07-2.3-.96"/>
      <path class="cls-3" d="m2.49,4.4c-.86-.25-1.08-1.09-.75-1.59"/>
      <path class="cls-3" d="m1.75,2.8s-.36.24-.38.57"/>
    </g>
  </g>
</svg>