<?xml version="1.0" encoding="UTF-8"?>
<svg id="Layer_2" data-name="Layer 2" xmlns="http://www.w3.org/2000/svg" viewBox="0 0 37.96 27.14">
  <defs>
    <style>
      .cls-1 {
        fill: #dbd095;
      }

      .cls-1, .cls-2, .cls-3 {
        stroke-width: 0px;
      }

      .cls-4, .cls-5, .cls-6, .cls-7, .cls-8 {
        fill: none;
        stroke-miterlimit: 3.86;
      }

      .cls-4, .cls-6 {
        stroke: #6d4b33;
      }

      .cls-4, .cls-8 {
        stroke-width: .25px;
      }

      .cls-2 {
        fill: #f7d58c;
      }

      .cls-5 {
        stroke: #858230;
      }

      .cls-5, .cls-7 {
        stroke-width: .5px;
      }

      .cls-7, .cls-8 {
        stroke: #1f0000;
      }

      .cls-3 {
        fill: #752c1c;
      }
    </style>
  </defs>
  <g id="Layer_1-2" data-name="Layer 1">
    <g>
      <path class="cls-2" d="m37.16,5.1c.14-.06.29.04.23.27l-1.52,5.15c-.02.11-.05.21-.1.32l-.29.99s.04.1.02.18c-.04.23-.14.46-.28.69l-.17.56c.07.03.11.1.09.23-.06.32-.2.63-.43.94l-.09.31c.1,0,.19.07.16.24-.07.39-.26.78-.57,1.15.1.06.24.13.21.34-.07.46-.32.91-.71,1.35.14-.16.38-.13.34.14-.07.44-.28.87-.62,1.28.13-.07.28,0,.25.21-.06.44-.26.86-.58,1.27.12-.04.24.03.21.22-.06.44-.25.86-.54,1.26.11-.02.2.06.18.23-.05.41-.22.81-.46,1.18-1.64,1.74-7.13,3.03-13.68,3.03-7.61,0-13.93-1.73-14.21-3.91-.05-.26.23-.37.4-.26-.45-.3-.73-.67-.82-1.1-.04-.2.13-.32.28-.3-.4-.38-.63-.69-.7-1.06-.03-.16.07-.27.18-.3l-.11-.28c-.26-.23-.44-.49-.5-.79-.03-.12.02-.21.1-.26l-.19-.5c-.17-.18-.28-.38-.33-.6-.02-.08,0-.14.03-.19l-.34-.89c-.05-.09-.09-.18-.11-.28l-1.77-4.62c-.06-.17.04-.3.17-.34l.23.72s-.01-.05-.01-.09c0-.09,0-.19.02-.28l-.67-1.47c-.1-.32.4-.48.49-.16l.43.67c.09-.23.21-.45.35-.67l-.48-.98c-.09-.32.41-.47.5-.15l.38.59c.16-.21.35-.41.55-.61l-.4-.8c-.08-.32.42-.47.5-.14l.33.53c.2-.18.42-.36.65-.53l-.34-.69c-.08-.33.43-.46.5-.13l.3.49c.23-.16.47-.31.72-.47l-.3-.61c-.07-.33.43-.45.5-.12l.26.45c.24-.14.5-.28.76-.41l-.26-.55c-.06-.33.44-.44.51-.12l.23.42c.25-.12.52-.25.79-.37l-.22-.49c-.06-.33.45-.44.51-.11l.2.39c.26-.11.53-.22.81-.32l-.19-.45c-.05-.33.46-.43.51-.1l.18.36c.27-.1.54-.19.82-.29l-.16-.41c-.05-.33.46-.42.51-.09l.15.33c.27-.09.55-.17.83-.25l-.14-.37c-.04-.33.47-.41.51-.08l.13.31c.28-.08.56-.15.85-.22l-.11-.34c-.03-.34.48-.41.51-.07l.11.28c.28-.07.57-.13.85-.19l-.09-.3c-.03-.34.49-.4.51-.06l.09.26c.28-.06.57-.11.86-.17l-.07-.27c-.02-.34.49-.39.51-.05l.07.23c.29-.05.57-.09.86-.14l-.05-.49c-.02-.34.5-.38.51-.04l.05.46c.16-.02.32-.04.49-.06.19-.02.38-.05.56-.07l-.03-.47c0-.34.51-.37.52-.03l.03.45c.35-.04.7-.07,1.05-.1v-.46c-.01-.34.5-.36.51-.02v.45c.36-.03.71-.05,1.06-.07v-.45c.02-.34.53-.35.53-.01v.44c.34-.02.69-.03,1.04-.04l.03-.45c.01-.34.53-.34.52,0l-.03.44c.35,0,.7,0,1.05,0l.05-.44c.02-.34.53-.33.51,0l-.05.44c.35,0,.7.02,1.05.04l.07-.43c.03-.34.54-.32.51.02l-.07.44c.35.02.7.05,1.04.08l.09-.43c.03-.34.55-.31.51.03l-.09.45c.35.04.69.08,1.03.13l.11-.43c.04-.34.55-.3.51.04l-.12.47c.35.06.69.12,1.01.19l.14-.57c.05-.34.56-.16.51.18l-.14.5c.34.08.67.17.99.26l.16-.6c.06-.34.56-.15.51.19l-.18.56c.33.11.65.23.95.36l.2-.53c.06-.33.57-.26.51.07l-.23.68c.32.16.6.33.86.52l.25-.66c.07-.33.58-.25.5.08l-.31.93c.28.25.51.52.69.81l.36-1c.08-.33.58-.24.5.1l-.42,1.28.49-1Z"/>
      <path class="cls-1" d="m4.56,11.87s.17.07.21.18l.19.64c.37.05.76.1,1.18.14l-.06-.24c-.09-.33.4-.46.49-.13l.11.42c.39.03.8.06,1.23.08-.09-.39.41-.5.48-.17l.04.19,1.17.03c.16-.23.57-.27.63.03l.25,1.36,1.26-.02-.16-1.09c-.05-.33.45-.41.5-.07l.17,1.14,1.29-.05-.1-.91c-.04-.34.47-.39.5-.05l.1.94,1.31-.08-.06-.76c-.02-.34.48-.37.51-.04l.06.77,1.33-.1-.02-.63c-.01-.34.49-.36.51-.02l.02.61c.61-.05,1.18-.11,1.69-.17v-.44c0-.34.51-.34.51,0v.38s.54-.07.54-.07l.64-.15v-.38c0-.34.44-.49.44-.15v.44c.43-.1.92-.21,1.45-.34l.02-.61c.01-.34.45-.48.44-.13l-.02.64,1.15-.3.05-.78c.02-.34.46-.46.44-.12l-.05.78,1.13-.32.09-.98c.03-.35.47-.44.43-.1l-.09.94,1.11-.34.14-1.19c.04-.35.47-.43.43-.08l-.14,1.13,1.08-.36.22-1.44c.05-.32.4-.39.43-.15l1.12-.45.04-.21c.06-.35.49-.39.43-.04.36-.08.71-.23,1.05-.38l.06-.27-.06.25c-.42-1.35-1.2-2.53-2.22-3.41.96.84,1.52,1.43.92,2.81s-3.92-3.73-4.64.6c-.37,2.19-4.46-4.04-5.06-1.45-.17.75.42,2.05-.66,2.11-1.24.07-1.08-.3-1.39-2.17s-2.29-1.63-2.41.6c-.09,1.74-.04,2.83-1.81,2.83-1.51,0-.48-3.92-1.69-3.98s-.48,1.93-1.87,2.53-.24-1.87-.6-2.59-1.14,1.14-1.75,2.77-1.39,1.87-1.45.36c-.05-1.34,1.71-3.82,2.26-4.47-2.97,1.36-5.19,4.15-5.77,7.52l.22-.88Z"/>
      <path class="cls-6" d="m1.17,11.69s-.01-.05-.01-.09c0-.09,0-.19.02-.28l-.67-1.47c-.1-.32.4-.48.49-.16l.43.67c.09-.23.21-.45.35-.67l-.48-.98c-.09-.32.41-.47.5-.15l.38.59c.16-.21.35-.41.55-.61l-.4-.8c-.08-.32.42-.47.5-.14l.33.53c.2-.18.42-.36.65-.53l-.34-.69c-.08-.33.43-.46.5-.13l.3.49c.23-.16.47-.31.72-.47l-.3-.61c-.07-.33.43-.45.5-.12l.26.45c.24-.14.5-.28.76-.41l-.26-.55c-.06-.33.44-.44.51-.12l.23.42c.25-.12.52-.25.79-.37l-.22-.49c-.06-.33.45-.44.51-.11l.2.39c.26-.11.53-.22.81-.32l-.19-.45c-.05-.33.46-.43.51-.1l.18.36c.27-.1.54-.19.82-.29l-.16-.41c-.05-.33.46-.42.51-.09l.15.33c.27-.09.55-.17.83-.25l-.14-.37c-.04-.33.47-.41.51-.08l.13.31c.28-.08.56-.15.85-.22l-.11-.34c-.03-.34.48-.41.51-.07l.11.28c.28-.07.57-.13.85-.19l-.09-.3c-.03-.34.49-.4.51-.06l.09.26c.28-.06.57-.11.86-.17l-.07-.27c-.02-.34.49-.39.51-.05l.07.23c.29-.05.57-.09.86-.14l-.05-.49c-.02-.34.5-.38.51-.04l.05.46c.16-.02.32-.04.49-.06.19-.02.38-.05.56-.07l-.03-.47c0-.34.51-.37.52-.03l.03.45c.35-.04.7-.07,1.05-.1v-.46c-.01-.34.5-.36.51-.02v.45c.36-.03.71-.05,1.06-.07v-.45c.02-.34.53-.35.53-.01v.44c.34-.02.69-.03,1.04-.04l.03-.45c.01-.34.53-.34.52,0l-.03.44c.35,0,.7,0,1.05,0l.05-.44c.02-.34.53-.33.51,0l-.05.44c.35,0,.7.02,1.05.04l.07-.43c.03-.34.54-.32.51.02l-.07.44c.35.02.7.05,1.04.08l.09-.43c.03-.34.55-.31.51.03l-.09.45c.35.04.69.08,1.03.13l.11-.43c.04-.34.55-.3.51.04l-.12.47c.35.06.69.12,1.01.19l.14-.57c.05-.34.56-.16.51.18l-.14.5c.34.08.67.17.99.26l.16-.6c.06-.34.56-.15.51.19l-.18.56c.33.11.65.23.95.36l.2-.53c.06-.33.57-.26.51.07l-.23.68c.32.16.6.33.86.52l.25-.66c.07-.33.58-.25.5.08l-.31.93c.28.25.51.52.69.81l.36-1c.08-.33.58-.24.5.1l-.42,1.28"/>
      <path class="cls-4" d="m32.53,23.63s-.05.08-.07.11"/>
      <path class="cls-4" d="m32.57,22.52c-.09.1-.19.2-.29.31l-.25.83c.29-.36.48-.74.54-1.13Z"/>
      <path class="cls-4" d="m31.53,24.17s-.04-.12-.01-.22l.19-.65c-.09.07-.18.14-.28.21l-.25.95c.13-.1.24-.19.36-.29Z"/>
      <path class="cls-4" d="m30.66,24.82l.26-.98c-.13.08-.27.16-.41.24l-.23.97c.13-.08.26-.16.38-.23Z"/>
      <polyline class="cls-4" points="29.9 25.16 30.03 24.35 29.54 24.59 29.39 25.29"/>
      <polyline class="cls-4" points="29.01 25.38 29.07 24.8 28.51 25.04 28.45 25.39"/>
      <polyline class="cls-4" points="28.06 25.61 28.06 25.22 27.45 25.45 27.42 25.67"/>
      <polyline class="cls-4" points="27.01 25.96 27.01 25.6 26.36 25.81 26.33 26"/>
      <path class="cls-4" d="m32.94,20.97c-.06.06-.11.12-.18.18l-.23.78c.22-.3.36-.61.4-.93v-.03Z"/>
      <path class="cls-4" d="m31.92,22.61l.28-.94c-.11.09-.22.17-.34.26l-.25.95c.11-.09.22-.17.32-.26Z"/>
      <path class="cls-4" d="m31.09,23.23l.26-.98c-.15.09-.3.18-.46.27l-.23.97c.15-.09.29-.18.43-.27Z"/>
      <path class="cls-4" d="m30.17,23.77l.23-.98c-.18.09-.36.18-.55.27l-.2.97c.18-.09.35-.17.52-.26Z"/>
      <path class="cls-4" d="m29.19,24.24l.2-.97c-.2.09-.4.17-.61.26l-.17.97c.2-.08.39-.16.58-.25Z"/>
      <path class="cls-4" d="m28.16,24.67l.17-.97c-.22.08-.44.16-.66.24l-.14.96c.21-.08.42-.15.63-.23Z"/>
      <path class="cls-4" d="m27.09,25.06l.14-.96c-.23.08-.46.15-.7.23l-.11.95c.22-.07.45-.14.67-.22Z"/>
      <path class="cls-4" d="m25.98,25.41l.11-.95c-.24.07-.49.14-.73.21l-.09.94c.23-.06.47-.13.7-.2Z"/>
      <path class="cls-4" d="m24.85,25.73l.09-.94c-.25.07-.5.13-.75.19l-.06.93c.24-.06.48-.12.73-.18Z"/>
      <path class="cls-4" d="m23.68,26.01l.06-.93c-.26.06-.52.12-.77.17l-.03.92c.25-.05.5-.1.75-.16Z"/>
      <path class="cls-4" d="m22.5,26.25l.03-.92c-.38.07-.74.14-1.1.19v.9c.35-.05.7-.11,1.07-.18Z"/>
      <path class="cls-4" d="m33.33,19.42l-.06.07-.2.68c.13-.22.21-.44.24-.66,0-.03.01-.06.02-.09Z"/>
      <path class="cls-4" d="m32.41,20.95l.28-.93c-.13.1-.26.2-.4.31l-.25.95c.14-.11.26-.21.38-.32Z"/>
      <path class="cls-4" d="m31.51,21.64l.26-.98c-.17.1-.34.21-.52.31l-.23.97c.17-.1.33-.2.49-.3Z"/>
      <path class="cls-4" d="m30.54,22.21l.23-.98c-.19.1-.39.2-.6.29l-.2.97c.19-.09.38-.19.57-.28Z"/>
      <path class="cls-4" d="m29.51,22.71l.2-.98c-.21.09-.43.19-.66.28l-.17.96c.21-.09.42-.18.63-.27Z"/>
      <path class="cls-4" d="m28.43,23.16l.17-.97c-.23.09-.47.18-.7.26l-.14.96c.23-.08.45-.16.67-.25Z"/>
      <path class="cls-4" d="m27.31,23.56l.14-.96c-.25.08-.49.16-.74.24l-.11.95c.24-.08.48-.15.71-.23Z"/>
      <path class="cls-4" d="m26.16,23.93l.11-.95c-.26.08-.52.15-.77.22l-.09.94c.25-.07.5-.14.75-.21Z"/>
      <path class="cls-4" d="m24.98,24.26l.09-.94c-.27.07-.53.14-.8.2l-.06.93c.26-.06.51-.13.77-.19Z"/>
      <path class="cls-4" d="m23.77,24.56l.06-.93c-.28.06-.55.12-.82.18l-.03.92c.26-.05.53-.11.79-.17Z"/>
      <path class="cls-4" d="m22.55,24.82l.03-.92c-.39.08-.77.15-1.14.21v.9c.36-.06.73-.12,1.11-.2Z"/>
      <path class="cls-4" d="m32.9,19.3l.27-.92c-.14.12-.3.24-.46.36l-.25.95c.16-.13.31-.26.44-.38Z"/>
      <path class="cls-4" d="m31.93,20.06l.26-.98c-.18.11-.37.23-.57.34l-.23.97c.19-.11.37-.22.54-.33Z"/>
      <path class="cls-4" d="m30.91,20.66l.23-.98c-.21.11-.42.21-.65.32l-.2.97c.21-.1.42-.2.62-.31Z"/>
      <path class="cls-4" d="m29.83,21.18l.2-.98c-.23.1-.47.2-.71.3l-.17.97c.23-.09.46-.19.67-.29Z"/>
      <path class="cls-4" d="m28.71,21.64l.17-.97c-.25.09-.5.19-.75.28l-.14.96c.24-.09.49-.18.72-.27Z"/>
      <path class="cls-4" d="m27.54,22.06l.14-.96c-.26.09-.52.17-.79.26l-.11.95c.26-.08.51-.16.76-.25Z"/>
      <path class="cls-4" d="m26.34,22.45l.11-.95c-.27.08-.55.16-.82.24l-.09.94c.26-.07.53-.15.79-.23Z"/>
      <path class="cls-4" d="m25.11,22.8l.09-.94c-.28.08-.56.15-.84.22l-.06.93c.27-.07.54-.14.82-.21Z"/>
      <path class="cls-4" d="m23.86,23.11l.06-.93c-.29.07-.58.13-.86.2l-.03.92c.28-.06.55-.12.84-.19Z"/>
      <path class="cls-4" d="m22.59,23.39l.03-.92c-.4.08-.8.16-1.18.22v.91c.37-.06.76-.13,1.15-.21Z"/>
      <path class="cls-4" d="m33.39,17.64l.27-.91c-.16.14-.34.28-.52.41l-.25.95c.19-.15.36-.3.51-.46Z"/>
      <path class="cls-4" d="m32.36,18.47l.26-.98c-.2.12-.41.25-.62.37l-.23.98c.21-.12.41-.24.59-.36Z"/>
      <path class="cls-4" d="m31.28,19.1l.23-.98c-.22.12-.46.23-.7.34l-.2.97c.23-.11.45-.22.67-.33Z"/>
      <path class="cls-4" d="m30.15,19.64l.2-.98c-.25.11-.5.21-.75.32l-.17.97c.25-.1.49-.2.72-.31Z"/>
      <path class="cls-4" d="m28.98,20.13l.17-.97c-.26.1-.53.2-.8.29l-.14.96c.26-.09.52-.19.77-.28Z"/>
      <path class="cls-4" d="m27.77,20.57l.14-.96c-.28.09-.56.19-.84.27l-.11.95c.27-.09.54-.17.81-.26Z"/>
      <path class="cls-4" d="m26.52,20.97l.11-.95c-.29.09-.58.17-.87.25l-.09.94c.28-.08.56-.16.84-.24Z"/>
      <path class="cls-4" d="m25.25,21.33l.09-.94c-.3.08-.59.16-.89.23l-.06.93c.29-.07.57-.15.86-.22Z"/>
      <path class="cls-4" d="m23.95,21.66l.06-.93c-.31.07-.61.14-.91.21l-.03.92c.29-.06.58-.13.88-.2Z"/>
      <path class="cls-4" d="m22.63,21.95l.03-.92c-.42.09-.83.17-1.22.24v.9c.39-.07.79-.14,1.2-.23Z"/>
      <path class="cls-4" d="m33.88,15.98l.26-.88c-.18.16-.37.31-.59.47l-.25.95c.22-.18.42-.36.58-.53Z"/>
      <path class="cls-4" d="m32.78,16.89l.26-.98c-.21.13-.44.27-.68.4l-.23.98c.23-.13.45-.26.65-.4Z"/>
      <path class="cls-4" d="m31.65,17.55l.23-.98c-.24.12-.49.24-.75.36l-.2.97c.25-.12.49-.23.72-.35Z"/>
      <path class="cls-4" d="m30.48,18.11l.2-.98c-.26.11-.53.23-.8.33l-.17.97c.26-.11.52-.21.77-.32Z"/>
      <path class="cls-4" d="m29.25,18.61l.17-.97c-.28.11-.56.21-.85.31l-.14.96c.28-.1.55-.2.82-.3Z"/>
      <path class="cls-4" d="m27.99,19.07l.14-.96c-.29.1-.59.2-.88.29l-.11.95c.29-.09.57-.18.85-.28Z"/>
      <path class="cls-4" d="m26.7,19.48l.11-.95c-.3.09-.61.18-.91.27l-.09.94c.3-.08.59-.17.88-.26Z"/>
      <path class="cls-4" d="m25.38,19.87l.09-.94c-.31.09-.62.17-.93.25l-.06.93c.3-.08.6-.16.91-.24Z"/>
      <path class="cls-4" d="m24.04,20.21l.06-.93c-.32.08-.64.15-.95.22l-.03.92c.31-.07.61-.14.92-.21Z"/>
      <path class="cls-4" d="m22.68,20.52l.03-.92c-.43.09-.86.18-1.27.26v.9c.4-.07.82-.15,1.24-.24Z"/>
      <path class="cls-4" d="m34.38,14.31l.25-.85c-.19.18-.41.35-.65.53l-.25.95c.26-.21.48-.42.65-.63Z"/>
      <path class="cls-4" d="m33.2,15.31l.26-.98c-.23.14-.47.29-.73.43l-.23.98c.25-.14.48-.28.7-.43Z"/>
      <path class="cls-4" d="m32.02,16l.23-.98c-.26.13-.52.26-.8.38l-.2.97c.27-.12.52-.25.77-.37Z"/>
      <path class="cls-4" d="m30.8,16.58l.2-.98c-.28.12-.56.24-.85.35l-.17.96c.28-.11.55-.23.82-.34Z"/>
      <path class="cls-4" d="m29.52,17.1l.17-.97c-.29.11-.59.22-.89.33l-.14.96c.29-.1.58-.21.86-.32Z"/>
      <path class="cls-4" d="m28.22,17.57l.14-.96c-.31.1-.62.21-.93.31l-.11.95c.3-.1.6-.2.9-.3Z"/>
      <path class="cls-4" d="m26.88,18l.11-.95c-.32.1-.64.19-.96.28l-.09.94c.31-.09.62-.18.93-.27Z"/>
      <path class="cls-4" d="m25.51,18.4l.09-.94c-.33.09-.65.18-.98.26l-.06.93c.32-.08.63-.17.95-.25Z"/>
      <path class="cls-4" d="m24.13,18.76l.06-.93c-.34.08-.67.16-1,.24l-.03.92c.32-.07.64-.15.97-.23Z"/>
      <path class="cls-4" d="m22.72,19.09l.03-.91c-.45.1-.89.19-1.31.27v.9c.42-.08.85-.16,1.28-.26Z"/>
      <path class="cls-4" d="m34.88,12.6l.24-.79c-.21.2-.45.4-.71.59l-.25.95c.31-.25.56-.5.73-.75Z"/>
      <path class="cls-4" d="m33.63,13.73l.26-.98c-.24.15-.5.31-.78.46l-.23.98c.27-.15.52-.3.75-.46Z"/>
      <path class="cls-4" d="m32.39,14.44l.24-.99c-.27.14-.55.27-.85.41l-.2.98c.28-.13.56-.26.81-.39Z"/>
      <path class="cls-4" d="m31.12,15.05l.2-.98c-.29.13-.59.25-.9.37l-.17.97c.3-.12.59-.24.87-.36Z"/>
      <path class="cls-4" d="m29.8,15.58l.17-.97c-.31.12-.62.23-.94.35l-.14.95c.31-.11.61-.22.91-.33Z"/>
      <path class="cls-4" d="m28.44,16.07l.14-.95c-.32.11-.65.22-.98.32l-.11.94c.32-.1.63-.21.95-.31Z"/>
      <path class="cls-4" d="m27.06,16.52l.11-.94c-.33.1-.67.2-1,.3l-.08.93c.33-.09.65-.19.97-.29Z"/>
      <path class="cls-4" d="m25.65,16.94l.09-.93c-.34.1-.69.19-1.02.28l-.06.92c.33-.09.66-.18,1-.27Z"/>
      <path class="cls-4" d="m24.21,17.32l.06-.92c-.35.09-.7.17-1.04.25l-.03.91c.33-.08.67-.16,1.01-.24Z"/>
      <path class="cls-4" d="m22.76,17.66l.03-.91c-.47.11-.92.2-1.35.29v.9c.43-.08.87-.18,1.32-.28Z"/>
      <path class="cls-4" d="m35.42,10.8l.19-.63c-.22.22-.48.44-.78.66l-.26.95c.41-.33.71-.66.85-.98Z"/>
      <path class="cls-4" d="m34.05,12.15l.26-.99c-.26.16-.54.33-.83.49l-.23.98c.29-.16.56-.32.8-.48Z"/>
      <path class="cls-4" d="m32.76,12.89l.24-.99c-.29.14-.59.29-.9.43l-.2.98c.3-.14.59-.28.86-.42Z"/>
      <path class="cls-4" d="m31.44,13.51l.2-.98c-.31.13-.62.26-.95.39l-.17.97c.31-.12.62-.25.92-.38Z"/>
      <path class="cls-4" d="m30.07,14.07l.17-.97c-.32.12-.65.24-.99.36l-.14.96c.33-.12.65-.23.96-.35Z"/>
      <path class="cls-4" d="m28.67,14.57l.14-.96c-.34.12-.68.23-1.02.34l-.11.95c.33-.11.67-.22.99-.33Z"/>
      <path class="cls-4" d="m27.24,15.04l.11-.95c-.35.11-.7.21-1.05.32l-.09.94c.34-.1.68-.2,1.02-.31Z"/>
      <path class="cls-4" d="m25.78,15.47l.09-.94c-.36.1-.72.2-1.07.29l-.06.93c.35-.09.69-.19,1.04-.28Z"/>
      <path class="cls-4" d="m24.3,15.87l.06-.93c-.37.09-.73.19-1.09.27l-.03.92c.35-.08.7-.17,1.06-.26Z"/>
      <path class="cls-4" d="m22.81,16.23l.03-.91c-.48.11-.95.21-1.4.3v.9c.44-.09.9-.18,1.37-.29Z"/>
      <path class="cls-4" d="m36,8.83l.09-.32c-.23.25-.51.49-.85.74l-.25.95c.41-.34.69-.67.83-1.01.02-.05.03-.09.04-.13.02-.11.08-.18.14-.23Z"/>
      <path class="cls-4" d="m34.47,10.58l.26-.99c-.27.17-.57.34-.89.51l-.24.99c.31-.17.6-.34.86-.52Z"/>
      <path class="cls-4" d="m33.13,11.35l.24-1c-.3.15-.62.3-.94.45l-.21.98c.32-.14.62-.29.91-.43Z"/>
      <path class="cls-4" d="m31.76,11.99l.21-.98c-.32.14-.65.27-.99.41l-.17.97c.33-.13.65-.26.96-.39Z"/>
      <path class="cls-4" d="m30.34,12.55l.17-.96c-.34.13-.68.26-1.04.38l-.14.95c.34-.12.68-.24,1-.36Z"/>
      <path class="cls-4" d="m28.9,13.06l.14-.94c-.35.12-.71.24-1.07.35l-.11.93c.35-.11.69-.22,1.04-.34Z"/>
      <path class="cls-4" d="m27.42,13.54l.11-.93c-.36.11-.73.22-1.09.33l-.08.91c.35-.1.71-.21,1.07-.32Z"/>
      <path class="cls-4" d="m25.91,13.98l.08-.91c-.37.11-.75.21-1.11.31l-.05.9c.36-.1.72-.2,1.09-.3Z"/>
      <path class="cls-4" d="m24.39,14.4l.05-.9c-.38.1-.76.2-1.13.29l-.03.9c.35-.09.72-.18,1.1-.28Z"/>
      <path class="cls-4" d="m22.85,14.79l.03-.9c-.5.12-.98.23-1.44.32v.89c.43-.09.9-.2,1.41-.32Z"/>
      <path class="cls-4" d="m36.44,7.33l.15-.5c-.23.28-.55.55-.92.82l-.26.97c.38-.31.64-.63.77-.93.06-.15.16-.28.26-.36Z"/>
      <path class="cls-4" d="m34.89,9.01l.27-1.01c-.29.19-.61.37-.94.55l-.24,1.01c.33-.18.64-.36.91-.55Z"/>
      <path class="cls-4" d="m33.5,9.8l.24-1.01c-.33.16-.66.32-1,.47l-.21.99c.34-.15.66-.3.96-.45Z"/>
      <path class="cls-4" d="m32.08,10.46l.21-.99c-.36.16-.71.3-1.04.43l-.17.96c.35-.13.68-.27,1.01-.41Z"/>
      <path class="cls-4" d="m30.62,11.03l.17-.96c-.33.13-.64.24-.9.34-.07.03-.13.01-.17-.02l-.15,1.02c.36-.12.71-.25,1.05-.38Z"/>
      <path class="cls-4" d="m8.69,14.59c.4,0,.81.01,1.22.01l-.18-.97s-.11.08-.19.08c-.31,0-.66-.01-1.05-.02l.2.9Z"/>
      <path class="cls-4" d="m6.99,14.52c.38.02.77.04,1.17.06l-.2-.9c-.39-.02-.79-.04-1.21-.07l.24.92Z"/>
      <path class="cls-4" d="m5.34,14.37c.35.05.73.09,1.12.12l-.24-.92c-.39-.03-.77-.08-1.15-.13l.28.93Z"/>
      <path class="cls-4" d="m3.73,14.05c.32.09.67.17,1.06.23l-.28-.93c-.38-.06-.75-.13-1.09-.22l.31.92Z"/>
      <path class="cls-4" d="m1.93,12.91c.11.04.23.14.3.27.15.26.46.48.9.66l-.3-.88c-.43-.14-.79-.3-1.07-.5l.17.44Z"/>
      <path class="cls-4" d="m17.69,15.64c.59-.06,1.14-.11,1.64-.17v-.89c-.53.06-1.09.12-1.67.18l.03.89Z"/>
      <path class="cls-4" d="m15.91,15.79c.44-.03.87-.07,1.28-.1l-.03-.89c-.43.04-.87.07-1.31.11l.06.88Z"/>
      <path class="cls-4" d="m14.14,15.91c.43-.02.85-.05,1.26-.08l-.06-.88c-.43.03-.86.06-1.29.08l.1.88Z"/>
      <path class="cls-4" d="m12.4,15.99c.41-.01.83-.03,1.24-.05l-.1-.88c-.42.02-.85.04-1.27.05l.13.89Z"/>
      <path class="cls-4" d="m10.68,16.02c.4,0,.8-.01,1.2-.02l-.13-.89c-.42,0-.83.02-1.24.02l.16.89Z"/>
      <path class="cls-4" d="m9,16.01c.38,0,.77.01,1.16.01l-.17-.9c-.41,0-.81,0-1.2-.02l.2.9Z"/>
      <path class="cls-4" d="m7.36,15.94c.36.02.73.04,1.12.06l-.2-.9c-.39-.02-.78-.04-1.15-.06l.24.91Z"/>
      <path class="cls-4" d="m5.77,15.79c.34.05.69.08,1.06.12l-.24-.91c-.38-.03-.75-.07-1.1-.12l.28.92Z"/>
      <path class="cls-4" d="m4.22,15.48c.3.08.63.16,1,.22l-.28-.91c-.37-.06-.71-.13-1.03-.21l.31.9Z"/>
      <path class="cls-4" d="m2.44,14.26c.07.02.14.08.16.18,0,.04.02.08.05.12.16.29.49.53.96.72l-.29-.86c-.39-.13-.72-.27-.98-.44l.11.29Z"/>
      <path class="cls-4" d="m17.74,17.08c.54-.06,1.07-.12,1.59-.18v-.9c-.52.06-1.06.12-1.62.18l.03.9Z"/>
      <path class="cls-4" d="m16.01,17.23c.41-.03.82-.07,1.23-.11l-.03-.91c-.41.04-.83.07-1.26.11l.07.91Z"/>
      <path class="cls-4" d="m14.3,17.35c.4-.02.81-.05,1.21-.08l-.07-.91c-.41.03-.82.06-1.24.08l.1.91Z"/>
      <path class="cls-4" d="m12.61,17.42c.39-.01.79-.03,1.18-.05l-.1-.91c-.41.02-.81.04-1.22.05l.13.91Z"/>
      <path class="cls-4" d="m10.95,17.45c.38,0,.76,0,1.15-.02l-.13-.91c-.4,0-.79.02-1.18.02l.17.91Z"/>
      <path class="cls-4" d="m9.32,17.44c.36.01.73.02,1.11.02l-.17-.91c-.39,0-.77,0-1.15-.02l.2.91Z"/>
      <path class="cls-4" d="m7.73,17.36c.34.02.7.04,1.06.06l-.2-.9c-.38-.02-.74-.04-1.1-.06l.24.91Z"/>
      <path class="cls-4" d="m6.2,17.2c.32.04.65.08,1,.11l-.24-.9c-.36-.03-.71-.07-1.04-.12l.27.91Z"/>
      <path class="cls-4" d="m4.71,16.91c.28.08.59.15.93.2l-.27-.9c-.34-.06-.67-.12-.97-.2l.31.89Z"/>
      <path class="cls-4" d="m3.12,16.03c.16.27.5.5.98.69l-.3-.87c-.35-.11-.65-.24-.9-.39l.22.57Z"/>
      <path class="cls-4" d="m17.79,18.49c.52-.06,1.04-.12,1.54-.19v-.9c-.5.06-1.03.13-1.57.18l.03.9Z"/>
      <path class="cls-4" d="m16.11,18.65c.39-.03.79-.07,1.17-.11l-.03-.9c-.4.04-.8.07-1.21.11l.07.9Z"/>
      <path class="cls-4" d="m14.45,18.77c.39-.02.77-.05,1.15-.08l-.07-.91c-.39.03-.79.06-1.19.08l.1.9Z"/>
      <path class="cls-4" d="m12.81,18.84c.37-.01.75-.03,1.13-.05l-.1-.91c-.39.02-.78.04-1.16.05l.13.9Z"/>
      <path class="cls-4" d="m11.21,18.87c.36,0,.73,0,1.1-.02l-.13-.91c-.38,0-.76.02-1.13.02l.17.9Z"/>
      <path class="cls-4" d="m9.64,18.86c.34.01.7.02,1.06.02l-.17-.9c-.37,0-.73,0-1.09-.02l.2.91Z"/>
      <path class="cls-4" d="m8.11,18.78c.32.02.66.04,1.01.06l-.2-.9c-.36-.02-.7-.03-1.04-.06l.24.91Z"/>
      <path class="cls-4" d="m6.63,18.62c.3.04.62.08.94.11l-.24-.9c-.34-.03-.67-.07-.98-.11l.27.9Z"/>
      <path class="cls-4" d="m5.2,18.34c.27.07.56.14.87.19l-.27-.9c-.32-.05-.62-.12-.91-.19l.31.89Z"/>
      <path class="cls-4" d="m3.74,17.65c.2.19.49.35.85.49l-.3-.86c-.31-.1-.59-.22-.83-.34l.27.71Z"/>
      <path class="cls-4" d="m17.84,19.9c.51-.06,1-.12,1.49-.19v-.9c-.49.07-1,.13-1.52.18l.03.91Z"/>
      <path class="cls-4" d="m16.21,20.06c.38-.03.75-.07,1.12-.11l-.03-.91c-.38.04-.77.07-1.16.11l.07.91Z"/>
      <path class="cls-4" d="m14.61,20.18c.37-.02.74-.05,1.1-.08l-.07-.91c-.38.03-.76.06-1.14.08l.1.91Z"/>
      <path class="cls-4" d="m13.02,20.26c.36-.01.72-.03,1.08-.05l-.1-.91c-.37.02-.74.04-1.11.05l.13.91Z"/>
      <path class="cls-4" d="m11.47,20.29c.34,0,.69,0,1.04-.02l-.13-.91c-.36,0-.72.02-1.08.02l.17.91Z"/>
      <path class="cls-4" d="m9.95,20.28c.33,0,.66.02,1,.02l-.17-.91c-.35,0-.7,0-1.04-.02l.2.91Z"/>
      <path class="cls-4" d="m8.48,20.2c.31.02.62.04.95.06l-.2-.9c-.34-.01-.67-.03-.99-.06l.24.9Z"/>
      <path class="cls-4" d="m7.05,20.04c.28.04.58.08.89.11l-.24-.9c-.32-.03-.63-.07-.92-.11l.27.9Z"/>
      <path class="cls-4" d="m5.69,19.77c.25.07.52.13.81.18l-.27-.9c-.3-.05-.58-.11-.84-.18l.3.89Z"/>
      <path class="cls-4" d="m4.33,19.17c.2.15.45.28.76.4l-.3-.86c-.28-.09-.53-.19-.75-.3l.29.76Z"/>
      <path class="cls-4" d="m17.89,21.32c.49-.06.97-.12,1.44-.19v-.9c-.48.07-.97.13-1.47.18l.03.91Z"/>
      <path class="cls-4" d="m16.32,21.48c.36-.03.72-.07,1.07-.11l-.03-.91c-.36.04-.73.07-1.1.11l.07.91Z"/>
      <path class="cls-4" d="m14.76,21.6c.35-.02.7-.05,1.05-.08l-.07-.91c-.36.03-.72.06-1.08.08l.1.91Z"/>
      <path class="cls-4" d="m13.23,21.68c.34-.01.68-.03,1.02-.05l-.1-.91c-.35.02-.71.04-1.06.05l.13.91Z"/>
      <path class="cls-4" d="m11.73,21.71c.33,0,.66,0,.99-.02l-.13-.91c-.34,0-.69.02-1.02.02l.17.91Z"/>
      <path class="cls-4" d="m10.27,21.7c.31,0,.63.02.95.02l-.17-.91c-.33,0-.66,0-.98-.02l.2.91Z"/>
      <path class="cls-4" d="m8.85,21.62c.29.02.59.04.89.06l-.2-.9c-.32-.01-.63-.03-.93-.06l.24.9Z"/>
      <path class="cls-4" d="m7.48,21.47c.26.04.54.07.83.1l-.24-.9c-.3-.03-.59-.06-.87-.1l.27.9Z"/>
      <path class="cls-4" d="m6.18,21.2c.23.06.48.12.75.17l-.27-.9c-.27-.05-.54-.1-.78-.16l.3.89Z"/>
      <path class="cls-4" d="m4.9,20.68c.19.12.41.23.67.33l-.29-.86c-.25-.08-.48-.17-.68-.26l.3.79Z"/>
      <path class="cls-4" d="m17.94,22.73c.47-.06.94-.12,1.39-.19v-.9c-.46.07-.94.13-1.42.19l.03.91Z"/>
      <path class="cls-4" d="m16.42,22.9c.34-.03.68-.07,1.02-.11l-.03-.91c-.35.04-.7.07-1.05.11l.07.91Z"/>
      <path class="cls-4" d="m14.91,23.02c.33-.02.67-.05,1-.08l-.07-.91c-.34.03-.69.05-1.03.08l.1.91Z"/>
      <path class="cls-4" d="m13.44,23.1c.32-.01.65-.03.97-.05l-.1-.91c-.34.02-.67.04-1,.05l.13.91Z"/>
      <path class="cls-4" d="m11.99,23.13c.31,0,.62,0,.94-.02l-.13-.91c-.33,0-.65.01-.97.02l.17.91Z"/>
      <path class="cls-4" d="m10.59,23.12c.29,0,.59.01.89.02l-.17-.91c-.31,0-.62,0-.93-.02l.2.91Z"/>
      <path class="cls-4" d="m9.22,23.04c.27.02.55.04.84.05l-.2-.9c-.3-.01-.59-.03-.87-.05l.24.9Z"/>
      <path class="cls-4" d="m7.91,22.89c.25.04.5.07.77.1l-.24-.9c-.28-.03-.55-.06-.81-.1l.27.9Z"/>
      <path class="cls-4" d="m6.67,22.64c.22.06.45.11.69.16l-.27-.89c-.25-.05-.49-.1-.72-.15l.3.89Z"/>
      <path class="cls-4" d="m5.47,22.17c.17.1.37.19.59.28l-.29-.86c-.22-.07-.42-.15-.61-.23l.31.81Z"/>
      <path class="cls-4" d="m17.99,24.15c.46-.06.9-.12,1.34-.19v-.9c-.44.07-.9.13-1.37.19l.03.91Z"/>
      <path class="cls-4" d="m16.52,24.32c.33-.03.65-.07.97-.1l-.03-.91c-.33.04-.66.07-1,.11l.07.91Z"/>
      <path class="cls-4" d="m15.07,24.44c.32-.02.63-.05.95-.07l-.07-.91c-.33.03-.65.05-.98.08l.1.91Z"/>
      <path class="cls-4" d="m13.65,24.52c.3-.01.61-.03.92-.05l-.1-.91c-.32.02-.63.03-.95.05l.13.91Z"/>
      <path class="cls-4" d="m12.25,24.55c.29,0,.58,0,.88-.02l-.13-.91c-.31,0-.61.01-.92.02l.17.91Z"/>
      <path class="cls-4" d="m10.9,24.54c.27,0,.55.01.84.02l-.17-.91c-.29,0-.59,0-.87-.02l.2.91Z"/>
      <path class="cls-4" d="m9.59,24.46c.25.02.52.04.78.05l-.2-.9c-.28-.01-.55-.03-.82-.05l.24.9Z"/>
      <path class="cls-4" d="m8.34,24.32c.23.04.47.07.71.09l-.24-.9c-.26-.03-.51-.06-.75-.09l.27.9Z"/>
      <path class="cls-4" d="m7.16,24.07c.2.05.41.1.63.14l-.27-.89c-.23-.04-.45-.09-.66-.14l.3.89Z"/>
      <path class="cls-4" d="m6.04,23.65c.15.08.33.16.51.23l-.29-.86c-.19-.06-.37-.13-.54-.2l.32.83Z"/>
      <path class="cls-4" d="m18.04,25.57c.44-.06.87-.12,1.29-.19v-.9c-.43.07-.87.13-1.32.19l.03.91Z"/>
      <path class="cls-4" d="m16.62,25.74c.31-.03.61-.07.92-.1l-.03-.91c-.31.04-.63.07-.95.1l.07.91Z"/>
      <path class="cls-4" d="m15.22,25.86c.3-.02.6-.05.89-.07l-.07-.91c-.31.03-.62.05-.93.07l.1.91Z"/>
      <path class="cls-4" d="m13.85,25.94c.29-.01.58-.03.86-.04l-.1-.91c-.3.02-.6.03-.9.05l.13.91Z"/>
      <path class="cls-4" d="m12.52,25.97c.27,0,.55,0,.83-.02l-.13-.91c-.29,0-.58.01-.86.02l.17.91Z"/>
      <path class="cls-4" d="m11.22,25.96c.26,0,.52.01.78.02l-.17-.91c-.28,0-.55,0-.82-.01l.2.91Z"/>
      <path class="cls-4" d="m9.97,25.88c.24.02.48.04.73.05l-.2-.9c-.26-.01-.51-.03-.76-.05l.24.9Z"/>
      <polyline class="cls-4" points="9.45 25.68 9.19 24.93 8.5 24.84 8.68 25.43"/>
      <path class="cls-4" d="m8.07,25.17l-.13-.42c-.21-.04-.41-.08-.6-.13l.11.32"/>
      <line class="cls-4" x1="7.51" y1="24.95" x2="7.5" y2="24.97"/>
      <path class="cls-4" d="m6.76,24.48s-.07-.04,0,0c-.03-.01-.03-.02-.03-.02,0,0,.03.01.03.02Z"/>
      <path class="cls-4" d="m5.05,22.7s.02.05.03.08c.04.21.13.41.28.58l-.24-.61-.07-.05Z"/>
      <path class="cls-4" d="m19.33,26.58v-.69c-.41.07-.84.13-1.27.19l.02.46"/>
      <polyline class="cls-4" points="17.64 26.65 17.56 26.14 16.66 26.25 16.69 26.64"/>
      <polyline class="cls-4" points="16.24 26.68 16.15 26.3 15.28 26.37 15.29 26.46"/>
      <polyline class="cls-4" points="20.82 26.51 21 26.49 21 25.59 20.72 25.63 20.64 25.66 20.29 25.73 19.84 25.81 19.84 26.53"/>
      <path class="cls-4" d="m19.84,24.39v.04s0,.86,0,.86l.35-.06h.06s.08-.06.13-.07l.3-.04.31-.04v-.9s-1.15.21-1.15.21Z"/>
      <path class="cls-4" d="m20.75,23.7l.25-.04v-.9s-.9.17-1.16.21v.9s.91-.18.91-.18Z"/>
      <path class="cls-4" d="m20.71,21.4s-.07.03-.11.04c-.25.04-.5.08-.76.12v.9c.16-.03.96-.18,1.16-.21v-.9s-.29.05-.29.05Z"/>
      <path class="cls-4" d="m20.67,20s-.07.04-.12.05c-.23.04-.48.08-.72.11v.9c.16-.02.31-.05.47-.08.03-.02.07-.04.11-.05.19-.03.39-.06.58-.09v-.9s-.33.06-.33.06Z"/>
      <path class="cls-4" d="m20.67,18.59s-.07.04-.12.05c-.23.04-.47.07-.71.11v.9c.17-.03.34-.05.51-.08.03-.02.07-.04.11-.04.18-.03.36-.06.55-.09v-.9s-.33.06-.33.06Z"/>
      <path class="cls-4" d="m20.67,17.18s-.07.04-.13.05c-.21.03-.43.06-.64.09h-.06s0,.91,0,.91c.17-.02.35-.05.52-.08.03-.02.06-.04.1-.04.18-.03.36-.06.55-.1v-.9s-.05.01-.05.01l-.28.05Z"/>
      <path class="cls-4" d="m20.67,15.78s-.08.05-.13.05c-.23.03-.47.06-.7.1v.9c.18-.02.35-.05.52-.07.03-.02.06-.03.1-.04.18-.03.36-.06.55-.1v-.9s-.34.07-.34.07Z"/>
      <path class="cls-4" d="m20.66,14.37s-.08.05-.14.06c-.23.03-.46.06-.7.09v.89c.19-.02.37-.05.53-.07.03-.02.06-.03.1-.04.17-.03.35-.07.54-.11v-.89s-.34.07-.34.07Z"/>
      <path class="cls-6" d="m4.66,22.76c-.05-.29.23-.4.39-.29-.45-.3-.73-.67-.82-1.1-.04-.2.13-.32.28-.3-.4-.38-.63-.69-.7-1.06-.03-.16.07-.27.18-.3l-.11-.28c-.26-.23-.44-.49-.5-.79-.03-.12.02-.21.1-.26l-.19-.5c-.17-.18-.28-.38-.33-.6-.02-.08,0-.14.03-.19l-.34-.89c-.05-.09-.09-.18-.11-.28l-1.77-4.62c-.12-.32.35-.5.47-.18l.15.4c.13.01.32.15.41.29.12.2.4.39.81.55l-.15-.44c-.11-.32.37-.48.48-.16l.28.81c.33.09.7.17,1.12.25l-.12-.4c-.1-.32.39-.47.49-.15l.19.64c.37.05.76.1,1.18.14l-.06-.24c-.09-.33.4-.46.49-.13l.11.42c.39.03.8.06,1.23.08-.09-.39.41-.5.48-.17l.04.19,1.17.03c.16-.23.57-.27.63.03l.25,1.36,1.26-.02-.16-1.09c-.05-.33.45-.41.5-.07l.17,1.14,1.29-.05-.1-.91c-.04-.34.47-.39.5-.05l.1.94,1.31-.08-.06-.76c-.02-.34.48-.37.51-.04l.06.77,1.33-.1-.02-.63c-.01-.34.49-.36.51-.02l.02.61c.61-.05,1.18-.11,1.69-.17v-.44c0-.34.51-.34.51,0v.38s.54-.07.54-.07l.64-.15v-.38c0-.34.44-.49.44-.15v.44c.43-.1.92-.21,1.45-.34l.02-.61c.01-.34.45-.48.44-.13l-.02.64,1.15-.3.05-.78c.02-.34.46-.46.44-.12l-.05.78,1.13-.32.09-.98c.03-.35.47-.44.43-.1l-.09.94,1.11-.34.14-1.19c.04-.35.47-.43.43-.08l-.14,1.13,1.08-.36.22-1.44c.05-.32.4-.4.43-.15l1.12-.45.04-.21c.06-.35.49-.39.43-.04.36-.08.71-.23,1.05-.38l.09-.45c.07-.35.5-.37.42-.02l-.05.26c.36-.17.7-.33,1.02-.49l.17-.69c.08-.35.5-.35.42,0l-.1.44c.36-.2.69-.4.97-.59l.24-.89c.09-.35.51-.33.41.02l-.13.49c.36-.29.6-.56.7-.8.07-.17.23-.35.35-.41l.13-.44c.1-.35.51-.31.41.04l-1.52,5.15c-.02.11-.05.21-.1.32l-.29.99s.04.1.02.18c-.04.23-.14.46-.28.69l-.17.56c.07.03.11.1.09.23-.06.32-.2.63-.43.94l-.09.31c.1,0,.19.07.16.24-.07.39-.26.78-.57,1.15.1.06.24.13.21.34-.07.46-.32.91-.71,1.35.14-.16.38-.13.34.14-.07.44-.28.87-.62,1.28.13-.07.28,0,.25.21-.06.44-.26.86-.58,1.27.12-.04.24.03.21.22-.06.44-.25.86-.54,1.26.11-.02.2.06.18.23-.06.42-.23.82-.48,1.2-1.67,1.73-7.15,3.01-13.66,3.01-7.58,0-13.87-1.72-14.21-3.88Z"/>
      <path class="cls-4" d="m4.57,21.33s.02.05.03.08c.04.21.13.41.28.58l-.24-.61-.07-.05Z"/>
      <path class="cls-5" d="m21.21,7.31c1.47,1.5,2.49,3.46,2.83,5.66"/>
      <path class="cls-5" d="m4.28,12.72c.57-3.31,2.72-6.06,5.61-7.45"/>
      <path class="cls-5" d="m30.2,5.26c1.01.88,1.78,2.05,2.2,3.39"/>
      <path class="cls-3" d="m12.89,4.4c-1.06.13-2.07.44-3,.88-.64.81-2.16,3.14-2.11,4.4.06,1.51.84,1.26,1.45-.36s1.39-3.49,1.75-2.77-.78,3.19.6,2.59.66-2.59,1.87-2.53.18,3.98,1.69,3.98c1.76,0,1.71-1.1,1.81-2.83.12-2.23,2.11-2.47,2.41-.6s.15,2.24,1.39,2.17c1.08-.06.49-1.36.66-2.11.6-2.59,4.69,3.64,5.06,1.45.72-4.34,4.04.78,4.64-.6s.07-1.95-.9-2.79c-.81-.7-1.75-1.27-2.81-1.53-1.69-2.12-4.15-3.48-6.98-3.48-3.09,0-5.82,1.62-7.41,4.08l-.1.06Z"/>
      <path class="cls-7" d="m12.89,4.4c-1.06.13-2.07.44-3,.88-.64.81-2.16,3.14-2.11,4.4.06,1.51.84,1.26,1.45-.36s1.39-3.49,1.75-2.77-.78,3.19.6,2.59.66-2.59,1.87-2.53.18,3.98,1.69,3.98c1.76,0,1.71-1.1,1.81-2.83.12-2.23,2.11-2.47,2.41-.6s.15,2.24,1.39,2.17c1.08-.06.49-1.36.66-2.11.6-2.59,4.69,3.64,5.06,1.45.72-4.34,4.04.78,4.64-.6s.07-1.95-.9-2.79c-.81-.7-1.75-1.27-2.81-1.53-1.69-2.12-4.15-3.48-6.98-3.48-3.09,0-5.82,1.62-7.41,4.08l-.1.06Z"/>
      <path class="cls-8" d="m14.47,4.32c2.25.08,4.31.91,5.95,2.27"/>
      <path class="cls-8" d="m20.78,5.76c1.22-1.29,2.9-2.12,4.78-2.17"/>
    </g>
  </g>
</svg>